<svg xmlns="http://www.w3.org/2000/svg" viewBox="0 0 382.4 205.21"><defs><style>.cls-1{fill:none;stroke:#000;stroke-miterlimit:10;stroke-width:0.5px;}</style></defs><title>Asset 3</title><g id="Layer_2" data-name="Layer 2"><g id="Pics"><path class="cls-1" d="M297.3,126.44c-.07-.17-.2-.31-.18-.42.18-.79.37-1.57.59-2.35a73,73,0,0,0-2.13-47c-5.73-15-15.23-27.27-27.19-37.74-18.53-16.22-40.19-26.43-63.84-32.6a188.7,188.7,0,0,0-54.62-6c-23.71.84-46.74,5-68.85,13.79-18.32,7.25-35,17.1-48.79,31.38A84.69,84.69,0,0,0,12.83,76.22C7.58,91,7.28,106,11.22,121.14c.42,1.62.09,2.4-1.37,3.09-2.39,1.14-4.72,2.4-7,3.72-3.17,1.82-3.47,4.6-.66,6.93a18.78,18.78,0,0,0,4.36,2.55c4.16,1.86,8.4,3.53,12.55,5.4A7.33,7.33,0,0,1,21.72,145c2.34,3,4.4,6.27,6.84,9.2,14.22,17,32.41,28.4,52.74,36.58a198.7,198.7,0,0,0,55.39,13.09,212.18,212.18,0,0,0,50.82-.88,166.3,166.3,0,0,0,55.34-17.85c17.23-9.23,32.19-21.1,43.41-37.32a5.82,5.82,0,0,1,2.07-1.89c4.62-2.27,9.28-4.45,13.94-6.62a14.39,14.39,0,0,1,9.69-.9q17.59,4.22,35.19,8.35c10.16,2.4,20.31,4.82,30.49,7.15,2.46.56,4.16-.29,4.45-2,.36-2.14-1.22-2.93-2.83-3.62-.27-.12-.57-.15-.85-.25q-29.77-10.05-59.55-20.09c-4.54-1.52-9.16-2.86-14-2.48C302.32,125.62,299.81,126.1,297.3,126.44Zm-8.91,41a13.11,13.11,0,1,0,13-13.1A13.22,13.22,0,0,0,288.39,167.41Z"/><path class="cls-1" d="M297.3,126.44c2.51-.35,5-.82,7.55-1,4.87-.38,9.49,1,14,2.48q29.79,10,59.55,20.09c.28.09.58.13.85.25,1.6.69,3.18,1.48,2.83,3.62-.29,1.75-2,2.6-4.45,2-10.17-2.33-20.33-4.75-30.49-7.15q-17.6-4.16-35.19-8.35a14.39,14.39,0,0,0-9.69.9c-4.67,2.17-9.33,4.35-13.94,6.62a5.82,5.82,0,0,0-2.07,1.89C275,164,260.09,175.89,242.86,185.12A166.3,166.3,0,0,1,187.52,203a212.18,212.18,0,0,1-50.82.88,198.7,198.7,0,0,1-55.39-13.09C61,182.58,42.79,171.19,28.57,154.18c-2.45-2.93-4.5-6.18-6.84-9.2a7.33,7.33,0,0,0-2.63-2.15c-4.15-1.87-8.39-3.55-12.55-5.4a18.78,18.78,0,0,1-4.36-2.55c-2.81-2.33-2.51-5.11.66-6.93,2.29-1.32,4.63-2.58,7-3.72,1.46-.7,1.79-1.47,1.37-3.09C7.28,106,7.58,91,12.83,76.22A84.69,84.69,0,0,1,32.3,45.55C46.1,31.27,62.77,21.42,81.09,14.17c22.11-8.75,45.14-13,68.85-13.79a188.7,188.7,0,0,1,54.62,6c23.65,6.17,45.3,16.38,63.84,32.6,12,10.47,21.46,22.78,27.19,37.74a73,73,0,0,1,2.13,47c-.22.78-.41,1.56-.59,2.35C297.1,126.13,297.23,126.28,297.3,126.44Zm-276-7L23,119c5.3-1.5,10.58-3.1,15.93-4.45a4.34,4.34,0,0,0,3.52-3.1A37.14,37.14,0,0,1,55,94.22c9.46-7.53,20-13.12,31.07-17.88a4.83,4.83,0,0,0,1.37-.68,2.07,2.07,0,0,0,.61-1.24c0-.16-.66-.51-1-.55a6.29,6.29,0,0,0-1.75.12c-3.55.62-7.07,1.47-10.65,1.84-4.74.49-9.52.65-14.29.83-.66,0-1.77-.52-1.91-1s.47-1.43,1-2a6.82,6.82,0,0,1,1.9-1.5c5.07-2.82,10-6,15.29-8.31,18.82-8.27,38.72-12.51,59.07-14.59a196.48,196.48,0,0,1,44,.37c17.72,2.17,34.82,6.49,50.8,14.64,7.76,4,15.08,8.59,21.12,15a6.32,6.32,0,0,1,.82,2.2,6.57,6.57,0,0,1-2.34-.54c-8.27-5.84-17.53-9.58-27-12.74a176.57,176.57,0,0,0-67.63-8.46c-10.77.68-21.34,2.39-31.48,6.19-5.77,2.16-11.16,5-15.34,9.67-5.7,6.42-5.5,14.57,1,19.87a24.12,24.12,0,0,0,9,4.34,110.4,110.4,0,0,0,50.93.81c14.82-3.1,29.58-6.49,44.42-9.52,9.69-2,19.46-2.1,28.36,2.78a12.48,12.48,0,0,0,9.79,1.12c.5-.12,1-.19,1.51-.32,5.62-1.44,11.34-2.61,16.19-6.09a3.77,3.77,0,0,1,1.4-.3c.06.76.43,1.67.14,2.26-2.9,6-6.14,11.76-11.44,16-1,.82-1.43,1.54-.89,2.78,1.64,3.75,2.81,7.78,4.95,11.21a20.53,20.53,0,0,0,16.21,10.15c.94.08,2.47-.33,2.84-1,3.73-6.88,6.91-14,7.53-21.94,1.3-16.71-5.24-30.36-16.36-42.27-9.41-10.08-21-16.92-33.24-22.87C215,29.94,187.47,24,158.68,23.63a236.3,236.3,0,0,0-46.28,4.23c-19.48,3.65-38.35,9.06-55.64,19.06-13.63,7.88-25,18.06-32.31,32.3-5.52,10.84-8.36,22.14-4.94,34.29C20.07,115.48,20.7,117.41,21.32,119.46Zm245,28.89c-3.6-1.6-6.93-2.81-10-4.5-6.55-3.64-12.81-7.81-19.44-11.27a73.23,73.23,0,0,0-32.15-8.47,156.33,156.33,0,0,0-53.47,7.48c-10,3.27-19.82,7-30.33,8.38-5.76.76-11.47,2-17.32,1.07a112.27,112.27,0,0,1-26.28-7.3c-3.8-1.58-7.47-3.69-11.41-4.64-11.92-2.85-23.68-.94-35.28,2.23a10.5,10.5,0,0,0-2,1.21c1.47.95,2.51,1.71,3.63,2.33a71.17,71.17,0,0,0,19,7c16.36,3.69,32.91,4.27,49.58,3a7,7,0,0,1,4.39,1.32,55.7,55.7,0,0,1,5.47,5.44c1.16,1.18.92,2-.71,2.17-2.91.36-5.83.8-8.76.94a226.76,226.76,0,0,1-44.88-2.14c-1.16-.17-2.32-.37-3.49-.53s-2.31-.3-4.07-.52c.9.77,1.26,1.14,1.67,1.42a141.22,141.22,0,0,0,29.19,15.41c24.47,9.48,50,12.93,76.06,13.38a205.1,205.1,0,0,0,70.83-11.5c12.37-4.26,24.1-9.8,34.64-17.65C262.94,151.25,264.61,149.75,266.31,148.34Z"/><path class="cls-1" d="M288.39,167.41a13.11,13.11,0,1,1,13.05,13.11A13.21,13.21,0,0,1,288.39,167.41Zm1.55,0a11.57,11.57,0,1,0,11.63-11.56A11.46,11.46,0,0,0,289.95,167.39Z"/><path class="cls-1" d="M21.32,119.46c-.62-2-1.25-4-1.8-5.94-3.42-12.16-.59-23.46,4.94-34.29C31.72,65,43.14,54.81,56.77,46.93c17.28-10,36.16-15.42,55.64-19.06a236.3,236.3,0,0,1,46.28-4.23C187.47,24,215,29.94,241,42.56c12.25,5.95,23.83,12.79,33.24,22.87C285.31,77.34,291.85,91,290.55,107.7c-.62,8-3.8,15.06-7.53,21.94-.36.67-1.9,1.08-2.84,1A20.53,20.53,0,0,1,264,120.49c-2.14-3.43-3.31-7.46-4.95-11.21-.54-1.23-.13-2,.89-2.78,5.3-4.25,8.54-10,11.44-16,.29-.59-.08-1.5-.14-2.26a3.77,3.77,0,0,0-1.4.3C265,92,259.25,93.19,253.63,94.63c-.5.13-1,.19-1.51.32a12.48,12.48,0,0,1-9.79-1.12c-8.9-4.89-18.67-4.76-28.36-2.78-14.84,3-29.6,6.42-44.42,9.52a110.4,110.4,0,0,1-50.93-.81,24.12,24.12,0,0,1-9-4.34c-6.5-5.3-6.71-13.46-1-19.87,4.18-4.7,9.58-7.51,15.34-9.67,10.14-3.8,20.71-5.5,31.48-6.19a176.57,176.57,0,0,1,67.63,8.46c9.5,3.17,18.77,6.9,27,12.74a6.57,6.57,0,0,0,2.34.54,6.32,6.32,0,0,0-.82-2.2c-6-6.39-13.36-11-21.12-15-16-8.15-33.08-12.47-50.8-14.64a196.48,196.48,0,0,0-44-.37c-20.35,2.09-40.25,6.32-59.07,14.59-5.29,2.33-10.22,5.49-15.29,8.31a6.82,6.82,0,0,0-1.9,1.5c-.48.57-1.11,1.46-1,2s1.25,1,1.91,1c4.77-.18,9.55-.34,14.29-.83,3.57-.37,7.1-1.22,10.65-1.84a6.29,6.29,0,0,1,1.75-.12c.38,0,1.05.39,1,.55a2.07,2.07,0,0,1-.61,1.24,4.83,4.83,0,0,1-1.37.68C75.06,81.1,64.49,86.69,55,94.22a37.14,37.14,0,0,0-12.56,17.22,4.34,4.34,0,0,1-3.52,3.1C33.62,115.9,28.34,117.49,23,119Z"/><path class="cls-1" d="M266.31,148.34c-1.7,1.4-3.37,2.91-5.17,4.25-10.54,7.85-22.27,13.39-34.64,17.65a205.1,205.1,0,0,1-70.83,11.5c-26-.45-51.59-3.89-76.06-13.38A141.22,141.22,0,0,1,50.43,153c-.41-.28-.77-.65-1.67-1.42,1.76.22,2.91.36,4.07.52s2.32.36,3.49.53a226.76,226.76,0,0,0,44.88,2.14c2.93-.15,5.85-.58,8.76-.94,1.63-.2,1.87-1,.71-2.17a55.7,55.7,0,0,0-5.47-5.44,7,7,0,0,0-4.39-1.32c-16.67,1.29-33.22.71-49.58-3a71.17,71.17,0,0,1-19-7c-1.12-.62-2.16-1.38-3.63-2.33a10.5,10.5,0,0,1,2-1.21c11.61-3.17,23.36-5.07,35.28-2.23,3.95.94,7.62,3.06,11.41,4.64a112.27,112.27,0,0,0,26.28,7.3c5.85.89,11.56-.31,17.32-1.07,10.51-1.38,20.35-5.11,30.33-8.38a156.33,156.33,0,0,1,53.47-7.48,73.23,73.23,0,0,1,32.15,8.47c6.64,3.46,12.9,7.63,19.44,11.27C259.38,145.54,262.71,146.74,266.31,148.34Z"/><path class="cls-1" d="M289.95,167.39A11.57,11.57,0,1,1,301.55,179,11.43,11.43,0,0,1,289.95,167.39ZM307.22,175l.49-.69-3.76-6.06c3.56-1.13,4.62-2.49,4.2-5-.35-2.11-2-3.1-5.1-3.12-1.62,0-3.24-.09-4.84.05-.55,0-1.5.66-1.51,1-.11,4.18-.09,8.37,0,12.56,0,.33.58.66.89,1,.29-.33.79-.62.84-1,.13-.86-.06-1.78.08-2.63.17-1,.28-2.64.9-2.92,1.46-.67,2.74.06,3.49,1.67a19.64,19.64,0,0,0,2.33,3.73A8.24,8.24,0,0,0,307.22,175Z"/><path class="cls-1" d="M307.22,175a8.24,8.24,0,0,1-2-1.4,19.64,19.64,0,0,1-2.33-3.73c-.75-1.61-2-2.35-3.49-1.67-.63.29-.73,1.89-.9,2.92-.14.86,0,1.77-.08,2.63-.05.36-.55.66-.84,1-.31-.33-.89-.65-.89-1-.06-4.19-.08-8.37,0-12.56,0-.37,1-1,1.51-1,1.6-.14,3.23-.06,4.84-.05,3.13,0,4.74,1,5.1,3.12.42,2.52-.64,3.89-4.2,5l3.76,6.06Zm-8.66-8.41a29.9,29.9,0,0,0,5.61-.1,3.59,3.59,0,0,0,2.17-2.23c.2-.67-.6-2.32-1.14-2.42a49.32,49.32,0,0,0-6.47-.33Z"/><path class="cls-1" d="M298.56,166.56l.17-5.08a49.32,49.32,0,0,1,6.47.33c.54.09,1.34,1.74,1.14,2.42a3.59,3.59,0,0,1-2.17,2.23A29.9,29.9,0,0,1,298.56,166.56Z"/></g></g></svg>