<svg xmlns="http://www.w3.org/2000/svg" viewBox="0 0 136.8 195.36"><defs><style>.cls-1{fill:none;stroke:#000;stroke-miterlimit:10;stroke-width:0.5px;}</style></defs><title>Asset 7</title><g id="Layer_2" data-name="Layer 2"><g id="Pics"><path class="cls-1" d="M39.31,186.57c-.2,1.83-.44,3.41-.53,5a3.46,3.46,0,0,1-2.09,3.33c-1.45.64-2.39-.19-3.28-1.14a30,30,0,0,1-2.29-2.44,3.72,3.72,0,0,1,.15-5.15c1.91-2.22,1.9-3-.2-5.24-2.44-2.59-5.09-5-7.31-7.77a42.84,42.84,0,0,1-7.36-13.24c-1.79-5.35-4.18-10.49-6.23-15.75C8,138.59,5.71,133.07,4.7,127.1c-.85-5-2.24-10-3-15A142,142,0,0,1,.34,97.52C.12,92.78.39,88,.27,83.28A62.61,62.61,0,0,1,3.16,64.36C4.47,59.75,5.55,55,7.37,50.62a118,118,0,0,1,7.29-14.28c6.24-10.67,15.52-18.4,25.76-24.86C47.47,7,54.91,3.05,63.27,1.4A51.68,51.68,0,0,1,70.61.34c3.55-.18,7.12,0,10.68,0A39.34,39.34,0,0,1,100,5.3a61.16,61.16,0,0,1,16.76,13A76,76,0,0,1,127.72,33,76.24,76.24,0,0,1,135,52.29c2.82,12.31.9,24.72,1.29,37.07.06,1.85-.9,3.75-1.44,5.61-1.36,4.67-2.47,9.43-4.2,14a119.8,119.8,0,0,1-6.22,13.24c-1.89,3.56-4.11,7-6.33,10.34a65.84,65.84,0,0,1-5.32,7.22c-5.17,5.92-10.2,12-15.85,17.46s-12.08,10.27-18.16,15.38C72.5,177.82,65.16,181.32,58,185c-5,2.53-10.56,2.91-16.13,2.51A11.43,11.43,0,0,1,39.31,186.57Z"/></g></g></svg>