<svg xmlns="http://www.w3.org/2000/svg" viewBox="0 0 213.16 343.48"><defs><style>.cls-1{fill:none;stroke:#000;stroke-miterlimit:10;stroke-width:0.5px;}</style></defs><title>Asset 23</title><g id="Layer_2" data-name="Layer 2"><g id="Pics"><path class="cls-1" d="M129.63,50.93a48.54,48.54,0,0,1-4.8-.92c-.53-.15-.87-.94-1.3-1.44.57-.22,1.31-.78,1.68-.6,2.85,1.38,5.17-.74,6.65-2,2.21-1.89,3.31-5.08,4.88-7.73.39-.65.7-1.35,1.14-2,1-1.36,2.12-2.59,2.94-4,1.79-3.17,3.83-6.16,4.66-9.88.69-3.08,2.38-5.92,3.51-8.91.79-2.1.21-2.9-2-3.35-2.42-.5-4.82-1.11-7.08-1.64-1.34.38-2.68,1.08-4,1.07-3.88,0-6.94,1.79-9.73,4.06-3,2.4-5.62,5.16-8.43,7.75-1.53,1.41-3.11,2.76-4.62,4.18-.23.21-.25.66-.32,1a8.93,8.93,0,0,1-.49,2.69c-3.56,6.28-5.21,13.16-6.42,20.17-.25,1.44.18,3,.21,4.49,0,2.67,0,5.34,0,7.83,1.52-1.86,2.76-3.57,4.21-5.09,2.06-2.18,4-.54,6.09.24s3.9,2.48,7,2a5.48,5.48,0,0,0,4.87-3.76C128.76,54,129,52.83,129.63,50.93ZM63.8,44.76c5.72-1,10.94-1.83,16.08-3,2.76-.63,4.37-.41,6.36,2.16,2.58,3.34,1.87,6.74,2.06,10.24A13.6,13.6,0,0,0,88.64,56c.58-.42,1.61-.8,1.65-1.26.11-1.32-.55-2.77-.26-4,1.37-5.89-1.39-10.92-3.49-15.92-1.2-2.84-4.57-4.63-4.77-8.21l-11.21-7.9c-.06,0-.16,0-.22,0a23.79,23.79,0,0,1-4.15-2.19c-2.8-2.25-5.29-4.9-8.18-7a39.89,39.89,0,0,0-8.09-4.61c-4.07-1.7-8.33-3-12.51-4.38-1.49-.5-2.31.27-2.23,1.66A5.08,5.08,0,0,0,36.26,4.5C39.59,9.16,43,13.73,46.32,18.43s6.33,9.31,9.44,14C58.53,36.62,61.25,40.86,63.8,44.76ZM83,70.43c5.36-1.28,10.47-2.47,15.55-3.78a1.93,1.93,0,0,0,1.12-1.49c-.05-.68-.6-1.8-1.08-1.88a28.11,28.11,0,0,0-4.73-.11c-1.61,0-3.21,0-4.81.13a9.07,9.07,0,0,0-1.71.42,31.26,31.26,0,0,1-3.05.79c-2.51.39-5,.69-7.55,1l-.11.7c.84.4,1.69,1.13,2.53,1.13C81.22,67.36,82.36,68.37,83,70.43Zm37.14-3c-6.19,2.35-10.73-.61-15.5-3.72.12,1,.27,2.38,1,2.76A58.85,58.85,0,0,0,114.81,71C118.64,72.28,118.92,71.91,120.1,67.45ZM107.64,335.91c.49.29,1.84.64,2,1.32a15.09,15.09,0,0,1,.11,4.13h8.91l-1.93-10a9.29,9.29,0,0,0,0,4c1,5.68,1,5.68-4.73,5.45a4.84,4.84,0,0,1-.89-.21l-1.41-8.33C109,333.82,110.35,336.41,107.64,335.91ZM114,63.43l.11,1h8.65c-.45-2-1.1-2.68-2.55-2.44C118.13,62.3,116.08,62.92,114,63.43Z"/><path class="cls-1" d="M.25,291.12c1.15-.46,3,.63,3.32-1.32,0-.32-2.15-1-3.32-1.44v-.46a16.72,16.72,0,0,0,3.14-.57c.63-.24,1.09-1,1.62-1.47l-.59-.9-4.17,1.1v-7.82c1.4,0,3,.27,2.76-2.3H.25v-.46a7.9,7.9,0,0,0,2.49-.08,3.86,3.86,0,0,0,1.68-1.56c.09-.15-.7-.87-.88-1.08L6,270.9c-.68-.38-.82-.52-.94-.51-1.74.21-4.66-1.28-3.9,2.64l-.9.16V270c5.51.16,6-.18,7.4-4.88l-2.07-.43c3-.44,3.34-.76,4-3.85.08-.37-.58-.89-.87-1.3,2.09-.6,3.37-3.16,2.49-4.47.74-1.42,1.89-2.63,1.92-3.88,0-1.78.93-1.3,1.91-1.44s2.15-.45,2.32-1c1.16-3.52,2.42-7.06,1.32-10.91-.36-1.26-.81-1.68-2.05-1.37-.87.22-1.77.31-2.66.45l-.14-.73,2.22-.64v-.3l-3.52-.47c-.5-2.54-2.82-1-4.25-1.89,2.22-.33,4.18-1.1,6-.79,4.57.79,8.94-.56,13.4-.78,2.38-.12,3.52-1.9,3.13-4.22-.14-.82-.22-1.66-.35-2.65H16.91c3.26-.49,6.52-.74,9.78-1.09,1.22-.13,2.48.4,2.95-1.94.43-2.16-.44-4.12.1-6.18.21-.81-.37-1.84-.73-3.32a4.38,4.38,0,0,0-1.2-1.06,3,3,0,0,0-2.07-.35,7.33,7.33,0,0,1-5.72-.13,53.1,53.1,0,0,1-4.73-2.79c1.25-2.65-1.71-3.24-2.21-5-2.35,3.49-4.39,7-6.45,10.41S2.38,220,.25,223.53m0-56.1,1.66-2.54c.16.47.51,1.39.8,2.33.17.55.24,1.13.35,1.7a10.7,10.7,0,0,0,1.05-1.5,5.93,5.93,0,0,0,.23-1.56,17.12,17.12,0,0,0,2.14,2.61,3.16,3.16,0,0,0,2.29.8c.49-.11,1.07-1.27,1.05-1.95-.08-4-.28-7.94-.53-11.91a93.22,93.22,0,0,1-.37-11.21l.94,11.32c.63,7.62,1.28,15.24,1.89,22.87.17,2.12,1.17,2.84,3.28,2.49a2.48,2.48,0,0,1,2.07,1c.36.62.08,1.62.08,2.54,2.45.24,3.18,2.43,4,5.43L22.92,186l.89,1.16c1.8-1.27.35-2.27-.34-3.14-1.14-1.43-2.38-2.72-.69-4.72l1.68,1.52c.66-1.85,1.74-3.44,1.71-5-.12-6.32-.59-12.63-.88-19a29.62,29.62,0,0,1,.2-3.23h3.08c-1.49.3-1.75,1-1.56,2.57.47,3.94.64,7.92.91,11.89.2,2.9.61,3.25,3.49,3.19s5.49,0,8.25,0c-3.14.22-6.28.38-9.41.71-.61.06-1.66.82-1.64,1.21a48.9,48.9,0,0,0,.81,7c.11.59,1.07,1,1.64,1.52a7.64,7.64,0,0,0,1.31-2,17.77,17.77,0,0,0,.08-2.74,4.86,4.86,0,0,1,4.51-4.68c2.78-.29,5.6-.56,8.25.8a4.65,4.65,0,0,0,1.45.09c-.33-.48-.5-.74-.69-1a2.6,2.6,0,0,1,1.29-4.33c2.21-.61,4.52-.81,6.72-1.44a3.29,3.29,0,0,0,2.11-1.8c2.08-10,4.74-19.79,5.46-30a58.54,58.54,0,0,1,2.55-12.56c1.48-4.92,5.67-6.61,10.33-7.52A53,53,0,0,0,80,112.81c1.23-.39,2.46-.76,3.71-1.06,3.15-.75,3.49-1.84,1.93-4.66-2.18-3.93-4.11-8-6.13-12-.87-1.73-.41-3.09.95-4.51,5.3-5.53,11.08-10.22,19.06-11a47.35,47.35,0,0,1,9.6-.17c4.74.51,9.09,4.82,10,9.56a10,10,0,0,1-.51,4,40,40,0,0,1-2.09,7c-1.27,2.77-.58,5.51-.43,8.26,0,.54,1,1.26,1.65,1.49,5,1.71,10.15,3,15,5.12,1.75.75,3.08,3.07,4,5,2.9,5.65,3.88,11.89,5,18.07a57.64,57.64,0,0,0,1.94,7.3c2.16,6.68,4.37,13.36,6.67,20a14,14,0,0,0,2.4,4.4c2.93,3.46,3.06,7.25,1.6,11.22a3.23,3.23,0,0,0,1,3.86,4.54,4.54,0,0,1,1.12,2.15c.44,2,.67,4.13,1.08,6.18.61,3,2.86,3.75,5.4,1.85a2.16,2.16,0,0,1,1.87-.23,50.35,50.35,0,0,1,5.61,3.22,3.48,3.48,0,0,1,.93,1.94,13.92,13.92,0,0,1,.14,2.46l.64-1c1.52,1.13,3.06,2.24,4.55,3.42a1.57,1.57,0,0,1,.4,1c.23,3.33,2.84,5.19,4.76,7.36,9.54,10.76,19.2,21.4,28.87,32a7,7,0,0,1,1.91,5.17c-.11,9.19-.07,18.37-.09,27.56,0,.52-.08,1-.13,1.64l-3.13.7,3.1,2.48v3.69l-3.5.42c.46,1.9,1,3.42,2.77,2.86l.81,4.54-4.29.38c.58,2.36,1.61,3.59,4.13,3-.79.74-3,.1-2.11,1.52l-5.73-.71,1.67,3.81a13.06,13.06,0,0,1-1.3-1.28c-1.71-2.24-2.87-2.5-5.75-1.21.84,2.72,1.19,3,3.71,2.94a32.5,32.5,0,0,0,3.34-.47l1.09,2c-1.85-1.87-3.87-1.05-6-.62,1.32,3.68,2.45,4.12,6.56,2.58l-.58-1.88,4.15,2.85.43-.43-2.37.57,3.23,5.93-.53.3c-.66-1.21-1.39-2.38-2-3.63-1.35-2.89-2.23-3.22-6.58-2.1l1.58,3.65c-1-1.32-2.45-2.49-2.91-4-1.24-4-3.89-4.47-7.34-3.65l4.52-1.16c-1.73-3.45-3.6-4.07-6.75-2.18l2.29,3.32c.87,3.25,1,3.36,6.25,3.74l-4.51.85,3.52,4c0,.76.08,1.6.13,2.43-1.84-2.44-4.13-2.29-6.61-1.2,1,3.79,2.07,4.23,6.54,2.7v-1.57c1.05,1.1,2.11,2.18,3.85,1.75l-1.72.89c1.8,4.22,3,4.7,6.91,2.94-1-3.55-1.15-3.63-5.26-3.79l3.35-1.16-3.8-3.81,1.54-.11h1.74c-1.27,1.3.4,4.63,2.38,4.57a10.37,10.37,0,0,1,2.49,0l-3.13.74,3.17,6.85c-1.94-2.43-3.18-2.73-6.59-1.59.84,4.05,1.91,4.61,6.82,3.44l-.29-1.92c1.19,1.9,1,2.48-1,2.79-.94.15-1.88.34-3.07.56l.83,2.25c-2-2.92-4.64-2.27-7.38-1.42,1.62,4.55,2.73,5.06,7.55,3.47l-.26-2.17c.77,1.31,1.37,2.87,3.45,2.72l-7.8,1c1.22,4.64,3.07,5.61,7.57,4L211,334l.22-.11,1.57,3.26c-1.22.12-2.16.2-3.09.32s-1.78.27-3,.46l1.26,3.27c-1.62-4.12-4.77-3.13-8-2.42l.54,2.49c-1.86-3.94-4.93-2-7.75-1.78l.34,2.18c-2.69-3-5.18-2.13-7.39-.85-2.19,0-4.11-.1-6,0-3.76.25-7.52.63-11.92,1,2.75-1.72,1.1-3.37.51-4.29-1.57-2.44-3.94-.34-6.32-.82l1.1,4.62-.25.08c-.88-1.41-1.46-3.44-2.73-4.07s-3.24.12-5.09.28l.66,4.16c-1-1.59-1.51-3.37-2.44-3.62-1.56-.43-3.39.09-5.17.22l.15,3c-1.38-4.64-4.69-2.43-7.49-2.31l-.1,2.23c-.86-3.8-3.66-1.85-5.63-1.85-.7,0-1.41.93-2.26,1.55-1.45-1.28-4.33-1.5-6.6-.11-.24.14-.48.48-.68.45-1.68-.27-3.36-.6-5.1-.92.24-.05.5-.12.75-.16,4.68-.67,4-.08,3-5-.52-2.73-1-5.47-1.54-8.2l.61-.13c.25,1.2.5,2.41.76,3.61.39,1.79.73,3.6,1.17,5.38,1,4,1,4,5.08,3.25.6-.11,1.61-1,1.53-1.32-.32-1.25.33-3.17-1.76-3.47-1-.14-2,0-3-.22l3.37-.78c.14-4,0-4.11-5.2-4.24l4.35-1.06c-.44-1.34-.87-2.57-1.24-3.81-.12-.39,0-.84-.11-1.25a60.53,60.53,0,0,0-1.57-7.3c-.2-.6-1.8-.75-3-1.21,3-.35,2.75-1.86,1.57-3.75a2.13,2.13,0,0,1-.27-1.27c.16-1.45.21-2.81-1.68-3.11-2.33-.37-2.77,1.24-3.34,3.26l3.22.27v.29c-.49.06-1,.16-1.46.18-1.27.06-1.48.71-1.24,1.85.69,3.35,1.29,6.72,1.92,10.09l-.88.17c-.6-2.92-1.28-5.82-1.76-8.75-.27-1.65-.74-2.77-2.61-3.19s-1.72-1.84-.58-3.34l-.77-.3a8.06,8.06,0,0,0-1.4,1.69,6.78,6.78,0,0,0,.95,6.41l.31-2.18.64.18-1.88,5.68-4.66-3,3.34-.58c.16-3.75-.73-4.25-5.54-2.84l1.51,13.4-.54.11a13,13,0,0,1-.43-2.42c0-1.78-.75-2.51-2.52-2.31-1.12.13-2.25.13-3.27.19-.17.34-.3.48-.29.61.43,4.13.83,8.27,1.37,12.38.1.74.84,1.38,1.3,2.1-2.85.62.09,3.42-1.45,5.4-.38-2.94-.83-5.37-4.58-4.65-2.86.55-1.87,2.63-2.2,4.35-.34-.21-.62-.28-.66-.43-.31-1.06-.35-2.89-.91-3.07-1.29-.41-2.83,0-4.27.06a7.1,7.1,0,0,0-1.19.3l-.33,3.08-.54.07-.62-3.08c-4.63-.43-5.46,0-6.53,3.39a12.92,12.92,0,0,1-.6-1.27,7.9,7.9,0,0,1-.22-1.07c-3.8-.62-5.21-.55-6.5,2.39-.6-1.89-1.72-2.62-3.51-2-1.31.44-2.63.81-4.31,1.33-1.44-1.76-3.68-.53-5.85-.22a23.27,23.27,0,0,1-2.73.14c-.45,0-.89-.1-1.34-.09M192,264l-4.36-.71-.3.7,1.5,1.75c1.28,2.68,1.88,2.91,4.8,1.84-.8-1.78-.8-1.74-2.42-1.66a23.7,23.7,0,0,1-2.44-.11,6.79,6.79,0,0,0,1.91-.47,6.14,6.14,0,0,0,1.25-1.39c2.62,1.5,3.45,1.34,4-1.45Zm-9.35,21.39c-.14-3.06-1.42-3.61-4.84-2.07.12,1.41.9,1.92,2.28,1.84a19.57,19.57,0,0,1,2.59.19l-3,.89c.78,2.47,1.93,2.81,5.64.65C184.4,286.38,183.5,285.89,182.61,285.38Zm12.57-.75c2.44,2.83,3.32,3.06,6,1.59-1.14-2.51-2.18-2.77-6-1.52h-5c1.1,3.06,2,3.33,5.4,2.08ZM143.11,282l.61-2.87-2.36,1.12-2.3-5.31a4.06,4.06,0,0,0-.14,2.32,6.9,6.9,0,0,0,4.24,4.7c-1.13,2.6-.21,4.87,1.46,6.75.62.69,2.09.62,3.48,1l-.35-2.94-2.48,1.78c-.51-2.25-.9-4.1-1.37-5.93C143.84,282.38,143.38,282.23,143.11,282ZM132.2,219.51c.31.27.77.84.91.77,1.06-.52,1.44-3.75.41-5.33l-1.36,4.65c.43-4.22.38-4.26-3.23-3-.1,0-.15.24-.25.41a10.65,10.65,0,0,0,.56,2.14c.31.63.79,1.44,1.36,1.59C131,220.81,131.66,219.95,132.2,219.51Zm58,76.38,4.27-1.19c-1.18-3-2.47-3.4-5.89-2l1.64,3.18c2.34,3.49,3.27,3.85,6.38,2.43-.38-2.07-1.59-2.95-3.69-2.65C192,295.8,191.08,295.83,190.2,295.89Zm8.21-6.2c-2.33-2.15-3.47-2.34-6.3-.76l2.46,2.28a8.26,8.26,0,0,0,.59,2.5c1.49,2.23,3.38.59,5.49.52-.64-1-1.16-1.76-1.56-2.55a17.14,17.14,0,0,1-.75-2.06c1.75,1.28,3.51.64,5.36.19-1.56-2.87-1.72-2.92-5.76-2Zm7.38,2.42c1.46,2,3.23,2.19,5.29,1-.65-2.65-.82-2.79-3.72-3l1.94-.69c-.8-1.26-1.49-2.33-2.17-3.41-1.76-2.83-2-2.91-5.34-1.69-.22,2.87,2.06,2.07,4.07,2.37l-2.45.62,2.44,4.9c-1.64-2.42-3.67-1-5.69-.78,1.37,3.1,1.46,3.14,5.82,2.26ZM136.31,162.45c.77,2.4,3.27,1.49,4.82,2.43.39.24,1.25-.4,1.92-.5a5.45,5.45,0,0,1,1.42.15,4.48,4.48,0,0,0-.21-1.64c-1.17-2-.45-4.72-2.28-6.57-.23-.24.45-1.22.43-1.85,0-1.19,0-3.25-.49-3.4-1.74-.55-2-2-2.67-3.16-.39-.67-1.05-1.53-1.7-1.64a10.91,10.91,0,0,0-3.15.34c.32.51.82,1.26,1.26,2,.3.54.83,1.56.72,1.64-1.83,1.38-.21,2.78,0,4.19l.43-1.84c3.4,2.5,4.88,5.67,4.94,10.16-2.13-2.48-3.77-1-5.45-.26-.77-1-1.92-1.82-2.26-2.91-1.63-5.33-3-10.73-4.54-16.11-.12-.43-.3-.85-.45-1.27h-.62c-1.21,5-2.39,9.92-3.63,14.87a20.79,20.79,0,0,1-1.6,5.16c-1,1.85-.53,2.72,1.07,3.58l1.35-1.94,2.36,1.12a8,8,0,0,0,.59-.94c.69-1.64,1.43-2.64,3-.64.27.35,1.26.37,1.84.22A22.69,22.69,0,0,0,136.31,162.45Zm-23.58,13.78c.35,1.68-1.15,4.16,2,3.92,1.35-1.26,0-4.18,2.93-4.32.74,1.42-.53,3.74,2,4.1,1.61-1,0-4.35,3-4.29,1.07,1.25-.35,3.93,2.46,4,1.51-4.31,1.51-4.31,2.83-4.42a6.88,6.88,0,0,0,.24,2.22,9.59,9.59,0,0,0,1.6,1.94,19.82,19.82,0,0,0,1-1.79c.5-1.13.92-2.29,1.53-3.83,1.45,2.06-.71,5.09,2.87,5.37L136.5,174c1.5,1.59-.37,4.26,2.33,4.81,2.31-5.44,1.47-9-2.46-10.24l-.85,1.93-2.81-1.87-1.31,2.24-3.62-2.37-1,3.22-4.34-4.08-.72,4.47c-1.19-1.13-1.93-1.79-2.61-2.51s-1.11-1.28-1.88-2.19l-.6,5.54-3.9-4.82-.83,3.94-.69.22c-.69-1-1.35-2-2.1-2.92a7,7,0,0,0-1.28-1c-.18.45-.39.89-.54,1.35-.37,1.13-.71,2.27-1.07,3.41l-1,0-1.69-5.15-3.24,5-2.63-5.47c-1.5,1.67.7,5.19-3.21,5.31l-1.89-5.42a14.61,14.61,0,0,0-1,2.29c-.16.73,0,1.53-.18,2.27a5.48,5.48,0,0,1-.78,1.4,5.84,5.84,0,0,1-1.51-1,31,31,0,0,1-1.77-2.9c-1.45,3.32-.49,10.69,1.4,11.59,2.23-4.36,2.23-4.36,3.11-4.24.68,1.33-.68,3.75,2.07,4.05,1.3-1.39-.37-4.75,3.27-4.38.24,1.5-.7,3.66,2.09,4.26l.94-4.15.7-.31,2.72,4.24.64-.15,1-3.73h2c-.27,1.89.07,3.38,2.48,3.83l1-4.13Zm-41,6.56.65-4.85.69.06c.82,1.33-.34,3.67,2,4.3,1.5-1.47-.72-4.32,2.09-5.26.87,1.61-.19,4,2.27,4.61,1.63-1.32-.39-4.41,2.47-5,1.38,1.33-.51,4,2.4,4.75l1.43-6.83-3.17-5.24-1.77,4.81-3.58-4.05-1.13,4.82-3.78-4.54-.49.18v4.2c-.7-.53-1-.81-1.4-1.06-.57-.39-1.15-.76-1.73-1.14a10.93,10.93,0,0,0-.33,2.29c0,.66.23,1.68.67,1.88C71.49,177.85,71.2,180.23,71.74,182.79Zm43.61,33.74a20.16,20.16,0,0,1-.91,2.93,6.64,6.64,0,0,1-1.37,1.47l-.93-1.64-1.29-2.35-.68.23-1.51,3.49-3.13-3.3c-1.38,1.95-2.15,3.59-1.14,5.58.55,1.08,1,2.2,1.53,3.3l-.54.37a5.89,5.89,0,0,1,1.39.65c2.52,2.12,2.93,2,5-.24a22.57,22.57,0,0,1,3.72-2.68l.2.37,1.78-2.31C116.21,220.94,118.89,217.81,115.35,216.53Zm27.5,110.62c-.42-4.56-1.82-5.26-6.45-3.3.45,1.58,1,3.15,1.34,4.78.87,4.56.83,4.57,5.4,3.85a11.24,11.24,0,0,0,1.26-.34c-.37-3.87-.5-4-4.72-4.47ZM31,215l.63,8.14,3.38-1.8,0-.82a9.76,9.76,0,0,0,2.4,1.85c1,.37,2.32.4,2.35-1.46L38,220.74l1.72-1.08c-3.53-.76-4.26-3.35-5-5.85Zm43.36-61.19-.51.1c-1.51,4.6-3,9.19-4.51,13.8-.12.38.14.89.23,1.35a4.46,4.46,0,0,0,1.32-.64,16.91,16.91,0,0,0,1.45-1.88l2.2,1.46.77-.25ZM134,317.55c-.83-1.3-1.26-2.86-2.13-3.17-3-1-4.54.63-3.78,3.68.32,1.26.54,2.55.95,3.78.16.48.71,1.17,1.09,1.17,1.55,0,3.1-.2,5-.35L134,319h-3.54v-.62Zm6.38-27c1.22,1.22,2.71,2,2.87,3a4.39,4.39,0,0,0,2.17,3.18c1.15.82,2,2.08,3.06,3,1.35,1.14,2.83,2.12,4.69,3.5-.26-2.7-.33-4.43-2.58-5.6-1.77-.92-3-2.83-4.53-4.29-.27-.27-.6-.47-.86-.75-.74-.79-1.45-1.59-2.18-2.39l.32-.6Zm50.75,8.63c-.79-1.5-1.4-2.78-2.11-4-1.8-3.1-2.7-3.35-6.17-1.71,1,1.87,1.89,3.77,3,5.59a1.91,1.91,0,0,0,1.49.68A37.31,37.31,0,0,0,191.18,299.17Zm-90.06,15.25c.82,6,2,7,6.14,5.4l-.6-3.2-3.46-.25a3.73,3.73,0,0,1,1.75-.66c.56-.08,1.12-.08,2.33-.15-.87-1.33-1.28-2.62-2.15-3.12-1.53-.88-1.91.87-2.69,1.69C102.21,314.39,101.65,314.32,101.12,314.43ZM36.8,224.72l2.54-.17a20.87,20.87,0,0,0-5.92-.35A2,2,0,0,0,32,225.56,35,35,0,0,0,32,230l5.57-.48Zm139,111.41c.91,1.4,1.53,3.47,2.74,3.92,1.49.55,3.48-.25,5.28-.47C182.6,334.64,180.86,333.85,175.79,336.13Zm-29.54-2.82c.5,4.73,1.84,5.4,6.91,3.45C152.59,332.11,150.78,331.2,146.25,333.31ZM57.83,179.91c.56-2.14,1.63-3,3.63-2.82,1.37-3.07,2.58.25,4.46.15-.47-1.12-.58-2.3-1.22-2.77-1.78-1.29-6.67-.79-8.24.7-.38.36-.78,1.2-.62,1.56A26,26,0,0,0,57.83,179.91ZM197.66,337.74c-1.06-4.62-2.75-5.4-7.49-3.44C191.72,339,192.56,339.41,197.66,337.74Zm-58.75.51c-.51-4.67-.53-4.69-4.77-4.42-.08,0-.18,0-.23,0-.6.46-1.76,1.14-1.68,1.36.48,1.3-.54,3.64,2,3.63A38.72,38.72,0,0,0,138.91,338.25Zm7-.68c-.2-4.74-2-5.66-6.61-3.57C140.06,339,139.42,338.61,145.87,337.57Zm23.31-1c1.21,5.2.92,5.18,7.3,3.61C175.26,335.43,174.75,335.17,169.19,336.52Zm28-3.11c1.31,4.8,3.25,5.66,7.57,3.48C202.76,331.91,203.43,332.32,197.16,333.41Zm-13.92,1.53c1.65,5.31,1.09,4.87,7.35,3.69C189.33,333.77,189,333.78,183.24,334.93Zm-83.82-3.35c-1.29.51-3.59-.58-3.48,2.34.07,1.9.48,3.24,2.7,2.65,1.35-.36,3.76.77,3.59-2.16C102.13,332.69,101.91,331.06,99.42,331.59Zm67.67-.49c.78,4.7,2.73,5.61,7.17,3.5C173,329.71,173.15,330.2,167.09,331.1Zm0,4.41c-.59-5-1.29-5-6.91-3.58C160.7,336.32,161.73,336.85,167.1,335.5Zm-7,.39c-1-4.58-2.28-5.18-6.88-3.31C153.92,337.22,155.39,337.95,160.1,335.89Zm13.89-5.4c1,4.52,2.18,5.07,7.23,3.37C180.21,329.41,179.8,329.21,174,330.49Zm-36.46,2.21c-.11-.6-.18-1-.25-1.34a3.83,3.83,0,0,0-6-2.21,1.52,1.52,0,0,0-.52.94,2.78,2.78,0,0,0,3.44,3.3C135.22,333.21,136.26,333,137.53,332.7Zm50.13-3.86c1.42,4.7,2.06,5,7.35,3.56C193.75,328,192.9,327.54,187.67,328.84Zm-6.64,1c1.55,4.69.89,4.59,7.13,3.14C186.63,328.37,186.8,328.21,181,329.87Zm13.55-1.74c1,4.65,3,5.51,7.31,3.33C200.37,327.21,200.37,327.21,194.58,328.13Zm-43.05,3.6c-1.15-4.81-.72-4.52-5.21-4.08-.54.05-1.51,1-1.43,1.23.32,1.15.78,2.94,1.54,3.13C147.94,332.41,149.68,331.9,151.53,331.74Zm.26-4.4c.13,4.64,1,5.06,6.49,3.33C157.23,326,157.41,326.31,151.78,327.33Zm-15.42.34c-.24-1-.37-1.61-.56-2.26-.59-2-2.41-2.6-5.24-1.55-1.94.72-.61,2.14-.33,3a2.75,2.75,0,0,0,2.09,1.38A19,19,0,0,0,136.36,327.67Zm-38.08,3.53c3.15-.1,3.45-.27,3.4-1.77-.07-2.36-.69-2.95-3.26-2.81-1.37.07-3.06-.16-2.89,2.17C95.68,330.73,96.58,331.52,98.28,331.19Zm107.59-5.37c-1.32-4.23-2.72-4.82-7.21-3.05C200,326.93,200,327.31,205.87,325.82Zm-33.82-.23c.83,4.17,2.81,5,6.82,2.81C177.64,324.25,176.47,323.77,172.06,325.59ZM165.16,330c-1-4.32-2.27-4.87-6.66-3.05C159.09,331.25,160.17,331.77,165.16,330Zm34.05-3.43c-1.67-4.38-2.8-4.86-7.22-3.21C193.16,327.5,194,327.88,199.21,326.57Zm-107.08,6c-3.12.12-3.25.27-3.16,2.66.1,2.8,2,1.41,3.31,1.5a2.3,2.3,0,0,0,1.33-.12c.52-.36,1.18-.91,1.25-1.45C95.19,332.74,94.81,332.44,92.13,332.54ZM185.28,324c1.34,4.31,3,5,7.07,2.87C190.94,322.8,190.24,322.51,185.28,324Zm-97.7,3.58a31.74,31.74,0,0,0-4.71.54c-.5.13-1,1.12-1.09,1.74a4.06,4.06,0,0,0,.63,2.29c1.56-.06,3.32-.07,4.58-.82C87.64,330.94,87.39,329.06,87.58,327.57Zm62.21-1.33c-.53-4.22-2.11-4.93-6.32-3C143.81,327.33,143.81,327.33,149.79,326.25Zm22.15,3.13c-1-4.4-2-4.84-6.72-3.2C166.55,330.84,165.4,330.39,171.94,329.37ZM94.07,327c-1.31.08-2.5.18-3.69.23-1.93.09-1.74,1.45-1.73,2.76,0,1.59,1.09,1.55,2.2,1.53C94.42,331.51,94.77,331.07,94.07,327Zm69.13-2.16c-.77-4.34-1.58-4.72-6.38-3C157.21,325.85,158,326.24,163.21,324.87Zm22.62,3c-1.58-4.27-2.8-4.77-7-2.92C179.85,329.1,180.67,329.46,185.83,327.87ZM88.11,337c-.55-1.55-.77-3.52-1.39-3.66a7.47,7.47,0,0,0-4.56.61c-.54.26-.31,2.13-.47,3.58Zm75.27-15.67c1,4.13,1.4,4.32,6.5,3C169.36,320.63,168.71,319.59,163.38,321.34Zm6.52-.59c.84,4,2.56,4.73,6.72,2.79C175.59,319.7,173.86,319,169.9,320.74Zm26.6.84c-1.17-4-2.39-4.52-6.85-2.95C190.6,322.52,191.54,322.92,196.49,321.59Zm-40,3.88c-.83-3.81-2.76-4.64-6.44-2.89C150.86,326.83,151.7,327.22,156.48,325.47Zm20-5.56c1.09,4.18,1.57,4.39,6.7,3.09C182.66,319.1,181.78,318.68,176.51,319.91ZM190,322.14c-1.37-4-2.51-4.42-6.72-2.7C184.34,323.34,185.49,323.82,190,322.14ZM77.8,337.92c1.53.35,2.7-.29,2.65-2.62,0-1.39-.71-1.77-1.88-1.54-1.59.31-3.93-.61-3.84,2.49C74.79,338.26,76.09,337.89,77.8,337.92Zm90.18-22c1,4.17,2.23,4.7,6.58,3C173.83,315.05,173.15,314.74,168,315.89Zm-26.59,6.27c-.31-3.88-.49-4.08-3.73-3.84-1,.07-2.56-.41-2.26,1.6.23,1.54.59,2.89,2.68,2.51A31.94,31.94,0,0,1,141.39,322.16Zm33.21-6.84c1.16,4.43.81,3.88,6.57,3C180,314.29,179.61,314.1,174.6,315.32Zm21.53,2.43c1.13,4.12,2.87,4.83,6.7,2.88C201.72,316.94,201,316.6,196.13,317.76Zm-41.41,3c-.49-4-1.9-4.63-6.12-2.89C149.2,321.84,149.24,321.86,154.73,320.77Zm-6.53.23c-.85-3.32-1.94-3.92-5.07-3-2.06.59-.95,1.94-.63,2.92C143,322.28,145.72,322.3,148.2,321Zm7-3.8c.47,3.77,2,4.47,6.18,2.82C160.54,316.11,159.95,315.84,155.15,317.19Zm-56,4.51c-3.45,0-4,.21-3.91,1.84.09,1-.1,2.79,1.61,2.28,1.37-.41,3.82,1.22,4.06-1.77C101,322.69,100.73,321.59,99.13,321.7ZM194,317c-1.37-4.12-2.16-4.45-6.68-3C188.69,318.45,188.22,317.7,194,317Zm-100,9c0-3.71-.19-3.77-4-3.59-2.27.11-1.85,1.84-1.45,2.74C89.89,328,92.08,325.77,94,326.05Zm97.7-13.71c-1.57-3.67-2.64-4.1-6.57-2.74C186,313.43,186.55,313.68,191.72,312.34Zm-51.1,1.24c.47,4.17,1.59,4.66,6,2.82C146,312.79,145.72,312.66,140.62,313.58ZM181,314.79c1.3,3.77,3.07,4.39,6.59,2.45C186,313.57,185.45,313.36,181,314.79Zm16.87-3.19c-1.31-4-1.36-3.79-6.54-2.61C192.47,312.93,193.4,313.31,197.83,311.6Zm-126,17.6c-.61,0-1.51.12-2.41.14-1.76,0-1.75,1.31-1.85,2.56s.73,1.65,1.71,1.4a29.28,29.28,0,0,0,3.89-1.44,4.32,4.32,0,0,0-.33-1C72.56,330.39,72.25,329.92,71.82,329.2Zm100.52-14.7c-.36-3.42-.79-3.86-3.79-3.45-.76.11-2.05.93-2,1.34.09,1.3.39,2.84,2.46,2.42A30.16,30.16,0,0,1,172.34,314.5ZM185.4,313c-1.45-3.78-2.8-4.24-6.51-2.38C180,314.11,181,314.49,185.4,313Zm-129-143.64c-1.64,1.71-4-1.87-5.86,1.47,1,.46,1.93,1.36,2.74,1.23,1.71-.27,3.76-.68,4.83-1.82a1.82,1.82,0,0,1,1.8-.81,4.36,4.36,0,0,0,1.36-.37l.11-.75c-1-.29-2.1-.9-3.08-.77C57.61,167.63,57,168.71,56.41,169.35ZM161.9,316l-.53.85c.68,1,1.16,2.65,2.09,3s2.58-.28,3.78-.77c.21-.09,0-2.24-.28-2.32A36.23,36.23,0,0,0,161.9,316Zm-63.64,4.94c.81,0,2.53.13,2.07-2.16A4.35,4.35,0,0,0,99.07,317c-1.3.81-3.94-.85-4.08,2.08C94.89,321.08,96.25,321.05,98.26,320.94Zm36-6.41c.28,3.69,1.13,4.05,5.77,2.44C139.35,313.47,137.86,312.85,134.23,314.52Zm36.52-8c.5,3.82,1.52,4.28,6.1,2.77C176,305.56,175.94,305.53,170.75,306.53ZM189,304.91c1.41,3.57,2.79,4,6.45,2.21C194,303.61,193.46,303.41,189,304.91Zm-16.55,6c1.06,3.74,2.46,4.28,6.31,2.54C177.88,310.07,176.81,309.61,172.45,310.93Zm-92.37,13c-5.42.32-5.62.46-4.93,3.77l4.93-.51ZM177,306.2c1,3.59,2.1,4,6.08,2.3C182,304.93,181.49,304.71,177,306.2Zm6-.63c1.07,3.38,2.79,4,6.23,2.3C188,304.41,187.11,304.09,183,305.56Zm10-2.33c-1.14-3.63-2-4-6-2.41C187.78,304.21,188.13,304.36,193.09,303.23Zm-65.67,10.72,4.87-.8c-.48-3.51-2.1-4.14-5.61-2.41ZM59.6,166.31l4.88,3.41,2.64-3.78c-.61-.32-1.49-1.18-2.25-1.08A35.21,35.21,0,0,0,59.6,166.31ZM181.14,304.44c-1.31-3.55-2.69-4-6.22-2.27C176,305.54,176.44,305.69,181.14,304.44Zm-42.43,8.18c-.15-3.07-.6-3.66-5.74-2.66l.78,3.13Zm30.15-10.1c1,3.65,1.75,3.94,5.87,2.39C174,301.57,173.69,301.46,168.86,302.52Zm12.06-1.11c1.15,3.51,2,3.83,6.07,2.3C186,300.32,185.46,300.09,180.92,301.41ZM59.69,339.09a26,26,0,0,0,4.72-.08,2.3,2.3,0,0,0,1.37-1.78,2.45,2.45,0,0,0-1.5-1.68C61.37,334.63,61.59,337.68,59.69,339.09Zm85.34-27c-.49-3.08-1.88-3.69-5.52-2.55C139.82,312.91,139.82,312.91,145,312.06Zm33.85-14.62c1.22,3.24,2.22,3.6,5.85,2.2C184,296.29,183.67,296.15,178.88,297.44Zm-108.45,37c-.63,1-1.44,1.69-1.59,2.54-.28,1.59,3,2.56,4,1.07.6-.89.34-2.34.48-3.61Zm102.41-33.47c-.72-3.24-1.82-3.69-5.7-2.35C168.09,302,168.61,302.25,172.84,300.93Zm5.94-.69c-.73-3.19-1.86-3.61-5.65-2.09C174,301.45,174.79,301.75,178.78,300.24ZM202.61,298c-1.27-3.25-2.12-3.56-6-2.25C197.88,298.85,198.57,299.12,202.61,298ZM67.38,328a21.5,21.5,0,0,1,3-.22c2.72.28,3.22-.29,2.61-3.14L72.17,327c-.56-1.93-1.52-3.33-3.41-2.49C68,324.83,67.89,326.63,67.38,328Zm141.07-30.53c-1.32-3.43-2-3.67-5.92-2.3C203.8,298.33,204.67,298.68,208.45,297.51Zm-25.64-1.75c-.84-3.11-2.11-3.55-5.5-1.89C178.32,296.84,178.93,297,182.81,295.76Zm-102.49,33c-3.15-.37-3.69-.12-4,1.88l2.81-1.34c-1.22,1-1.57,4.18-4.14,1.82.22,2,1,2.14,5.54,1Zm91.13-34.46c.73,3.21,1.75,3.56,5.38,2.05C176.12,293.37,175.56,293.15,171.46,294.27ZM126,306.46c.47,3.21,1,3.41,5.25,2-.23-.76-.4-2.16-.72-2.2A27.56,27.56,0,0,0,126,306.46Zm39.63-11.7c.7,3.14,1.38,3.39,5.28,2.09C170.28,294,169.74,293.82,165.62,294.76Zm-29.09,10.66c-.71,0-1.45-.22-1.89,0a16.41,16.41,0,0,0-2.26,2,9.57,9.57,0,0,0,2.41,1,12.46,12.46,0,0,0,2.95-.32Zm16.37,10.78.2-.7c-1.29-.65-2-2.11-4-1.89-.56.06-1.58-1.11-1.74.19a3.06,3.06,0,0,0,1.39,2.6C150,316.73,151.51,316.3,152.91,316.19Zm-149-37.94c1.82-.47,4-.51,4.21-1.2.6-1.76-1.44-.72-2.14-1.28-.1-.08-.14-.24-.31-.53l4.14-1.48C5.92,272.77,5.92,272.77,3.87,278.26ZM119.7,219.32l-1.14-1,1.27,4c2.36-.5,2.45-2.14,2.35-3.65a6.1,6.1,0,0,0-.9-2.13Zm67.1,69.75c1.06,2.78,2.65,3.22,5.45,1.62C190.92,288,190.39,287.88,186.8,289.07Zm-5.58.51c.88,2.83,2.26,3.24,5.36,1.72C185.4,288.51,185.4,288.51,181.23,289.58ZM61.28,331l-.88,0a7,7,0,0,0,1.46,2c.42.28,1.3-.12,2-.25.26-.05.5-.22.76-.28.48-.12,1.16,0,1.39-.34a1.38,1.38,0,0,0-.09-1.37,2.24,2.24,0,0,0-1.6-.64A19.7,19.7,0,0,0,61.28,331Zm108.45-40.42c.75,2.8,2.19,3.23,5.24,1.73C174,290,173.48,289.78,169.73,290.62Zm-.62,2.66c-.72-2.57-1.74-3.18-4-2.38-.42.15-1,1.08-.84,1.41C165.43,295.15,167.42,293,169.11,293.28Zm-43.92-77.89a40.17,40.17,0,0,0-.73,5c0,.34,1.32,1.17,1.67,1C127.65,220.66,127.39,216.79,125.19,215.39Zm-35.37,2.79a50.94,50.94,0,0,0,.09,5.19c0,.25,1.49.73,1.77.49C93.08,222.68,92.33,219.26,89.83,218.18Zm91,73.81c-1-2.6-1.85-2.87-5.21-1.75C176.28,292.7,177.27,293.05,180.79,292ZM100,217.76a34.71,34.71,0,0,0-.54,4.71c0,1.24.94,1.54,1.93.8C102.76,222.21,102.12,218.79,100,217.76Zm-5,.12a40.74,40.74,0,0,0-.46,4.86c0,.31,1.38,1,1.69.82C97.66,222.66,97.1,218.89,95,217.87Zm-9.51.8a38.49,38.49,0,0,0-.28,5c.08,1,.91,1.42,1.79.56C88.13,223.14,87.53,219.8,85.48,218.68ZM165.06,312a27.94,27.94,0,0,0-3.16,1.42c-.42.25-.61.89-.9,1.36.44.2.89.57,1.33.56,1.24,0,2.47-.25,4-.43Zm25.2-24.57c-1.22-2.58-2.48-2.92-5.31-1.56C185.92,288.22,186.57,288.43,190.26,287.45Zm-44.45-114.6-1,.29a11.44,11.44,0,0,0-.35,3.18c0,.3,1.51.56,2.31.5.48,0,1.35-1,1.32-1.05C147.38,174.75,146.58,173.81,145.81,172.85Zm-2.27-5.21c.49,2.75,2.32,3,4,3,.86,0,1.73-.7,2.59-1.09l-.31-.52Zm44.68,116.42c-1.29-2.4-2.47-2.71-5.22-1.53C184.06,284.9,184.72,285.11,188.23,284.06ZM174,286.79c.45,2.65.58,2.7,4.74,1.76C178.08,286,178.08,286,174,286.79Zm-3.58,23.32.58-.76-2.53-2.64L166,310.44Zm-2.1-22.6c.82,2.47,1,2.53,4.81,1.43C172.26,286.78,171.41,286.51,168.3,287.51ZM188.45,282c1.14,2.5,1.79,2.66,5.1,1.42C192.55,281,191.82,280.74,188.45,282Zm5.32-.86c1.29,2.92,1.54,3,5.23,1.81C198.11,280,195.84,281.3,193.77,281.15ZM207.3,279c-1.21-2.35-2.47-2.67-4.95-1.37C203.59,280,204,280.09,207.3,279Zm-26.58,2.59c-1-2.59-2.61-2.93-4.89-1.14C177,282.85,179,281.51,180.73,281.56Zm7.49-22.11c-.81-.73-1.8-1.19-2-1.88-.49-1.74-.34-1.78-2.09-.9C184.61,258.63,184.28,261.68,188.21,259.44ZM81.52,219.28c-.12,1.81-.29,3.28-.24,4.75,0,.29,1.08.91,1.33.77C84,224,83.53,220.34,81.52,219.28ZM191.3,280.21c-1-2.17-1.94-2.35-4.6-1.09C187.61,281.26,188.57,281.51,191.3,280.21Zm13.21.19c1.29,2.73,2,2.93,5,1.65C208.52,279.62,206.63,280.05,204.5,280.4Zm-.08,2.36c-1.31-2.51-2.42-2.81-5.07-1.47C200.34,284.38,202.56,282.57,204.42,282.75Zm-9.62-8c1.2,3.07,3.28,1.76,5.15,1.71C199.07,273.22,196.92,274.49,194.81,274.77Zm11.84,8.91c1.43,2.75,1.88,2.9,4.64,1.68C210.64,283.13,209.83,282.82,206.64,283.68Zm-95.86,24.53-.72-.76c-1.07.46-3-.52-3,1.73,0,.56.83,1.13,1.28,1.69ZM177,285.09a6.27,6.27,0,0,0-.4-1,4.05,4.05,0,0,0-.5-.65l-3.7.21C172.63,285.93,173.13,286.1,177,285.09ZM90.44,320.67l-2-2.41v3.52a25,25,0,0,0,3.87-1.58c.16-.1-.47-1.54-.88-2.79Zm111.75-41.13c-1.32-2.87-3.15-2.25-5.06-1.47C198.06,281.11,200.16,279.66,202.19,279.54ZM77.63,220c-.13,1.36-.24,2.47-.33,3.58,0,.3-.12.74,0,.88.43.4,1.21,1.07,1.43.94C80.09,224.55,79.49,220.83,77.63,220Zm106.9,55.82c1,2.21,2.32,2.49,4.65,1.05C188.13,274.12,186.3,275.28,184.53,275.78Zm-79.37,35.31.17-.78-2.09-.42a7.56,7.56,0,0,0-1-1.74c-.18-.19-1.19,0-1.2.14a3.74,3.74,0,0,0,.15,2.08C102.24,312,103.77,311.34,105.16,311.09ZM65.07,294.82c.7,1.53,1.93,1.89,2.85.86a14.93,14.93,0,0,0,2.5-4.48c.2-.5-.51-1.37-.8-2.07-.11,1.61-1.14,5.22-2.28,5.89C66.89,295.28,66.07,294.93,65.07,294.82ZM192,278.4c.83,2.44,1.53,2.63,4.69,1.28C195.68,277.2,193.86,277.91,192,278.4Zm-10.85.93c1.14,3.27,3.08,1.66,4.89,1.5C185.12,277.73,183.08,279.38,181.18,279.32ZM120.35,167a16.48,16.48,0,0,0,.68-2.36,12.47,12.47,0,0,0-.08-2.05c-.63.1-1.61,0-1.83.34a3.78,3.78,0,0,0-.46,2.43C118.75,165.84,119.56,166.23,120.35,167Zm79.82,107.31c1.21,3.08,3.2,1.78,5,1.7C204.19,273.07,202.15,274.26,200.17,274.26Zm-118.95-105c.7-1.68,1.31-3,1.77-4.42.07-.22-.64-1-.92-1C80.73,164,79.84,167.71,81.22,169.27ZM193.14,272.18c1.1,2,2,2.12,4.43.88C196.42,271.06,196.3,271,193.14,272.18Zm-2.35-1.32c-1.46-2.41-3.14-1.8-4.9-1.37C186.89,272,188.66,271.18,190.79,270.85Zm-122.36-51-3.84-1.49L63,220.92c3.1-1.85,3.47,1.59,5.65,2.06l-1.83-2.9Zm129.75,51.59c.9,3,3,1.55,4.79,1.6C202.11,270,200.05,271.3,198.18,271.45Zm6.93,2.33c1.13,2.56,2.68,2.3,4.64,1.46C208.76,272.79,206.94,273.77,205.11,273.78Zm2.4,3.05c.71,2.72,2.32,2.41,4.16,1.6C210.73,276.35,210.66,276.33,207.51,276.83ZM190.1,275.2c.73,2.38,1.23,2.51,4.36,1.32C193.67,274.05,191.92,274.88,190.1,275.2Zm-88.26-173c1.76-1,1.68-5.63,0-7.19ZM7.38,280l-.19-.64c-3.19-1-3.62-.84-4.57,2Zm188.21-9.31c-1-2.33-1.93-2.54-4.3-1.3C192.2,271.45,193.93,270.31,195.59,270.71ZM57.91,331.94l-.46-.45L54,333.67l.33.6c1.49-.53,3.36.77,5.11-1.21l-3.07.58ZM95.75,314c.26,2.08,1.53,2.43,3.07,2.26.34,0,.64-.49,1-.76-.28-.3-.51-.77-.85-.87C97.94,314.4,96.92,314.27,95.75,314ZM74.49,226.8c2-2,2.06-4.48.34-6Zm-18,111.93L52.74,336l.76,3.7Zm29-171.08.6.41,2.67-3.93-.91-.62C85.2,163.64,86.39,166.39,85.44,167.66Zm122.46,105c-1.15-2.65-2.85-1.73-4.5-1.63C204.08,274.07,206.15,272.16,207.9,272.66ZM196.44,269c1.13,1.7,1.13,1.7,4,1C199.49,268,199.27,267.93,196.44,269Zm8.77,1.13.29-.82c-1-2.23-2.67-1.23-4.21-.94l-.18.79Zm-22.52-5.7-.07.9,4.54.42C185.95,262.61,184.19,264.17,182.69,264.39Zm-173,7.69L10,270c-1.16.73-3.45-.8-3.35,2.12ZM114.47,166.32l1.14.2.92-3.54c-.56,0-1.58-.07-1.62.08A25.51,25.51,0,0,0,114.47,166.32Zm86.84,98.19.23-1.31-4.09-.54-.19,1.17ZM198.52,267c-1.15-1.88-2.56-1.19-4.23-.87C195.48,268.24,196.89,267.55,198.52,267Zm-10.23,1.22.18-.83c-1.09-1.61-2.54-.91-3.95-.54l-.13.8Zm-39.8,32.77-1.11.5,1,2.67c.45-.3,1.32-.74,1.27-.88A14.37,14.37,0,0,0,148.48,300.94Zm-6.55,6.78-3.31-3C138.62,307.91,138.92,308.19,141.93,307.73Zm7.54-27.35-.21-1.21a26.89,26.89,0,0,0-2.91.49,5.77,5.77,0,0,0,0,1.4Zm38.15-8.43c1.28,3,3.11,1.82,4.58,2l.18-.69ZM14.08,263.22c-2.33-1.49-3.53-1.25-4.42.82ZM105.31,166l1.14.5,1.5-3a5.84,5.84,0,0,0-1.14-.41C106.26,164,105.8,165,105.31,166ZM187,274.35l.28-.91a6.9,6.9,0,0,0-2.32-.74c-.34,0-.64,1.07-1.09,1.9Zm-34,16.06c-.85-2.58-.85-2.58-3.09-2C150.54,289.63,151,291.09,152.93,290.41Zm-77.58-123,1.28.41,1.21-3.37c-.47-.09-1.32-.34-1.36-.25C76,165.29,75.7,166.38,75.35,167.46Zm-67.72,5-.55.2.57,3.14,2-1.75ZM188.73,258c1.11,2.21,1.87,2.33,4.2.5ZM8.81,265.82l.23.9,3.68-.66C10.91,264.8,9.75,264.54,8.81,265.82Zm38.52-73.94,0-.66-4.86-.68-.1.94Zm45.33-29.07A11.33,11.33,0,0,0,91,165c-.09.22.6.78.93,1.18a10.94,10.94,0,0,0,1.46-1.72C93.55,164.19,93.09,163.65,92.66,162.81Zm17.08,3.3,1.15.42,1.39-3.21a5.36,5.36,0,0,0-1.16-.32C110.61,164,110.19,165.06,109.74,166.1Zm75.14,96.79.33-.65c-.62-.39-1.26-1.11-1.85-1.08s-1.1.84-2.14,1.73ZM10.67,260.12c1.52,1.62,2.55,1.51,3.84-.24ZM34.2,174.57l6-.34-.07-.64C38.26,173.41,36.36,172.84,34.2,174.57Zm61.52-9,1.11.79c.55-.77,1.11-1.52,1.59-2.32,0-.06-.57-.5-.88-.77Zm8.09-1.46c-.57-.43-1.14-1-1.24-.9a3.82,3.82,0,0,0-1.36,1.51c-.11.31.52.89.82,1.35ZM146.16,301.2l.83-1a14.77,14.77,0,0,0-1.79-1.27c-.1-.05-.55.55-.84.85ZM11.27,258.93l4.15-.32C14.06,257.12,13,257.18,11.27,258.93Zm130.65-53.38c.59-.79,1.24-1.32,1.15-1.63-.15-.54-.77-.94-1.19-1.4-.38.37-1.07.76-1.05,1.1C140.86,204.15,141.38,204.65,141.93,205.55Zm-59,119.17-.49-.16-.63,1.64,3,.84.15-.87-2.15-.28Z"/><path class="cls-1" d="M.25,223.53c2.13-3.53,4.26-7.06,6.37-10.6s4.1-6.92,6.45-10.41c.5,1.8,3.46,2.39,2.21,5A53.1,53.1,0,0,0,20,210.35a7.33,7.33,0,0,0,5.72.13,3,3,0,0,1,2.07.35,4.38,4.38,0,0,1,1.2,1.06c.36,1.48.95,2.51.73,3.32-.54,2.06.33,4-.1,6.18-.47,2.34-1.73,1.81-2.95,1.94-3.25.35-6.52.59-9.78,1.09H30.4c.13,1,.21,1.83.35,2.65.38,2.32-.75,4.1-3.13,4.22-4.46.22-8.82,1.57-13.4.78-1.78-.31-3.74.46-6,.79,1.43.89,3.75-.65,4.25,1.89l3.52.47v.3l-2.22.64.14.73c.89-.15,1.79-.23,2.66-.45,1.25-.32,1.7.11,2.05,1.37,1.09,3.85-.16,7.39-1.32,10.91-.18.54-1.49.88-2.32,1s-1.87-.34-1.91,1.44c0,1.25-1.17,2.47-1.92,3.88.89,1.31-.4,3.87-2.49,4.47.29.41,1,.93.87,1.3-.66,3.09-1,3.41-4,3.85l2.07.43c-1.35,4.7-1.89,5-7.4,4.88v-7.36H4L2,267.7l.7.3,3.59-9.11L6.2,259l2.72-1.88-1.3-.15,3.6-9.1-.61-.24c-.74,1.66-1.54,3.29-2.22,5-1,2.48-1.57,2.75-4.45,1.73L8.4,243.85l-2.75,2.37a1,1,0,0,1-.19.11,1.26,1.26,0,0,1,.36.21c1.06,1.26-.08,1.6-.89,1.73a23.66,23.66,0,0,1-3.55,0L.25,250.2Q.25,236.86.25,223.53Z"/><path class="cls-1" d="M.25,250.2l1.12-1.9a23.66,23.66,0,0,0,3.55,0c.81-.13,2-.46.89-1.73a1.26,1.26,0,0,0-.36-.21,1,1,0,0,0,.19-.11l2.75-2.37L3.94,254.29c2.88,1,3.46.75,4.45-1.73.68-1.69,1.47-3.32,2.22-5l.61.24-3.6,9.1,1.3.15L6.2,259c-.52-.48-1.06-1.37-1.56-1.35a4.73,4.73,0,0,0-2.72,1,10.52,10.52,0,0,0-1.67,2.6v-1.38l5-10.56c-2.69-1.61-3.61.65-5,1.83Zm2.58,6.54c2.85.75,3.46.53,3.74-1.4C5.17,255.37,3.48,254.42,2.83,256.74Z"/><path class="cls-1" d="M.25,251.12c1.37-1.17,2.29-3.44,5-1.83l-5,10.56Z"/><path class="cls-1" d="M.25,273.19l.9-.16c-.76-3.92,2.16-2.42,3.9-2.64.12,0,.26.13.94.51l-2.45,1.85c.18.21,1,.94.88,1.08a3.86,3.86,0,0,1-1.68,1.56,7.9,7.9,0,0,1-2.49.08Q.25,274.34.25,273.19Z"/><path class="cls-1" d="M.25,261.23a10.52,10.52,0,0,1,1.67-2.6,4.73,4.73,0,0,1,2.72-1c.5,0,1,.87,1.56,1.35l.06-.06c-.39.4-1.09.77-1.11,1.19C5,262,3.7,262.16,2.28,262.21c-.68,0-1.35,0-2-.06Z"/><path class="cls-1" d="M.25,286.06,4.42,285l.59.9c-.53.51-1,1.24-1.62,1.47a16.72,16.72,0,0,1-3.14.57Z"/><path class="cls-1" d="M.25,262.15c.68,0,1.36.08,2,.06,1.42-.05,2.73-.21,2.86-2.13,0-.42.73-.79,1.11-1.19L2.66,268l-.7-.3L4,262.61H.25Z"/><path class="cls-1" d="M.25,288.36c1.16.49,3.36,1.12,3.32,1.44-.28,2-2.17.86-3.32,1.32Z"/><path class="cls-1" d="M.25,275.95H3c.28,2.57-1.36,2.28-2.76,2.3Z"/><path class="cls-1" d="M129.63,50.93c-.61,1.9-.87,3.1-1.36,4.19a5.48,5.48,0,0,1-4.87,3.76c-3.08.47-4.76-1.18-7-2s-4-2.42-6.09-.24c-1.44,1.52-2.69,3.23-4.21,5.09,0-2.48,0-5.15,0-7.83,0-1.5-.46-3.05-.21-4.49,1.21-7,2.86-13.89,6.42-20.17a8.93,8.93,0,0,0,.49-2.69c.06-.35.09-.8.32-1,1.51-1.42,3.09-2.77,4.62-4.18,2.81-2.59,5.47-5.35,8.43-7.75,2.79-2.27,5.85-4.1,9.73-4.06,1.34,0,2.68-.69,4-1.07,2.26.53,4.66,1.13,7.08,1.64,2.18.45,2.76,1.25,2,3.35-1.13,3-2.82,5.84-3.51,8.91-.83,3.72-2.87,6.71-4.66,9.88-.81,1.43-2,2.67-2.94,4-.44.62-.75,1.31-1.14,2-1.57,2.64-2.67,5.83-4.88,7.73-1.48,1.27-3.8,3.39-6.65,2-.37-.18-1.11.38-1.68.6.43.5.77,1.28,1.3,1.44A48.54,48.54,0,0,0,129.63,50.93ZM109.54,40.61l.75,6.08c2.33-.11,4.18-.09,6-.35.57-.08,1-.93,1.52-1.46s1.14-1.33,1.71-2l1.15-1.37a19.76,19.76,0,0,0-1.85-.81c-.7-.23-1.44-.35-1.91-.46Zm13.47,4c.5-1,1-1.52.93-2s-.73-.82-1.13-1.22c-.3.44-.83.88-.84,1.33S122.46,43.65,123,44.56Z"/><path class="cls-1" d="M63.8,44.76c-2.55-3.91-5.26-8.15-8-12.34-3.11-4.69-6.21-9.39-9.44-14S39.59,9.16,36.26,4.5a5.08,5.08,0,0,1-1.09-2.43C35.09.68,35.91-.1,37.4.4c4.19,1.42,8.44,2.68,12.51,4.38A39.89,39.89,0,0,1,58,9.4c2.89,2.12,5.38,4.78,8.18,7a23.79,23.79,0,0,0,4.15,2.19c.07,0,.16,0,.22,0l11.21,7.9c.2,3.59,3.58,5.37,4.77,8.21,2.11,5,4.87,10,3.49,15.92-.29,1.25.37,2.69.26,4,0,.46-1.07.85-1.65,1.26a13.6,13.6,0,0,1-.34-1.81c-.2-3.49.51-6.9-2.06-10.24-2-2.58-3.6-2.79-6.36-2.16C74.74,42.94,69.52,43.72,63.8,44.76ZM82.33,33.48c-2.74-2.54-10.59-2.63-11.58-.55,1.11,2.39,3.13,2.63,5.34,2.81A7,7,0,0,0,82.33,33.48Z"/><path class="cls-1" d="M83,70.43c-.59-2.06-1.74-3.07-3.85-3.07-.84,0-1.69-.73-2.53-1.13l.11-.7c2.52-.34,5-.63,7.55-1a31.26,31.26,0,0,0,3.05-.79A9.07,9.07,0,0,1,89,63.3c1.6-.09,3.21-.12,4.81-.13a28.11,28.11,0,0,1,4.73.11c.48.08,1,1.2,1.08,1.88a1.93,1.93,0,0,1-1.12,1.49C93.42,68,88.31,69.15,83,70.43Zm13-4.84.6.76c.77-.63,1.56-1.25,2.29-1.93,0,0-.32-.53-.5-.82Z"/><path class="cls-1" d="M120.1,67.45c-1.17,4.46-1.46,4.83-5.29,3.51a58.85,58.85,0,0,1-9.26-4.47c-.69-.38-.83-1.74-1-2.76C109.37,66.84,113.91,69.79,120.1,67.45Z"/><path class="cls-1" d="M208.43,328.85l.26,2.17c-4.82,1.59-5.93,1.07-7.55-3.47,2.74-.85,5.37-1.5,7.38,1.42Z"/><path class="cls-1" d="M107.64,335.91c2.71.51,1.34-2.09,2.07-3.56l1.41,8.33a4.84,4.84,0,0,0,.89.21c5.74.23,5.72.23,4.73-5.45a9.29,9.29,0,0,1,0-4l1.93,10h-8.91a15.09,15.09,0,0,0-.11-4.13C109.48,336.55,108.13,336.2,107.64,335.91Z"/><path class="cls-1" d="M207.22,304.16l.58,1.88c-4.11,1.54-5.24,1.1-6.56-2.58,2.1-.43,4.12-1.25,6,.62Z"/><path class="cls-1" d="M114,63.43c2.07-.51,4.12-1.14,6.22-1.48,1.45-.24,2.1.48,2.55,2.44h-8.65Z"/><path class="cls-1" d="M112.73,176.23h-1.9l-1,4.13c-2.41-.44-2.75-1.93-2.48-3.83h-2l-1,3.73-.64.15L101,176.17l-.7.31-.94,4.15c-2.79-.6-1.84-2.76-2.09-4.26-3.65-.37-2,3-3.27,4.38-2.75-.3-1.39-2.72-2.07-4.05-.87-.12-.87-.12-3.11,4.24-1.9-.89-2.85-8.27-1.4-11.59a31,31,0,0,0,1.77,2.9,5.84,5.84,0,0,0,1.51,1,5.48,5.48,0,0,0,.78-1.4c.16-.73,0-1.53.18-2.27a14.61,14.61,0,0,1,1-2.29l1.89,5.42c3.91-.12,1.72-3.64,3.21-5.31l2.63,5.47,3.24-5,1.69,5.15,1,0c.35-1.14.7-2.28,1.07-3.41.15-.46.36-.9.54-1.35a7,7,0,0,1,1.28,1c.75.93,1.41,1.94,2.1,2.92l.69-.22.83-3.94,3.9,4.82.6-5.54c.78.91,1.3,1.58,1.88,2.19s1.42,1.37,2.61,2.51l.72-4.47,4.34,4.08,1-3.22,3.62,2.37,1.31-2.24,2.81,1.87.85-1.93c3.93,1.24,4.77,4.8,2.46,10.24-2.7-.55-.84-3.22-2.33-4.81l-1.26,5.12c-3.58-.28-1.42-3.31-2.87-5.37-.61,1.54-1,2.7-1.53,3.83a19.82,19.82,0,0,1-1,1.79,9.59,9.59,0,0,1-1.6-1.94,6.88,6.88,0,0,1-.24-2.22c-1.32.11-1.32.11-2.83,4.42-2.8-.09-1.39-2.76-2.46-4-3-.05-1.38,3.28-3,4.29-2.55-.35-1.28-2.68-2-4.1-2.91.14-1.58,3.05-2.93,4.32C111.58,180.38,113.08,177.91,112.73,176.23Z"/><path class="cls-1" d="M136.31,162.46a23.28,23.28,0,0,1-3,1.18c-.58.15-1.57.13-1.84-.22-1.55-2-2.29-1-3,.64a8,8,0,0,1-.59.94l-2.36-1.12-1.35,1.94c-1.59-.86-2.11-1.73-1.07-3.58a20.79,20.79,0,0,0,1.6-5.16c1.24-4.95,2.42-9.91,3.63-14.87H129c.15.42.33.84.45,1.27,1.5,5.37,2.91,10.78,4.54,16.11.34,1.1,1.49,1.95,2.26,2.91Z"/><path class="cls-1" d="M71.74,182.79c-.54-2.56-.24-4.94-2.74-6.1-.43-.2-.63-1.22-.67-1.88a10.93,10.93,0,0,1,.33-2.29c.58.38,1.16.75,1.73,1.14.36.25.7.53,1.4,1.06v-4.2l.49-.18,3.78,4.54,1.13-4.82,3.58,4.05,1.77-4.81,3.17,5.24-1.43,6.83c-2.91-.78-1-3.42-2.4-4.75-2.86.61-.84,3.7-2.47,5-2.46-.58-1.4-3-2.27-4.61-2.8.94-.59,3.79-2.09,5.26-2.3-.63-1.15-3-2-4.3l-.69-.06Z"/><path class="cls-1" d="M115.35,216.53c3.54,1.27.85,4.41,2.12,5.86l-1.78,2.31-.2-.37a22.57,22.57,0,0,0-3.72,2.68c-2.1,2.26-2.5,2.36-5,.24a5.89,5.89,0,0,0-1.39-.65l.54-.37c-.51-1.1-1-2.22-1.53-3.3-1-2-.24-3.63,1.14-5.58l3.13,3.3,1.51-3.49.68-.23,1.29,2.35.93,1.64a6.64,6.64,0,0,0,1.37-1.47A20.16,20.16,0,0,0,115.35,216.53Z"/><path class="cls-1" d="M136.26,162.52c1.68-.74,3.32-2.22,5.45.26-.06-4.49-1.54-7.66-4.94-10.16l-.43,1.84c-.18-1.4-1.8-2.8,0-4.19.11-.09-.41-1.1-.72-1.64-.44-.78-.94-1.53-1.26-2a10.91,10.91,0,0,1,3.15-.34c.65.11,1.31,1,1.7,1.64.7,1.21.93,2.62,2.67,3.16.48.15.45,2.21.49,3.4,0,.63-.66,1.62-.43,1.85,1.83,1.85,1.1,4.53,2.28,6.57a4.48,4.48,0,0,1,.21,1.64,5.45,5.45,0,0,0-1.42-.15c-.67.1-1.53.74-1.92.5-1.55-.94-4,0-4.82-2.43Z"/><path class="cls-1" d="M204.15,316.34c-1.74.43-2.8-.65-3.86-1.75l.07.08-.13-2.44-3.52-4,4.51-.85c-5.2-.37-5.37-.48-6.25-3.74l-.07,0c3.45-.82,6.1-.32,7.35,3.64.46,1.48,1.91,2.65,2.91,4,0,0,0,0,0,0l-1.54.12,3.8,3.81-3.35,1.16Z"/><path class="cls-1" d="M142.85,327.16l-3.17.52c4.22.47,4.35.59,4.72,4.47a11.24,11.24,0,0,1-1.26.34c-4.57.72-4.53.71-5.4-3.85-.31-1.63-.89-3.2-1.34-4.78C141,321.89,142.44,322.59,142.85,327.16Z"/><path class="cls-1" d="M31,215l3.79-1.19c.73,2.5,1.46,5.08,5,5.85L38,220.74l1.74.18c0,1.86-1.35,1.82-2.35,1.46a9.76,9.76,0,0,1-2.4-1.85l0,.82-3.38,1.8Z"/><path class="cls-1" d="M74.33,153.81l1,13.94-.77.25-2.2-1.46a16.91,16.91,0,0,1-1.45,1.88,4.46,4.46,0,0,1-1.32.64c-.09-.45-.35-1-.23-1.35,1.47-4.61,3-9.2,4.51-13.8Z"/><path class="cls-1" d="M205.85,292.18l-2.44-4.9,2.45-.62c-2-.3-4.29.5-4.07-2.37,3.34-1.22,3.58-1.14,5.34,1.69.67,1.08,1.37,2.15,2.17,3.41l-1.94.69c2.9.25,3.07.39,3.72,3-2.05,1.19-3.83,1-5.29-1Z"/><path class="cls-1" d="M134,317.55l-3.64.85V319H134l1.16,3.64c-1.85.15-3.4.37-5,.35-.38,0-.93-.69-1.09-1.17-.41-1.23-.63-2.52-.95-3.78-.76-3,.8-4.71,3.78-3.68C132.79,314.69,133.21,316.25,134,317.55Z"/><path class="cls-1" d="M140.43,290.54l3-.93-.32.6c.72.8,1.44,1.61,2.18,2.39.26.28.59.48.86.75,1.49,1.46,2.75,3.37,4.53,4.29,2.24,1.17,2.32,2.9,2.58,5.6-1.87-1.38-3.34-2.36-4.69-3.5-1.09-.92-1.91-2.18-3.06-3a4.39,4.39,0,0,1-2.17-3.18C143.13,292.55,141.65,291.75,140.43,290.54Z"/><path class="cls-1" d="M191.18,299.17a37.31,37.31,0,0,1-3.84.55,1.91,1.91,0,0,1-1.49-.68c-1.06-1.82-2-3.72-3-5.59,3.47-1.64,4.37-1.39,6.17,1.71C189.78,296.39,190.39,297.67,191.18,299.17Z"/><path class="cls-1" d="M101.12,314.43c.53-.1,1.08,0,1.32-.28.78-.82,1.16-2.57,2.69-1.69.87.49,1.27,1.79,2.15,3.12-1.2.07-1.77.07-2.33.15a3.73,3.73,0,0,0-1.75.66l3.46.25.6,3.2C103.12,321.42,101.94,320.38,101.12,314.43Z"/><path class="cls-1" d="M198.34,289.62a17.52,17.52,0,0,0,.75,2.06c.4.79.93,1.53,1.56,2.55-2.11.08-4,1.71-5.49-.52a8.26,8.26,0,0,1-.59-2.5l-2.46-2.28c2.82-1.58,4-1.4,6.3.76Z"/><path class="cls-1" d="M36.8,224.72l.75,4.79L32,230a35,35,0,0,1,.07-4.43,2,2,0,0,1,1.37-1.35,20.87,20.87,0,0,1,5.92.35Z"/><path class="cls-1" d="M175.79,336.13c5.07-2.28,6.82-1.49,8,3.45-1.8.22-3.79,1-5.28.47C177.32,339.6,176.7,337.53,175.79,336.13Z"/><path class="cls-1" d="M146.25,333.31c4.53-2.11,6.34-1.2,6.91,3.45C148.08,338.71,146.75,338,146.25,333.31Z"/><path class="cls-1" d="M57.83,179.91a26,26,0,0,1-2-3.17c-.17-.36.23-1.2.62-1.56,1.57-1.48,6.45-2,8.24-.7.64.46.76,1.65,1.22,2.77-1.88.09-3.1-3.22-4.46-.15C59.46,176.86,58.38,177.77,57.83,179.91Z"/><path class="cls-1" d="M197.66,337.74c-5.1,1.68-5.94,1.29-7.49-3.44C194.91,332.34,196.6,333.12,197.66,337.74Z"/><path class="cls-1" d="M138.91,338.25a38.72,38.72,0,0,1-4.64.57c-2.58,0-1.56-2.32-2-3.63-.08-.22,1.09-.9,1.68-1.36,0,0,.15,0,.23,0C138.38,333.56,138.4,333.58,138.91,338.25Z"/><path class="cls-1" d="M145.87,337.57c-6.46,1-5.82,1.45-6.61-3.57C143.89,331.91,145.67,332.83,145.87,337.57Z"/><path class="cls-1" d="M169.19,336.52c5.56-1.35,6.07-1.09,7.3,3.61C170.11,341.7,170.4,341.72,169.19,336.52Z"/><path class="cls-1" d="M197.16,333.41c6.27-1.08,5.6-1.5,7.57,3.48C200.41,339.07,198.47,338.21,197.16,333.41Z"/><path class="cls-1" d="M183.24,334.93c5.77-1.16,6.09-1.17,7.35,3.69C184.33,339.81,184.89,340.24,183.24,334.93Z"/><path class="cls-1" d="M99.42,331.59c2.49-.53,2.71,1.1,2.81,2.83.17,2.94-2.24,1.8-3.59,2.16-2.22.59-2.63-.76-2.7-2.65C95.83,331,98.13,332.1,99.42,331.59Z"/><path class="cls-1" d="M167.09,331.1c6.06-.9,5.88-1.39,7.17,3.5C169.82,336.71,167.87,335.8,167.09,331.1Z"/><path class="cls-1" d="M167.1,335.5c-5.37,1.35-6.4.82-6.91-3.58C165.81,330.53,166.51,330.55,167.1,335.5Z"/><path class="cls-1" d="M160.1,335.89c-4.71,2.06-6.18,1.33-6.88-3.31C157.82,330.71,159.12,331.31,160.1,335.89Z"/><path class="cls-1" d="M174,330.49c5.81-1.28,6.22-1.08,7.23,3.37C176.17,335.56,174.95,335,174,330.49Z"/><path class="cls-1" d="M137.53,332.7c-1.28.26-2.31.52-3.35.68a2.78,2.78,0,0,1-3.44-3.3,1.52,1.52,0,0,1,.52-.94,3.83,3.83,0,0,1,6,2.21C137.35,331.72,137.42,332.09,137.53,332.7Z"/><path class="cls-1" d="M187.67,328.84c5.23-1.3,6.09-.87,7.35,3.56C189.72,333.84,189.09,333.54,187.67,328.84Z"/><path class="cls-1" d="M181,329.87c5.77-1.66,5.61-1.5,7.13,3.14C181.92,334.46,182.57,334.56,181,329.87Z"/><path class="cls-1" d="M194.58,328.13c5.79-.92,5.79-.92,7.31,3.33C197.55,333.64,195.57,332.78,194.58,328.13Z"/><path class="cls-1" d="M151.53,331.74c-1.85.16-3.59.67-5.1.29-.76-.19-1.21-2-1.54-3.13-.08-.27.89-1.18,1.43-1.23C150.81,327.21,150.37,326.92,151.53,331.74Z"/><path class="cls-1" d="M151.78,327.33c5.62-1,5.44-1.37,6.49,3.33C152.8,332.39,151.92,332,151.78,327.33Z"/><path class="cls-1" d="M136.36,327.67a19,19,0,0,1-4,.62,2.75,2.75,0,0,1-2.09-1.38c-.27-.91-1.61-2.32.33-3,2.82-1.05,4.64-.49,5.24,1.55C136,326.05,136.13,326.71,136.36,327.67Z"/><path class="cls-1" d="M98.28,331.19c-1.7.33-2.61-.46-2.75-2.41-.17-2.33,1.52-2.09,2.89-2.17,2.56-.14,3.18.45,3.26,2.81C101.73,330.92,101.43,331.09,98.28,331.19Z"/><path class="cls-1" d="M205.87,325.82c-5.89,1.49-5.88,1.11-7.21-3.05C203.15,321,204.55,321.59,205.87,325.82Z"/><path class="cls-1" d="M172.06,325.59c4.41-1.82,5.58-1.34,6.82,2.81C174.86,330.58,172.88,329.76,172.06,325.59Z"/><path class="cls-1" d="M165.16,330c-5,1.77-6.07,1.26-6.66-3.05C162.89,325.12,164.13,325.67,165.16,330Z"/><path class="cls-1" d="M199.21,326.57c-5.22,1.31-6.05.93-7.22-3.21C196.41,321.7,197.54,322.19,199.21,326.57Z"/><path class="cls-1" d="M92.13,332.54c2.69-.1,3.07.2,2.73,2.59-.07.54-.73,1.09-1.25,1.45a2.3,2.3,0,0,1-1.33.12c-1.27-.09-3.2,1.3-3.31-1.5C88.88,332.81,89,332.66,92.13,332.54Z"/><path class="cls-1" d="M185.28,324c5-1.49,5.66-1.19,7.07,2.87C188.31,329,186.62,328.31,185.28,324Z"/><path class="cls-1" d="M87.58,327.57c-.19,1.48.06,3.37-.59,3.76-1.26.75-3,.76-4.58.82a4.06,4.06,0,0,1-.63-2.29c0-.63.58-1.61,1.09-1.74A31.74,31.74,0,0,1,87.58,327.57Z"/><path class="cls-1" d="M149.79,326.25c-6,1.08-6,1.08-6.32-3C147.68,321.32,149.26,322,149.79,326.25Z"/><path class="cls-1" d="M171.94,329.37c-6.55,1-5.4,1.47-6.72-3.2C169.91,324.53,170.9,325,171.94,329.37Z"/><path class="cls-1" d="M94.07,327c.69,4,.34,4.48-3.23,4.53-1.11,0-2.19.06-2.2-1.53,0-1.31-.2-2.67,1.73-2.76C91.57,327.21,92.77,327.12,94.07,327Z"/><path class="cls-1" d="M163.21,324.87c-5.19,1.37-6,1-6.38-3C161.62,320.15,162.44,320.53,163.21,324.87Z"/><path class="cls-1" d="M185.83,327.87c-5.16,1.6-6,1.23-7-2.92C183,323.1,184.25,323.6,185.83,327.87Z"/><path class="cls-1" d="M88.11,337l-6.42.53c.15-1.45-.08-3.31.47-3.58a7.47,7.47,0,0,1,4.56-.61C87.34,333.48,87.56,335.45,88.11,337Z"/><path class="cls-1" d="M163.38,321.34c5.33-1.75,6-.71,6.5,3C164.78,325.66,164.34,325.46,163.38,321.34Z"/><path class="cls-1" d="M211.77,323.37l.29,1.92c-4.91,1.18-6,.62-6.82-3.44,3.41-1.15,4.65-.85,6.59,1.59Z"/><path class="cls-1" d="M169.9,320.74c4-1.76,5.69-1,6.72,2.79C172.45,325.47,170.73,324.76,169.9,320.74Z"/><path class="cls-1" d="M196.49,321.59c-5,1.33-5.89.93-6.85-2.95C194.1,317.07,195.32,317.59,196.49,321.59Z"/><path class="cls-1" d="M156.48,325.47c-4.78,1.75-5.62,1.36-6.44-2.89C153.72,320.83,155.65,321.66,156.48,325.47Z"/><path class="cls-1" d="M204.07,316.38c4.11.16,4.22.24,5.26,3.79-3.92,1.76-5.11,1.28-6.91-2.94l1.72-.89Z"/><path class="cls-1" d="M176.51,319.91c5.27-1.23,6.14-.82,6.7,3.09C178.09,324.3,177.61,324.09,176.51,319.91Z"/><path class="cls-1" d="M190,322.14c-4.47,1.68-5.63,1.19-6.72-2.7C187.45,317.73,188.59,318.16,190,322.14Z"/><path class="cls-1" d="M77.8,337.92c-1.72,0-3,.34-3.07-1.66-.09-3.1,2.26-2.18,3.84-2.49,1.17-.23,1.85.15,1.88,1.54C80.51,337.64,79.33,338.27,77.8,337.92Z"/><path class="cls-1" d="M168,315.89c5.17-1.15,5.85-.84,6.58,3C170.21,320.59,169,320.06,168,315.89Z"/><path class="cls-1" d="M141.39,322.16a31.94,31.94,0,0,0-3.3.27c-2.09.39-2.45-1-2.68-2.51-.3-2,1.24-1.53,2.26-1.6C140.91,318.09,141.08,318.28,141.39,322.16Z"/><path class="cls-1" d="M174.6,315.32c5-1.22,5.43-1,6.57,3C175.42,319.21,175.76,319.75,174.6,315.32Z"/><path class="cls-1" d="M196.13,317.76c4.82-1.16,5.59-.82,6.7,2.88C199,322.59,197.26,321.88,196.13,317.76Z"/><path class="cls-1" d="M154.73,320.77c-5.48,1.09-5.53,1.07-6.12-2.89C152.82,316.13,154.24,316.77,154.73,320.77Z"/><path class="cls-1" d="M148.2,321c-2.48,1.31-5.24,1.29-5.69-.1-.32-1-1.43-2.33.63-2.92C146.26,317.08,147.35,317.68,148.2,321Z"/><path class="cls-1" d="M155.15,317.19c4.79-1.35,5.39-1.08,6.18,2.82C157.14,321.66,155.62,321,155.15,317.19Z"/><path class="cls-1" d="M99.13,321.7c1.6-.12,1.88,1,1.77,2.35-.24,3-2.7,1.36-4.06,1.77-1.71.51-1.53-1.27-1.61-2.28C95.08,321.91,95.68,321.66,99.13,321.7Z"/><path class="cls-1" d="M194,317c-5.76.69-5.29,1.43-6.68-3C191.83,312.56,192.62,312.9,194,317Z"/><path class="cls-1" d="M94,326.05c-1.94-.28-4.14,2-5.4-.85-.4-.9-.82-2.63,1.45-2.74C93.83,322.28,94,322.34,94,326.05Z"/><path class="cls-1" d="M191.72,312.34c-5.17,1.34-5.77,1.09-6.57-2.74C189.08,308.24,190.15,308.66,191.72,312.34Z"/><path class="cls-1" d="M200.29,314.59v1.57c-4.47,1.53-5.56,1.09-6.54-2.7,2.48-1.09,4.77-1.24,6.61,1.2Z"/><path class="cls-1" d="M140.62,313.58c5.1-.92,5.36-.8,6,2.82C142.2,318.25,141.09,317.75,140.62,313.58Z"/><path class="cls-1" d="M181,314.79c4.49-1.43,5-1.22,6.59,2.45C184,319.18,182.26,318.57,181,314.79Z"/><path class="cls-1" d="M197.83,311.6c-4.43,1.71-5.36,1.32-6.54-2.61C196.47,307.82,196.52,307.62,197.83,311.6Z"/><path class="cls-1" d="M71.82,329.2c.43.71.75,1.18,1,1.69a4.32,4.32,0,0,1,.33,1,29.28,29.28,0,0,1-3.89,1.44c-1,.25-1.82-.07-1.71-1.4s.09-2.52,1.85-2.56C70.3,329.32,71.2,329.24,71.82,329.2Z"/><path class="cls-1" d="M172.34,314.5a30.16,30.16,0,0,0-3.36.31c-2.07.42-2.36-1.12-2.46-2.42,0-.41,1.26-1.24,2-1.34C171.55,310.64,172,311.08,172.34,314.5Z"/><path class="cls-1" d="M185.4,313c-4.41,1.49-5.41,1.11-6.51-2.38C182.6,308.75,183.95,309.22,185.4,313Z"/><path class="cls-1" d="M56.41,169.35c.63-.64,1.2-1.72,1.9-1.81,1-.13,2,.48,3.08.77l-.11.75a4.36,4.36,0,0,1-1.36.37,1.82,1.82,0,0,0-1.8.81c-1.07,1.14-3.12,1.55-4.83,1.82-.81.13-1.79-.77-2.74-1.23C52.46,167.48,54.78,171.07,56.41,169.35Z"/><path class="cls-1" d="M161.9,316a36.23,36.23,0,0,1,5,.74c.31.08.5,2.23.28,2.32-1.2.49-2.71,1.15-3.78.77s-1.41-1.94-2.09-3Z"/><path class="cls-1" d="M98.26,320.94c-2,.12-3.37.14-3.27-1.82.14-2.94,2.78-1.27,4.08-2.08a4.35,4.35,0,0,1,1.26,1.74C100.79,321.07,99.06,320.91,98.26,320.94Z"/><path class="cls-1" d="M134.23,314.52c3.63-1.68,5.12-1,5.77,2.44C135.36,318.58,134.5,318.21,134.23,314.52Z"/><path class="cls-1" d="M170.75,306.53c5.19-1,5.24-1,6.1,2.77C172.27,310.81,171.25,310.36,170.75,306.53Z"/><path class="cls-1" d="M189,304.91c4.46-1.5,5-1.31,6.45,2.21C191.79,308.93,190.41,308.48,189,304.91Z"/><path class="cls-1" d="M172.45,310.93c4.36-1.32,5.43-.86,6.31,2.54C174.9,315.21,173.51,314.67,172.45,310.93Z"/><path class="cls-1" d="M80.08,323.9v3.26l-4.93.51C74.46,324.36,74.65,324.22,80.08,323.9Z"/><path class="cls-1" d="M177,306.2c4.48-1.48,5-1.26,6.08,2.3C179.1,310.19,178,309.78,177,306.2Z"/><path class="cls-1" d="M195,303.66l-2.29-3.32c3.15-1.89,5-1.27,6.75,2.18l-4.52,1.16Z"/><path class="cls-1" d="M183,305.56c4.07-1.47,4.94-1.15,6.23,2.3C185.84,309.58,184.11,308.94,183,305.56Z"/><path class="cls-1" d="M193.09,303.23c-5,1.13-5.31,1-6-2.41C191,299.26,191.95,299.6,193.09,303.23Z"/><path class="cls-1" d="M127.43,313.95l-.75-3.21c3.52-1.73,5.13-1.1,5.61,2.41Z"/><path class="cls-1" d="M59.6,166.31a35.21,35.21,0,0,1,5.27-1.46c.76-.09,1.64.77,2.25,1.08l-2.64,3.78Z"/><path class="cls-1" d="M181.14,304.44c-4.7,1.25-5.1,1.1-6.22-2.27C178.45,300.42,179.84,300.89,181.14,304.44Z"/><path class="cls-1" d="M138.71,312.63l-5,.47L133,310C138.11,309,138.56,309.55,138.71,312.63Z"/><path class="cls-1" d="M206.12,302.11a32.5,32.5,0,0,1-3.34.47c-2.51.1-2.87-.22-3.71-2.94,2.88-1.29,4-1,5.75,1.21a13.06,13.06,0,0,0,1.3,1.28Z"/><path class="cls-1" d="M168.86,302.52c4.83-1.06,5.1-.95,5.87,2.39C170.61,306.46,169.88,306.18,168.86,302.52Z"/><path class="cls-1" d="M180.92,301.41c4.54-1.33,5.12-1.1,6.07,2.3C183,305.24,182.07,304.93,180.92,301.41Z"/><path class="cls-1" d="M59.69,339.09c1.9-1.4,1.68-4.46,4.59-3.55a2.45,2.45,0,0,1,1.5,1.68A2.3,2.3,0,0,1,64.41,339,26,26,0,0,1,59.69,339.09Z"/><path class="cls-1" d="M145,312.06c-5.21.85-5.21.85-5.52-2.55C143.15,308.36,144.54,309,145,312.06Z"/><path class="cls-1" d="M178.88,297.44c4.79-1.29,5.13-1.16,5.85,2.2C181.1,301,180.1,300.69,178.88,297.44Z"/><path class="cls-1" d="M70.43,334.4h2.86c-.14,1.27.12,2.72-.48,3.61-1,1.49-4.25.52-4-1.07C69,336.09,69.79,335.36,70.43,334.4Z"/><path class="cls-1" d="M172.84,300.93c-4.23,1.32-4.75,1.11-5.7-2.35C171,297.24,172.11,297.69,172.84,300.93Z"/><path class="cls-1" d="M178.78,300.24c-4,1.51-4.8,1.21-5.65-2.09C176.92,296.63,178.05,297,178.78,300.24Z"/><path class="cls-1" d="M202.61,298c-4,1.14-4.73.87-6-2.25C200.49,294.43,201.34,294.73,202.61,298Z"/><path class="cls-1" d="M67.38,328c.5-1.41.62-3.21,1.37-3.54,1.89-.83,2.85.56,3.41,2.49l.84-2.31c.61,2.85.11,3.42-2.61,3.14A21.5,21.5,0,0,0,67.38,328Z"/><path class="cls-1" d="M208.45,297.51c-3.79,1.17-4.66.82-5.92-2.3C206.49,293.84,207.14,294.08,208.45,297.51Z"/><path class="cls-1" d="M190.17,295.9c.91-.07,1.83-.1,2.73-.22,2.1-.29,3.31.58,3.69,2.65-3.11,1.42-4,1.06-6.38-2.43Z"/><path class="cls-1" d="M182.81,295.76c-3.88,1.29-4.49,1.08-5.5-1.89C180.7,292.21,182,292.64,182.81,295.76Z"/><path class="cls-1" d="M80.32,328.73l.21,3.37c-4.56,1.13-5.32,1-5.54-1,2.58,2.37,2.92-.82,4.14-1.82l-2.81,1.34C76.64,328.61,77.18,328.36,80.32,328.73Z"/><path class="cls-1" d="M171.46,294.27c4.11-1.12,4.66-.9,5.38,2.05C173.2,297.83,172.19,297.48,171.46,294.27Z"/><path class="cls-1" d="M190.22,295.9l-1.64-3.18c3.42-1.42,4.71-1,5.89,2l-4.28,1.19Z"/><path class="cls-1" d="M126,306.46a27.56,27.56,0,0,1,4.53-.15c.32,0,.48,1.43.72,2.2C127,309.87,126.46,309.67,126,306.46Z"/><path class="cls-1" d="M165.62,294.76c4.12-.94,4.66-.72,5.28,2.09C167,298.15,166.32,297.9,165.62,294.76Z"/><path class="cls-1" d="M136.53,305.42l1.21,2.79a12.46,12.46,0,0,1-2.95.32,9.57,9.57,0,0,1-2.41-1,16.41,16.41,0,0,1,2.26-2C135.08,305.19,135.82,305.42,136.53,305.42Z"/><path class="cls-1" d="M152.91,316.19c-1.4.11-2.88.54-4.16.19a3.06,3.06,0,0,1-1.39-2.6c.16-1.3,1.18-.13,1.74-.19,2-.22,2.71,1.24,4,1.89Z"/><path class="cls-1" d="M205.79,292.11l.18,1.55c-4.35.88-4.45.84-5.82-2.26,2-.22,4.05-1.64,5.69.78Z"/><path class="cls-1" d="M132.2,219.52c-.54.43-1.2,1.29-1.6,1.18-.56-.15-1-1-1.36-1.59a10.65,10.65,0,0,1-.56-2.14c.1-.17.14-.38.25-.41,3.62-1.23,3.66-1.19,3.23,3Z"/><path class="cls-1" d="M3.87,278.26c2-5.49,2-5.49,5.9-4.49l-4.14,1.48c.16.29.2.45.31.53.7.56,2.74-.48,2.14,1.28C7.84,277.75,5.69,277.78,3.87,278.26Z"/><path class="cls-1" d="M119.7,219.32l1.58-2.84a6.1,6.1,0,0,1,.9,2.13c.1,1.51,0,3.14-2.35,3.65l-1.27-4Z"/><path class="cls-1" d="M186.8,289.07c3.59-1.19,4.12-1,5.45,1.62C189.45,292.29,187.86,291.85,186.8,289.07Z"/><path class="cls-1" d="M198.41,289.69l-.47-1.91c4-.89,4.2-.84,5.76,2-1.85.45-3.61,1.09-5.36-.19Z"/><path class="cls-1" d="M181.23,289.58c4.18-1.07,4.18-1.07,5.36,1.72C183.49,292.82,182.11,292.41,181.23,289.58Z"/><path class="cls-1" d="M143.11,282c.27.19.73.34.79.59.47,1.83.86,3.68,1.37,5.93l2.48-1.78.35,2.94c-1.39-.36-2.86-.29-3.48-1-1.67-1.87-2.6-4.15-1.46-6.75Z"/><path class="cls-1" d="M61.28,331a19.7,19.7,0,0,1,3-.8,2.24,2.24,0,0,1,1.6.64,1.38,1.38,0,0,1,.09,1.37c-.24.29-.92.22-1.39.34-.26.06-.5.23-.76.28-.67.13-1.55.53-2,.25a7,7,0,0,1-1.46-2Z"/><path class="cls-1" d="M169.73,290.62c3.75-.84,4.23-.67,5.24,1.73C171.92,293.86,170.48,293.42,169.73,290.62Z"/><path class="cls-1" d="M169.11,293.28c-1.69-.33-3.68,1.87-4.81-1-.13-.33.42-1.26.84-1.41C167.37,290.1,168.39,290.71,169.11,293.28Z"/><path class="cls-1" d="M125.19,215.39c2.2,1.4,2.46,5.27.94,6-.35.17-1.68-.66-1.67-1A40.17,40.17,0,0,1,125.19,215.39Z"/><path class="cls-1" d="M89.83,218.18c2.5,1.08,3.25,4.5,1.86,5.68-.28.24-1.74-.24-1.77-.49A50.94,50.94,0,0,1,89.83,218.18Z"/><path class="cls-1" d="M195.25,284.69c3.77-1.26,4.82-1,6,1.52-2.7,1.47-3.59,1.24-6-1.59Z"/><path class="cls-1" d="M180.79,292c-3.52,1.07-4.51.71-5.21-1.75C178.95,289.12,179.82,289.39,180.79,292Z"/><path class="cls-1" d="M100,217.76c2.14,1,2.78,4.46,1.39,5.51-1,.74-1.9.44-1.93-.8A34.71,34.71,0,0,1,100,217.76Z"/><path class="cls-1" d="M95,217.87c2.11,1,2.67,4.79,1.23,5.69-.3.19-1.68-.52-1.69-.82A40.74,40.74,0,0,1,95,217.87Z"/><path class="cls-1" d="M85.48,218.68c2,1.12,2.65,4.46,1.51,5.56-.88.85-1.72.48-1.79-.56A38.49,38.49,0,0,1,85.48,218.68Z"/><path class="cls-1" d="M195.18,284.62l.45,2.15c-3.4,1.26-4.29,1-5.4-2.08h5Z"/><path class="cls-1" d="M165.06,312l1.27,2.9c-1.53.18-2.76.39-4,.43-.44,0-.89-.36-1.33-.56.29-.47.48-1.11.9-1.36A27.94,27.94,0,0,1,165.06,312Z"/><path class="cls-1" d="M190.26,287.45c-3.69,1-4.34.77-5.31-1.56C187.79,284.53,189,284.87,190.26,287.45Z"/><path class="cls-1" d="M145.81,172.85c.77,1,1.57,1.9,2.26,2.92,0,.05-.83,1-1.32,1.05-.79.06-2.26-.2-2.31-.5a11.44,11.44,0,0,1,.35-3.18Z"/><path class="cls-1" d="M143.54,167.64l6.3,1.4.31.52c-.87.39-1.74,1.1-2.59,1.09C145.86,170.62,144,170.39,143.54,167.64Z"/><path class="cls-1" d="M188.23,284.06c-3.51,1-4.17.84-5.22-1.53C185.76,281.35,186.93,281.66,188.23,284.06Z"/><path class="cls-1" d="M174,286.79c4.1-.82,4.1-.82,4.74,1.76C174.57,289.49,174.43,289.44,174,286.79Z"/><path class="cls-1" d="M170.4,310.11l-4.43.33,2.48-3.73,2.53,2.64Z"/><path class="cls-1" d="M168.3,287.51c3.1-1,4-.73,4.81,1.43C169.34,290,169.12,290,168.3,287.51Z"/><path class="cls-1" d="M188.45,282c3.37-1.26,4.1-1,5.1,1.42C190.24,284.67,189.59,284.5,188.45,282Z"/><path class="cls-1" d="M193.77,281.15c2.07.15,4.34-1.17,5.23,1.81C195.31,284.15,195.05,284.07,193.77,281.15Z"/><path class="cls-1" d="M182.6,285.39l2.71,1.49c-3.72,2.17-4.86,1.82-5.64-.65l3-.89Z"/><path class="cls-1" d="M207.3,279c-3.26,1.13-3.72,1-4.95-1.37C204.84,276.29,206.09,276.61,207.3,279Z"/><path class="cls-1" d="M180.73,281.56c-1.76,0-3.7,1.29-4.89-1.14C178.12,278.62,179.75,279,180.73,281.56Z"/><path class="cls-1" d="M182.64,285.34a19.58,19.58,0,0,0-2.59-.19c-1.38.08-2.16-.43-2.28-1.84,3.42-1.54,4.7-1,4.83,2.08Z"/><path class="cls-1" d="M188.21,259.44c-3.94,2.24-3.6-.81-4.08-2.78,1.75-.88,1.61-.84,2.09.9C186.42,258.25,187.41,258.72,188.21,259.44Z"/><path class="cls-1" d="M81.52,219.28c2,1.07,2.46,4.75,1.08,5.52-.25.14-1.32-.48-1.33-.77C81.22,222.56,81.4,221.09,81.52,219.28Z"/><path class="cls-1" d="M191.3,280.21c-2.73,1.3-3.68,1.05-4.6-1.09C189.36,277.85,190.26,278,191.3,280.21Z"/><path class="cls-1" d="M204.5,280.4c2.12-.35,4-.78,5,1.65C206.47,283.33,205.79,283.13,204.5,280.4Z"/><path class="cls-1" d="M204.42,282.75c-1.86-.19-4.08,1.62-5.07-1.47C202,279.95,203.11,280.24,204.42,282.75Z"/><path class="cls-1" d="M194.81,274.77c2.11-.28,4.27-1.55,5.15,1.71C198.08,276.53,196,277.84,194.81,274.77Z"/><path class="cls-1" d="M206.64,283.68c3.19-.86,4-.55,4.64,1.68C208.53,286.58,208.07,286.43,206.64,283.68Z"/><path class="cls-1" d="M110.79,308.21l-2.41,2.66c-.45-.56-1.28-1.13-1.28-1.69,0-2.25,1.9-1.27,3-1.73Z"/><path class="cls-1" d="M177,285.09c-3.9,1-4.4.83-4.6-1.45l3.7-.21a4.05,4.05,0,0,1,.5.65A6.27,6.27,0,0,1,177,285.09Z"/><path class="cls-1" d="M90.44,320.67l1-3.26c.41,1.25,1,2.7.88,2.79a25,25,0,0,1-3.87,1.58v-3.52Z"/><path class="cls-1" d="M202.19,279.54c-2,.12-4.13,1.57-5.06-1.47C199,277.28,200.87,276.67,202.19,279.54Z"/><path class="cls-1" d="M77.63,220c1.86.87,2.46,4.58,1.13,5.4-.22.13-1-.54-1.43-.94-.15-.14-.06-.58,0-.88C77.39,222.43,77.51,221.32,77.63,220Z"/><path class="cls-1" d="M184.53,275.78c1.77-.51,3.6-1.66,4.65,1.05C186.85,278.27,185.56,278,184.53,275.78Z"/><path class="cls-1" d="M105.16,311.09c-1.4.26-2.92.92-4-.73a3.74,3.74,0,0,1-.15-2.08c0-.09,1-.32,1.2-.14a7.56,7.56,0,0,1,1,1.74l2.09.42Z"/><path class="cls-1" d="M65.07,294.82c1,.11,1.82.47,2.27.2,1.14-.67,2.17-4.28,2.28-5.89.29.7,1,1.56.8,2.07a14.93,14.93,0,0,1-2.5,4.48C67,296.71,65.78,296.35,65.07,294.82Z"/><path class="cls-1" d="M192,278.4c1.83-.49,3.64-1.19,4.69,1.28C193.56,281,192.86,280.84,192,278.4Z"/><path class="cls-1" d="M181.18,279.32c1.9.06,3.94-1.6,4.89,1.5C184.26,281,182.32,282.59,181.18,279.32Z"/><path class="cls-1" d="M143.17,282a6.9,6.9,0,0,1-4.24-4.7,4.06,4.06,0,0,1,.14-2.32l2.3,5.31,2.36-1.12-.61,2.88Z"/><path class="cls-1" d="M120.35,167c-.79-.72-1.6-1.11-1.69-1.63a3.78,3.78,0,0,1,.46-2.43c.22-.35,1.19-.24,1.83-.34a12.47,12.47,0,0,1,.08,2.05A16.48,16.48,0,0,1,120.35,167Z"/><path class="cls-1" d="M200.17,274.26c2,0,4-1.19,5,1.7C203.37,276,201.38,277.34,200.17,274.26Z"/><path class="cls-1" d="M81.22,169.27c-1.39-1.56-.49-5.22.84-5.39.28,0,1,.75.92,1C82.54,166.24,81.92,167.59,81.22,169.27Z"/><path class="cls-1" d="M193.14,272.18c3.16-1.14,3.27-1.12,4.43.88C195.14,274.3,194.25,274.15,193.14,272.18Z"/><path class="cls-1" d="M190.79,270.85c-2.13.33-3.9,1.18-4.9-1.37C187.65,269.06,189.33,268.44,190.79,270.85Z"/><path class="cls-1" d="M68.43,219.86l-1.58.23,1.83,2.9c-2.17-.48-2.54-3.91-5.65-2.06l1.55-2.55Z"/><path class="cls-1" d="M198.18,271.45c1.87-.15,3.93-1.42,4.79,1.6C201.2,273,199.08,274.44,198.18,271.45Z"/><path class="cls-1" d="M205.11,273.78c1.83,0,3.65-1,4.64,1.46C207.79,276.08,206.24,276.34,205.11,273.78Z"/><path class="cls-1" d="M207.51,276.83c3.16-.5,3.22-.48,4.16,1.6C209.83,279.24,208.22,279.54,207.51,276.83Z"/><path class="cls-1" d="M190.1,275.2c1.82-.32,3.57-1.14,4.36,1.32C191.33,277.7,190.83,277.58,190.1,275.2Z"/><path class="cls-1" d="M101.84,102.21V95C103.52,96.59,103.59,101.24,101.84,102.21Z"/><path class="cls-1" d="M191.9,263.92a6,6,0,0,1-1.25,1.4,6.79,6.79,0,0,1-1.91.47l.06-.06L187.3,264l.3-.7L192,264Z"/><path class="cls-1" d="M188.74,265.79a23.7,23.7,0,0,0,2.44.11c1.61-.08,1.61-.12,2.42,1.66-2.91,1.08-3.52.84-4.8-1.84Z"/><path class="cls-1" d="M7.38,280l-4.76,1.4c.95-2.88,1.38-3,4.57-2Z"/><path class="cls-1" d="M195.59,270.71c-1.65-.39-3.38.75-4.3-1.3C193.66,268.16,194.57,268.38,195.59,270.71Z"/><path class="cls-1" d="M57.91,331.94l-1.58,1.69,3.07-.58c-1.74,2-3.62.68-5.11,1.21l-.33-.6,3.49-2.18Z"/><path class="cls-1" d="M95.75,314c1.17.22,2.19.35,3.17.63.34.1.57.57.85.87-.32.26-.61.72-1,.76C97.28,316.48,96,316.13,95.75,314Z"/><path class="cls-1" d="M74.49,226.8l.34-6C76.55,222.32,76.51,224.85,74.49,226.8Z"/><path class="cls-1" d="M56.46,338.74l-3,1-.76-3.7Z"/><path class="cls-1" d="M85.44,167.66c.95-1.27-.24-4,2.36-4.14l.91.62L86,168.07Z"/><path class="cls-1" d="M207.9,272.66c-1.75-.5-3.81,1.4-4.5-1.63C205,270.93,206.75,270,207.9,272.66Z"/><path class="cls-1" d="M196.44,269c2.83-1,3-1,4,1C197.57,270.66,197.57,270.66,196.44,269Z"/><path class="cls-1" d="M205.21,270.09l-4.11-1,.18-.79c1.53-.29,3.22-1.29,4.21.94Z"/><path class="cls-1" d="M182.69,264.39c1.49-.22,3.26-1.78,4.47,1.32l-4.54-.42Z"/><path class="cls-1" d="M9.71,272.07H6.6c-.1-2.92,2.2-1.39,3.35-2.12Z"/><path class="cls-1" d="M132.16,219.59l1.36-4.65c1,1.58.65,4.81-.41,5.33-.14.07-.6-.5-.91-.77Z"/><path class="cls-1" d="M114.47,166.32a25.51,25.51,0,0,1,.44-3.26c0-.15,1.06-.06,1.62-.08l-.92,3.54Z"/><path class="cls-1" d="M201.31,264.51l-4.06-.67.19-1.17,4.09.54Z"/><path class="cls-1" d="M198.52,267c-1.62.59-3,1.28-4.23-.87C196,265.77,197.36,265.08,198.52,267Z"/><path class="cls-1" d="M188.28,268.18l-3.9-.57.13-.8c1.4-.37,2.85-1.07,3.95.54Z"/><path class="cls-1" d="M148.48,300.94a14.37,14.37,0,0,1,1.13,2.29c0,.14-.83.58-1.27.88l-1-2.67Z"/><path class="cls-1" d="M141.93,307.73c-3,.46-3.31.18-3.31-3Z"/><path class="cls-1" d="M149.48,280.37l-3.08.67a5.77,5.77,0,0,1,0-1.4,26.89,26.89,0,0,1,2.91-.49Z"/><path class="cls-1" d="M192,264l3.92-1.52c-.53,2.8-1.36,3-4,1.45Z"/><path class="cls-1" d="M187.62,271.95l4.77,1.32-.18.69C190.73,273.77,188.9,275,187.62,271.95Z"/><path class="cls-1" d="M14.08,263.22,9.66,264C10.55,262,11.75,261.73,14.08,263.22Z"/><path class="cls-1" d="M105.31,166c.48-1,.95-1.95,1.5-2.88a5.84,5.84,0,0,1,1.14.41l-1.5,3Z"/><path class="cls-1" d="M187,274.35l-3.13.25c.46-.84.76-1.89,1.09-1.9a6.9,6.9,0,0,1,2.32.74Z"/><path class="cls-1" d="M152.93,290.41c-2,.69-2.39-.78-3.09-2C152.08,287.83,152.08,287.83,152.93,290.41Z"/><path class="cls-1" d="M75.35,167.46c.36-1.08.68-2.17,1.13-3.2,0-.1.89.16,1.36.25l-1.21,3.37Z"/><path class="cls-1" d="M7.63,172.49l2,1.6-2,1.75-.57-3.14Z"/><path class="cls-1" d="M188.73,258l4.2.5C190.6,260.29,189.84,260.16,188.73,258Z"/><path class="cls-1" d="M8.81,265.82c.93-1.28,2.09-1,3.91.24L9,266.72Z"/><path class="cls-1" d="M47.34,191.88l-4.93-.39.1-.94,4.86.68Z"/><path class="cls-1" d="M92.66,162.81c.42.84.89,1.39.77,1.6A10.94,10.94,0,0,1,92,166.13c-.33-.4-1-1-.93-1.18A11.33,11.33,0,0,1,92.66,162.81Z"/><path class="cls-1" d="M109.74,166.1c.44-1,.87-2.09,1.38-3.1a5.36,5.36,0,0,1,1.16.32l-1.39,3.21Z"/><path class="cls-1" d="M184.88,262.9h-3.66c1-.89,1.57-1.7,2.14-1.73s1.23.69,1.85,1.08Z"/><path class="cls-1" d="M10.67,260.12l3.84-.24C13.22,261.63,12.19,261.74,10.67,260.12Z"/><path class="cls-1" d="M34.2,174.57c2.16-1.73,4.06-1.16,5.91-1l.07.64Z"/><path class="cls-1" d="M95.72,165.57l1.82-2.3c.31.27.92.71.88.77-.48.81-1,1.56-1.59,2.32Z"/><path class="cls-1" d="M103.8,164.12l-1.79,2c-.3-.46-.93-1-.82-1.35a3.82,3.82,0,0,1,1.36-1.51C102.66,163.14,103.23,163.69,103.8,164.12Z"/><path class="cls-1" d="M146.16,301.2l-1.8-1.42c.29-.3.74-.9.84-.85A14.77,14.77,0,0,1,147,300.2Z"/><path class="cls-1" d="M11.27,258.93c1.69-1.75,2.79-1.81,4.15-.32Z"/><path class="cls-1" d="M141.93,205.55c-.54-.9-1.06-1.4-1.1-1.94,0-.34.68-.73,1.05-1.1.42.46,1,.87,1.19,1.4C143.16,204.23,142.51,204.75,141.93,205.55Z"/><path class="cls-1" d="M82.95,324.72l-.13,1.17,2.15.28-.15.87-3-.84.63-1.64Z"/><path class="cls-1" d="M2.83,256.74c.65-2.31,2.33-1.37,3.74-1.4C6.29,257.27,5.69,257.49,2.83,256.74Z"/><path class="cls-1" d="M109.54,40.61l7.36-.36c.47.11,1.2.23,1.91.46a19.76,19.76,0,0,1,1.85.81l-1.15,1.37c-.57.67-1.12,1.35-1.71,2s-1,1.37-1.52,1.46c-1.81.27-3.66.24-6,.35Z"/><path class="cls-1" d="M123,44.56c-.55-.91-1-1.38-1-1.84s.54-.89.84-1.33c.4.4,1,.76,1.13,1.22S123.51,43.59,123,44.56Z"/><path class="cls-1" d="M82.33,33.48a7,7,0,0,1-6.24,2.26c-2.2-.18-4.23-.42-5.34-2.81C71.74,30.85,79.6,30.93,82.33,33.48Z"/><path class="cls-1" d="M95.91,65.59l2.4-2c.18.28.54.77.5.82-.73.68-1.52,1.3-2.29,1.93Z"/></g></g></svg>