<svg xmlns="http://www.w3.org/2000/svg" viewBox="0 0 584.12 328.79"><defs><style>.cls-1{fill:none;stroke:#000;stroke-miterlimit:10;stroke-width:0.5px;}</style></defs><title>Asset 28</title><g id="Layer_2" data-name="Layer 2"><g id="Pics"><path class="cls-1" d="M332.64.25l-.58,4.65c1,2.34,2.09,4.28,2.48,6.37.27,1.43.42,2,2,1.92a3.11,3.11,0,0,1,2.29.94c.26.32-.28,1.51-.71,2.12-8,11.44-16,22.9-24.18,34.26q-20.49,28.59-41.12,57.07c-3.24,4.5-6.41,9.05-9.66,13.54-.79,1.1-1,1.79.28,2.79,2.07,1.65,3.94,3.57,5.88,5.38q52.25,48.76,104.53,97.48a5.29,5.29,0,0,0,3.57,1.3c18.71-1.35,37.41-2.84,56.11-4.26q35.67-2.71,71.35-5.35c.52,0,1.3-.17,1.52.1,1.63,2,3.77,1.18,5.72,1.06,6-.38,11.92-.87,18.38-1.36l-2.95-3.73a20.46,20.46,0,0,1,7.08-8,8.23,8.23,0,0,0,2.84-3.62q18.47-45.9,36.78-91.86c1.51-3.78,2.83-7.64,4.23-11.47l-.09.1,3.69-9.43,1.81-3.38v10q-2.55,6.43-5.09,12.86c-4.12,10.49-8.22,21-12.37,31.47a3.68,3.68,0,0,0,1.16,4.57c1.59-2.07.1-5.11,3.13-6.81-1.16,3.05,3.89,2.22,2.73,5.82-.56,1.74,1,4.18,1.77,6.68.52-1.28,1-2.34,1.39-3.45s.93-1.56,2-1c1.7.92,3.57,1.57,3.69,4.1.05,1.08,1,2.12,1.58,3.18M.25,139.77l.93-5.24c3.78-.15,117-29.38,119.63-31.07l-7.63,1.76-.24-2.24c-1,.19-1.81.31-2.61.51q-37.93,9.3-75.85,18.61c-11.42,2.81-22.82,5.7-34.22,8.56q0-6.38,0-12.77a6.75,6.75,0,0,1,.86-.3L102.55,96.49c3.52-.73,7-1.52,10.54-2.28a1.52,1.52,0,0,0-1.37-.29q-45.38,9.31-90.77,18.64C14,114,7.15,115.5.25,117M222.76,328.54a4.9,4.9,0,0,1,.19-.88q8.18-19.66,16.36-39.32a23.64,23.64,0,0,0,1.56-4.22c.77-3.79,1.35-7.62,2-11.44l16.67-96c1.13-6.49,2.24-13,3.46-20-.65.74-1,1-1.21,1.39q-14.3,20.31-28.57,40.64a6.31,6.31,0,0,0-1,2.47c-1.07,6.13-2.07,12.27-3.08,18.4q-7.42,44.94-14.82,89.87c-1,6.36-2,12.74-3,19.11H135.67A13.89,13.89,0,0,0,134,328L56,311.65l-14.72-3c-1.58-.33-3,0-3.54,1.67s.3,2.81,1.64,3.62a6.16,6.16,0,0,0,1.93.63q21.84,4.58,43.67,9.15c7.49,1.58,15,3.24,22.44,4.87H86a9.36,9.36,0,0,0-1.44-.56Q75.4,326,66.27,324.13l-25.84-5.38c-1.66-.35-3.16-.12-3.68,1.69s.5,3,2.16,3.74a9,9,0,0,0,1.53.41l17.73,3.95M230,188.81,229.35,202l1,0q0-6.71,0-13.41c2.16-2.57,4.41-5.08,6.47-7.73q15.1-19.44,30.1-39c.58-.75,1-1.6,1.75-2.76l-7.68-1.48q-69-13.29-138-26.55a9.5,9.5,0,0,0-4.22.09c-10.37,2.92-20.72,6-31.06,9q-39.57,11.52-79.14,23c-1.66.48-3.39.74-5.08,1.1a7.15,7.15,0,0,0,2.69,1l72.83,14.31q68.81,13.52,137.62,27C221,187.52,225.52,188.1,230,188.81Zm-52.78,19c-.1-.26-.17-1.08-.57-1.32a15.48,15.48,0,0,0-4.4-2q-42.85-8.61-85.73-17.07l-32.59-6.5c-1.83-.36-3.39-.06-4,1.93-.55,1.71.42,3.4,2.31,4.15a8.77,8.77,0,0,0,1.54.38l97.76,19.52c7.14,1.43,14.28,2.85,21.44,4.23C175.52,211.62,177.31,210.33,177.23,207.82ZM51.42,191.76c-.62.48-2.12,1-2.35,1.94a4.58,4.58,0,0,0,1,3.57c.67.8,2.11,1.1,3.27,1.33Q106.62,209.32,160,220c3.79.76,7.58,1.54,11.38,2.27,2.19.42,3.76-.4,4.18-2.11s-.59-3.45-2.69-4.11a10.77,10.77,0,0,0-1.11-.24L69.27,195.33Zm-1.17,11c-.62.51-2.17,1.17-2.29,2a5.29,5.29,0,0,0,1.28,3.7c.63.73,2,.88,3.14,1.1q49.42,10,98.84,19.89c6.17,1.24,12.34,2.51,18.52,3.73,2.19.43,3.75-.41,4.21-2.1s-.66-3.41-2.76-4.07a13,13,0,0,0-1.33-.29L66.09,205.93C61,204.91,56,203.92,50.25,202.8Zm-.94,11c-.61.46-1.89,1-2.42,1.93a2.71,2.71,0,0,0,1.21,3.73,11,11,0,0,0,3.42,1.13q50.41,10.21,100.83,20.38c5.35,1.08,10.7,2.2,16.07,3.23,1.82.35,3.42-.1,3.91-2.15s-.52-3.21-2.31-3.87a11.64,11.64,0,0,0-1.76-.44L67.38,217.37C61.58,216.2,55.78,215.05,49.31,213.76Zm-1.13,10.83c-.61.5-1.89,1.06-2.37,2a2.78,2.78,0,0,0,1.52,3.82,16.21,16.21,0,0,0,3.92,1.1Q96.87,240.8,142.49,250q12,2.44,24.11,4.83c2.29.45,3.78-.32,4.22-2s-.65-3.29-2.61-4a11,11,0,0,0-1.33-.31L65.79,228.15Zm117.47,41.15c1.75.07,3.06-.37,3.55-2a2.94,2.94,0,0,0-1.83-3.7,13.22,13.22,0,0,0-3.05-.84l-88.6-18-27-5.49c-1.82-.37-3.38-.17-4.05,1.86-.54,1.64.51,3.32,2.47,4a14.89,14.89,0,0,0,2,.48l97.28,19.8ZM165,276.56c.66-.52,2.2-1.15,2.45-2.11s-.51-2.51-1.23-3.49c-.43-.6-1.62-.72-2.49-.9q-48-9.81-95.94-19.58c-6.77-1.38-13.53-2.77-20.31-4.11-1.69-.34-3.26-.12-3.89,1.82-.52,1.58.6,3.33,2.51,4a11.26,11.26,0,0,0,1.54.37L147.82,273ZM45.11,256.65c-.6.47-2.12,1.08-2.3,2A5.27,5.27,0,0,0,44,262.12c.43.6,1.6.76,2.47.94Q99.65,274,152.81,284.9c3.27.67,6.54,1.35,9.82,2a2.79,2.79,0,0,0,3.54-2.07c.45-1.72-.51-2.92-2-3.64a8.79,8.79,0,0,0-2-.55L62.29,260.14C56.79,259,51.29,257.9,45.11,256.65Zm117,40.93c.63-.54,1.9-1.18,2.43-2.2.78-1.51-.18-2.81-1.56-3.55a9.52,9.52,0,0,0-2.6-.77L63.82,271.19c-6.09-1.25-12.19-2.52-18.29-3.74-1.68-.34-3.27-.2-3.88,1.78-.53,1.7.51,3.33,2.48,4a10.42,10.42,0,0,0,1.33.3L144.66,294Zm-1.43,10.36c.64-.58,2.15-1.31,2.31-2.27s-.75-2.41-1.52-3.38c-.43-.54-1.51-.6-2.32-.77l-91.87-19C59.84,281,52.41,279.46,45,278c-2.63-.53-4,.12-4.41,1.92s.9,3.34,3.26,3.94c.29.07.6.11.9.17l101,20.9C150.46,305.86,155.22,306.82,160.67,307.94ZM41.87,287.89c-.57.49-1.79,1-2.05,1.9a3.4,3.4,0,0,0,.7,3,9,9,0,0,0,3.88,1.62q45.67,9.54,91.36,19l21.84,4.52c1.84.38,3.39.08,4-1.9.54-1.61-.65-3.29-2.65-3.87-.87-.25-1.78-.39-2.67-.57L56,290.79Zm-.74,10.29c-.55.39-2,.9-2.23,1.73a4.43,4.43,0,0,0,.92,3.36c.55.71,1.83,1,2.84,1.19q51,10.68,102.07,21.3,5.46,1.14,10.92,2.27c2.64.54,4.24-.18,4.6-2s-1-3.22-3.41-3.81c-.29-.07-.6-.1-.9-.16l-95.2-19.78Z"/><path class="cls-1" d="M578.46,99.6c-1.41,3.82-2.72,7.69-4.23,11.47q-18.33,46-36.78,91.86a8.23,8.23,0,0,1-2.84,3.62,20.46,20.46,0,0,0-7.08,8l2.95,3.73c-6.46.49-12.42,1-18.38,1.36-1.95.12-4.08.95-5.72-1.06-.22-.27-1-.14-1.52-.1q-35.67,2.66-71.35,5.35c-18.7,1.42-37.4,2.91-56.11,4.26a5.29,5.29,0,0,1-3.57-1.3Q321.5,178.1,269.29,129.3c-1.94-1.81-3.81-3.73-5.88-5.38-1.25-1-1.07-1.69-.28-2.79,3.25-4.49,6.42-9,9.66-13.54Q293.34,79,313.91,50.51c8.14-11.36,16.15-22.82,24.18-34.26.43-.62,1-1.81.71-2.12a3.11,3.11,0,0,0-2.29-.94c-1.55.07-1.7-.5-2-1.92-.39-2.08-1.53-4-2.48-6.37l.58-4.65H440.7a5.27,5.27,0,0,1-.33.84q-10.44,17.38-20.9,34.74C413.66,45.45,407.78,55,402,64.69a2.78,2.78,0,0,0,.38,2.5c2.75,3.34,5.69,6.53,8.47,9.84a13.83,13.83,0,0,1,1.61,2.91,10.36,10.36,0,0,0,.89,2.16c3.66,4.36,7.39,8.67,11.11,13,3,3.5,6,7,9.17,10.42.46.5,1.86.89,2.21.6,3-2.49,6.34-4.5,8.32-8.21,12.41-23.24,25-46.37,37.54-69.55,5-9.35,10-18.73,15.06-28.09h.91c-.28.61-.52,1.25-.84,1.84q-26.45,49-52.94,97.91a12.46,12.46,0,0,1-2.4,3c-1.73,1.65-3.58,3.18-5.44,4.81.58.72.93,1.2,1.34,1.64q15.9,17.42,31.81,34.83Q488.6,165.43,508,186.57c6.52,7.11,13,14.24,19.58,21.31.49.53,1.74,1.18,2,1,2.58-2.09,6.07-3,7.49-6.61q20-50.33,40.18-100.58A16.49,16.49,0,0,1,578.46,99.6ZM355.26,61.83c-.22,1.21-.71,2.18-.42,2.54,1.44,1.78,3.08,3.39,4.65,5.06l.22-.27Z"/><path class="cls-1" d="M578.46,99.6a16.49,16.49,0,0,0-1.19,2.07q-20.13,50.28-40.18,100.58c-1.42,3.58-4.91,4.52-7.49,6.61-.25.2-1.51-.44-2-1-6.56-7.08-13.06-14.2-19.58-21.31q-19.4-21.16-38.81-42.32-15.93-17.39-31.81-34.83c-.4-.44-.76-.93-1.34-1.64,1.86-1.63,3.71-3.16,5.44-4.81a12.46,12.46,0,0,0,2.4-3q26.51-48.93,52.94-97.91c.32-.59.56-1.23.84-1.84h10c-1.05,2.09-2.08,4.19-3.17,6.25q-8.11,15.4-16.25,30.78l-7,13.29c-.68,1.29-1,2.49,1,3.4L510.46.25H515q-6.32,12.11-12.63,24.22Q494.19,40.22,486,56c-.67,1.29-1.2,2.5.78,3.5.44-.74.88-1.41,1.25-2.13q14.18-27.4,28.34-54.81c.38-.73.63-1.52.94-2.28h4.56q-8.58,16.82-17.16,33.65-7,13.78-14.1,27.55c-.66,1.28-1.21,2.49.78,3.51.39-.69.78-1.31,1.11-2q15.5-30.43,31-60.87a15.27,15.27,0,0,0,.67-1.88h4.56Q519.46,18.63,510.22,37q-7.51,14.92-15,29.83c-.64,1.26-1.23,2.48.78,3.53.46-.84.9-1.59,1.3-2.37q16.41-32.73,32.8-65.46c.37-.73.61-1.53.91-2.29h4.56q-7.33,14.66-14.66,29.32-7.61,15.27-15.17,30.57-3.09,6.22-6.19,12.44c-.6,1.2-.79,2.27,1,3.19L537.82.25h4.1a1.67,1.67,0,0,1-.08.45q-11,22.47-22,44.95Q512,61.58,504.2,77.54c-.62,1.27-1.23,2.51.73,3.54.41-.77.83-1.47,1.18-2.19q12.25-25.17,24.48-50.35c4.56-9.42,9.08-18.86,13.62-28.28h4.1c-.2.49-.38,1-.61,1.47L521.35,56.45Q515,69.56,508.73,82.68c-.6,1.25-1.46,2.6.71,3.6.42-.82.82-1.54,1.17-2.27q11.06-23.08,22.11-46.17,9-18.78,17.87-37.59h4.1L529,54.54Q521,71.31,513.07,88.07c-.6,1.26-1.2,2.49.78,3.61L557,.25H571.1c-.27.54-.55,1.08-.8,1.63l-33,72.71Q531,88.37,524.73,102.14c-.55,1.21-1.13,2.4.75,3.39.42-.84.85-1.61,1.21-2.41Q549.43,52.85,572.14,2.58a24.22,24.22,0,0,0,.79-2.33h10.94V13.93c-1.81-1.08-1.79.68-2.15,1.51q-15.68,36-31.3,72-6.48,14.92-13,29.84c-.51,1.18-1.15,2.41.76,3.33.41-.86.81-1.65,1.16-2.47q19.77-45.73,39.54-91.46c1.59-3.67,3.31-7.29,5-10.93V24c-.32.6-.68,1.17-.95,1.79q-14.71,34.33-29.4,68.67-6,13.92-11.92,27.85c-.5,1.18-1.09,2.39.76,3.32.36-.76.71-1.42,1-2.1q18.55-43.57,37.09-87.13c1.06-2.49,2.27-4.92,3.42-7.38v8.21c-.31.6-.67,1.18-.93,1.8q-10.79,25.57-21.56,51.15L545.82,127c-.49,1.17-1.2,2.37.61,3.46.37-.73.73-1.36,1-2Q562.31,93,577.17,57.58c2.17-5.15,4.46-10.26,6.7-15.38v8.66A22.62,22.62,0,0,0,582.7,53Q576,69.08,569.31,85.17l-19.47,46.91c-.47,1.14-1,2.27.69,3.32.4-.85.8-1.62,1.13-2.42q10-24.19,20-48.38c4-9.73,8.13-19.44,12.2-29.17v8.66c-.31.61-.65,1.19-.91,1.82q-8.49,20.74-17,41.49-6,14.63-12,29.27c-.49,1.19-1.33,2.5.62,3.54.35-.76.69-1.43,1-2.11q8.92-21.9,17.84-43.81c3.44-8.41,6.94-16.79,10.41-25.18V86.88l-1.81,3.38-3.69,9.43ZM485.55,85.8a11,11,0,0,0-1.21,1.57c-4,7.78-7.86,15.58-11.83,23.34a3.09,3.09,0,0,0,.52,3.93c2,2.12,3.84,4.31,5.78,6.44,1.44,1.59,2,1.54,2.95-.37,3.86-7.82,7.73-15.64,11.44-23.53a3.79,3.79,0,0,0-.34-3.22c-1.78-2.45-3.86-4.68-5.85-7A12.28,12.28,0,0,0,485.55,85.8ZM576.55,4l-1.11-.23c-.32.65-.65,1.3-.95,2L545.16,71.14q-8,18-16.08,35.95c-.55,1.23-1.22,2.48.7,3.6.49-1,.91-1.91,1.3-2.79q8.85-19.85,17.7-39.7Q562.38,37.64,576,7.07A13.77,13.77,0,0,0,576.55,4ZM534,115.71c.43-.88.82-1.59,1.14-2.34l31.62-72.1q6.44-14.69,12.9-29.37c.48-1.1,1.34-2.31-.54-3.35-.44.92-.83,1.72-1.19,2.54L553.55,66.26l-20.31,46C532.75,113.41,532.18,114.55,534,115.71ZM530.76,180c1.86,0,2.79-1.37,3.48-3,2.69-6.52,5.23-13.11,8.11-19.54,2.47-5.49,1.31-10.22-2.37-14.54q-21-24.63-42-49.19-6.29-7.36-12.58-14.71c-1.58-1.84-3.34-3.42-5.58-3.43A52.76,52.76,0,0,1,485,80.14C494.42,91,503.77,102,513.15,113c8.54,10,17.11,19.94,25.6,30,3.57,4.21,4.65,8.82,2.26,14.14-2.74,6.09-5.11,12.34-7.74,18.48A42.57,42.57,0,0,1,530.76,180Zm-10.27-48.32,1-.14c.88-1.22,1.2-2.34-1.32-3.55Zm-12.69-9.7c-.86,1.09-1.42,2.09-.26,3.18.17.16,1-.07,1.21-.36C509.51,123.6,509.17,122.67,507.8,121.93Z"/><path class="cls-1" d="M211.36,328.54c1-6.37,1.93-12.75,3-19.11q7.38-44.94,14.82-89.87c1-6.14,2-12.28,3.08-18.4a6.31,6.31,0,0,1,1-2.47Q247.48,178.34,261.8,158c.25-.35.56-.65,1.21-1.39-1.22,7-2.34,13.54-3.46,20l-16.67,96c-.66,3.81-1.24,7.64-2,11.44a23.64,23.64,0,0,1-1.56,4.22q-8.17,19.66-16.36,39.32a4.9,4.9,0,0,0-.19.88Z"/><path class="cls-1" d="M496.78.25c-5,9.36-10,18.74-15.06,28.09-12.52,23.18-25.13,46.32-37.54,69.55-2,3.71-5.33,5.72-8.32,8.21-.35.29-1.75-.1-2.21-.6-3.13-3.41-6.14-6.92-9.17-10.42-3.73-4.31-7.45-8.62-11.11-13a10.36,10.36,0,0,1-.89-2.16A13.83,13.83,0,0,0,410.88,77c-2.79-3.31-5.72-6.5-8.47-9.84a2.78,2.78,0,0,1-.38-2.5c5.75-9.66,11.62-19.24,17.44-28.86q10.48-17.35,20.9-34.74a5.27,5.27,0,0,0,.33-.84h12.77c-2.5,4.33-5,8.67-7.52,13-3,5.09-6,10.15-9,15.22l4.66,5.32.48-.84c6-10.23,12-20.45,17.88-30.71.28-.48-.06-1.31-.12-2h1.82l4.73,6.84L470.34.25h.46c-1,1.93-2.08,3.84-3,5.79-.27.54-.58,1.45-.32,1.8,1.35,1.85,2.88,3.57,4.58,5.63L479,.25h.91c-2.21,4-4.33,8-6.66,11.91a2.39,2.39,0,0,0,.33,3.36c1.51,1.66,2.84,3.5,4.25,5.26l-.58.47L471.73,15l-18.3,32.56,5.88,6.94-.55.51-5.92-6.19c-.86,1.46-1.58,2.61-2.24,3.8Q444.86,62.82,439.14,73c-3.09,5.51-3.06,5.48,1.45,10,1.32,1.33,2.72,1.55,4,.35a17.67,17.67,0,0,0,3.38-4.2q21.73-39.46,43.35-79ZM460.95,1.91l-18.9,32.41,5,5.87c.25-.11.35-.12.37-.17q9-15.65,18-31.33a1.74,1.74,0,0,0-.16-1.56C464,5.46,462.63,3.88,460.95,1.91Zm5.61,6.92c-.22.17-.39.24-.46.36q-8.92,15.46-17.8,30.94a1.54,1.54,0,0,0,0,1.38c1.43,1.81,3,3.55,4.62,5.5.62-1,1.05-1.73,1.45-2.44L468.21,20C471.57,14,471.57,14,466.56,8.83ZM446.72,41.49l-5.26-6.11L424.29,64.8,429.87,71ZM435.8,77.63c5.49-9.76,10.81-19.2,16.1-28.66a1.58,1.58,0,0,0,0-1.4c-1.44-1.78-3-3.49-4.6-5.34a10.44,10.44,0,0,0-.64.83c-5.25,9.13-10.52,18.25-15.71,27.41a2.18,2.18,0,0,0,.22,2C432.54,74.13,434.06,75.7,435.8,77.63ZM424,64.05c5.55-9.52,11-18.88,16.47-28.28a1.81,1.81,0,0,0,0-1.6c-1.16-1.57-2.45-3-3.83-4.68a20.57,20.57,0,0,0-1.32,1.74c-4.15,7-8.32,14-12.39,21a17,17,0,0,0-1.7,4.44A6.32,6.32,0,0,0,424,64.05Z"/><path class="cls-1" d="M491.31.25q-21.66,39.5-43.35,79a17.67,17.67,0,0,1-3.38,4.2c-1.28,1.21-2.68,1-4-.35-4.51-4.56-4.54-4.53-1.45-10q5.73-10.22,11.47-20.44c.67-1.18,1.38-2.34,2.24-3.8L458.76,55l.55-.51-5.88-6.94L471.73,15l5.52,6.26.58-.47c-1.41-1.76-2.74-3.6-4.25-5.26a2.39,2.39,0,0,1-.33-3.36c2.33-3.91,4.45-7.93,6.66-11.91Z"/><path class="cls-1" d="M107.4,328.54c-7.48-1.62-14.95-3.29-22.44-4.87q-21.83-4.61-43.67-9.15a6.16,6.16,0,0,1-1.93-.63c-1.33-.81-2.2-2-1.64-3.62s2-2,3.54-1.67l14.72,3L134,328a13.89,13.89,0,0,1,1.68.58Z"/><path class="cls-1" d="M583.87,154.36c-.55-1.06-1.53-2.1-1.58-3.18-.12-2.54-2-3.18-3.69-4.1-1.08-.58-1.66-.14-2,1s-.86,2.17-1.39,3.45c-.73-2.5-2.33-4.94-1.77-6.68,1.16-3.6-3.9-2.77-2.73-5.82-3,1.69-1.55,4.74-3.13,6.81a3.68,3.68,0,0,1-1.16-4.57c4.15-10.48,8.25-21,12.37-31.47q2.53-6.43,5.09-12.86Z"/><path class="cls-1" d="M.25,130.65c11.41-2.86,22.8-5.75,34.22-8.56q37.92-9.34,75.85-18.61c.8-.2,1.63-.32,2.61-.51l.24,2.24,7.63-1.76C118.22,105.15,5,134.38,1.18,134.53l-.93,5.24Z"/><path class="cls-1" d="M459.85.25c.05.67.39,1.5.12,2-5.92,10.26-11.9,20.48-17.88,30.71l-.48.84L437,28.46c3-5.07,6-10.14,9-15.22,2.53-4.32,5-8.66,7.52-13Z"/><path class="cls-1" d="M572.93.25a24.22,24.22,0,0,1-.79,2.33q-22.71,50.28-45.45,100.54c-.36.8-.79,1.58-1.21,2.41-1.88-1-1.3-2.19-.75-3.39Q531,88.37,537.26,74.6l33-72.71c.25-.55.53-1.09.8-1.63Z"/><path class="cls-1" d="M583.87,15.75c-1.66,3.64-3.38,7.26-5,10.93q-19.79,45.72-39.54,91.46c-.35.82-.76,1.61-1.16,2.47-1.91-.92-1.27-2.15-.76-3.33q6.48-14.93,13-29.84,15.64-36,31.3-72c.36-.83.33-2.59,2.15-1.51Z"/><path class="cls-1" d="M557,.25,513.86,91.68c-2-1.12-1.38-2.35-.78-3.61Q521,71.31,529,54.54L554.69.25Z"/><path class="cls-1" d="M583.87,29c-1.14,2.46-2.35,4.89-3.42,7.38q-18.56,43.56-37.09,87.13c-.29.68-.63,1.34-1,2.1-1.84-.92-1.26-2.14-.76-3.32q6-13.93,11.92-27.85,14.7-34.33,29.4-68.67c.27-.62.63-1.2.95-1.79Z"/><path class="cls-1" d="M58.16,328.54l-17.73-3.95a9,9,0,0,1-1.53-.41c-1.65-.7-2.68-1.91-2.16-3.74s2-2,3.68-1.69l25.84,5.38Q75.4,326,84.53,328a9.36,9.36,0,0,1,1.44.56Z"/><path class="cls-1" d="M550.59.25Q541.65,19,532.72,37.84q-11,23.1-22.11,46.17c-.35.74-.75,1.45-1.17,2.27-2.18-1-1.31-2.35-.71-3.6q6.3-13.12,12.62-26.23L547.7,1.72c.23-.48.41-1,.61-1.47Z"/><path class="cls-1" d="M544.2.25c-4.54,9.43-9.05,18.87-13.62,28.28q-12.21,25.19-24.48,50.35c-.35.73-.77,1.43-1.18,2.19-2-1-1.35-2.27-.73-3.54q7.8-15.94,15.6-31.89,11-22.48,22-44.95a1.67,1.67,0,0,0,.08-.45Z"/><path class="cls-1" d="M583.87,42.2c-2.24,5.13-4.53,10.23-6.7,15.38Q562.28,93,547.45,128.46c-.28.67-.64,1.3-1,2-1.82-1.09-1.11-2.29-.61-3.46l15.55-36.9Q572.16,64.56,582.94,39c.26-.62.62-1.2.93-1.8Z"/><path class="cls-1" d="M537.82.25,500.57,75.77c-1.84-.92-1.64-2-1-3.19q3.11-6.22,6.19-12.44,7.58-15.29,15.17-30.57Q528.19,14.9,535.54.25Z"/><path class="cls-1" d="M531,.25c-.3.76-.55,1.56-.91,2.29Q513.68,35.28,497.26,68c-.39.78-.84,1.54-1.3,2.37-2-1-1.42-2.26-.78-3.53q7.53-14.91,15-29.83Q519.47,18.64,528.7.25Z"/><path class="cls-1" d="M583.87,55.42c-4.07,9.72-8.16,19.43-12.2,29.17q-10,24.18-20,48.38c-.33.8-.73,1.57-1.13,2.42-1.71-1-1.16-2.18-.69-3.32l19.47-46.91Q576,69.08,582.7,53a22.62,22.62,0,0,1,1.17-2.14Z"/><path class="cls-1" d="M524.14.25a15.27,15.27,0,0,1-.67,1.88Q508,32.57,492.49,63c-.33.65-.72,1.27-1.11,2-2-1-1.43-2.23-.78-3.51q7.06-13.77,14.1-27.55Q513.29,17.08,521.86.25Z"/><path class="cls-1" d="M517.3.25c-.31.76-.56,1.55-.94,2.28Q502.21,29.95,488,57.34c-.37.71-.81,1.39-1.25,2.13-2-1-1.45-2.22-.78-3.5q8.21-15.75,16.4-31.5Q508.7,12.36,515,.25Z"/><path class="cls-1" d="M583.87,69.1c-3.47,8.39-7,16.77-10.41,25.18q-9,21.89-17.84,43.81c-.28.69-.62,1.35-1,2.11-2-1-1.11-2.35-.62-3.54q6-14.64,12-29.27,8.48-20.74,17-41.49c.26-.63.6-1.21.91-1.82Z"/><path class="cls-1" d="M510.46.25,482.28,54c-2-.91-1.67-2.11-1-3.4l7-13.29Q496.44,21.9,504.56,6.5c1.09-2.07,2.11-4.17,3.17-6.25Z"/><path class="cls-1" d="M.25,117c6.9-1.47,13.79-3,20.7-4.41q45.38-9.34,90.77-18.64a1.52,1.52,0,0,1,1.37.29c-3.51.76-7,1.55-10.54,2.28L1.11,117.59a6.75,6.75,0,0,0-.86.3Z"/><path class="cls-1" d="M479,.25l-7,13.22c-1.71-2.06-3.23-3.78-4.58-5.63-.25-.34.06-1.26.32-1.8,1-2,2-3.87,3-5.79Z"/><path class="cls-1" d="M470.34.25,466.4,7.09,461.68.25Z"/><path class="cls-1" d="M230,188.81c-4.48-.71-9-1.29-13.44-2.16q-68.82-13.47-137.62-27L6.11,145.32a7.15,7.15,0,0,1-2.69-1c1.7-.36,3.42-.62,5.08-1.1q39.58-11.49,79.14-23c10.35-3,20.69-6.05,31.06-9a9.5,9.5,0,0,1,4.22-.09q69,13.23,138,26.55l7.68,1.48c-.73,1.16-1.17,2-1.75,2.76q-15,19.49-30.1,39c-2.06,2.65-4.31,5.16-6.47,7.73Z"/><path class="cls-1" d="M177.23,207.82c.09,2.51-1.71,3.8-4.3,3.3-7.15-1.38-14.29-2.81-21.44-4.23L53.74,187.37A8.77,8.77,0,0,1,52.2,187c-1.88-.75-2.86-2.44-2.31-4.15.65-2,2.21-2.3,4-1.93l32.59,6.5q42.87,8.52,85.73,17.07a15.48,15.48,0,0,1,4.4,2C177.06,206.74,177.12,207.57,177.23,207.82Z"/><path class="cls-1" d="M51.42,191.76l17.84,3.57,102.45,20.47a10.77,10.77,0,0,1,1.11.24c2.1.66,3.14,2.27,2.69,4.11s-2,2.54-4.18,2.11c-3.8-.73-7.59-1.51-11.38-2.27Q106.62,209.3,53.29,198.6c-1.16-.23-2.59-.53-3.27-1.33a4.58,4.58,0,0,1-1-3.57C49.31,192.8,50.8,192.23,51.42,191.76Z"/><path class="cls-1" d="M50.25,202.8c5.72,1.13,10.78,2.11,15.84,3.13l103.77,20.84a13,13,0,0,1,1.33.29c2.1.66,3.23,2.34,2.76,4.07s-2,2.53-4.21,2.1c-6.18-1.22-12.35-2.49-18.52-3.73q-49.42-9.94-98.84-19.89c-1.1-.22-2.51-.37-3.14-1.1a5.29,5.29,0,0,1-1.28-3.7C48.08,204,49.63,203.31,50.25,202.8Z"/><path class="cls-1" d="M49.31,213.76c6.47,1.29,12.28,2.43,18.08,3.6L168.24,237.7a11.64,11.64,0,0,1,1.76.44c1.79.67,2.78,1.93,2.31,3.87s-2.09,2.5-3.91,2.15c-5.36-1-10.71-2.15-16.07-3.23q-50.42-10.18-100.83-20.38a11,11,0,0,1-3.42-1.13,2.71,2.71,0,0,1-1.21-3.73C47.42,214.74,48.69,214.22,49.31,213.76Z"/><path class="cls-1" d="M48.18,224.59l17.61,3.56L166.88,248.6a11,11,0,0,1,1.33.31c2,.66,3,2.3,2.61,4s-1.93,2.46-4.22,2q-12.06-2.38-24.11-4.83-45.62-9.24-91.24-18.51a16.21,16.21,0,0,1-3.92-1.1,2.78,2.78,0,0,1-1.52-3.82C46.29,225.65,47.57,225.09,48.18,224.59Z"/><path class="cls-1" d="M165.65,265.74l-19.26-3.91L49.11,242a14.89,14.89,0,0,1-2-.48c-2-.69-3-2.37-2.47-4,.67-2,2.23-2.23,4.05-1.86l27,5.49,88.6,18a13.22,13.22,0,0,1,3.05.84,2.94,2.94,0,0,1,1.83,3.7C168.71,265.37,167.39,265.81,165.65,265.74Z"/><path class="cls-1" d="M165,276.56,147.82,273,47.67,252.56a11.26,11.26,0,0,1-1.54-.37c-1.91-.68-3-2.43-2.51-4,.63-1.94,2.2-2.16,3.89-1.82,6.77,1.35,13.54,2.73,20.31,4.11q48,9.78,95.94,19.58c.88.18,2.06.31,2.49.9.72,1,1.49,2.47,1.23,3.49S165.69,276,165,276.56Z"/><path class="cls-1" d="M45.11,256.65c6.18,1.25,11.68,2.36,17.18,3.48l99.89,20.46a8.79,8.79,0,0,1,2,.55c1.52.71,2.48,1.91,2,3.64a2.79,2.79,0,0,1-3.54,2.07c-3.28-.6-6.55-1.28-9.82-2Q99.65,274,46.5,263.06c-.87-.18-2-.34-2.47-.94a5.27,5.27,0,0,1-1.21-3.51C43,257.73,44.51,257.12,45.11,256.65Z"/><path class="cls-1" d="M162.11,297.58,144.66,294l-99.2-20.44a10.42,10.42,0,0,1-1.33-.3c-2-.69-3-2.31-2.48-4,.61-2,2.2-2.12,3.88-1.78,6.1,1.22,12.19,2.49,18.29,3.74l96.55,19.87a9.52,9.52,0,0,1,2.6.77c1.38.75,2.34,2,1.56,3.55C164,296.4,162.74,297,162.11,297.58Z"/><path class="cls-1" d="M160.67,307.94c-5.46-1.11-10.22-2.07-15-3.06L44.71,284c-.3-.06-.6-.09-.9-.17-2.35-.6-3.63-2.14-3.26-3.94S42.34,277.42,45,278c7.44,1.51,14.87,3.06,22.3,4.6l91.87,19c.81.17,1.89.23,2.32.77.77,1,1.69,2.34,1.52,3.38S161.32,307.35,160.67,307.94Z"/><path class="cls-1" d="M41.87,287.89,56,290.79l100.31,20.78c.89.18,1.8.32,2.67.57,2,.59,3.19,2.27,2.65,3.87-.66,2-2.21,2.28-4,1.9l-21.84-4.52q-45.69-9.48-91.36-19a9,9,0,0,1-3.88-1.62,3.4,3.4,0,0,1-.7-3C40.09,288.93,41.3,288.37,41.87,287.89Z"/><path class="cls-1" d="M41.13,298.18l19.62,4.08L155.94,322c.3.06.6.09.9.16,2.43.59,3.75,2.07,3.41,3.81s-2,2.56-4.6,2q-5.46-1.12-10.92-2.27-51-10.64-102.07-21.3c-1-.21-2.29-.48-2.84-1.19a4.43,4.43,0,0,1-.92-3.36C39.13,299.08,40.58,298.57,41.13,298.18Z"/><path class="cls-1" d="M230,188.81l.3-.21V202l-1,0Z"/><path class="cls-1" d="M578.37,99.69l3.69-9.43Z"/><path class="cls-1" d="M355.26,61.83l4.45,7.32-.22.27c-1.57-1.67-3.21-3.28-4.65-5.06C354.56,64,355,63,355.26,61.83Z"/><path class="cls-1" d="M485.55,85.8A12.28,12.28,0,0,1,487,87c2,2.29,4.07,4.52,5.85,7a3.79,3.79,0,0,1,.34,3.22c-3.71,7.89-7.58,15.71-11.44,23.53-.95,1.92-1.5,2-2.95.37-1.94-2.14-3.82-4.32-5.78-6.44a3.09,3.09,0,0,1-.52-3.93c4-7.77,7.88-15.57,11.83-23.34A11,11,0,0,1,485.55,85.8Zm-1.43,8.9.47.26,1.76-2.44c.38,1.27,1.08,2.32.8,2.85-1.33,2.52.2,3.68,2.06,5.14l1.24-3-.44-.18-1.77,2.22c-.29-1.45-.84-2.45-.56-3.07,1.07-2.4-.28-3.6-2.09-5ZM483,103.87c.07-1.47-2.62-2.84-.11-4.14l1.62,1.13.28-.4-2.1-2.21C480.32,100.93,480.36,101.64,483,103.87Z"/><path class="cls-1" d="M576.55,4a13.77,13.77,0,0,1-.59,3.1Q562.4,37.65,548.77,68.2q-8.84,19.85-17.7,39.7c-.39.88-.81,1.74-1.3,2.79-1.92-1.12-1.25-2.38-.7-3.6q8-18,16.08-35.95L574.48,5.7c.3-.66.63-1.31.95-2Z"/><path class="cls-1" d="M534,115.71c-1.78-1.16-1.21-2.3-.72-3.42l20.31-46,24.33-55.19c.36-.81.76-1.61,1.19-2.54,1.88,1,1,2.25.54,3.35q-6.43,14.69-12.9,29.37l-31.62,72.1C534.78,114.11,534.39,114.83,534,115.71Z"/><path class="cls-1" d="M530.76,180a42.57,42.57,0,0,0,2.51-4.4c2.62-6.14,5-12.39,7.74-18.48,2.4-5.32,1.32-9.93-2.26-14.14-8.49-10-17.06-20-25.6-30C503.77,102,494.42,91,485,80.14a52.76,52.76,0,0,0-5.16-4.64c2.24,0,4,1.59,5.58,3.43q6.32,7.34,12.58,14.71,21,24.59,42,49.19c3.68,4.32,4.83,9,2.37,14.54-2.89,6.43-5.42,13-8.11,19.54C533.55,178.58,532.62,179.94,530.76,180Z"/><path class="cls-1" d="M520.49,131.63l-.32-3.69c2.51,1.21,2.2,2.33,1.32,3.55Z"/><path class="cls-1" d="M507.8,121.93c1.37.74,1.7,1.66,1,2.82-.18.28-1,.51-1.21.36C506.39,124,506.94,123,507.8,121.93Z"/><path class="cls-1" d="M460.95,1.91c1.68,2,3.09,3.55,4.38,5.22a1.74,1.74,0,0,1,.16,1.56q-9,15.69-18,31.33s-.12.06-.37.17l-5-5.87Z"/><path class="cls-1" d="M466.56,8.83c5,5.17,5,5.17,1.66,11.14l-13.83,24.6c-.4.71-.84,1.41-1.45,2.44-1.66-2-3.19-3.69-4.62-5.5a1.54,1.54,0,0,1,0-1.38q8.86-15.49,17.8-30.94C466.17,9.06,466.33,9,466.56,8.83Z"/><path class="cls-1" d="M446.72,41.49,429.87,71l-5.58-6.16,17.18-29.43Z"/><path class="cls-1" d="M435.8,77.63c-1.73-1.92-3.26-3.5-4.62-5.21a2.18,2.18,0,0,1-.22-2c5.19-9.16,10.46-18.28,15.71-27.41a10.44,10.44,0,0,1,.64-.83c1.61,1.85,3.15,3.55,4.6,5.34a1.58,1.58,0,0,1,0,1.4C446.61,58.43,441.29,67.86,435.8,77.63Z"/><path class="cls-1" d="M424,64.05a6.32,6.32,0,0,1-2.73-7.38,17,17,0,0,1,1.7-4.44c4.07-7,8.24-14,12.39-21a20.57,20.57,0,0,1,1.32-1.74c1.37,1.65,2.67,3.11,3.83,4.68a1.81,1.81,0,0,1,0,1.6C435,45.17,429.51,54.53,424,64.05Z"/><path class="cls-1" d="M484.12,94.69l1.47-3.23c1.81,1.44,3.16,2.64,2.09,5-.28.63.27,1.62.56,3.07L490,97.35l.44.18-1.24,3c-1.86-1.47-3.39-2.62-2.06-5.14.28-.53-.41-1.58-.8-2.85l-1.76,2.44Z"/><path class="cls-1" d="M483,103.87c-2.6-2.23-2.64-2.93-.31-5.62l2.1,2.21-.28.4-1.62-1.13C480.34,101,483,102.4,483,103.87Z"/></g></g></svg>