<svg xmlns="http://www.w3.org/2000/svg" viewBox="0 0 170.13 234.85"><defs><style>.cls-1{fill:none;stroke:#000;stroke-miterlimit:10;stroke-width:0.5px;}</style></defs><title>Asset 14</title><g id="Layer_2" data-name="Layer 2"><g id="Pics"><path class="cls-1" d="M137.72,88.76v29.53a82.09,82.09,0,0,1-9.89-.06V79.58H108.14v29.34a81,81,0,0,1-9.9-.05V69.15C97.1,69,82.53,69,81.88,69.2V92.72c0,2.63,0,5.25,0,7.88s0,5.22,0,7.81a83.61,83.61,0,0,1-9.82-.07.43.43,0,0,1,0-.07.36.36,0,0,1,0-.08c0-.06,0-.11,0-.17q0-46.92,0-93.83c0-.09,0-.17,0-.26s0-.06,0-.09,0-.11,0-.17a.31.31,0,0,0,0-.08l0-.07-.06-.06c-1.62-.15-19-.09-19.73.1V144.61H42.44V116.94H32.55V105.87H6.34v22.34H8.77c.77,0,1.54,0,2.31,0a10.54,10.54,0,0,1,2.42.11c0,1.63,0,3.23,0,4.82s0,3.23,0,4.92h9.83V161h9.88v19.76h5c.8,0,1.6,0,2.4,0a21,21,0,0,1,2.52.06v19.69H53v22.93H137.7V203.73h9.88V186c0-2,0-3.94,0-5.91s0-3.91,0-6h9.57V98.59h-9.63V88.76ZM150.24,234.6V207.83H160.4V177.69h9.36c.2-1.15.14-80.36-.06-81h-9.3v-11H150.2V77.23H129.83v-10H98.58V64.63q0-1.24,0-2.48c0-.83,0-1.66,0-2.48a17.14,17.14,0,0,0-.06-2.43H81.94v1.9H98.31V69h30.21v9.82h19.73v2.85c0,.88,0,1.77,0,2.65s0,1.8,0,2.8h9.82V97.93h9.13v79.55H158.1v14.83c0,2.45,0,4.91,0,7.36s.05,4.88,0,7.36h-9.83v26.28c-1.51.17-105.23,0-105.85-.14V218.58q0-3.68,0-7.36c0-2.44,0-4.88,0-7.39-3.33,0-6.53,0-9.83,0V184.94c-3.33,0-6.57,0-9.89,0V164.43h-2c-.18,1.15-.13,20.18.08,20.88h10v19.25H40.92v15.06q0,3.72,0,7.45c0,2.5,0,5,0,7.53ZM40.94,104H33.3c0,.25-.06.42-.06.58a4.22,4.22,0,0,0,.05.48h9.12V13.17h6.17c1,0,2,0,3,0V3.29h17.6c1,0,1.92,0,2.87,0v-3H61.27c-1.83,0-3.65,0-5.48,0S52.23.19,50.37.33v10H40.94ZM12.69,164.31c.18-1.15.13-22.19,0-22.81H10.4c-.16,1.29-.11,22.15.06,22.81ZM.25,140.91a17.07,17.07,0,0,0,2.68,0v-12H.25ZM72.65,10c0,.94,0,1.83,0,2.73h8.91V10Z"/><path class="cls-1" d="M137.72,88.76h9.85v9.83h9.63v75.55h-9.57c-.08,2,0,4,0,6s0,3.94,0,5.91v17.73H137.7v19.71H53V200.51H43.09V180.82a21,21,0,0,0-2.52-.06c-.8,0-1.6,0-2.4,0h-5V161H23.35V138.08H13.52c-.05-1.7,0-3.31,0-4.92s0-3.19,0-4.82a10.54,10.54,0,0,0-2.42-.11c-.77,0-1.54,0-2.31,0H6.34V105.87H32.55v11.07h9.89v27.67h9.65V13.56c.71-.19,18.12-.26,19.73-.1l.06.06,0,.07a.31.31,0,0,1,0,.08c0,.06,0,.11,0,.17s0,.06,0,.09,0,.17,0,.26Q72,61.09,72,108c0,.06,0,.11,0,.17a.36.36,0,0,0,0,.08.43.43,0,0,0,0,.07,83.61,83.61,0,0,0,9.82.07c.07-2.59,0-5.2,0-7.81s0-5.25,0-7.88V69.2c.65-.18,15.21-.23,16.36-.05v39.72a81,81,0,0,0,9.9.05V79.58h19.68v38.66a82.09,82.09,0,0,0,9.89.06Z"/><path class="cls-1" d="M150.24,234.6H40.93c0-2.54,0-5,0-7.53s0-5,0-7.45V204.56H30.76V185.31h-10c-.2-.7-.25-19.72-.08-20.88h2v20.48c3.32,0,6.56,0,9.89,0v18.87c3.3,0,6.51,0,9.83,0,0,2.51,0,5,0,7.39s0,4.91,0,7.36v14.61c.62.19,104.34.31,105.85.14V207h9.83c.09-2.48,0-4.92,0-7.36s0-4.91,0-7.36V177.49h9.13V97.93h-9.13V87.14h-9.82c-.07-1,0-1.9,0-2.8s0-1.77,0-2.65V78.84H128.52V69H98.31V59.14H81.94v-1.9H98.52a17.14,17.14,0,0,1,.06,2.43c0,.83,0,1.66,0,2.48s0,1.66,0,2.48v2.55h31.24v10H150.2v8.43h10.19v11h9.3c.2.68.26,79.89.06,81H160.4v30.14H150.24Z"/><path class="cls-1" d="M40.94,104V10.33h9.43V.33C52.23.19,54,.28,55.79.26s3.65,0,5.48,0H72.08v3c-1,.05-1.91,0-2.87,0H51.62v9.84c-1.05.07-2,0-3,0H42.42v91.93H33.3a4.22,4.22,0,0,1-.05-.48c0-.17,0-.33.06-.58Z"/><path class="cls-1" d="M12.69,164.31H10.46c-.17-.65-.23-21.51-.06-22.81h2.25C12.82,142.12,12.88,163.17,12.69,164.31Z"/><path class="cls-1" d="M.25,140.91v-12H2.93v12A17.07,17.07,0,0,1,.25,140.91Z"/><path class="cls-1" d="M72.65,10h8.93v2.73H72.67C72.62,11.82,72.66,10.93,72.65,10Z"/></g></g></svg>