<?xml version="1.0" encoding="utf-8"?>
<!-- Generator: Adobe Illustrator 20.0.0, SVG Export Plug-In . SVG Version: 6.00 Build 0)  -->
<!DOCTYPE svg PUBLIC "-//W3C//DTD SVG 1.1//EN" "http://www.w3.org/Graphics/SVG/1.1/DTD/svg11.dtd">
<svg version="1.1" id="Layer_1" xmlns="http://www.w3.org/2000/svg" xmlns:xlink="http://www.w3.org/1999/xlink" x="0px" y="0px"
	 viewBox="0 0 999.5 365.4" style="enable-background:new 0 0 999.5 365.4;" xml:space="preserve">
<g>
	<polygon points="176.2,63.6 179.9,71.1 179.9,121.9 185.1,143.2 192.6,150.8 207,158.1 227.1,158.1 241.5,150.8 249,143.4 
		250.6,140.1 250.6,155.3 287.2,155.3 287.2,149.7 281,149.7 273.4,145.8 269.5,138.2 269.5,54.2 233,54.2 233,59.7 239.1,59.7 
		246.7,63.6 250.6,71.1 250.6,127.6 244.3,140.1 238.2,146.2 225.6,152.5 216.3,152.5 203.5,144.9 199.1,127.8 199.1,54.2 
		162.5,54.2 162.5,59.7 168.6,59.7 	"/>
	<path d="M300.2,9.3l3.9,7.6v141.2h1.1l9.6-9.5h9.1l16,9.5h14.7l21.3-7l15.4-16.3l7-21.3V94.2l-7-21.3l-15.4-14.5l-21.3-7h-14.7
		l-12.2,5.9l-4.5,5.2V0h-36.5v5.6h6.1L300.2,9.3z M323.2,75l5.9-12.1l12.1-5.9h12.2l12.6,6.1l5.9,6.1l6.3,19.1v31l-6.3,21l-5.9,5.9
		l-12.6,6.3h-12.2l-12.1-7.8l-5.9-12.2V75z"/>
	<path d="M154.2,180.4v5.6h6.1l7.4,3.7l3.9,7.6v141.2h1.1l9.6-9.5h9.1l16,9.5h14.7l21.3-7l15.4-16.3l7-21.3v-19.1l-7-21.3
		l-15.4-14.5l-21.3-7h-14.7l-12.2,5.9l-4.5,5.2v-62.5H154.2z M191.6,255.4l5.9-12.1l12.1-5.9h12.2l12.6,6.1l5.9,6.1l6.3,19.1v31
		l-6.3,21l-5.9,5.9l-12.6,6.3h-12.2l-12.1-7.8l-5.9-12.2V255.4z"/>
	<polygon points="438.5,34.3 444.7,25.8 444.7,17.1 438.5,8.7 423.9,8.7 417.8,17.1 417.8,25.8 423.9,34.3 	"/>
	<polygon points="420.7,63.6 424.6,71.2 424.6,154.7 421.8,174 416.5,179.4 410.7,179.4 408.7,177.5 408.7,161 389.7,161 
		389.7,176.6 398.1,185 418.3,185 429.1,177.7 436.5,170.3 443.5,149 443.5,54.2 407,54.2 407,59.7 413.1,59.7 	"/>
	<polygon points="682.5,121.9 687.7,143.2 697.1,152.7 711.6,158.1 720.9,158.1 735.7,150.6 742.9,136.2 737.9,133.8 731.6,146.4 
		719.6,152.5 713.4,152.5 707.9,146.9 701.4,127.8 701.4,59.7 735,59.7 735,54.2 701.4,54.2 701.4,21.3 696,21.3 691.2,37.9 
		682.5,49.4 682.5,54.2 664.8,54.2 664.8,59.7 682.5,59.7 	"/>
	<polygon points="799.3,149.7 793.2,149.7 785.6,145.8 781.7,138.4 781.7,54.2 745.2,54.2 745.2,59.7 751.3,59.7 758.9,63.6 
		762.8,71.2 762.8,138.4 758.9,145.8 751.3,149.7 745.2,149.7 745.2,155.3 799.3,155.3 	"/>
	<polygon points="776.7,34.3 782.8,25.8 782.8,17.1 776.7,8.7 762,8.7 755.9,17.1 755.9,25.8 762,34.3 	"/>
	<polygon points="808.2,65.1 846.4,156.6 851.5,156.6 878.7,95.9 893.7,65.3 898.4,59.7 904,59.7 904,54.2 864.6,54.2 864.6,59.7 
		876.3,59.7 884.8,64.9 873.3,94.6 855.9,134.9 827.2,63.8 835.3,59.7 842.7,59.7 842.7,54.2 794.1,54.2 794.1,59.7 800.1,59.7 	"/>
	<polygon points="590.8,151 612.2,158.1 625.7,158.1 645.6,151 658,132.3 653.7,129.3 642.4,146.2 624.8,152.5 613.3,152.5 
		600.8,146.2 594.9,140.2 588.4,121.1 588.4,88.5 594.9,69.2 600.8,63.3 613.3,57 626.6,57 638.1,67 638.1,90.7 657.1,90.7 
		657.1,73.3 642.4,58.8 627.9,51.4 612.2,51.4 590.8,58.6 575.6,73.1 568.4,94.2 568.4,115.2 575.6,136.5 	"/>
	<path d="M62.7,159.3h28.8l22.2-7.1l14.2-7l15.3-15.3l7.4-21.9V93.5l-10-25.8l-19.2-17.2l-22.1-7.6H76.7L62,50.1L54.1,58l-8.2,15.5
		v4.4L41,82.8h-3.8l-0.1-0.1l-5.7-5.7l-6.3-13V45.5l6.5-13.3l12.8-12.7l19.8-6.3h26.4l19.9,6.4l13.8,6.9L143.6,46l0.3-21.9
		l11.3-22.5l-22.9,11.5L92.7,6.3H63.2l-22.6,7l-21.9,22L11,58v14.4l7,19.3l15.4,16.6l21.9,7.1h22.9l14.8-7.5l7.8-7.2l7.8-15.6
		l-0.4-4.2l5.4-5.2l4,0.1l5.5,5.7L130,94v19.5l-6.9,19.7l-12.7,12.6L91,152.3h-27L43.5,146l-13-6.8L11,119.7v21.9L0,163.9l22.3-11.3
		L62.7,159.3z M108.3,71.6L89.7,90.2l-13.2,6.6H64.2l-19-6.1l-0.8-0.8l20.9-21.9l13-6.1h19.2l13,6.3l2.4,2.5L108.3,71.6z"/>
	<path d="M483.2,150.8l21.3,7.2h18.2l19.8-8.2l12.4-17.6l-4.3-3l-11.3,15.8l-17.6,7.4h-16.1l-12.4-6.3l-5.9-5.9l-6.5-19.3V98.3H555
		l-1.9-18l-7.2-14.5l-7.4-7.4l-21.3-7h-12.6l-21.3,7L468,72.7l-7.2,21.3v21.1l7.2,21.3L483.2,150.8z M487.3,69l5.9-5.9l12.4-6.1h9.5
		l12.1,5.9l6.1,12.1l1.9,17.8h-54.4v-4.5L487.3,69z"/>
	<path d="M927.7,150.8l21.3,7.2h18.2l19.8-8.2l12.4-17.6l-4.3-3l-11.3,15.8l-17.6,7.4h-16.1l-12.4-6.3l-5.9-5.9l-6.5-19.3V98.3h74.2
		l-1.9-18l-7.2-14.5l-7.4-7.4l-21.3-7H949l-21.3,7l-15.2,14.3l-7.2,21.3v21.1l7.2,21.3L927.7,150.8z M931.8,69l5.9-5.9l12.4-6.1h9.5
		l12.1,5.9l6.1,12.1l1.9,17.8h-54.4v-4.5L931.8,69z"/>
	<polygon points="257.3,341.4 257.3,357 265.7,365.4 285.9,365.4 296.6,358.1 304,350.7 311.1,329.4 311.1,234.6 274.6,234.6 
		274.6,240.2 280.7,240.2 288.3,244.1 292.2,251.7 292.2,335.1 289.4,354.4 284,359.8 278.3,359.8 276.2,358 276.2,341.4 	"/>
	<polygon points="312.2,206.2 312.2,197.5 306.1,189.1 291.4,189.1 285.3,197.5 285.3,206.2 291.4,214.7 306.1,214.7 	"/>
	<polygon points="550,234.6 532.4,234.6 532.4,240.2 550,240.2 550,302.3 555.2,323.6 564.7,333.1 579.1,338.5 588.4,338.5 
		603.3,331.1 610.5,316.6 605.5,314.2 599.2,326.8 587.1,332.9 581,332.9 575.4,327.3 568.9,308.2 568.9,240.2 602.5,240.2 
		602.5,234.6 568.9,234.6 568.9,201.8 563.6,201.8 558.7,218.3 550,229.8 	"/>
	<polygon points="649.3,318.8 649.3,234.6 612.7,234.6 612.7,240.2 618.8,240.2 626.4,244.1 630.3,251.7 630.3,318.8 626.4,326.2 
		618.8,330.1 612.7,330.1 612.7,335.7 666.9,335.7 666.9,330.1 660.8,330.1 653.2,326.2 	"/>
	<polygon points="650.4,206.2 650.4,197.5 644.3,189.1 629.6,189.1 623.5,197.5 623.5,206.2 629.6,214.7 644.3,214.7 	"/>
	<polygon points="675.8,245.5 714,337 719,337 746.3,276.3 761.3,245.7 765.9,240.2 771.5,240.2 771.5,234.6 732.2,234.6 
		732.2,240.2 743.9,240.2 752.4,245.4 740.9,275 723.5,315.3 694.7,244.2 702.9,240.2 710.3,240.2 710.3,234.6 661.7,234.6 
		661.7,240.2 667.6,240.2 	"/>
	<polygon points="435.9,274.7 435.9,295.6 443.2,317 458.4,331.4 479.7,338.5 493.3,338.5 513.1,331.4 525.5,312.7 521.3,309.7 
		510,326.6 492.3,332.9 480.8,332.9 468.4,326.6 462.5,320.7 456,301.6 456,268.9 462.5,249.6 468.4,243.7 480.8,237.4 494.2,237.4 
		505.7,247.4 505.7,271.1 524.6,271.1 524.6,253.7 510,239.2 495.5,231.8 479.7,231.8 458.4,239 443.2,253.5 	"/>
	<path d="M75.4,172.6v10.1h-3.6h-1L50,189.4l-15,8l-14.3,14.7L13.9,226l-7.3,22v25.4v1.1l7.3,22l6.8,13.9L35,325.1l15,8l20.9,6.7h1
		h3.6v10.5h6.9v-10.5h3.4h1l20.9-6.7l15-8l14.3-14.7l6.8-13.9l7.3-22v-25.4V248l-7.3-22l-6.8-13.9l-14.3-14.7l-15-8l-20.9-6.7h-1
		h-3.4v-10.1H75.4z M72.5,332.9l-19.3-6.5l-12.7-12.7l-6.5-12.9l-5.7-19.9v-2.4v-34.4v-2.4l5.7-19.9l6.5-12.9l12.7-12.7l19.3-6.5
		h2.9V247h-4.8l-6.7,9.3v10l6.7,9.4h4.8v57.3H72.5z M85.1,189.6l19.3,6.5l12.7,12.7l6.5,12.9l5.7,19.9v2.4v34.4v2.4l-5.7,19.9
		l-6.5,12.9l-12.7,12.7l-19.3,6.5h-2.8v-57.3h4.8l6.7-9.4v-10l-6.7-9.3h-4.8v-57.3H85.1z"/>
	<path d="M422.6,278.7l-1.9-18l-7.2-14.5l-7.4-7.4l-21.3-7h-12.6l-21.3,7l-15.2,14.3l-7.2,21.3v21.1l7.2,21.3l15.2,14.3l21.3,7.2
		h18.2l19.8-8.2l12.4-17.6l-4.3-3L407,325.5l-17.6,7.4h-16.1l-12.4-6.3l-5.9-5.9l-6.5-19.3v-22.6H422.6z M354.9,249.4l5.9-5.9
		l12.4-6.1h9.5l12.1,5.9l6.1,12.1l1.9,17.8h-54.4v-4.5L354.9,249.4z"/>
	<path d="M867,278.7l-1.9-18l-7.2-14.5l-7.4-7.4l-21.3-7h-12.6l-21.3,7L780,253.1l-7.2,21.3v21.1L780,317l15.2,14.3l21.3,7.2h18.2
		l19.8-8.2l12.4-17.6l-4.3-3l-11.3,15.8l-17.6,7.4h-16.1l-12.4-6.3l-5.9-5.9l-6.5-19.3v-22.6H867z M799.3,249.4l5.9-5.9l12.4-6.1
		h9.5l12.1,5.9l6.1,12.1l1.9,17.8h-54.4v-4.5L799.3,249.4z"/>
</g>
</svg>
