
<svg width="367px" height="1000px" viewBox="316 -317 367 1000" version="1.1" xmlns="http://www.w3.org/2000/svg" xmlns:xlink="http://www.w3.org/1999/xlink">
    <!-- Generator: Sketch 40.3 (33839) - http://www.bohemiancoding.com/sketch -->
    <desc>Created with Sketch.</desc>
    <defs></defs>
    <g id="Group" stroke="none" stroke-width="1" fill="none" fill-rule="evenodd" transform="translate(500.000000, 183.000000) rotate(-90.000000) translate(-500.000000, -183.000000) ">
        <polygon id="Shape" fill="#000000" points="176.2 63.6 179.9 71.1 179.9 121.9 185.1 143.2 192.6 150.8 207 158.1 227.1 158.1 241.5 150.8 249 143.4 250.6 140.1 250.6 155.3 287.2 155.3 287.2 149.7 281 149.7 273.4 145.8 269.5 138.2 269.5 54.2 233 54.2 233 59.7 239.1 59.7 246.7 63.6 250.6 71.1 250.6 127.6 244.3 140.1 238.2 146.2 225.6 152.5 216.3 152.5 203.5 144.9 199.1 127.8 199.1 54.2 162.5 54.2 162.5 59.7 168.6 59.7"></polygon>
        <path d="M300.2,9.3 L304.1,16.9 L304.1,158.1 L305.2,158.1 L314.8,148.6 L323.9,148.6 L339.9,158.1 L354.6,158.1 L375.9,151.1 L391.3,134.8 L398.3,113.5 L398.3,94.2 L391.3,72.9 L375.9,58.4 L354.6,51.4 L339.9,51.4 L327.7,57.3 L323.2,62.5 L323.2,0 L286.7,0 L286.7,5.6 L292.8,5.6 L300.2,9.3 L300.2,9.3 Z M323.2,75 L329.1,62.9 L341.2,57 L353.4,57 L366,63.1 L371.9,69.2 L378.2,88.3 L378.2,119.3 L371.9,140.3 L366,146.2 L353.4,152.5 L341.2,152.5 L329.1,144.7 L323.2,132.5 L323.2,75 L323.2,75 Z" id="Shape" fill="#000000"></path>
        <path d="M154.2,180.4 L154.2,186 L160.3,186 L167.7,189.7 L171.6,197.3 L171.6,338.5 L172.7,338.5 L182.3,329 L191.4,329 L207.4,338.5 L222.1,338.5 L243.4,331.5 L258.8,315.2 L265.8,293.9 L265.8,274.8 L258.8,253.5 L243.4,239 L222.1,232 L207.4,232 L195.2,237.9 L190.7,243.1 L190.7,180.6 L154.2,180.6 L154.2,180.4 Z M191.6,255.4 L197.5,243.3 L209.6,237.4 L221.8,237.4 L234.4,243.5 L240.3,249.6 L246.6,268.7 L246.6,299.7 L240.3,320.7 L234.4,326.6 L221.8,332.9 L209.6,332.9 L197.5,325.1 L191.6,312.9 L191.6,255.4 L191.6,255.4 Z" id="Shape" fill="#000000"></path>
        <polygon id="Shape" fill="#000000" points="438.5 34.3 444.7 25.8 444.7 17.1 438.5 8.7 423.9 8.7 417.8 17.1 417.8 25.8 423.9 34.3"></polygon>
        <polygon id="Shape" fill="#000000" points="420.7 63.6 424.6 71.2 424.6 154.7 421.8 174 416.5 179.4 410.7 179.4 408.7 177.5 408.7 161 389.7 161 389.7 176.6 398.1 185 418.3 185 429.1 177.7 436.5 170.3 443.5 149 443.5 54.2 407 54.2 407 59.7 413.1 59.7"></polygon>
        <polygon id="Shape" fill="#000000" points="682.5 121.9 687.7 143.2 697.1 152.7 711.6 158.1 720.9 158.1 735.7 150.6 742.9 136.2 737.9 133.8 731.6 146.4 719.6 152.5 713.4 152.5 707.9 146.9 701.4 127.8 701.4 59.7 735 59.7 735 54.2 701.4 54.2 701.4 21.3 696 21.3 691.2 37.9 682.5 49.4 682.5 54.2 664.8 54.2 664.8 59.7 682.5 59.7"></polygon>
        <polygon id="Shape" fill="#000000" points="799.3 149.7 793.2 149.7 785.6 145.8 781.7 138.4 781.7 54.2 745.2 54.2 745.2 59.7 751.3 59.7 758.9 63.6 762.8 71.2 762.8 138.4 758.9 145.8 751.3 149.7 745.2 149.7 745.2 155.3 799.3 155.3"></polygon>
        <polygon id="Shape" fill="#000000" points="776.7 34.3 782.8 25.8 782.8 17.1 776.7 8.7 762 8.7 755.9 17.1 755.9 25.8 762 34.3"></polygon>
        <polygon id="Shape" fill="#000000" points="808.2 65.1 846.4 156.6 851.5 156.6 878.7 95.9 893.7 65.3 898.4 59.7 904 59.7 904 54.2 864.6 54.2 864.6 59.7 876.3 59.7 884.8 64.9 873.3 94.6 855.9 134.9 827.2 63.8 835.3 59.7 842.7 59.7 842.7 54.2 794.1 54.2 794.1 59.7 800.1 59.7"></polygon>
        <polygon id="Shape" fill="#000000" points="590.8 151 612.2 158.1 625.7 158.1 645.6 151 658 132.3 653.7 129.3 642.4 146.2 624.8 152.5 613.3 152.5 600.8 146.2 594.9 140.2 588.4 121.1 588.4 88.5 594.9 69.2 600.8 63.3 613.3 57 626.6 57 638.1 67 638.1 90.7 657.1 90.7 657.1 73.3 642.4 58.8 627.9 51.4 612.2 51.4 590.8 58.6 575.6 73.1 568.4 94.2 568.4 115.2 575.6 136.5"></polygon>
        <path d="M62.7,159.3 L91.5,159.3 L113.7,152.2 L127.9,145.2 L143.2,129.9 L150.6,108 L150.6,93.5 L140.6,67.7 L121.4,50.5 L99.3,42.9 L76.7,42.9 L62,50.1 L54.1,58 L45.9,73.5 L45.9,77.9 L41,82.8 L37.2,82.8 L37.1,82.7 L31.4,77 L25.1,64 L25.1,45.5 L31.6,32.2 L44.4,19.5 L64.2,13.2 L90.6,13.2 L110.5,19.6 L124.3,26.5 L143.6,46 L143.9,24.1 L155.2,1.6 L132.3,13.1 L92.7,6.3 L63.2,6.3 L40.6,13.3 L18.7,35.3 L11,58 L11,72.4 L18,91.7 L33.4,108.3 L55.3,115.4 L78.2,115.4 L93,107.9 L100.8,100.7 L108.6,85.1 L108.2,80.9 L113.6,75.7 L117.6,75.8 L123.1,81.5 L130,94 L130,113.5 L123.1,133.2 L110.4,145.8 L91,152.3 L64,152.3 L43.5,146 L30.5,139.2 L11,119.7 L11,141.6 L0,163.9 L22.3,152.6 L62.7,159.3 L62.7,159.3 Z M108.3,71.6 L89.7,90.2 L76.5,96.8 L64.2,96.8 L45.2,90.7 L44.4,89.9 L65.3,68 L78.3,61.9 L97.5,61.9 L110.5,68.2 L112.9,70.7 L108.3,71.6 L108.3,71.6 Z" id="Shape" fill="#000000"></path>
        <path d="M483.2,150.8 L504.5,158 L522.7,158 L542.5,149.8 L554.9,132.2 L550.6,129.2 L539.3,145 L521.7,152.4 L505.6,152.4 L493.2,146.1 L487.3,140.2 L480.8,120.9 L480.8,98.3 L555,98.3 L553.1,80.3 L545.9,65.8 L538.5,58.4 L517.2,51.4 L504.6,51.4 L483.3,58.4 L468,72.7 L460.8,94 L460.8,115.1 L468,136.4 L483.2,150.8 L483.2,150.8 Z M487.3,69 L493.2,63.1 L505.6,57 L515.1,57 L527.2,62.9 L533.3,75 L535.2,92.8 L480.8,92.8 L480.8,88.3 L487.3,69 L487.3,69 Z" id="Shape" fill="#000000"></path>
        <path d="M927.7,150.8 L949,158 L967.2,158 L987,149.8 L999.4,132.2 L995.1,129.2 L983.8,145 L966.2,152.4 L950.1,152.4 L937.7,146.1 L931.8,140.2 L925.3,120.9 L925.3,98.3 L999.5,98.3 L997.6,80.3 L990.4,65.8 L983,58.4 L961.7,51.4 L949,51.4 L927.7,58.4 L912.5,72.7 L905.3,94 L905.3,115.1 L912.5,136.4 L927.7,150.8 L927.7,150.8 Z M931.8,69 L937.7,63.1 L950.1,57 L959.6,57 L971.7,62.9 L977.8,75 L979.7,92.8 L925.3,92.8 L925.3,88.3 L931.8,69 L931.8,69 Z" id="Shape" fill="#000000"></path>
        <polygon id="Shape" fill="#000000" points="257.3 341.4 257.3 357 265.7 365.4 285.9 365.4 296.6 358.1 304 350.7 311.1 329.4 311.1 234.6 274.6 234.6 274.6 240.2 280.7 240.2 288.3 244.1 292.2 251.7 292.2 335.1 289.4 354.4 284 359.8 278.3 359.8 276.2 358 276.2 341.4"></polygon>
        <polygon id="Shape" fill="#000000" points="312.2 206.2 312.2 197.5 306.1 189.1 291.4 189.1 285.3 197.5 285.3 206.2 291.4 214.7 306.1 214.7"></polygon>
        <polygon id="Shape" fill="#000000" points="550 234.6 532.4 234.6 532.4 240.2 550 240.2 550 302.3 555.2 323.6 564.7 333.1 579.1 338.5 588.4 338.5 603.3 331.1 610.5 316.6 605.5 314.2 599.2 326.8 587.1 332.9 581 332.9 575.4 327.3 568.9 308.2 568.9 240.2 602.5 240.2 602.5 234.6 568.9 234.6 568.9 201.8 563.6 201.8 558.7 218.3 550 229.8"></polygon>
        <polygon id="Shape" fill="#000000" points="649.3 318.8 649.3 234.6 612.7 234.6 612.7 240.2 618.8 240.2 626.4 244.1 630.3 251.7 630.3 318.8 626.4 326.2 618.8 330.1 612.7 330.1 612.7 335.7 666.9 335.7 666.9 330.1 660.8 330.1 653.2 326.2"></polygon>
        <polygon id="Shape" fill="#000000" points="650.4 206.2 650.4 197.5 644.3 189.1 629.6 189.1 623.5 197.5 623.5 206.2 629.6 214.7 644.3 214.7"></polygon>
        <polygon id="Shape" fill="#000000" points="675.8 245.5 714 337 719 337 746.3 276.3 761.3 245.7 765.9 240.2 771.5 240.2 771.5 234.6 732.2 234.6 732.2 240.2 743.9 240.2 752.4 245.4 740.9 275 723.5 315.3 694.7 244.2 702.9 240.2 710.3 240.2 710.3 234.6 661.7 234.6 661.7 240.2 667.6 240.2"></polygon>
        <polygon id="Shape" fill="#000000" points="435.9 274.7 435.9 295.6 443.2 317 458.4 331.4 479.7 338.5 493.3 338.5 513.1 331.4 525.5 312.7 521.3 309.7 510 326.6 492.3 332.9 480.8 332.9 468.4 326.6 462.5 320.7 456 301.6 456 268.9 462.5 249.6 468.4 243.7 480.8 237.4 494.2 237.4 505.7 247.4 505.7 271.1 524.6 271.1 524.6 253.7 510 239.2 495.5 231.8 479.7 231.8 458.4 239 443.2 253.5"></polygon>
        <path d="M75.4,172.6 L75.4,182.7 L71.8,182.7 L70.8,182.7 L50,189.4 L35,197.4 L20.7,212.1 L13.9,226 L6.6,248 L6.6,273.4 L6.6,274.5 L13.9,296.5 L20.7,310.4 L35,325.1 L50,333.1 L70.9,339.8 L71.9,339.8 L75.5,339.8 L75.5,350.3 L82.4,350.3 L82.4,339.8 L85.8,339.8 L86.8,339.8 L107.7,333.1 L122.7,325.1 L137,310.4 L143.8,296.5 L151.1,274.5 L151.1,249.1 L151.1,248 L143.8,226 L137,212.1 L122.7,197.4 L107.7,189.4 L86.8,182.7 L85.8,182.7 L82.4,182.7 L82.4,172.6 L75.4,172.6 L75.4,172.6 Z M72.5,332.9 L53.2,326.4 L40.5,313.7 L34,300.8 L28.3,280.9 L28.3,278.5 L28.3,244.1 L28.3,241.7 L34,221.8 L40.5,208.9 L53.2,196.2 L72.5,189.7 L75.4,189.7 L75.4,247 L70.6,247 L63.9,256.3 L63.9,266.3 L70.6,275.7 L75.4,275.7 L75.4,333 L72.5,333 L72.5,332.9 Z M85.1,189.6 L104.4,196.1 L117.1,208.8 L123.6,221.7 L129.3,241.6 L129.3,244 L129.3,278.4 L129.3,280.8 L123.6,300.7 L117.1,313.6 L104.4,326.3 L85.1,332.8 L82.3,332.8 L82.3,275.5 L87.1,275.5 L93.8,266.1 L93.8,256.1 L87.1,246.8 L82.3,246.8 L82.3,189.5 L85.1,189.5 L85.1,189.6 Z" id="Shape" fill="#000000"></path>
        <path d="M422.6,278.7 L420.7,260.7 L413.5,246.2 L406.1,238.8 L384.8,231.8 L372.2,231.8 L350.9,238.8 L335.7,253.1 L328.5,274.4 L328.5,295.5 L335.7,316.8 L350.9,331.1 L372.2,338.3 L390.4,338.3 L410.2,330.1 L422.6,312.5 L418.3,309.5 L407,325.5 L389.4,332.9 L373.3,332.9 L360.9,326.6 L355,320.7 L348.5,301.4 L348.5,278.8 L422.6,278.8 L422.6,278.7 Z M354.9,249.4 L360.8,243.5 L373.2,237.4 L382.7,237.4 L394.8,243.3 L400.9,255.4 L402.8,273.2 L348.4,273.2 L348.4,268.7 L354.9,249.4 L354.9,249.4 Z" id="Shape" fill="#000000"></path>
        <path d="M867,278.7 L865.1,260.7 L857.9,246.2 L850.5,238.8 L829.2,231.8 L816.6,231.8 L795.3,238.8 L780,253.1 L772.8,274.4 L772.8,295.5 L780,317 L795.2,331.3 L816.5,338.5 L834.7,338.5 L854.5,330.3 L866.9,312.7 L862.6,309.7 L851.3,325.5 L833.7,332.9 L817.6,332.9 L805.2,326.6 L799.3,320.7 L792.8,301.4 L792.8,278.8 L867,278.8 L867,278.7 Z M799.3,249.4 L805.2,243.5 L817.6,237.4 L827.1,237.4 L839.2,243.3 L845.3,255.4 L847.2,273.2 L792.8,273.2 L792.8,268.7 L799.3,249.4 L799.3,249.4 Z" id="Shape" fill="#000000"></path>
    </g>
</svg>