<svg xmlns="http://www.w3.org/2000/svg" viewBox="0 0 259.51 186.72"><defs><style>.cls-1{fill:none;stroke:#000;stroke-miterlimit:10;stroke-width:0.5px;}</style></defs><title>Asset 33</title><g id="Layer_2" data-name="Layer 2"><g id="Pics"><path class="cls-1" d="M244.55.25c0,.39,0,.79,0,1.18q0,3.72,0,7.44,0,19,0,38c0,.36,0,.71-.07,1.07-.85-.08-1.71-.13-2.56-.26-3.34-.52-6.67-1.07-10-1.6a6.26,6.26,0,0,0-.9,0c0,.52,0,1,0,1.45q0,39.43,0,78.85c0,.32,0,.65,0,1a3.13,3.13,0,0,0,.15.55c.3-.24.53-.4.73-.6,1-1,2-1.9,2.89-2.9a49,49,0,0,0,9.52-15.91,3.72,3.72,0,0,0,.22-1.37q0-2.64,0-5.29,0-26.32,0-52.64c0-.43,0-.86-.06-1.29a14.54,14.54,0,0,0,2.28.72,4.07,4.07,0,0,0,.1-1.33q0-22.8,0-45.61c0-.47,0-.93,0-1.4m-34.09,0c0,.43,0,.86,0,1.29q0,20.11,0,40.22c0,.46,0,.93,0,1.38a4.59,4.59,0,0,0,2.21.23,5,5,0,0,0,.08-1.41q0-20.16,0-40.32c0-.47,0-.93.06-1.4m-65.81,0c0,.4,0,.79,0,1.19q0,8.2,0,16.39,0,16.56,0,33.11c0,.36,0,.72,0,1.08a2.81,2.81,0,0,0,.1.46l2-.33a1.84,1.84,0,0,0,.17-1.12q0-24.86,0-49.72c0-.36-.06-.71-.09-1.07M231,186.47c0-.32,0-.65,0-1q0-27.92,0-55.84c0-.29,0-.58,0-.86a4.82,4.82,0,0,0-.08-.5l-2.12,1.63,0,0a12.14,12.14,0,0,1-.13-1.27q0-14.94,0-29.88,0-25.89,0-51.78c0-.46,0-.93,0-1.45a41.62,41.62,0,0,0-4.49-.78c-2.94-.45-5.87-.92-8.85-1.19a4,4,0,0,0-.11,1.45q0,31.18,0,62.35c0,.36,0,.72,0,1.08,0,.21,0,.41-.07.66a10.29,10.29,0,0,1-2.28,0c0-11,0-21.9,0-32.83s0-21.93,0-32.84a1.83,1.83,0,0,0-1.21-.29l-4.52-.31a69.9,69.9,0,0,0-8.52-.06,82.14,82.14,0,0,0-9.42,1,4.87,4.87,0,0,0-2.08.49c0-.29,0-.58,0-.86q0-17.68,0-35.36c0-.32,0-.64,0-.94a16.37,16.37,0,0,0-4.43,0,2.53,2.53,0,0,0-.12,1.26q0,13.21,0,26.41,0,4.58,0,9.16c0,.31,0,.63.06,1,.36,0,.64-.05.92-.1.85-.16,1.69-.35,2.53-.51a1.51,1.51,0,0,1,1,0c0,.43,0,.86,0,1.29q0,37.06,0,74.12c0,.29,0,.58,0,.86s-.06.4-.09.59a17.7,17.7,0,0,1-4.51-.08c0-.4,0-.83,0-1.26q0-9.17,0-18.34,0-11.38,0-22.76,0-16.13,0-32.26c0-.29,0-.58,0-.86a2.67,2.67,0,0,0-.1-.44c-.42.08-.81.13-1.19.22-3,.73-6.08,1.43-9.11,2.21C165.52,49.31,159,51,152.3,52.07a4.26,4.26,0,0,0-.57.19c0,.47,0,.93,0,1.39q0,27.46,0,54.92,0,.54,0,1.08c0,.14,0,.29-.29.28l-.36-.71a58.85,58.85,0,0,1-2.73-6.33c-1.26-3.55-2.46-7.13-3.67-10.7-1-2.93-2-5.83-3.24-8.68a15.61,15.61,0,0,0-1.74-3.22A7.4,7.4,0,0,0,135,77.22c-.6-.12-1.21-.17-1.81-.24a28.9,28.9,0,0,0-5-.1,6.6,6.6,0,0,0-6.13,4.2,22.72,22.72,0,0,0-1,2.62c-.48,1.66-.89,3.33-1.31,5a121.71,121.71,0,0,1-5.21,16.53,7,7,0,0,0-.53,2.71q0,38.52,0,77c0,.5-.05,1-.08,1.5h-6c0-.39.06-.79.06-1.18q0-9,0-18,0-23.62,0-47.24c0-.36,0-.72,0-1.08a2.12,2.12,0,0,0-.15-.45c-.26.35-.45.61-.64.87a51.59,51.59,0,0,1-3.53,4.49,52.83,52.83,0,0,1-11.45,9.76c-.23.14-.44.38-.81.31a5.72,5.72,0,0,1-.05-1.27q0-26,0-52.1c0-.36,0-.72,0-1.08,0-.21,0-.41-.07-.66a8,8,0,0,0-2.21,0c0,.49,0,.91,0,1.34q0,12,0,24.05,0,9,0,17.91,0,6.09,0,12.19a2.18,2.18,0,0,1-.16,1.21,53.93,53.93,0,0,1-11.52,4.65,45.13,45.13,0,0,1-6.64,1.39,3.65,3.65,0,0,1-.11-1.34q0-12.51,0-25,0-33.49,0-67,0-23.41,0-46.81c0-.4,0-.79,0-1.19H73c0,.4,0,.79,0,1.19q0,19.42,0,38.84c0,1.62,0,3.24,0,4.85,0,.28,0,.56.07.83l.49.08c2.49.33,5,.64,7.48,1a119,119,0,0,1,13.61,2.81,131,131,0,0,0,18.6,3.63.88.88,0,0,0,.78-.11c0-.37,0-.8,0-1.23q0-25.35,0-50.71c0-.4,0-.79,0-1.19M247.05,48.84s-.06.07-.07.09a1.42,1.42,0,0,0-.06.31q0,22.16,0,44.31a.2.2,0,0,0,0,.1s0,0,.09,0c.07-.23.16-.46.22-.7q1.12-4.82,2.24-9.65a47.93,47.93,0,0,1,1.94-6.72,18.9,18.9,0,0,1,5.86-8.24,3.15,3.15,0,0,0,1.31-2.24c.21-2,.43-4.07.59-6.11a23.84,23.84,0,0,0,0-2.8,6.18,6.18,0,0,0-3.87-5.84c-.56-.25-1.12-.49-1.69-.7-2.05-.77-4.18-1.28-6.3-1.85A1.19,1.19,0,0,0,247.05,48.84Z"/><path class="cls-1" d="M114,186.47c0-.5.08-1,.08-1.5q0-38.52,0-77a7,7,0,0,1,.53-2.71,121.71,121.71,0,0,0,5.21-16.53c.42-1.67.83-3.35,1.31-5a22.72,22.72,0,0,1,1-2.62,6.6,6.6,0,0,1,6.13-4.2,28.9,28.9,0,0,1,5,.1c.61.07,1.22.13,1.81.24a7.4,7.4,0,0,1,4.66,3.06,15.61,15.61,0,0,1,1.74,3.22c1.2,2.85,2.25,5.75,3.24,8.68,1.21,3.57,2.41,7.15,3.67,10.7a58.85,58.85,0,0,0,2.73,6.33l.36.71c.29,0,.29-.14.29-.28q0-.54,0-1.08,0-27.46,0-54.92c0-.46,0-.92,0-1.39a4.26,4.26,0,0,1,.57-.19c6.67-1.11,13.22-2.76,19.76-4.44,3-.78,6.07-1.48,9.11-2.21.38-.09.77-.14,1.19-.22a2.67,2.67,0,0,1,.1.44c0,.29,0,.58,0,.86q0,16.13,0,32.26,0,11.38,0,22.76,0,9.17,0,18.34c0,.43,0,.85,0,1.26a17.7,17.7,0,0,0,4.51.08c0-.18.08-.38.09-.59s0-.58,0-.86q0-37.06,0-74.12c0-.43,0-.86,0-1.29l0,0a4.85,4.85,0,0,1,2.08-.49,82.14,82.14,0,0,1,9.42-1,69.9,69.9,0,0,1,8.52.06l4.52.31a1.83,1.83,0,0,1,1.21.29q0,16.37,0,32.84c0,10.92,0,21.84,0,32.83a10.29,10.29,0,0,0,2.28,0c0-.25.06-.45.07-.66,0-.36,0-.72,0-1.08q0-31.18,0-62.35a4,4,0,0,1,.11-1.45c3,.27,5.92.73,8.85,1.19a41.62,41.62,0,0,1,4.49.78c0,.52,0,1,0,1.45q0,25.89,0,51.78,0,14.94,0,29.88a12.14,12.14,0,0,0,.13,1.27c-.33.21-.68.4-1,.62A45.09,45.09,0,0,1,220,135a50.47,50.47,0,0,1-12.38,3.54,4.38,4.38,0,0,1-1.91.17l0,0c0-.14,0-.29,0-.43q0-36.62,0-73.25c0-.22,0-.43,0-.65s-.07-.4-.11-.66a10.62,10.62,0,0,0-2.22.07c0,.48,0,.91,0,1.33q0,34.79,0,69.58c0,1,0,2.09,0,3.13a5.79,5.79,0,0,1-.07.61,1.94,1.94,0,0,1-.36.1c-1.18.06-2.37.14-3.56.15-2.3,0-4.6-.11-6.89-.32a56.22,56.22,0,0,1-8.29-1.36,47.06,47.06,0,0,1-16.06-7.14c-.32-.22-.63-.47-1-.72v-1.43q0-34,0-68.07c0-.4,0-.79,0-1.19,0-.2-.05-.41-.09-.67-.66,0-1.27,0-1.87,0a3.9,3.9,0,0,0-1.84.18c0,.47,0,.94,0,1.4q0,18.39,0,36.79,0,16.07,0,32.15,0,27,0,53.94c0,1.4,0,2.8,0,4.21"/><path class="cls-1" d="M8.48,186.47c0-.54,0-1.08,0-1.62q0-51.29,0-102.59c0-.4,0-.79,0-1.19,0-.13,0-.29.23-.33a7.28,7.28,0,0,1,.4.72c.51,1.19,1.05,2.36,1.5,3.58,2.11,5.73,4,11.54,5.85,17.35,1.73,5.37,3.52,10.72,5.61,16,.41,1,.86,2.06,1.29,3.08.06.15.12.35.41.23,0-.38,0-.77,0-1.17q0-31.39,0-62.78,0-17.37,0-34.73c0-.22,0-.43,0-.65s.05-.41.08-.59a7.62,7.62,0,0,1,3.17.09q0,52.45,0,104.93c0,.05-.07.1-.16.21a4,4,0,0,1-.41-.46c-.76-1.18-1.5-2.36-2.26-3.54-.09-.14-.13-.34-.43-.25v1.06q0,5.07,0,10.14c0,2.09,0,4.17,0,6.26,0,.31-.09.65.16.91a8.2,8.2,0,0,0,3.15-.11c0-.37,0-.76,0-1.15q0-5.61,0-11.22c0-.27-.09-.56.1-.8.08,0,.13,0,.15,0a2.6,2.6,0,0,1,.31.29,30.34,30.34,0,0,0,8.79,7.21c.31.17.65.29,1,.43l0,0c0,.46-.12.92-.12,1.38q0,14.77,0,29.55,0,4.31,0,8.63c0,.29,0,.58,0,.86a5.14,5.14,0,0,0,.12.63,5.53,5.53,0,0,0,2.21-.13v-1.42q0-18.28,0-36.56c0-.32,0-.65,0-1,0-.17,0-.37.23-.51.25.1.55.21.84.34A50,50,0,0,0,52,141.2a4.91,4.91,0,0,1,1.25.29,4.26,4.26,0,0,0,2.39.16,3.46,3.46,0,0,0,.13-1.54q0-34.35,0-68.7,0-13.16,0-26.31,0-21.89,0-43.79c0-.35-.07-.71-.1-1.06H70.63c0,.4,0,.79,0,1.19q0,23.41,0,46.81,0,33.49,0,67,0,12.51,0,25a3.65,3.65,0,0,0,.11,1.34,45.13,45.13,0,0,0,6.64-1.39,53.93,53.93,0,0,0,11.52-4.65,2.18,2.18,0,0,0,.16-1.21q0-6.09,0-12.19,0-9,0-17.91,0-12,0-24.05c0-.43,0-.85,0-1.34a8,8,0,0,1,2.21,0c0,.25.06.45.07.66,0,.36,0,.72,0,1.08q0,26,0,52.1a5.72,5.72,0,0,0,.05,1.27c.38.07.58-.17.81-.31a52.83,52.83,0,0,0,11.45-9.76,51.59,51.59,0,0,0,3.53-4.49c.18-.26.38-.51.64-.87a2.12,2.12,0,0,1,.15.45c0,.36,0,.72,0,1.08q0,23.62,0,47.24,0,9,0,18c0,.39,0,.79-.06,1.18"/><path class="cls-1" d="M55.74.25c0,.35.1.71.1,1.06q0,21.89,0,43.79,0,13.16,0,26.31,0,34.35,0,68.7a3.46,3.46,0,0,1-.13,1.54,4.26,4.26,0,0,1-2.39-.16A4.91,4.91,0,0,0,52,141.2a50,50,0,0,1-11.35-3.67c-.29-.13-.58-.24-.84-.34-.26.14-.22.34-.23.51,0,.32,0,.65,0,1q0,18.28,0,36.56v1.42a5.53,5.53,0,0,1-2.21.13,5.14,5.14,0,0,1-.12-.63c0-.29,0-.57,0-.86q0-4.31,0-8.63,0-14.77,0-29.55c0-.46.08-.92.12-1.38l1.68,1a2.42,2.42,0,0,0,.43.14,4.65,4.65,0,0,0,.08-1.32q0-35.75,0-71.51c0-.25,0-.5,0-.75a5.38,5.38,0,0,0-.12-.61,6.37,6.37,0,0,0-2.13.1v1.42q0,17.1,0,34.19,0,18.17,0,36.35c0,.36,0,.71.06,1.07-.33-.14-.66-.26-1-.43a30.34,30.34,0,0,1-8.79-7.21,2.6,2.6,0,0,0-.31-.29s-.07,0-.15,0c-.19.23-.1.53-.1.8q0,5.61,0,11.22c0,.39,0,.78,0,1.15a8.2,8.2,0,0,1-3.15.11c-.25-.27-.16-.6-.16-.91,0-2.09,0-4.17,0-6.26q0-5.07,0-10.14v-1.06c.3-.09.34.12.43.25.75,1.18,1.5,2.37,2.26,3.54a4,4,0,0,0,.41.46c.08-.11.16-.16.16-.21q0-52.48,0-104.93a7.62,7.62,0,0,0-3.17-.09c0,.18-.06.39-.08.59s0,.43,0,.65q0,17.37,0,34.73,0,31.39,0,62.78c0,.39,0,.79,0,1.17-.29.12-.35-.07-.41-.23-.44-1-.88-2-1.29-3.08-2.1-5.24-3.88-10.59-5.61-16C14.61,96.59,12.74,90.78,10.63,85c-.45-1.21-1-2.39-1.5-3.58a7.28,7.28,0,0,0-.4-.72c-.25,0-.23.2-.23.33,0,.4,0,.79,0,1.19q0,51.29,0,102.59c0,.54,0,1.08,0,1.62h-5c0-.39,0-.79,0-1.18q0-10.84,0-21.68,0-34.47,0-68.94,0-9.55,0-19.09c0-.36,0-.72,0-1.08,0-.13,0-.3.24-.36l.43.53,2.07,2.48L8,79.3l.31.36c.09-.06.13-.08.14-.1a3.32,3.32,0,0,0,0-.43q0-12.57,0-25.13a.2.2,0,0,0,0-.1,1.13,1.13,0,0,0-.14-.13c-1.55.5-3.15,1-4.77,1.62,0,.55,0,1.08,0,1.62s0,1.08,0,1.62v5q0,.81,0,1.62c0,.54,0,1.08,0,1.62s0,1.08,0,1.62,0,1.15,0,1.73,0,1.08,0,1.62a11.36,11.36,0,0,1,0,1.57C3,73.36,3,73,2.9,72.85A20.62,20.62,0,0,1,.3,63.71a40.08,40.08,0,0,1,.21-6.57,1.07,1.07,0,0,1,.85-1.07c.68-.2,1.34-.49,2-.75,0-.41,0-.77,0-1.13,0-2,0-4,0-6q0-21.58,0-43.15c0-1.22,0-2.45,0-3.67,0-.36,0-.72-.06-1.07"/><path class="cls-1" d="M163.42,186.47c0-1.4,0-2.8,0-4.21q0-27,0-53.94,0-16.07,0-32.15,0-18.39,0-36.79c0-.47,0-.93,0-1.4a3.9,3.9,0,0,1,1.84-.18c.6,0,1.21,0,1.87,0,0,.26.09.47.09.67,0,.4,0,.79,0,1.19q0,34,0,68.07v1.43c.34.25.65.5,1,.72a47.06,47.06,0,0,0,16.06,7.14,56.22,56.22,0,0,0,8.29,1.36c2.29.2,4.59.34,6.89.32,1.19,0,2.37-.1,3.56-.15a1.94,1.94,0,0,0,.36-.1,5.79,5.79,0,0,0,.07-.61c0-1,0-2.09,0-3.13q0-34.79,0-69.58c0-.43,0-.85,0-1.33a10.62,10.62,0,0,1,2.22-.07c0,.26.1.46.11.66s0,.43,0,.65q0,36.62,0,73.25c0,.14,0,.29,0,.43a2.3,2.3,0,0,1-1.24.26c-.35,0-.69.06-1.08.1,0,.46,0,.86,0,1.25q0,18.13,0,36.25c0,.25,0,.51,0,.75a4.92,4.92,0,0,0,.13.61,5.65,5.65,0,0,0,2,0,1,1,0,0,0,.1-.26q0-19.47,0-38.94a4.38,4.38,0,0,0,1.91-.17A50.47,50.47,0,0,0,220,135a45.09,45.09,0,0,0,7.87-4.41c.32-.23.67-.42,1-.62l0,0c0,1,0,2,0,3q0,26.28,0,52.56c0,.32,0,.64,0,1"/><path class="cls-1" d="M3.3.25c0,.36.06.72.06,1.07,0,1.22,0,2.45,0,3.67q0,21.58,0,43.15c0,2,0,4,0,6,0,.36,0,.71,0,1.13-.71.27-1.36.56-2,.75a1.07,1.07,0,0,0-.85,1.07A40.08,40.08,0,0,0,.3,63.71a20.62,20.62,0,0,0,2.6,9.14c.11.19.14.51.55.51a11.36,11.36,0,0,0,0-1.57c0-.54,0-1.08,0-1.62s0-1.15,0-1.73,0-1.08,0-1.62,0-1.08,0-1.62,0-1.08,0-1.62v-5c0-.54,0-1.08,0-1.62s0-1.07,0-1.62c1.62-.63,3.22-1.13,4.77-1.62a1.13,1.13,0,0,1,.14.13.2.2,0,0,1,0,.1q0,12.57,0,25.13a3.32,3.32,0,0,1,0,.43s0,0-.14.1L8,79.3,6.19,77.15,4.12,74.67l-.43-.53c-.26.07-.24.23-.24.36,0,.36,0,.72,0,1.08q0,9.55,0,19.09,0,34.47,0,68.94,0,10.84,0,21.68c0,.39,0,.79,0,1.18"/><path class="cls-1" d="M114,.25c0,.4,0,.79,0,1.19q0,25.35,0,50.71c0,.43,0,.85,0,1.23a.88.88,0,0,1-.78.11,131,131,0,0,1-18.6-3.63A119,119,0,0,0,81,47c-2.49-.36-5-.67-7.48-1L73.06,46c0-.27-.07-.55-.07-.83,0-1.62,0-3.24,0-4.85q0-19.42,0-38.84c0-.4,0-.79,0-1.19"/><path class="cls-1" d="M228.8,186.47c0-.32,0-.64,0-1q0-26.28,0-52.56c0-1,0-2,0-3l2.12-1.63a4.82,4.82,0,0,1,.08.5c0,.29,0,.57,0,.86q0,27.92,0,55.84c0,.32,0,.65,0,1Z"/><path class="cls-1" d="M244.52,47.9c0-.36.08-.71.08-1.07q0-19,0-38,0-3.72,0-7.44c0-.39,0-.79,0-1.18h2.37c0,.47,0,.93,0,1.4q0,22.8,0,45.61a4.07,4.07,0,0,1-.1,1.33,14.54,14.54,0,0,1-2.28-.72Z"/><path class="cls-1" d="M151.55.25c0,.36.09.71.09,1.07q0,24.86,0,49.72a1.84,1.84,0,0,1-.17,1.12l-2,.33a2.81,2.81,0,0,1-.1-.46c0-.36,0-.72,0-1.08q0-16.56,0-33.11,0-8.2,0-16.39c0-.4,0-.79,0-1.19Z"/><path class="cls-1" d="M215.21.25c0,.47-.06.93-.06,1.4q0,20.16,0,40.32a5,5,0,0,1-.08,1.41,4.59,4.59,0,0,1-2.21-.23c0-.46,0-.92,0-1.38q0-20.11,0-40.22c0-.43,0-.86,0-1.29Z"/><path class="cls-1" d="M244.49,47.86c0,.43.06.86.06,1.29q0,26.32,0,52.64,0,2.64,0,5.29a3.72,3.72,0,0,1-.22,1.37,49,49,0,0,1-9.52,15.91c-.92,1-1.92,1.94-2.89,2.9-.2.2-.43.36-.73.6a3.13,3.13,0,0,1-.15-.55c0-.32,0-.65,0-1q0-39.43,0-78.85c0-.46,0-.93,0-1.45a6.26,6.26,0,0,1,.9,0c3.33.53,6.67,1.08,10,1.6.85.13,1.71.18,2.56.26Z"/><path class="cls-1" d="M247.05,48.84a1.19,1.19,0,0,1,.31,0c2.11.56,4.24,1.08,6.3,1.85.57.21,1.13.45,1.69.7a6.18,6.18,0,0,1,3.87,5.84,23.84,23.84,0,0,1,0,2.8c-.16,2-.38,4.07-.59,6.11a3.15,3.15,0,0,1-1.31,2.24,18.9,18.9,0,0,0-5.86,8.24,47.93,47.93,0,0,0-1.94,6.72q-1.11,4.83-2.24,9.65c-.06.24-.14.47-.22.7,0,0-.08,0-.09,0a.2.2,0,0,1,0-.1q0-22.16,0-44.31a1.42,1.42,0,0,1,.06-.31S247,48.88,247.05,48.84Z"/><path class="cls-1" d="M187.11,44.33a1.51,1.51,0,0,0-1,0c-.85.16-1.69.35-2.53.51-.28.05-.56.07-.92.1,0-.36-.06-.67-.06-1q0-4.58,0-9.16,0-13.21,0-26.41a2.53,2.53,0,0,1,.12-1.26,16.37,16.37,0,0,1,4.43,0c0,.3,0,.62,0,.94q0,17.68,0,35.36c0,.29,0,.57,0,.86Z"/><path class="cls-1" d="M37.41,135.75c0-.36-.06-.71-.06-1.07q0-18.17,0-36.35,0-17.1,0-34.19V62.73a6.37,6.37,0,0,1,2.13-.1,5.38,5.38,0,0,1,.12.61c0,.25,0,.5,0,.75q0,35.75,0,71.51a4.65,4.65,0,0,1-.08,1.32,2.42,2.42,0,0,1-.43-.14l-1.68-1Z"/><path class="cls-1" d="M205.67,138.7q0,19.47,0,38.94a1,1,0,0,1-.1.26,5.65,5.65,0,0,1-2,0,4.92,4.92,0,0,1-.13-.61c0-.25,0-.5,0-.75q0-18.13,0-36.25c0-.39,0-.79,0-1.25.39,0,.73-.05,1.08-.1a2.3,2.3,0,0,0,1.24-.26Z"/></g></g></svg>