<svg xmlns="http://www.w3.org/2000/svg" viewBox="0 0 200.52 206.03"><defs><style>.cls-1{fill:none;stroke:#000;stroke-miterlimit:10;stroke-width:0.5px;}</style></defs><title>Asset 6</title><g id="Layer_2" data-name="Layer 2"><g id="Pics"><path class="cls-1" d="M200.27,11.28a36.25,36.25,0,0,1-3.92-2.05c-1.5-1-2.69-.87-3.94.55l7.86,4.37M140.56,19c.1-3.13.2-6.26.27-9.39a1,1,0,0,0-.43-.71c-2.54-1.5-5.09-3-7.91-4.58,0,3,.05,5.66,0,8.32a2.19,2.19,0,0,0,1.31,2.24c2.31,1.31,4.54,2.74,6.8,4.13.07,2.79.12,5.58.22,8.37,0,.5.06,1.25.37,1.44,2.6,1.61,5.27,3.12,8.2,4.82a35.8,35.8,0,0,1,0-5.42c.58-3.47-.72-5.61-4-6.83A53.71,53.71,0,0,1,140.56,19ZM25.72,148.56a31.78,31.78,0,0,1-.06,3.75c-.25,1.92.8,2.63,2.64,3.09a26.93,26.93,0,0,1,0-3.44c.28-2.11-.79-3-2.66-3.34,0-2.74.06-5.48.06-8.22,0-.39,0-1-.27-1.13-2.44-1.5-4.92-2.92-7.61-4.49,0,2.33,0,4.23,0,6.14q0,6.88,0,13.76c0,.78-.1,1.7,1.11,1.53,2.18-.32,3.8-2.54,4-4.75.18-1.8-1.17-2.12-2.1-2.87l.43-2.76Zm49.34,28.12-.7,5.72,2.81,1.17c.26-2.75.76-5.36-2.12-6.89-.09-2.48-.15-5-.28-7.44,0-.55-.09-1.38-.44-1.6-2.34-1.48-4.77-2.84-7.43-4.39,0,2,0,3.67,0,5.32,0,4.82,0,9.65-.06,14.47,0,1.92,1.44,2.33,2.59,2.64a2.77,2.77,0,0,0,2.35-1.41,16.62,16.62,0,0,0,.06-5.51c-.1-.7-1.28-1.24-1.92-1.8l.35-2.4ZM26.14,103.3a31.5,31.5,0,0,1-.08,3.92c-.28,2,.58,3.11,2.73,3.63a15.14,15.14,0,0,1,0-2.12c.36-2.44-.17-4.41-2.7-5.39,0-2.62.05-5.25,0-7.87a1.68,1.68,0,0,0-.45-1.24c-2.35-1.45-4.75-2.8-7.43-4.36,0,3.77.21,7.12-.06,10.42-.26,3.09.38,5.34,3.57,6.34a2.8,2.8,0,0,1,.7.5c-1.82,1.92-5.93,1.7-4.93,6l-2.71-1.28c.45,2.36-.57,4.56,1.07,6.5a7.87,7.87,0,0,0,1.67-3.44c.25-2.3,1.8-3.24,3.86-2.1.53.29,1.11.49,2.07.91,0-2.15-.1-3.92,0-5.68.14-2,0-3.7-2.26-4.27l.54-2.58Zm116.27-2c0-3,.08-5.46,0-7.94A2.28,2.28,0,0,1,143.84,91c7.81-4.47,15.6-9,23.39-13.5l6.26-3.65c-2.28-1.32-4.31-2.44-6.28-3.67a2.34,2.34,0,0,0-2.79,0c-2.11,1.3-4.28,2.49-6.73,3.9,0-2-.06-3.7,0-5.35a2.13,2.13,0,0,0-1.27-2.27c-2.14-1.16-4.22-2.43-6.8-3.94,4.66-.93,3.8-4.1,3.62-7.19-.59.29-1.06.5-1.51.75C147.5,58.55,143.29,61,139,63.38a2.43,2.43,0,0,0-1.4,2.56c.08,2.35,0,4.71,0,7.44-2.45-1.43-4.51-2.7-6.65-3.85a2.13,2.13,0,0,1-1.4-2.2c.05-.94-2.26-2.76-3-2.35-2.49,1.3-4.9,2.78-7.59,4.33a39.74,39.74,0,0,1,3.73,2.23c1.53,1.17,2.92,1.31,4.48.05a1.53,1.53,0,0,1,2.53.38l-3,1.93,15.43,9-.22.65a6.45,6.45,0,0,1-2-.29c-1.44-.71-2.79-1.6-4.19-2.4s-2.72-1.55-4.05-2.31c-.84,2.83.85,5.75-1.21,8.25a19.44,19.44,0,0,0,2.32,1.34,2.41,2.41,0,0,1,1.61,2.79,42.19,42.19,0,0,0,0,4.65c0,.44.12,1.09.41,1.27C137.15,98.29,139.57,99.65,142.41,101.28ZM101.72,86.73l-2.35,1.39Q86.28,95.68,73.2,103.27c-.58.34-1.29,1-1.33,1.61-.15,2.44-.05,4.89-.07,7.34,0,1.26,1.13,2,1.79,1.66,1.51-.77,2.35.17,3.39.73.8.43,1.58.91,2.63,1.52,0-2.31.06-4.22,0-6.12a2.33,2.33,0,0,1,1.36-2.42q13.67-7.8,27.26-15.74a2.15,2.15,0,0,1,2.58.05c1.54,1,3.14,1.84,5.05,2.94,0-2.91-.05-5.41,0-7.9a2.23,2.23,0,0,0-1.35-2.25c-4.53-2.54-9-5.13-13.53-7.7a6.48,6.48,0,0,0-1-.36c0,2.53.06,4.92,0,7.3C99.85,85.17,100,86.18,101.72,86.73Zm-19.14-14c-5-2.95-10.07-5.92-15.15-8.78a2.57,2.57,0,0,0-2.08.2c-3.3,1.79-6.55,3.68-9.81,5.53l-4.34,2.5c4.85,2.77,9.38,5.41,14,7.94,1.23.68,2,1.44,1.72,2.92a2.16,2.16,0,0,0,1.55,2.62,7.76,7.76,0,0,1,1.7,1,2.46,2.46,0,0,0,3.25,0,37.61,37.61,0,0,1,3.29-1.86c0,2,0,3.75,0,5.46a2.06,2.06,0,0,0,.62,1.48c2.25,1.41,4.58,2.71,7.16,4.2,0-2.18-.06-4.06,0-5.94a2,2,0,0,0-1.24-2.1c-1.93-1-3.8-2.18-5.92-3.42a23,23,0,0,1,2.79-1.62c1.79-.72,2.6-1.88,2.22-3.84-.53-2.72.29-4.68,3.08-5.66,1.17-.41,1.59-1.32.84-2.73Zm3.69,40.46c2.35,1.36,4.33,2.57,6.37,3.67A2,2,0,0,1,93.86,119c-.07,2.53,0,5.06,0,7.85l8.23-4.66c.3,1.09.27,2.35.87,2.86a33.33,33.33,0,0,0,4.69,2.88v-4.52l7.65,4.41c0-3.13,0-5.92,0-8.69,0-.43-.62-.94-1.07-1.23-1.17-.76-2.4-1.43-3.61-2.13.67-1.2,2.88-1,2.12-3.06L109.88,114c-.54-1.74.77-2,1.63-2.47s1.78-1,1.17-2.3l-1.26.68-1.31.66c-.37-.83-.49-1.75-1-2.2-2.19-1.9-2.4-2.39-1.49-5.16l4,2.24v-9l-.57-.23c1.09,3.58-1.6,4.26-3.65,5.43a12.19,12.19,0,0,0-1.69,1c-.8.65-1.51,1.38-2.28,2.1-.58-.08-1.55-.53-2.09-.23C96.34,107.33,91.47,110.19,86.27,113.19Zm51.08-58.11L113.9,41.53c0,2.73-.06,5.09,0,7.45a2.13,2.13,0,0,1-1.29,2.24c-2.17,1.17-4.27,2.47-6.65,3.87l8.27,4.74c-.41-1.95.69-2.49,1.79-3s1.57-1.08,1-2.33l-2.52,1.24-.38-.29c.3-.45.5-1.13.91-1.29,1.09-.44,1.82-2,3.45-1,3.25,2,6.59,3.84,9.94,5.66a2.57,2.57,0,0,0,2,.15C132.71,57.84,134.88,56.5,137.35,55.07ZM32.52,100.73c0,2.85.05,5.28,0,7.71A2.43,2.43,0,0,0,33.93,111c6.89,3.89,13.73,7.88,20.59,11.83.44.25.9.44,1.59.78,0-2.74-.06-5.23,0-7.71a2.34,2.34,0,0,0-1.4-2.39c-6.21-3.53-12.39-7.13-18.58-10.7C35.08,102.14,34,101.55,32.52,100.73ZM67.29,118c-.19.16-.26.19-.27.23,0,6.61-.09,13.21-.09,19.82a1.59,1.59,0,0,0,.6,1.16c1.38.88,2.83,1.66,4.48,2.61,0-2.2-.08-4.1,0-6s.08-3.6-2.09-4.15l.45-2.7,4.43,2.41c0-2.9,0-5.52,0-8.14a1.6,1.6,0,0,0-.54-1.18C72,120.66,69.59,119.32,67.29,118ZM167,130.61c0-3,0-5.75,0-8.48a1,1,0,0,0-.33-.76c-2.42-1.44-4.85-2.85-7.38-4.32a6.28,6.28,0,0,0-.14.72c0,5.44.17,10.88-.09,16.3-.14,2.89.42,5,3.33,5.94.09,0,.14.18.2.26-.21,3.66.18,4.3,2.66,4.52.81-3.67.54-6.86-3.86-8a.81.81,0,0,1-.46-.27,5.84,5.84,0,0,1-.78-1.43c-.6-2.11,1.13-2.69,2.16-3.32l.22-3.7ZM107.24,60.56c-1.81-.67-3-1.58-4.86-1.87a6.08,6.08,0,0,0-4.3,1,26.44,26.44,0,0,0-4.16,2.44c-2.42,1.92-4.67,2.13-7.09,0a2,2,0,0,0-1.72-.33c-1.58.77-3.07,1.73-4.86,2.77,2.38,1.39,4.48,2.72,6.68,3.83a3,3,0,0,0,2.38,0c3.35-1.81,6.61-3.78,9.92-5.68,1.46-.84,2.94-1.63,4.46-2.47l.49,2Zm24.05,45.38c-.65-1.72.74-1.89,1.55-2.43s1.92-.87,1.18-2.33l-3.13,1.56c.71-2-.32-2.63-1.59-3.28-2-1-3.91-2.29-6.13-3.6,0,3.06,0,5.68,0,8.29a1.54,1.54,0,0,0,.63,1.11c2.33,1.41,4.7,2.75,6.54,3.82a28.28,28.28,0,0,1,2.77-2.4c.83-.54,1.48-1,.91-2.25Zm38.37,10.38c0-3.16,0-5.87,0-8.58a1,1,0,0,0-.35-.77c-2.4-1.44-4.82-2.84-7.52-4.42,0,3.12,0,5.78,0,8.45a1.24,1.24,0,0,0,.37.92C164.53,113.35,166.92,114.72,169.67,116.32ZM67,145.05c0,3.11,0,5.83,0,8.56a1.19,1.19,0,0,0,.45.88c2.33,1.39,4.69,2.73,7.31,4.24,0-3.07,0-5.79,0-8.51a1.21,1.21,0,0,0-.45-.89C71.94,147.93,69.59,146.58,67,145.05Zm-35.2-27.57c-2.67,1.54-5,2.86-7.28,4.24a1.4,1.4,0,0,0-.6,1c0,2.72,0,5.44,0,8.5,2.67-1.52,5-2.84,7.38-4.23a1.4,1.4,0,0,0,.51-1C31.77,123.26,31.75,120.59,31.75,117.48ZM173.88,88.3c-2.38,1.35-4.41,2.57-6.5,3.67a2,2,0,0,0-1.18,2.12c.07,2.08,0,4.17,0,6.26a11.76,11.76,0,0,0,.3,1.78l.94.64a8,8,0,0,1,1.41-2.44,41.08,41.08,0,0,1,4-2.39c.41-.26,1-.73,1-1.12C173.92,94.1,173.88,91.39,173.88,88.3Zm-18.27,18c-2.24-1.28-4.19-2.29-6-3.48a2.4,2.4,0,0,0-3.62.53l7.09,12.19.6-.1c0-2,.08-4,0-6A2.79,2.79,0,0,1,155.61,106.32Zm-53.14,27.53-.23-.19c-1.07.61-2.12,1.25-3.21,1.82-1.8,1-3.42,3-5.73.78,0,2.55.12,4.81,0,7.05-.13,1.76.73,2.41,2.13,2.79ZM29.92,84.25c-.69,2.28-.19,3.72,1.8,4.42a3.16,3.16,0,0,1,2.25,4,4.08,4.08,0,0,0,0,.71c0,2.86.62,3.62,3.61,4.39,0-2.69,0-5.37,0-8a1.67,1.67,0,0,0-.48-1.23C34.76,87,32.4,85.7,29.92,84.25ZM108,.31l-.23.22,7,12.74c.17-2.89.35-5.3.42-7.71a1.93,1.93,0,0,0-.59-1.48C112.45,2.75,110.23,1.55,108,.31ZM27.6,42.91l.69.09L35.2,30.35c-2.51,1.39-4.62,2.49-6.64,3.75a2.37,2.37,0,0,0-.92,1.67C27.54,38.15,27.6,40.53,27.6,42.91ZM83.85,32.43l.65.07,6.49-13a45.93,45.93,0,0,0-6.21,3.15,1.8,1.8,0,0,0-.89,1.15C83.82,26.67,83.85,29.55,83.85,32.43Zm-27,95.14L49,132.09l7.79,4.48ZM67.36,195.9c0,2.21,0,3.88,0,5.54,0,.39.09,1,.34,1.12,1.55,1,3.15,1.94,4.94,3,0-2.1,0-3.83,0-5.56,0-.44-.1-1.09-.39-1.28C70.77,197.8,69.22,197,67.36,195.9ZM21.31,176.07c.59-6.27-.72-8.6-5-9,0,1.79,0,3.57,0,5.35a1.65,1.65,0,0,0,.71,1.1C18.34,174.35,19.73,175.14,21.31,176.07Zm136.29-32.8c0,2.29,0,4.18,0,6.06a1,1,0,0,0,.39.73c1.49.9,3,1.75,4.78,2.77,0-2.21,0-4,0-5.88a1.25,1.25,0,0,0-.36-.92C160.91,145.13,159.38,144.29,157.59,143.27Zm-75.1,2.68a10.37,10.37,0,0,0,0-1.8c-.56-3,.59-5,3.47-6,2-.71,1.87-2.21,1.54-4.09a31.31,31.31,0,0,1-3.89,2.18c-1.86.72-.92,2.42-1.39,3.68l-2.41-1.16a25.76,25.76,0,0,1,0,3.92C79.42,144.74,80.5,145.54,82.5,145.95ZM72.16,12.58c3.27,2.83,4.61,2.76,8-.51L77.59,10.4l2.66-1.69C79.1,7.41,78,7.3,76.78,8.38ZM11.06,32.1c-1.3-.41-2.38-1.15-3-.87C5.41,32.52,2.86,34.09.26,35.57l.05.62c.94.17,2.09.76,2.78.42C5.65,35.38,8.05,33.84,11.06,32.1ZM86,122.84c.83,1,1.63,1.26,2.68.56s2-1.1,2.9-1.73a1.49,1.49,0,0,0,.09-2.63c-1-.9-3.06-.41-4.2,1l.94,1.12Zm-30.88-42c-1.86,1.39-1.86,1.39-1.35,3.14a42.64,42.64,0,0,0,4.65-2.8c.32-.25.15-1.69-.26-2.22-.8-1-3.27-.38-4.39,1.11Zm20.1,116.9a29.22,29.22,0,0,1,0-4c.29-2-.83-2.72-2.45-3.24-.14,1.13-.21,2.18-.4,3.21C71.94,196.1,72.31,196.71,75.21,197.69ZM21.5,160.93c-.08,1.56-.18,3-.21,4.48,0,1.82.61,2.43,2.79,2.65a26.92,26.92,0,0,1,0-3.72C24.4,162.29,23.26,161.51,21.5,160.93Zm55.85-22.15a36.71,36.71,0,0,1-.22-4.2c.12-2-.12-2.36-2.35-2.72a24.53,24.53,0,0,1,0,3.4C74.48,137.23,75.37,138.25,77.35,138.78ZM87,56.55l-6,3.65c2.57,2,3.87-.49,5.53-1.09C87.6,58.74,88,57.84,87,56.55ZM192,85.42c2.07-.47,2.46-1.86,1.73-5.75H192ZM98.14,72.54l-4.57,2.65,4.57,2.62ZM77,145.25c-2.62-1.83-2.88-1.82-4.86.13C74.47,147.2,74.72,147.2,77,145.25Zm-55.9-27.72c2.24,1.9,2.58,1.9,4.9,0C23.81,115.65,23.4,115.65,21.13,117.53ZM51.8,88.47c-.46-.29-.91-.56-1.34-.87a15.88,15.88,0,0,0-1.41-1.06,5.24,5.24,0,0,0-1.27-.34c-.09.54-.39,1.17-.23,1.62C48.1,89.35,50.57,89.73,51.8,88.47Zm-10.38,1.2c-.45,1.41-.7,2.35.59,2.93s2.29,1.51,3.39-.21Zm94.08-23-2.4-2c-.4.48-1.23,1.22-1.12,1.4a7.6,7.6,0,0,0,1.89,2A11.35,11.35,0,0,0,135.5,66.68Zm-16.91,2.57V66.1l-2.71,1.61Zm-38.29,132-1.81-2.58v3.49ZM24.15,136l.46.36c1.28-.23,1.57-1,.63-2.32ZM104,65.37l2.69-1.56C105.15,62.93,104.27,63.36,104,65.37Z"/><path class="cls-1" d="M200.27,14.15l-7.86-4.37c1.25-1.42,2.44-1.57,3.94-.55a36.25,36.25,0,0,0,3.92,2.05Z"/><path class="cls-1" d="M142.41,101.28c-2.84-1.64-5.26-3-7.62-4.44-.29-.18-.4-.83-.41-1.27a42.19,42.19,0,0,1,0-4.65,2.41,2.41,0,0,0-1.61-2.79,19.44,19.44,0,0,1-2.32-1.34c2.07-2.5.38-5.42,1.21-8.25,1.34.76,2.7,1.53,4.05,2.31s2.75,1.69,4.19,2.4a6.45,6.45,0,0,0,2,.29l.22-.65-15.43-9,3-1.93a1.53,1.53,0,0,0-2.53-.38c-1.56,1.26-2.94,1.12-4.48-.05a39.74,39.74,0,0,0-3.73-2.23c2.69-1.56,5.1-3,7.59-4.33.79-.41,3.1,1.42,3,2.35a2.13,2.13,0,0,0,1.4,2.2c2.13,1.15,4.2,2.42,6.65,3.85,0-2.73.06-5.09,0-7.44a2.43,2.43,0,0,1,1.4-2.56c4.28-2.36,8.49-4.83,12.74-7.25.45-.26.93-.46,1.51-.75.18,3.09,1,6.27-3.62,7.19,2.58,1.51,4.66,2.78,6.8,3.94a2.13,2.13,0,0,1,1.27,2.27c-.09,1.65,0,3.3,0,5.35,2.45-1.41,4.62-2.6,6.73-3.9a2.34,2.34,0,0,1,2.79,0c2,1.23,4,2.35,6.28,3.67l-6.26,3.65c-7.79,4.51-15.58,9-23.39,13.5a2.28,2.28,0,0,0-1.46,2.33C142.49,95.83,142.41,98.31,142.41,101.28ZM149.66,78V66.31l-10.18,5.81Zm6.17-2.7-2.52-1.41-.56,2.95Z"/><path class="cls-1" d="M101.72,86.73c-1.74-.54-1.87-1.56-1.82-2.8.08-2.38,0-4.77,0-7.3a6.48,6.48,0,0,1,1,.36c4.51,2.56,9,5.16,13.53,7.7a2.23,2.23,0,0,1,1.35,2.25c-.08,2.49,0,5,0,7.9-1.91-1.1-3.51-2-5.05-2.94a2.15,2.15,0,0,0-2.58-.05q-13.59,7.94-27.26,15.74A2.33,2.33,0,0,0,79.59,110c.08,1.9,0,3.81,0,6.12-1.05-.61-1.83-1.09-2.63-1.52-1-.56-1.88-1.5-3.39-.73-.66.34-1.8-.4-1.79-1.66,0-2.45-.08-4.9.07-7.34,0-.57.75-1.27,1.33-1.61q13.06-7.62,26.17-15.15Z"/><path class="cls-1" d="M82.58,72.73l3.69-2.09c.76,1.41.33,2.32-.84,2.73-2.78,1-3.61,2.95-3.08,5.66.38,2-.43,3.12-2.22,3.84a23,23,0,0,0-2.79,1.62c2.12,1.23,4,2.38,5.92,3.42A2,2,0,0,1,84.51,90c-.09,1.88,0,3.76,0,5.94-2.58-1.49-4.9-2.79-7.16-4.2a2.06,2.06,0,0,1-.62-1.48c-.08-1.72,0-3.44,0-5.46a37.61,37.61,0,0,0-3.29,1.86,2.46,2.46,0,0,1-3.25,0,7.76,7.76,0,0,0-1.7-1A2.16,2.16,0,0,1,66.88,83c.28-1.48-.49-2.24-1.72-2.92-4.58-2.54-9.1-5.17-14-7.94l4.34-2.5c3.26-1.86,6.51-3.75,9.81-5.53a2.57,2.57,0,0,1,2.08-.2C72.51,66.81,77.53,69.78,82.58,72.73Z"/><path class="cls-1" d="M86.27,113.19c5.19-3,10.07-5.86,15-8.6.55-.3,1.51.15,2.09.23.77-.71,1.48-1.45,2.28-2.1a12.19,12.19,0,0,1,1.69-1c2.05-1.17,4.74-1.85,3.65-5.43l.57.23v9l-4-2.24c-.91,2.78-.7,3.27,1.49,5.16.53.45.65,1.37,1,2.2l1.31-.66,1.26-.68c.62,1.32-.29,1.78-1.17,2.3s-2.17.74-1.63,2.47l2.78-1.36c.77,2-1.45,1.86-2.12,3.06,1.21.71,2.44,1.37,3.61,2.13.45.29,1.05.8,1.07,1.23.1,2.78,0,5.56,0,8.69l-7.65-4.41v4.52a33.33,33.33,0,0,1-4.69-2.88c-.6-.52-.57-1.77-.87-2.86l-8.23,4.66c0-2.79,0-5.32,0-7.85a2,2,0,0,0-1.21-2.12C90.6,115.76,88.62,114.55,86.27,113.19Z"/><path class="cls-1" d="M137.35,55.07c-2.47,1.42-4.65,2.76-6.92,3.92a2.57,2.57,0,0,1-2-.15c-3.35-1.82-6.69-3.67-9.94-5.66-1.63-1-2.35.52-3.45,1-.41.16-.61.85-.91,1.29l.38.29L117,54.48c.61,1.25,0,1.86-1,2.33s-2.19,1.07-1.79,3L106,55.09c2.37-1.39,4.47-2.7,6.65-3.87A2.13,2.13,0,0,0,113.92,49c-.08-2.36,0-4.72,0-7.45Z"/><path class="cls-1" d="M32.52,100.73c1.47.82,2.56,1.41,3.63,2,6.19,3.57,12.37,7.17,18.58,10.7a2.34,2.34,0,0,1,1.4,2.39c-.09,2.48,0,5,0,7.71-.68-.33-1.15-.52-1.59-.78-6.86-3.95-13.7-7.94-20.59-11.83a2.43,2.43,0,0,1-1.43-2.52C32.58,106,32.52,103.58,32.52,100.73Z"/><path class="cls-1" d="M26.14,103.29l-4.35-2.11-.54,2.58c2.22.57,2.4,2.29,2.26,4.27-.12,1.76,0,3.53,0,5.68-1-.41-1.54-.61-2.07-.91-2.07-1.14-3.61-.2-3.86,2.1a7.87,7.87,0,0,1-1.67,3.44c-1.63-1.94-.61-4.13-1.07-6.5l2.71,1.28c-1-4.3,3.1-4.09,4.93-6a2.8,2.8,0,0,0-.7-.5c-3.19-1-3.83-3.25-3.57-6.34.28-3.31.06-6.65.06-10.42,2.67,1.55,5.08,2.91,7.43,4.36a1.68,1.68,0,0,1,.45,1.24c0,2.62,0,5.25,0,7.87Z"/><path class="cls-1" d="M67.29,118c2.29,1.33,4.66,2.66,7,4.07a1.6,1.6,0,0,1,.54,1.18c0,2.62,0,5.24,0,8.14L70.4,129l-.45,2.7c2.17.54,2.19,2.27,2.09,4.15s0,3.79,0,6c-1.66-1-3.1-1.73-4.48-2.61a1.59,1.59,0,0,1-.6-1.16c0-6.61,0-13.21.09-19.82C67,118.19,67.11,118.16,67.29,118Z"/><path class="cls-1" d="M75.06,176.67l-4.77-2.11-.35,2.4c.64.57,1.81,1.11,1.92,1.8a16.62,16.62,0,0,1-.06,5.51,2.77,2.77,0,0,1-2.35,1.41c-1.15-.31-2.64-.72-2.59-2.64.11-4.82.05-9.65.06-14.47,0-1.65,0-3.31,0-5.32,2.66,1.55,5.09,2.9,7.43,4.39.35.22.41,1,.44,1.6.13,2.48.19,5,.28,7.44Z"/><path class="cls-1" d="M167,130.61l-4.49-2.55-.22,3.7c-1,.63-2.77,1.21-2.16,3.32a5.84,5.84,0,0,0,.78,1.43.81.81,0,0,0,.46.27c4.4,1.16,4.67,4.36,3.86,8-2.48-.22-2.87-.86-2.66-4.52-.06-.09-.11-.23-.2-.26-2.91-1-3.47-3-3.33-5.94.26-5.42.08-10.87.09-16.3a6.28,6.28,0,0,1,.14-.72c2.53,1.47,5,2.88,7.38,4.32a1,1,0,0,1,.33.76C167,124.86,167,127.58,167,130.61Z"/><path class="cls-1" d="M25.72,148.56l-4.42-2.73-.43,2.76c.94.74,2.28,1.07,2.1,2.87-.22,2.21-1.84,4.43-4,4.75-1.21.18-1.11-.74-1.11-1.53q0-6.88,0-13.76c0-1.91,0-3.81,0-6.14,2.69,1.57,5.17,3,7.61,4.49.24.15.27.74.27,1.13,0,2.74,0,5.48-.06,8.22Z"/><path class="cls-1" d="M107.24,60.56l-3.06,1.78-.49-2c-1.52.84-3,1.64-4.46,2.47-3.3,1.9-6.57,3.87-9.92,5.68a3,3,0,0,1-2.38,0c-2.2-1.12-4.3-2.44-6.68-3.83,1.79-1,3.28-2,4.86-2.77a2,2,0,0,1,1.72.33c2.41,2.09,4.67,1.87,7.09,0a26.44,26.44,0,0,1,4.16-2.44,6.08,6.08,0,0,1,4.3-1C104.2,59,105.43,59.89,107.24,60.56Z"/><path class="cls-1" d="M140.56,19c1.62.8,3.19,1.75,4.88,2.38,3.25,1.22,4.55,3.36,4,6.83a35.8,35.8,0,0,0,0,5.42c-2.93-1.7-5.6-3.21-8.2-4.82-.31-.19-.35-.94-.37-1.44-.1-2.79-.15-5.58-.22-8.37Z"/><path class="cls-1" d="M131.3,105.94l2.75-1.51c.57,1.25-.09,1.71-.91,2.25a28.28,28.28,0,0,0-2.77,2.4c-1.84-1.06-4.21-2.41-6.54-3.82a1.54,1.54,0,0,1-.63-1.11c-.05-2.61,0-5.23,0-8.29,2.21,1.32,4.12,2.56,6.13,3.6,1.27.66,2.31,1.27,1.59,3.28l3.13-1.56c.74,1.46-.38,1.79-1.18,2.33S130.65,104.22,131.3,105.94Z"/><path class="cls-1" d="M140.58,19c-2.26-1.38-4.5-2.82-6.8-4.13a2.19,2.19,0,0,1-1.31-2.24c.08-2.66,0-5.32,0-8.32,2.81,1.62,5.37,3.09,7.91,4.58a1,1,0,0,1,.43.71c-.06,3.13-.17,6.26-.27,9.39Z"/><path class="cls-1" d="M169.67,116.32c-2.75-1.6-5.14-3-7.5-4.39a1.24,1.24,0,0,1-.37-.92c0-2.67,0-5.33,0-8.45,2.7,1.58,5.12,3,7.52,4.42a1,1,0,0,1,.35.77C169.68,110.45,169.67,113.16,169.67,116.32Z"/><path class="cls-1" d="M67,145.05c2.64,1.53,5,2.88,7.32,4.27a1.21,1.21,0,0,1,.45.89c0,2.72,0,5.45,0,8.51-2.63-1.51-5-2.85-7.31-4.24a1.19,1.19,0,0,1-.45-.88C66.94,150.89,67,148.16,67,145.05Z"/><path class="cls-1" d="M31.75,117.48c0,3.11,0,5.78,0,8.45a1.4,1.4,0,0,1-.51,1c-2.34,1.39-4.71,2.71-7.38,4.23,0-3.06,0-5.78,0-8.5a1.4,1.4,0,0,1,.6-1C26.76,120.34,29.08,119,31.75,117.48Z"/><path class="cls-1" d="M173.88,88.3c0,3.08,0,5.8,0,8.51,0,.39-.57.86-1,1.12a41.08,41.08,0,0,0-4,2.39,8,8,0,0,0-1.41,2.44l-.94-.64a11.76,11.76,0,0,1-.3-1.78c0-2.08,0-4.17,0-6.26A2,2,0,0,1,167.38,92C169.47,90.87,171.49,89.66,173.88,88.3Z"/><path class="cls-1" d="M155.61,106.32a2.79,2.79,0,0,0-2,3.15c.11,2,0,4,0,6l-.6.1L146,103.37a2.4,2.4,0,0,1,3.62-.53C151.42,104,153.37,105,155.61,106.32Z"/><path class="cls-1" d="M102.47,133.85,95.4,146.11c-1.41-.38-2.26-1-2.13-2.79.16-2.24,0-4.5,0-7.05,2.32,2.24,3.93.17,5.73-.78,1.09-.57,2.14-1.21,3.21-1.82Z"/><path class="cls-1" d="M29.92,84.25c2.48,1.45,4.84,2.79,7.15,4.22a1.67,1.67,0,0,1,.48,1.23c0,2.67,0,5.35,0,8C34.57,97,34,96.21,34,93.35a4.08,4.08,0,0,1,0-.71,3.16,3.16,0,0,0-2.25-4C29.73,88,29.23,86.52,29.92,84.25Z"/><path class="cls-1" d="M108,.31c2.2,1.24,4.42,2.45,6.57,3.77a1.93,1.93,0,0,1,.59,1.48c-.07,2.41-.25,4.82-.42,7.71l-7-12.74Z"/><path class="cls-1" d="M27.6,42.91c0-2.38-.06-4.76,0-7.13a2.37,2.37,0,0,1,.92-1.67c2-1.25,4.13-2.35,6.64-3.75L28.28,43Z"/><path class="cls-1" d="M83.85,32.43c0-2.88,0-5.76,0-8.64a1.8,1.8,0,0,1,.89-1.15A45.93,45.93,0,0,1,91,19.49l-6.49,13Z"/><path class="cls-1" d="M56.84,127.57v9L49,132.09Z"/><path class="cls-1" d="M67.36,195.9c1.86,1.07,3.41,1.9,4.89,2.85.29.19.38.84.39,1.28,0,1.73,0,3.45,0,5.56-1.78-1.07-3.39-2-4.94-3-.25-.17-.34-.73-.34-1.12C67.34,199.78,67.36,198.11,67.36,195.9Z"/><path class="cls-1" d="M21.31,176.07c-1.58-.94-3-1.72-4.31-2.59a1.65,1.65,0,0,1-.71-1.1c-.07-1.78,0-3.56,0-5.35C20.59,167.47,21.9,169.8,21.31,176.07Z"/><path class="cls-1" d="M157.59,143.27c1.78,1,3.31,1.86,4.8,2.77a1.25,1.25,0,0,1,.36.92c0,1.83,0,3.67,0,5.88-1.78-1-3.29-1.88-4.78-2.77a1,1,0,0,1-.39-.73C157.58,147.45,157.59,145.57,157.59,143.27Z"/><path class="cls-1" d="M82.5,145.95c-2-.41-3.08-1.21-2.73-3.31a25.76,25.76,0,0,0,0-3.92l2.41,1.16c.47-1.26-.47-3,1.39-3.68A31.31,31.31,0,0,0,87.49,134c.33,1.89.49,3.38-1.54,4.09-2.88,1-4,3-3.47,6A10.37,10.37,0,0,1,82.5,145.95Z"/><path class="cls-1" d="M72.16,12.57l4.62-4.19c1.2-1.09,2.31-1,3.47.33L77.59,10.4l2.59,1.67C76.77,15.33,75.43,15.41,72.16,12.57Z"/><path class="cls-1" d="M11.06,32.1c-3,1.74-5.41,3.28-8,4.51-.7.34-1.84-.25-2.78-.42l-.05-.62c2.6-1.47,5.15-3.05,7.83-4.34C8.68,30.95,9.76,31.69,11.06,32.1Z"/><path class="cls-1" d="M86,122.84l2.42-1.67L87.47,120c1.14-1.42,3.17-1.9,4.2-1a1.49,1.49,0,0,1-.09,2.63c-.93.63-2,1.11-2.9,1.73S86.82,123.85,86,122.84Z"/><path class="cls-1" d="M55.11,80.79,53.77,80c1.13-1.49,3.59-2.15,4.39-1.11.41.53.58,2,.26,2.22a42.64,42.64,0,0,1-4.65,2.8C53.25,82.18,53.25,82.18,55.11,80.79Z"/><path class="cls-1" d="M26.1,103.34c2.53,1,3.06,2.94,2.7,5.39a15.14,15.14,0,0,0,0,2.12c-2.15-.52-3-1.6-2.73-3.63a31.82,31.82,0,0,0,.08-3.92Z"/><path class="cls-1" d="M75.21,197.69c-2.9-1-3.26-1.59-2.82-4.08.18-1,.26-2.08.4-3.21,1.62.53,2.75,1.24,2.45,3.24A29.22,29.22,0,0,0,75.21,197.69Z"/><path class="cls-1" d="M21.5,160.93c1.76.58,2.9,1.36,2.61,3.41a26.92,26.92,0,0,0,0,3.72c-2.18-.23-2.82-.83-2.79-2.65C21.32,164,21.42,162.49,21.5,160.93Z"/><path class="cls-1" d="M75,176.67c2.88,1.53,2.38,4.15,2.12,6.89l-2.81-1.17.7-5.72Z"/><path class="cls-1" d="M25.66,148.61c1.88.33,2.95,1.23,2.66,3.34a26.93,26.93,0,0,0,0,3.44c-1.84-.46-2.89-1.17-2.64-3.09a31.58,31.58,0,0,0,.06-3.75Z"/><path class="cls-1" d="M77.35,138.78c-2-.53-2.88-1.55-2.6-3.52a24.53,24.53,0,0,0,0-3.4c2.24.37,2.47.75,2.35,2.72A36.71,36.71,0,0,0,77.35,138.78Z"/><path class="cls-1" d="M87,56.55c.95,1.29.56,2.18-.44,2.55-1.67.61-3,3.11-5.53,1.09Z"/><path class="cls-1" d="M192,85.42V79.67h1.73C194.51,83.56,194.12,84.95,192,85.42Z"/><path class="cls-1" d="M98.14,72.54v5.27l-4.57-2.62Z"/><path class="cls-1" d="M77,145.25c-2.31,1.95-2.56,1.95-4.86.13C74.16,143.43,74.42,143.42,77,145.25Z"/><path class="cls-1" d="M21.13,117.53c2.26-1.88,2.68-1.88,4.9,0C23.71,119.43,23.37,119.43,21.13,117.53Z"/><path class="cls-1" d="M51.8,88.47c-1.23,1.26-3.69.88-4.25-.65-.16-.45.14-1.07.23-1.62a5.24,5.24,0,0,1,1.27.34,15.88,15.88,0,0,1,1.41,1.06C50.89,87.91,51.34,88.18,51.8,88.47Z"/><path class="cls-1" d="M41.42,89.68l4,2.72c-1.11,1.72-2.26.72-3.39.21S41,91.09,41.42,89.68Z"/><path class="cls-1" d="M135.5,66.68a11.35,11.35,0,0,1-1.63,1.4,7.6,7.6,0,0,1-1.89-2c-.11-.18.72-.92,1.12-1.4Z"/><path class="cls-1" d="M118.59,69.25l-2.71-1.53,2.71-1.61Z"/><path class="cls-1" d="M80.3,201.29l-1.81.91v-3.49Z"/><path class="cls-1" d="M24.15,136l1.09-2c.94,1.36.65,2.09-.63,2.32Z"/><path class="cls-1" d="M104,65.37c.29-2,1.17-2.45,2.69-1.56Z"/><path class="cls-1" d="M149.66,78l-10.18-5.88,10.18-5.81Z"/><path class="cls-1" d="M155.83,75.31l-3.08,1.54.56-2.95Z"/></g></g></svg>