<svg xmlns="http://www.w3.org/2000/svg" viewBox="0 0 161.22 198.47"><defs><style>.cls-1{fill:none;stroke:#000;stroke-miterlimit:10;stroke-width:0.5px;}</style></defs><title>Asset 29</title><g id="Layer_2" data-name="Layer 2"><g id="Pics"><path class="cls-1" d="M122.88,59.13a39.78,39.78,0,0,0,3.41-3.36,21.35,21.35,0,0,0,3-4.61c.27-.61-.56-1.69-.84-2.57a2.3,2.3,0,0,1-.07-1.09c.75-3.74,1.27-7.56,2.38-11.2s2.47-6.94,2.31-10.8l-1.16,2.91-1.65-.57c.63-1.65-.91-3.51.32-5.29.1-.14-.1-.63-.29-.79a.84.84,0,0,0-.8,0,6.9,6.9,0,0,0-1.48,2c-.37,1-.37,2.07-.65,3.08a9.81,9.81,0,0,1-.87,1.74l-.59-.22.7-5.17-.72-.22-2.09,5.45-.6-.16c.2-2.18.45-4.36.57-6.55a11.05,11.05,0,0,0-.35-2.32l-.78,0-2.24,10.58-1.51-1.37L118,30.79l-.45,0-.61-9.68h-.63c-.27,2.3-.62,4.59-.8,6.9-.31,4-.63,5.53-1.61,6.48.34-7.29,0-12.15-1.27-13.74-.1,1-.23,1.77-.24,2.55,0,2.41,0,4.83-.06,7.24,0,.53-.56,1-.87,1.55a7.12,7.12,0,0,1-1.21-1.62,2.9,2.9,0,0,1,.12-1.64c.53-1.95-.22-3.58-1.22-5.52l-.7,11.22c-1.73-1.28-2-2.88-1.34-4.92a12.5,12.5,0,0,0,.41-2.88c.08-1.1.06-2.21.07-3.32,0-2.75,0-5.49,0-8.2-1.64.41-1.69.32-2.54-3.94a13.16,13.16,0,0,0-.66,3.86c0,2.2.23,4.41.08,6.6s-.64,4.65-1,7c-.15.92-.43,1.82-.66,2.74a1.91,1.91,0,0,1-.77-1c-.32-.62-.69-1.22-1-1.83-.27.67-.58,1.34-.81,2s-.4,1.43-.6,2.14l-.81-.07V22.89c-4-.18-2.85-3.55-3.87-5-2.06,1.88-2.34,4.2-2,6.71.43,3.5,1,7,1.13,10.52.19,5.71.05,11.43.05,17.15l-.64.07a15.13,15.13,0,0,1-.51-2.24c-.59-7.88-1.14-15.76-1.73-23.64a13,13,0,0,0-.42-2.54c-.77-2.73-1.8-5.42-1-8.35a4.5,4.5,0,0,0,0-1.11c0-2.07.18-4.15,0-6.2a6.31,6.31,0,0,0-1.3-2.62c-.13-.19-1.1-.13-1.13,0a13.66,13.66,0,0,0-.58,3c0,.49.62,1.05.53,1.5-.44,2.25-1,4.48-1.56,6.71l-.48.09a14.35,14.35,0,0,1-.56-3.22c.21-4,.59-8,.85-12,0-.4-.33-.82-.51-1.23-.32.3-.83.55-.93.91A52.6,52.6,0,0,0,82.9,6.5c-.39,2.31-.73,4.64-.94,7-.23,2.54-1.74,4.58-2.5,6.87a44.52,44.52,0,0,0-1.92,10c-.81,8.9-1.43,17.82-2,26.75A33.12,33.12,0,0,0,75.82,64c.43,2.93,2.08,5.72.8,8.82a2.79,2.79,0,0,0,0,1.29c.25,2.37.48,4.75.8,7.11.14,1,0,2.31,1.69,2.4.3,0,.74.83.79,1.31.23,2.14.4,4.28.48,6.43s0,4.13,0,6.44c.37-.23,1-.37,1.07-.68.65-1.93,1.6-3.89,1.7-5.87.24-5,0-10,.11-15A9.17,9.17,0,0,1,84,73.71c.56.81,1.17,1.59,1.66,2.44A4,4,0,0,1,86,77.59c.39,2.87,1,5.74,1.11,8.62.17,3.56,0,7.14-.09,10.7a13.25,13.25,0,0,1-.75,2.87l-.52,0-1.25-2.09a53.94,53.94,0,0,1-.76,19.08L82.38,116a28.64,28.64,0,0,1,.37,4.15q-.47,7.75-1.13,15.49c-.55,6.32-1.09,12.64-1.83,18.94-.36,3.06-.58,6,.58,8.95a25.63,25.63,0,0,1,.95,4.22c.69,3.33,1.72,5.87,5.8,4.86.79-.2,1.72.25,2.56.17a18.46,18.46,0,0,0,2.84-.73L94,174.49c.13-1,.23-1.35.24-1.74,0-2.14,0-4.29,0-6.43a14.15,14.15,0,0,0,0-2c-.29-1.92-.64-3.83-1-5.75-.13-.79-.21-1.59-.32-2.39-.34-2.52-.72-5-1-7.56a10.88,10.88,0,0,1,.2-2.22l.47,0a24.12,24.12,0,0,0,.17,2.82c.16,1,.52,1.89.92,3.29a12.29,12.29,0,0,0,.62-1.19,5.41,5.41,0,0,0-.49-4.38c-.61-1.23.25-3.13-.22-4.49-.86-2.49-.19-4.77.21-7.2a29.67,29.67,0,0,1,2.19,5c.46,1.25,1,2.47,1.46,3.71.32,1.7-2.3,3.29,0,5.29a12.15,12.15,0,0,0-1,.95,7.17,7.17,0,0,0-.85,1.21c-.93,1.7-.58,2.38,1.24,3,.47.15.76.84,1.14,1.28a3.32,3.32,0,0,0,.36.31l.86-1.38c.23.3.4.43.44.59.83,3.79,1.61,7.58,2.49,11.36.15.66.66,1.72,1.08,1.76,1.19.11,1.3.84,1.63,1.67a11.13,11.13,0,0,0,1.29,2c.31-.6.62-1.2.95-1.79.11-.21.27-.39.53-.75a13.79,13.79,0,0,0,1.66,1.15,10.76,10.76,0,0,0,1.74.55c.17-.64.37-1.28.49-1.93.18-1-.05-2.28.5-2.93a3,3,0,0,0,.75-3.21c-1-2.53-2-5-3.1-7.52-.3-.72-.66-1.41-1-2.12l.33-.15,2.22,3.34.51-.23c-.14-.75-.24-1.51-.43-2.25-.62-2.32-1.79-4.63-1.8-6.94,0-2.76-1.2-6,2.19-8.42.73.83,1.52,1.65,2.23,2.55s1.23,1.7,1.81,2.57c1.51,2.25,3.3,4.37,3.49,7.24a3.4,3.4,0,0,1-.57,1.71,19.26,19.26,0,0,1-1.35,1.88c.71,0,1.42.06,2.13.11.11,0,.21.11.43.23a5.73,5.73,0,0,1-.26,1.15,8.7,8.7,0,0,1-.78,1.19c2.49.59,3.1.34,3.45-1.84.47-2.9.79-5.84,1-8.78.15-1.87,0-3.76,0-5.65L124,141a7.66,7.66,0,0,1,1.2,2.09c.26,1.26-.06,2.69.37,3.86.77,2.13,2,4.11,2.87,6.2a2.16,2.16,0,0,1-.1,1.59,5.64,5.64,0,0,0-.53,4.41,1.53,1.53,0,0,0,1,.81c.23,0,.78-.5.8-.81a8.71,8.71,0,0,0-.26-2c-.07-.43-.14-.86-.21-1.29,3,3.93,3.66,4.15,5.34,3.51l-1.22,1.26c.85.14,1.71.32,2.57.42,1,.12,2.06.18,3.25.28a10.45,10.45,0,0,0-.31-2.93c-1.53-4-3.6-7.77-4.76-11.83q-4.86-16.93-9.1-34c-1.49-6-2.57-12.09-3.53-18.19-.81-5.11-1.81-10.31-1.6-15.43a80.6,80.6,0,0,1,3.05-19.66Zm-42,136.41,1.35,1.86c1.42-.8,3.49-1.27,4.07-2.46a3.68,3.68,0,0,1,3-2.33,2.45,2.45,0,0,0,1.42-.77,2.24,2.24,0,0,0,.44-1.66c-.08-.32-.87-.62-1.36-.66a3,3,0,0,0-3.29,1.8,36.9,36.9,0,0,0-4.26,0c-1,.13-2,.71-3,.89-1.77.32-3.37.87-4.31,2.52-.38.66-1,1.73-.73,2.08a3.43,3.43,0,0,0,2.29,1.34,17.19,17.19,0,0,0,3.79-.59ZM64.8,46C66,52.1,69.3,57.5,68.4,63.71c2.6,5.48,2.18,11.56,3.31,17.35.4-12.75-2.37-25.13-3.62-37.68C66.91,46.88,66.91,46.88,64.8,46ZM12.74,114.73l.59.19c.53-2.15,1-4.31,1.6-6.46a4.36,4.36,0,0,1,.89-2.09c1.43-1.27,1.71-2.88,2-4.63.39-2.64-1.13-5.42,1.15-8,1.06-1.2,1.07-3.34,1.49-5.07a2.38,2.38,0,0,0,0-1.57,20.93,20.93,0,0,0-1.84-2.4c-.7,3-1.44,6-2.14,9.12a50.91,50.91,0,0,1-1.25,5.6c-1,3-2.34,5.82-1.13,9,.09.25-.06.59-.12.89Q13.33,112,12.74,114.73ZM51.14,94.67a7.82,7.82,0,0,0,.58-1.87c-.08-2.15-.21-4.31-.39-6.45-.22-2.66-.68-5.31-.73-8s.3-5.58.38-8.38c0-.47-.47-.95-.68-1.33a33.14,33.14,0,0,0-1.7,3A7.11,7.11,0,0,0,48,73.93c-.49,6.4,1.7,12.52,2.1,18.83C50.16,93.25,50.62,93.71,51.14,94.67Zm-.35-28c.93-.77,1.83-1.13,2-1.71,1.09-3.67,2.05-7.39,1.25-11.28-.21-1-.56-2-.84-3a2.35,2.35,0,0,0-.82,1.44c-.32,2.75-.57,5.5-.91,8.25-.12,1,.22,2.48-1.67,2.16-.07.43-.33.95-.17,1.26s.73.36,1.16.55Zm93.38,124c-.95-.82-1.87-1.69-2.85-2.46a1.88,1.88,0,0,0-3,.6,5.49,5.49,0,0,0-.58,3.3c.21,1.26.28,2.23-.69,3.2-.65.64-1.08,1.69.1,2.07a2.56,2.56,0,0,0,2.23-.8,6,6,0,0,0,.88-2.78C140.63,190.9,141,190.59,144.17,190.7ZM56,67.92h-.39c-.31,1.79-.3,3.72-1,5.33-1.8,4.11.17,7.83.69,11.72.61-2.43,1.2-4.85,1.57-7.3a12.07,12.07,0,0,0-.28-3.26c-.16-1.2-.44-2.39-.56-3.6C55.88,69.84,56,68.88,56,67.92Zm72.78,122c2.35,0,4.49-2.66,4-4.41a1.64,1.64,0,0,0-2.64-.93,9.73,9.73,0,0,0-2.1,1.8c-.45.56-1,1.5-.81,2C127.47,189.08,128.38,189.57,128.74,189.9Zm18.13-26.75c0-1.8,0-1.86-1.71-1.67a6.6,6.6,0,0,0-2.4.74,2.12,2.12,0,0,0-1.08,1.41c0,.87.39,1.67,1.64,1.37,1.64-.4,3.31-.65,4.95-1.07.34-.09.58-.59.87-.91a4.62,4.62,0,0,0-1.27-.36C147.55,162.66,147.24,163,146.87,163.15ZM112.3,189.86c-1.16-.66-2.09-1.64-2.85-1.52a6,6,0,0,0-2.7,1.92,2.45,2.45,0,0,0,.92,1.59C109.57,192.78,110.53,191.11,112.3,189.86Zm6.57-1.51c-1.17-.74-1.84-1.45-2.61-1.58-1.25-.21-2.34.54-2.16,1.84.1.71,1.27,1.88,1.77,1.79C116.8,190.24,117.58,189.3,118.87,188.35Zm-49.1,1.42L69,191.52l.54.33c.37-.6,1.07-1.23,1-1.81a1.81,1.81,0,0,0-2-1.92c-1.17.05-2.44-.12-2.66,1.55-.19,1.42.72,1.89,2,2.32l-.7-2.48ZM74.21,73.7l.58-.06a3.4,3.4,0,0,0,.16-.86c-.14-1.93-.23-3.87-.49-5.78a16.53,16.53,0,0,0-.87-2.79l-.62.18C73.28,67.51,72.94,70.71,74.21,73.7Zm81.62,98.24c1.3,1.28,2.7,2.36,4.23,1.1a4.11,4.11,0,0,0,.92-2.53c0-.24-1-.6-1.48-.91l-.29.46,1.07,2c-1.07-.14-1.72-.28-2.36-.29A20.82,20.82,0,0,0,155.83,171.94ZM91.55,194.55l.55,1.08c1.29-.51,2.62-1,3.86-1.58a1.35,1.35,0,0,0,.3-1.28,1.28,1.28,0,0,0-1.17-.47C93.86,193,92.72,193.79,91.55,194.55Zm68.08-15.13.47,0c-.34-1.18-.6-2.39-1-3.53-.2-.51-.74-.89-1.12-1.32-.36.37-1,.72-1,1.12a2.65,2.65,0,0,0,.57,1.72A21.07,21.07,0,0,0,159.63,179.42ZM49.49,61c.16-1.22.34-2.33.42-3.44A2.63,2.63,0,0,0,49.68,56a1.38,1.38,0,0,0-1.34-.08C47.42,57,48.22,60.19,49.49,61Zm68,95.44-.44-.31-4,.71-.18.56c1,.51,2,1.35,3.07,1.4C116.42,158.83,117,157.29,117.47,156.46Zm-72-86.92c.18-1.84,1.44-3.7,0-5.69C44.43,65.05,44.38,67.93,45.51,69.54ZM153.57,188.38c-2.58-.85-4.41.1-5.22,2.94Zm-42.71-15.65-2.34-1.84c-.3.39-.94,1-.85,1.13a7.27,7.27,0,0,0,1.62,1.89C109.39,174,110.11,173.31,110.86,172.73ZM.29,161.81l.53.57a11.29,11.29,0,0,0,1.39-2.11,3.88,3.88,0,0,0,0-1.91c0-.1-.83-.26-.93-.13a4.75,4.75,0,0,0-.91,1.68A7.93,7.93,0,0,0,.29,161.81Zm127.86,15.68c-1.41.36-2.59.6-3.72,1-.29.1-.49.63-.58,1,0,.14.36.48.62.55C125.16,180.24,127.68,178.59,128.15,177.49ZM73,60.07l-.4-5.66C71.15,57.22,71.37,59.49,73,60.07ZM157,190c-.29.31-.68.53-.74.82a1.22,1.22,0,0,0,.28,1.06c.29.18.79,0,1.2,0a16.78,16.78,0,0,0-.37-2.78c-.11-.38-.75-.61-1.15-.9l-.32.49Zm-4.82-21.17c-2.35-.46-3.61.58-3.61,2.8ZM4.9,150.6c-.52.22-.78.25-.82.37-.53,1.31-1,2.63-1.49,4-.05.15.34.65.42.62.31-.1.75-.28.82-.53C4.22,153.67,4.51,152.29,4.9,150.6Zm153.39,10.24,1.07.06.38-2.42c-.48.09-1.32.09-1.38.3A7.58,7.58,0,0,0,158.29,160.84ZM58,55l-.62-.31a14.44,14.44,0,0,0-.52,2.57c0,.3.64.62,1.33,1.24ZM54.79,38.66,56,34.32l-.46-.12C55.29,35.71,53.33,36.74,54.79,38.66ZM45.36,61.59l-1-3.29C43.56,60.28,43.78,61.05,45.36,61.59Zm79.44,120.57c-.5.62-1,1-1,1.29a1.22,1.22,0,0,0,.87.85,1.3,1.3,0,0,0,.92-.83C125.68,183.19,125.22,182.79,124.81,182.16Zm15.86-6-.43-.83-1.78.93a8.15,8.15,0,0,0,.48.83C139.53,176.85,140.09,176.51,140.66,176.19ZM129.39,182c-.76-.38-1.19-.79-1.53-.72s-.61.59-.91.91c.34.27.67.74,1,.74S128.69,182.53,129.39,182Zm15.87-3.57c.57-.24,1.33-.32,1.45-.65a5.8,5.8,0,0,0,.06-2l-.45,0Z"/><path class="cls-1" d="M122.83,59.25a80.6,80.6,0,0,0-3.05,19.66c-.21,5.12.79,10.32,1.6,15.43,1,6.1,2,12.21,3.53,18.19q4.25,17.09,9.1,34c1.17,4.06,3.23,7.86,4.76,11.83a10.45,10.45,0,0,1,.31,2.93c-1.19-.1-2.23-.16-3.25-.28-.86-.1-1.71-.28-2.57-.42l1.22-1.26c-1.68.64-2.32.42-5.34-3.51.07.43.14.86.21,1.29a8.71,8.71,0,0,1,.26,2c0,.31-.58.85-.8.81a1.53,1.53,0,0,1-1-.81,5.64,5.64,0,0,1,.53-4.41,2.16,2.16,0,0,0,.1-1.59c-.91-2.09-2.1-4.07-2.87-6.2-.43-1.17-.11-2.6-.37-3.86A7.66,7.66,0,0,0,124,141l-.71.16c0,1.88.12,3.77,0,5.65-.23,2.93-.55,5.87-1,8.78-.36,2.18-1,2.44-3.45,1.84a8.7,8.7,0,0,0,.78-1.19,5.73,5.73,0,0,0,.26-1.15c-.22-.12-.33-.22-.43-.23-.71,0-1.42-.07-2.13-.11a19.26,19.26,0,0,0,1.35-1.88,3.4,3.4,0,0,0,.57-1.71c-.19-2.86-2-5-3.49-7.24-.58-.87-1.16-1.75-1.81-2.57s-1.5-1.72-2.23-2.55c-3.39,2.37-2.2,5.66-2.19,8.42,0,2.32,1.18,4.62,1.8,6.94.2.73.29,1.5.43,2.25l-.51.23-2.22-3.34-.33.15c.33.71.68,1.4,1,2.12,1.05,2.5,2.14,5,3.1,7.52a3,3,0,0,1-.75,3.21c-.55.65-.33,1.94-.5,2.93-.12.65-.32,1.29-.49,1.93a10.76,10.76,0,0,1-1.74-.55,13.79,13.79,0,0,1-1.66-1.15c-.25.36-.41.54-.53.75-.33.59-.63,1.19-.95,1.79a11.13,11.13,0,0,1-1.29-2c-.33-.83-.44-1.56-1.63-1.67-.42,0-.92-1.1-1.08-1.76-.88-3.78-1.66-7.57-2.49-11.36,0-.16-.21-.29-.44-.59L98.3,156a3.32,3.32,0,0,1-.36-.31c-.38-.43-.67-1.13-1.14-1.28-1.82-.59-2.17-1.26-1.24-3a7.17,7.17,0,0,1,.85-1.21,12.15,12.15,0,0,1,1-.95c-2.3-2,.32-3.59,0-5.29-.49-1.24-1-2.46-1.46-3.71a29.67,29.67,0,0,0-2.19-5c-.39,2.43-1.07,4.71-.21,7.2.47,1.37-.39,3.27.22,4.49a5.41,5.41,0,0,1,.49,4.38,12.29,12.29,0,0,1-.62,1.19c-.4-1.4-.76-2.33-.92-3.29a24.12,24.12,0,0,1-.17-2.82l-.47,0a10.88,10.88,0,0,0-.2,2.22c.28,2.53.66,5,1,7.56.11.8.19,1.59.32,2.39.31,1.92.67,3.83,1,5.75a14.15,14.15,0,0,1,0,2c0,2.14,0,4.29,0,6.43,0,.39-.1.78-.24,1.74l-1.47-2.44a18.46,18.46,0,0,1-2.84.73c-.84.08-1.77-.37-2.56-.17-4.08,1-5.11-1.53-5.8-4.86a25.63,25.63,0,0,0-.95-4.22c-1.16-3-.94-5.89-.58-8.95.74-6.3,1.28-12.62,1.83-18.94q.67-7.74,1.13-15.49a28.64,28.64,0,0,0-.37-4.15l1.38.74a53.94,53.94,0,0,0,.76-19.08l1.25,2.09.52,0A13.25,13.25,0,0,0,87,96.91c.12-3.57.26-7.14.09-10.7-.14-2.89-.71-5.75-1.11-8.62a4,4,0,0,0-.34-1.44c-.49-.85-1.1-1.63-1.66-2.44a9.17,9.17,0,0,0-.81,2.53c-.07,5,.13,10-.11,15-.09,2-1,3.93-1.7,5.87-.1.31-.7.46-1.07.68,0-2.31.06-4.38,0-6.44s-.25-4.29-.48-6.43c-.05-.48-.49-1.3-.79-1.31-1.68-.1-1.55-1.37-1.69-2.4-.32-2.36-.55-4.74-.8-7.11a2.79,2.79,0,0,1,0-1.29c1.29-3.1-.36-5.89-.8-8.82a33.12,33.12,0,0,1-.28-6.95c.58-8.92,1.19-17.84,2-26.75a44.52,44.52,0,0,1,1.92-10C80.23,18,81.73,16,82,13.47c.21-2.33.54-4.66.94-7a52.6,52.6,0,0,1,1.21-5.17c.1-.36.61-.61.93-.91.18.41.53.83.51,1.23-.26,4-.64,8-.85,12a14.35,14.35,0,0,0,.56,3.22l.48-.09c.53-2.23,1.12-4.46,1.56-6.71.09-.45-.56-1-.53-1.5a13.66,13.66,0,0,1,.58-3c0-.1,1-.16,1.13,0a6.31,6.31,0,0,1,1.3,2.62c.17,2.05,0,4.13,0,6.2a4.5,4.5,0,0,1,0,1.11c-.82,2.93.22,5.62,1,8.35a13,13,0,0,1,.42,2.54c.58,7.88,1.13,15.76,1.73,23.64a15.13,15.13,0,0,0,.51,2.24l.64-.07c0-5.72.14-11.44-.05-17.15-.12-3.51-.69-7-1.13-10.52-.31-2.51,0-4.84,2-6.71,1,1.46-.14,4.82,3.87,5v9.79l.81.07c.2-.72.36-1.44.6-2.14s.54-1.35.81-2c.35.61.71,1.21,1,1.83a1.91,1.91,0,0,0,.77,1c.22-.91.5-1.81.66-2.74.39-2.31.87-4.63,1-7s-.11-4.4-.08-6.6a13.16,13.16,0,0,1,.66-3.86c.85,4.26.9,4.35,2.54,3.94,0,2.71,0,5.46,0,8.2,0,1.11,0,2.22-.07,3.32a12.5,12.5,0,0,1-.41,2.88c-.65,2-.4,3.64,1.34,4.92l.7-11.22c1,1.93,1.75,3.57,1.22,5.52a2.9,2.9,0,0,0-.12,1.64,7.12,7.12,0,0,0,1.21,1.62c.3-.52.85-1,.87-1.55.1-2.41,0-4.82.06-7.24,0-.78.14-1.55.24-2.55,1.23,1.59,1.61,6.45,1.27,13.74,1-1,1.3-2.47,1.61-6.48.18-2.31.53-4.6.8-6.9h.63l.61,9.68.45,0,.83-2.24,1.51,1.37,2.24-10.58.78,0a11.05,11.05,0,0,1,.35,2.32c-.12,2.19-.37,4.37-.57,6.55l.6.16,2.09-5.45.72.22-.7,5.17.59.22a9.81,9.81,0,0,0,.87-1.74c.28-1,.28-2.11.65-3.08a6.9,6.9,0,0,1,1.48-2,.84.84,0,0,1,.8,0c.2.16.39.64.29.79-1.23,1.78.3,3.64-.32,5.29l1.65.57L133,25.5c.16,3.86-1.24,7.28-2.31,10.8s-1.62,7.46-2.38,11.2a2.3,2.3,0,0,0,.07,1.09c.28.88,1.11,2,.84,2.57a21.35,21.35,0,0,1-3,4.61,39.77,39.77,0,0,1-3.41,3.36c-1-2.16-1.22.21-2.11.48a37.76,37.76,0,0,1,.77-4.7,37.83,37.83,0,0,1,1.92-4.4h-3.73c-.24,3.84-.25,7.69,1.45,11.65ZM106.87,99l.53-.08c2.6,5.54.53,12,3.31,17.76,2.74-1.71,1.76-4.71,3-7.13l.78,2.21.47,0c0-3.74.27-7.5-.08-11.2-.28-3-1.63-5.8-1.91-8.75-.25-2.55-.42-4.63-3.58-4.8a1.4,1.4,0,0,1-.64-.36c-1-.78-1.51-.16-2,.75l1.12.33L105,92.58l1.49-.14a24.1,24.1,0,0,0,.85,13l.62-.08Zm-4.34,22.45a5.82,5.82,0,0,0-.54,1.76c.44,4.78,1,9.55,3.16,14,.59,1.19.93,2.51,1.4,3.77s1,2.58,1.49,3.87l.72-.14c0-4.62.44-9.29-.12-13.84s-2.13-9.05-3.26-13.57l-.38.09.26,2.66-.5.16a20.08,20.08,0,0,1-.78-2.34c-.54-2.63-1-5.27-1.55-7.89-.12-.55-.67-1-1.28-1.86C100.24,114.57,100.76,118.76,102.53,121.48Zm14.1,11.79-.49-.26c.5-.68.85-1.63,1.52-2,1.3-.64,1.17-1.53,1-2.61-.37-1.94-.62-3.9-1-5.82a29.41,29.41,0,0,0-1.13-3.29c-1.09,1.55-1.45,3.17-2.33,4.43-1.32,1.89-1.06,3.52,0,5.31a23.09,23.09,0,0,1,1.38,2.82,3.72,3.72,0,0,1-1.13,4.58,4.61,4.61,0,0,0-.55.67l1.4,3.55.61-1.46.77-.15c.57,3.8,1.67,7.34,4.58,10.23,1.33-6.43-1.39-12.17-2-18.15l-.53-.18Zm-27.15-4c-2.64-.17-3.05.44-2.89,2.59.27,3.53.35,7.07.44,10.6.11,4.32.15,8.64.24,13,0,.19.18.38.28.58.42-2.75.23-5.6,2.48-7.69.07-.07.07-.23.08-.36.38-3.55.9-7.08,1.1-10.64s.07-7.25.08-10.88c0-2.36,0-4.72,0-7.09l-.72,0-.76,6.88a14.46,14.46,0,0,0-1.55-1.12,7.07,7.07,0,0,0-1.26-.38A4.43,4.43,0,0,0,87.3,126C87.92,127,88.62,128,89.47,129.29Zm9.2-56.35-.79.17c0,2.41.08,4.83,0,7.24a50.42,50.42,0,0,1-.61,6.9c-.35,2-1.41,3.8-1.61,5.75-.1.93,1.08,2,1.68,3,.67-.44,1.36-.86,2-1.34a2.7,2.7,0,0,0,1-1.05c.69-2,1.84-4.14,1.78-6.18A49.21,49.21,0,0,0,100.45,78,44.36,44.36,0,0,0,98.67,72.94Zm3.26-33.61-.87-.23c-.43,1.94-.87,3.88-1.29,5.82-.48,2.2-1.07,4.38-1.36,6.6a69.71,69.71,0,0,0-.45,7c-.07,2.29,0,4.58,0,6.88l.65,0C102.24,57.06,100.95,48,101.93,39.33ZM104,75.92c3.29-7.82,2-15.93,1.61-24.33C104,53.19,103,68.81,104,75.92Zm11.32,1.34a4.68,4.68,0,0,0,1.57-4.15q-.18-8.33-.41-16.65a4.87,4.87,0,0,0-.25-.94C114.66,58.33,114.21,74.83,115.32,77.27ZM85.6,25.48c.83,4.92-.63,10.23,2.49,15.23C88.83,37.78,87.16,27.32,85.6,25.48Zm7.5,92.14,1.89-.38L94.64,112c1-.85,1.08-2.3.34-3.69-.28-.52-1.24-.68-1.89-1l-.43.56,1.44,2.77C91.9,112.68,93.77,115.12,93.1,117.62Zm17-60.86.77-.06c-.54-3.82,1.77-7.78-1.08-11.54-.71-.93-.64-2.46-1-4.07ZM94.82,97.63c-.94,1.22.18,2.71.53,4.18.11.46.77.79,1.18,1.17a6.08,6.08,0,0,0,1.11-1.48c.44-1.25.7-2.55,1-3.61Zm-.66,21.31-.57.08a48.73,48.73,0,0,1,.6,6.28c-.16,5.39-.25,5.39.4,6C95.36,129.75,95,119.82,94.15,118.94Zm24.23-48h.48a19.41,19.41,0,0,0-.48-10.82Zm7.27,60.94-.55.14,4,13.89.48-.14Zm-3.56-96.69c-1.39,2.4-1.64,6.11-.53,7.87ZM89.6,161.28l.67,0,.56-8-.76,0Zm13.82-78.4a6.11,6.11,0,0,0,1.9-4.84C103.56,78.91,103,80.28,103.42,82.88Zm15.75,27.69c-1.46,1.85-1.39,2.08.84,4.68ZM85.41,162l-.49-.09c-1,1.42-.5,2.84-.19,4.25h.69Zm16-23.14c-1,2.35-.48,3.65,1.33,3.52Zm4.86-92.14-.61-.13-.59,4.12C106.49,49.59,106.53,48.16,106.3,46.68Zm.22,24.79,1,.12.23-3.53-.9-.07Zm22.7,76.12-.58.29,1.3,2.83.6-.27C130.51,149.31,130.57,148.15,129.23,147.59Zm.42-5.42.6-.12-1-4.43-.51.11Zm-6.79-12.42-.39,0,1.23,6.26.42-.08ZM88.51,104.67l.53.13,1-3.88-.75-.17ZM112,122.49l.82.34.91-2.28c-.27-.06-.75-.23-.78-.17C112.61,121.06,112.32,121.78,112,122.49Zm-1.39-87.32h-.44l.4,5a7.77,7.77,0,0,0,.3-2.86C110.86,36.61,110.72,35.89,110.63,35.17Z"/><path class="cls-1" d="M80.93,195.55l-.54,2.07a17.19,17.19,0,0,1-3.79.59,3.43,3.43,0,0,1-2.29-1.34c-.25-.35.35-1.42.73-2.08.94-1.64,2.54-2.2,4.31-2.52,1-.19,2-.77,3-.89a36.9,36.9,0,0,1,4.26,0,3,3,0,0,1,3.29-1.8c.49,0,1.28.34,1.36.66a2.24,2.24,0,0,1-.44,1.66,2.45,2.45,0,0,1-1.42.77,3.68,3.68,0,0,0-3,2.33c-.58,1.19-2.65,1.66-4.07,2.46Z"/><path class="cls-1" d="M64.8,46c2.11.9,2.11.9,3.29-2.6,1.25,12.55,4,24.93,3.62,37.68C70.59,75.27,71,69.19,68.4,63.71,69.3,57.5,66,52.1,64.8,46Z"/><path class="cls-1" d="M12.74,114.73q.58-2.69,1.15-5.37c.06-.29.21-.64.12-.89-1.21-3.23.09-6.09,1.13-9a50.91,50.91,0,0,0,1.25-5.6c.7-3.07,1.44-6.13,2.14-9.12a20.93,20.93,0,0,1,1.84,2.4,2.38,2.38,0,0,1,0,1.57c-.42,1.73-.43,3.87-1.49,5.07-2.27,2.57-.75,5.36-1.15,8-.26,1.74-.54,3.36-2,4.63a4.36,4.36,0,0,0-.89,2.09c-.57,2.14-1.07,4.3-1.6,6.46Zm4.71-15.27L17,99.26a5.36,5.36,0,0,0-1.25,6.23Z"/><path class="cls-1" d="M51.14,94.67c-.52-1-1-1.42-1-1.91-.39-6.31-2.59-12.43-2.1-18.83a7.11,7.11,0,0,1,.55-2.29,33.14,33.14,0,0,1,1.7-3c.21.38.69.86.68,1.33-.08,2.79-.43,5.59-.38,8.38s.51,5.31.73,8c.18,2.15.3,4.3.39,6.45A7.82,7.82,0,0,1,51.14,94.67Z"/><path class="cls-1" d="M50.79,66.67V64.35c-.43-.19-1-.26-1.16-.55s.09-.83.17-1.26c1.89.32,1.55-1.16,1.67-2.16.34-2.74.59-5.5.91-8.25a2.35,2.35,0,0,1,.82-1.44c.28,1,.63,2,.84,3,.8,3.89-.16,7.61-1.25,11.28C52.61,65.54,51.72,65.9,50.79,66.67Z"/><path class="cls-1" d="M144.17,190.7c-3.19-.1-3.53.2-3.92,3.13a6,6,0,0,1-.88,2.78,2.56,2.56,0,0,1-2.23.8c-1.18-.39-.75-1.43-.1-2.07,1-1,.9-1.94.69-3.2a5.49,5.49,0,0,1,.58-3.3,1.88,1.88,0,0,1,3-.6C142.3,189,143.22,189.87,144.17,190.7Z"/><path class="cls-1" d="M56,67.92c0,1-.08,1.93,0,2.88.12,1.21.4,2.4.56,3.6a12.07,12.07,0,0,1,.28,3.26c-.36,2.45-1,4.87-1.57,7.3-.53-3.88-2.5-7.61-.69-11.72.71-1.61.69-3.54,1-5.33Z"/><path class="cls-1" d="M122.83,59.25l-1.65,2.91c-1.7-4-1.69-7.81-1.45-11.65h3.73a37.83,37.83,0,0,0-1.92,4.4,37.76,37.76,0,0,0-.77,4.7c.9-.28,1.12-2.64,2.11-.48Z"/><path class="cls-1" d="M128.74,189.9c-.36-.33-1.27-.81-1.55-1.54-.19-.5.36-1.44.81-2a9.73,9.73,0,0,1,2.1-1.8,1.64,1.64,0,0,1,2.64.93C133.23,187.24,131.1,189.94,128.74,189.9Z"/><path class="cls-1" d="M146.87,163.15c.37-.19.68-.48,1-.48a4.62,4.62,0,0,1,1.27.36c-.29.31-.53.82-.87.91-1.63.41-3.31.67-4.95,1.07-1.25.3-1.64-.5-1.64-1.37a2.12,2.12,0,0,1,1.08-1.41,6.6,6.6,0,0,1,2.4-.74C146.83,161.29,146.84,161.35,146.87,163.15Z"/><path class="cls-1" d="M112.3,189.86c-1.78,1.25-2.73,2.92-4.63,2a2.45,2.45,0,0,1-.92-1.59,6,6,0,0,1,2.7-1.92C110.21,188.21,111.15,189.2,112.3,189.86Z"/><path class="cls-1" d="M118.87,188.35c-1.29.95-2.08,1.89-3,2.05-.5.09-1.68-1.08-1.77-1.79-.18-1.3.91-2.05,2.16-1.84C117,186.9,117.71,187.61,118.87,188.35Z"/><path class="cls-1" d="M69.78,189.77l-2.58-.25.7,2.48c-1.26-.43-2.17-.9-2-2.32.22-1.67,1.48-1.49,2.66-1.55a1.81,1.81,0,0,1,2,1.92c0,.58-.66,1.2-1,1.81l-.54-.33Z"/><path class="cls-1" d="M74.21,73.7c-1.27-3-.93-6.2-1.24-9.31l.62-.18A16.53,16.53,0,0,1,74.46,67c.26,1.92.35,3.85.49,5.78a3.4,3.4,0,0,1-.16.86Z"/><path class="cls-1" d="M155.83,171.94a20.82,20.82,0,0,1,2.09-.17c.65,0,1.29.15,2.36.29l-1.07-2,.29-.46c.52.31,1.51.67,1.48.91a4.11,4.11,0,0,1-.92,2.53C158.52,174.3,157.13,173.22,155.83,171.94Z"/><path class="cls-1" d="M91.55,194.55c1.17-.76,2.31-1.58,3.53-2.24a1.28,1.28,0,0,1,1.17.47,1.35,1.35,0,0,1-.3,1.28c-1.24.62-2.56,1.07-3.86,1.58Z"/><path class="cls-1" d="M159.63,179.42a21.07,21.07,0,0,1-2.14-2,2.65,2.65,0,0,1-.57-1.72c0-.4.66-.75,1-1.12.38.44.92.81,1.12,1.32.44,1.14.71,2.35,1,3.53Z"/><path class="cls-1" d="M49.49,61c-1.27-.83-2.07-4-1.15-5.11a1.38,1.38,0,0,1,1.34.08,2.63,2.63,0,0,1,.23,1.59C49.83,58.69,49.64,59.79,49.49,61Z"/><path class="cls-1" d="M117.47,156.46c-.51.83-1.06,2.37-1.53,2.35-1,0-2-.88-3.07-1.4l.18-.56,4-.71Z"/><path class="cls-1" d="M45.51,69.54c-1.13-1.61-1.08-4.48,0-5.69C46.95,65.84,45.7,67.69,45.51,69.54Z"/><path class="cls-1" d="M153.57,188.38l-5.22,2.94C149.16,188.49,151,187.53,153.57,188.38Z"/><path class="cls-1" d="M110.86,172.73c-.75.58-1.47,1.26-1.56,1.18a7.27,7.27,0,0,1-1.62-1.89c-.09-.16.54-.74.85-1.13Z"/><path class="cls-1" d="M.29,161.81a7.93,7.93,0,0,1,0-1.9,4.75,4.75,0,0,1,.91-1.68c.1-.13.91,0,.93.13a3.88,3.88,0,0,1,0,1.91,11.29,11.29,0,0,1-1.39,2.11Z"/><path class="cls-1" d="M128.15,177.49c-.47,1.09-3,2.74-3.68,2.54-.25-.07-.65-.42-.62-.55.08-.37.29-.9.58-1C125.56,178.1,126.74,177.86,128.15,177.49Z"/><path class="cls-1" d="M73,60.07c-1.66-.58-1.88-2.85-.4-5.66Z"/><path class="cls-1" d="M157,190l-1.1-1.29.32-.49c.4.3,1,.52,1.15.9a16.78,16.78,0,0,1,.37,2.78c-.41,0-.91.16-1.2,0a1.22,1.22,0,0,1-.28-1.06C156.3,190.54,156.69,190.31,157,190Z"/><path class="cls-1" d="M152.16,168.84l-3.61,2.8C148.55,169.41,149.81,168.38,152.16,168.84Z"/><path class="cls-1" d="M4.9,150.6c-.39,1.68-.69,3.07-1.07,4.43-.07.25-.52.43-.82.53-.08,0-.47-.47-.42-.62.45-1.34,1-2.66,1.49-4C4.12,150.86,4.38,150.83,4.9,150.6Z"/><path class="cls-1" d="M158.29,160.84a7.58,7.58,0,0,1,.07-2.06c.06-.22.9-.21,1.38-.3l-.38,2.42Z"/><path class="cls-1" d="M58,55l.19,3.5c-.69-.62-1.34-.94-1.33-1.24a14.44,14.44,0,0,1,.52-2.57Z"/><path class="cls-1" d="M54.79,38.66c-1.47-1.92.49-2.94.72-4.46l.46.12Z"/><path class="cls-1" d="M45.36,61.59c-1.58-.53-1.8-1.31-1-3.29Z"/><path class="cls-1" d="M124.81,182.16c.41.63.87,1,.81,1.3a1.3,1.3,0,0,1-.92.83,1.22,1.22,0,0,1-.87-.85C123.8,183.13,124.3,182.78,124.81,182.16Z"/><path class="cls-1" d="M140.66,176.19c-.57.32-1.13.65-1.73.92a8.15,8.15,0,0,1-.48-.83l1.78-.93Z"/><path class="cls-1" d="M129.39,182c-.7.49-1.06.93-1.42.93s-.68-.48-1-.74c.3-.32.56-.85.91-.91S128.63,181.65,129.39,182Z"/><path class="cls-1" d="M145.26,178.47l1.06-2.57.45,0a5.8,5.8,0,0,1-.06,2C146.59,178.15,145.83,178.23,145.26,178.47Z"/><path class="cls-1" d="M106.87,99l1.07,6.32-.62.08a24.1,24.1,0,0,1-.85-13l-1.49.14,2.8-4.85-1.12-.33c.54-.91,1-1.53,2-.75a1.4,1.4,0,0,0,.64.36c3.16.17,3.33,2.25,3.58,4.8.28,3,1.63,5.8,1.91,8.75.35,3.7.08,7.46.08,11.2l-.47,0-.78-2.21c-1.21,2.42-.23,5.42-3,7.13C107.92,111,110,104.5,107.4,99Zm6.47,5.78h.88l-.38-5.18h-.25Z"/><path class="cls-1" d="M102.53,121.48c-1.77-2.72-2.29-6.92-1.38-13.38.62.87,1.16,1.32,1.28,1.86.57,2.62,1,5.27,1.55,7.89a20.08,20.08,0,0,0,.78,2.34l.5-.16-.26-2.66.38-.09c1.13,4.52,2.69,9,3.26,13.57s.12,9.22.12,13.84l-.72.14c-.5-1.29-1-2.57-1.49-3.87s-.81-2.57-1.4-3.77c-2.18-4.4-2.72-9.17-3.16-14A5.82,5.82,0,0,1,102.53,121.48Zm5.1,11.61c1-2.71.52-4.72-1.23-5.35Z"/><path class="cls-1" d="M116.62,133.27l2-2.29.53.18c.61,6,3.34,11.72,2,18.15-2.9-2.9-4-6.43-4.58-10.23l-.77.15-.61,1.46-1.4-3.55a4.61,4.61,0,0,1,.55-.67,3.72,3.72,0,0,0,1.13-4.58,23.09,23.09,0,0,0-1.38-2.82c-1.07-1.79-1.32-3.42,0-5.31.88-1.26,1.24-2.89,2.33-4.43a29.41,29.41,0,0,1,1.13,3.29c.43,1.92.68,3.89,1,5.82.21,1.09.33,2-1,2.61-.67.33-1,1.29-1.52,2Z"/><path class="cls-1" d="M89.47,129.29C88.62,128,87.92,127,87.3,126a4.43,4.43,0,0,1-.31-1.26,7.07,7.07,0,0,1,1.26.38,14.46,14.46,0,0,1,1.55,1.12l.76-6.88.72,0c0,2.36,0,4.72,0,7.09,0,3.63.12,7.26-.08,10.88s-.72,7.1-1.1,10.64c0,.12,0,.29-.08.36-2.25,2.1-2.05,4.94-2.48,7.69-.1-.19-.28-.38-.28-.58-.09-4.32-.12-8.64-.24-13-.09-3.54-.17-7.08-.44-10.6C86.41,129.73,86.83,129.13,89.47,129.29Z"/><path class="cls-1" d="M98.67,72.94a44.36,44.36,0,0,1,1.78,5,49.21,49.21,0,0,1,1.65,9.43c.06,2-1.09,4.14-1.78,6.18a2.7,2.7,0,0,1-1,1.05c-.64.48-1.33.9-2,1.34-.6-1-1.77-2.05-1.68-3,.2-2,1.26-3.8,1.61-5.75a50.42,50.42,0,0,0,.61-6.9c.1-2.41,0-4.83,0-7.24Z"/><path class="cls-1" d="M101.93,39.33c-1,8.72.31,17.74-3.34,26.1l-.65,0c0-2.29-.06-4.59,0-6.88a69.71,69.71,0,0,1,.45-7c.29-2.22.88-4.4,1.36-6.6.42-1.94.86-3.88,1.29-5.82Z"/><path class="cls-1" d="M104,75.92c-1-7.11,0-22.74,1.61-24.33C106,60,107.29,68.1,104,75.92Z"/><path class="cls-1" d="M115.32,77.27c-1.11-2.43-.66-18.93.92-21.73a4.87,4.87,0,0,1,.25.94q.22,8.32.41,16.65A4.68,4.68,0,0,1,115.32,77.27Z"/><path class="cls-1" d="M85.6,25.48c1.56,1.84,3.24,12.31,2.49,15.23C85,35.71,86.43,30.4,85.6,25.48Z"/><path class="cls-1" d="M93.1,117.62c.67-2.5-1.2-4.93,1-7l-1.44-2.77.43-.56c.65.32,1.61.48,1.89,1,.74,1.39.68,2.84-.34,3.69l.35,5.29Z"/><path class="cls-1" d="M110.14,56.75l-1.31-15.67c.37,1.62.3,3.14,1,4.07,2.85,3.76.53,7.72,1.08,11.54Z"/><path class="cls-1" d="M94.82,97.63l3.8.26c-.28,1.06-.54,2.36-1,3.61A6.08,6.08,0,0,1,96.52,103c-.41-.39-1.07-.71-1.18-1.17C95,100.34,93.88,98.85,94.82,97.63Z"/><path class="cls-1" d="M94.15,118.94c.86.88,1.21,10.81.43,12.38-.65-.64-.56-.63-.4-6a48.73,48.73,0,0,0-.6-6.28Z"/><path class="cls-1" d="M118.39,70.9V60.07a19.41,19.41,0,0,1,.48,10.82Z"/><path class="cls-1" d="M125.66,131.83l4,13.88-.48.14-4-13.89Z"/><path class="cls-1" d="M122.09,35.15,121.57,43C120.45,41.26,120.71,37.55,122.09,35.15Z"/><path class="cls-1" d="M89.6,161.28l.47-7.95.76,0-.56,8Z"/><path class="cls-1" d="M103.42,82.88c-.37-2.6.14-4,1.9-4.84A6.11,6.11,0,0,1,103.42,82.88Z"/><path class="cls-1" d="M119.17,110.57l.84,4.68C117.77,112.66,117.7,112.42,119.17,110.57Z"/><path class="cls-1" d="M85.41,162v4.17h-.69c-.31-1.42-.85-2.83.19-4.25Z"/><path class="cls-1" d="M101.45,138.82l1.33,3.52C101,142.48,100.43,141.17,101.45,138.82Z"/><path class="cls-1" d="M106.3,46.68c.23,1.49.19,2.91-1.2,4l.59-4.12Z"/><path class="cls-1" d="M106.53,71.47l.28-3.47.9.07-.23,3.53Z"/><path class="cls-1" d="M129.23,147.59c1.35.56,1.28,1.72,1.32,2.84l-.6.27-1.3-2.83Z"/><path class="cls-1" d="M129.64,142.17l-.89-4.44.51-.11,1,4.43Z"/><path class="cls-1" d="M122.85,129.75l1.25,6.2-.42.08-1.23-6.26Z"/><path class="cls-1" d="M88.51,104.67l.77-3.92.75.17-1,3.88Z"/><path class="cls-1" d="M112,122.49c.3-.71.59-1.43.95-2.11,0-.06.51.11.78.17l-.91,2.28Z"/><path class="cls-1" d="M110.63,35.17c.09.72.23,1.43.27,2.15a7.77,7.77,0,0,1-.3,2.86l-.4-5Z"/><path class="cls-1" d="M17.46,99.46l-1.76,6A5.36,5.36,0,0,1,17,99.26Z"/><path class="cls-1" d="M113.34,104.82l.26-5.19h.25l.38,5.18Z"/><path class="cls-1" d="M107.62,133.09l-1.23-5.35C108.14,128.37,108.67,130.38,107.62,133.09Z"/></g></g></svg>