<svg xmlns="http://www.w3.org/2000/svg" viewBox="0 0 545.98 360.84"><defs><style>.cls-1{fill:none;stroke:#000;stroke-miterlimit:10;stroke-width:0.5px;}</style></defs><title>Asset 20</title><g id="Layer_2" data-name="Layer 2"><g id="Pics"><path class="cls-1" d="M545.89,162.25a80.85,80.85,0,0,0-8.6-2.28c-4.77-.74-8.45-2.45-10-7.56a7.78,7.78,0,0,0-3.2-4.25c-5.84-3.3-11.9-6.2-17.82-9.36a13.85,13.85,0,0,1-3.92-3.09c-1.39-1.62-2-4.14-3.69-5.24A121,121,0,0,0,485,122.7c-6.21-3-12.67-5.56-18.85-8.64-1.88-.94-4.15-2.77-4.59-4.6-1.58-6.48-3.84-7.9-10.12-6.45a13.28,13.28,0,0,1-7.78-1.18c-6-2.66-11.69-5.82-17.49-8.82-1.27-.66-3.33-1.35-3.5-2.3-.94-5.42-4.94-4.62-8.71-5.17-2.68-.4-6.05-1.42-7.59-3.37-6.11-7.74-13.47-11.63-23.46-10.19a10.53,10.53,0,0,1-5.82-.77c-8.72-4.28-16.91,1.37-25.42,0l-.48,1.93,15.07,9.21-.88,1.41c-4.11-2-8.18-4-12.32-5.92-15.19-6.94-30-15.11-45.7-20.44-26.45-9-53.25-17.22-80.38-23.82A1263.16,1263.16,0,0,0,.25.25M357.57,63c-8.85-3.48-15.73.66-23,2.42C341.26,71.47,343.42,71.29,357.57,63Z"/><path class="cls-1" d="M.25,302.39c2.11.4,4.19,1,6.32,1.18C27,305.45,47.43,307.67,67.9,309c37.8,2.46,75.64,4.35,113.45,6.6,5.68.34,11.32,1.64,17,1.83,5.42.19,10.88-.87,16.3-.72,16.88.45,33.74,1.18,50.61,1.86,2.84.11,5.68.46,8.52.69l-.06,1.06h-9.26c9,1.26,16.76,2.44,24.58,3.32,1.05.12,2.27-1.36,3.43-2.08,1.58-1,3.13-2.74,4.76-2.81,9.61-.45,19,2.44,28.91.21,6.77-1.53,14.26-.88,21.27,0,6.44.8,12.37,1.6,19.07.09,8.1-1.83,16.8-.87,25.22-1.39,27.91-1.72,55.84-3.33,83.72-5.49,8.19-.63,16.3-2.74,24.34-4.61,2.08-.48,3.78-2.62,5.66-4-1.83-1.19-3.51-3-5.51-3.47a140.57,140.57,0,0,0-19.48-3.76c-29.32-2.77-58.65-5.68-88-7.61-26.59-1.75-53.26-2.22-79.88-3.42-4-.18-6.21,1.55-7.28,5.09-1.65,5.44-2.31,5.8-7,4.14.83-1.81,2.88-4.37,2.29-5.42-1.11-2-3.72-3.14-5.82-4.46-.61-.38-1.62-.15-2.45-.17-39.05-1-78.1-2.54-117.16-2.86-58.29-.48-116.59-.1-174.89-.08q0-29.82,0-59.63c10.58,2.37,21.14,4.88,31.76,7,6,1.22,12,2,18.1,2.78,13.94,1.69,27.94,2.94,41.84,4.9,13.5,1.9,26.85,5,40.39,6.61,12.58,1.51,25.31,1.87,38,2.54,16,.84,32,1.67,48.08,2.14,13.77.4,27.55.31,41.33.37,11.56.05,23.13,0,35.41,0,.57-3.82,4.87-8.12.09-13.13-.41-.42.61-3.33,1.37-3.52,2-.52,5-1,6.12,0,1.89,1.77,2.78,4.7,3.84,7.24s1.43,5.09,2.63,7.38c.48.92,2.36,1.55,3.61,1.56,21.65.15,43.3.18,64.94.24,14,0,28,.41,42,0,7.17-.21,14.3-1.77,21.44-2.81,12.22-1.78,24.46-3.4,36.61-5.56,6.8-1.21,13.37-3.75,20.16-5,5.93-1.08,12.25-.08,17.66-3.69,2.41-1.61,4.83-3.19,7.23-4.81.95-.64,1.87-1.93,2.78-1.92,8.29.12,13.36-6.58,20.24-9.38M160.15,342.19l-.19,1,23.9,1.92-2.8-4.15Zm164.38-21.73-.34,1.89,12.64,2.59.34-1.8Zm-207,25.76.26.94,15.77-1.22-.13-1.46Zm-75,12.28.11-.57-12.52.73.21,1.88Z"/><path class="cls-1" d="M190.36,168.85c-3.69,2.69-3.69,2.69-5.78,14.1-1.62-2.12-3.15-3.22-3.35-4.53-1.5-9.8-2.21-10.36-11.7-7.93-1.12.29-2.26.53-3.35.91-3.22,1.13-6.84,2-3.36,6.68.42.56-.16,1.87-.46,4.42l-4.17-6.13-1.3,6.83c-1.65-1.5-2.74-2.46-3.79-3.46-.82-.78-1.46-2-2.41-2.33-6.35-2-12.74-3-19.13,1.35l16,2.94-.18,1.67c-6.68-.61-13.4-.94-20-2-2.22-.35-3.09-1.54-5.37,1-1.77,2-6.55,1.2-10,1.65l-.35-1.16,4.39-2.5-6.66-1-.1-1.29,16.88-1.26.07-.84-23.95-6,0-.87,5.09-.32c.33-3.68,2-5.17,5.66-2.52a4.26,4.26,0,0,0,2.36.64c6.07.05,12.14.07,18.21,0a4.81,4.81,0,0,0,3.33-1.76l-25-8.24.81-2.45,31.75,11.12a11.12,11.12,0,0,0-6.47-9c-6.25-3.18-12.64-6.07-19.87-9.51l4.25-.55-9-6.38.91-1.31c3.67,2.68,7.46,5.2,11,8.08s6.81,5.55,11.37,7.32c5,1.93,8.72,6.93,13.44,11l.3-.25,5.59,8.86,2-4.63.85.1a42.91,42.91,0,0,0,6.86.4,27.82,27.82,0,0,0,6.65-1.71c1.87-.67,5-1.58,5.1-2.62.19-2-1.22-4.23-2.29-6.19-.5-.92-2-1.25-2.63-2.14-5.74-8.26-14.32-11.27-23.92-13.5l4.73,8.85.08-.09c-6.33-7-14.78-9.57-23.56-11.82-2.93-.75-6.84-2-6.23-6.42l21.46,10c-3.49-9.1-15.37-6.84-20-16.42,5.32,3.17,9.29,6,13.62,7.93,1.88.86,4.52.06,6.82,0l-1-7.16-.13.11-2.31-6.76,3-.19c-.92-3.9-3.14-5.54-6.71-5.54l-1.14-.51c-3.78-2.14-3.78-2.14-1.89-6.81,2.82,4,4.68,1.88,6.92-.91v5.38l1-.61,5.09,4.63,1.73-5.06c0,3.34,0,5.55,0,7.75,0,1-.56,2.08-.26,2.92,1.88,5.3,3.5,10.77,6.09,15.71,1.42,2.7,3.63,5,8.38,3.36,2.43-.82,6.58,3.45,9.95,5.42l-7-2.3-.74,1.14,8.47,8,1.1-.53-1.91-6.38c.33-1,1.18-2.2.92-3-1.61-5.21-3.46-10.35-4.22-16l6.86,6,2.78-4.86.75,15.6c5.66-2.32-1-12.74,9.45-8.95-3.82-14.15-9-27-3.75-41.43.56,2.67,1.24,4.92,1.48,7.2.42,4.09,2.62,5.63,6.19,4.26l2.39,7.73c-3.4,2.32.72,5.13,2,8.81l6.08-7.27-3,12.6-1-.09-.38-3.68c-3.24,1.93-4.14,3.89-2.32,7.07.64,1.11.68,3.83,0,4.23-7,4.31-2.18,11-4.57,16.13l1.78.4,2.32-13,1.3.11-.87,13.42,7.61-2.19.06.08-1,3.23c-7.54.07-9.28,1.7-9.69,9.24-.31,5.69-.55,11.37-.82,17.06h-1.53c0-2.13.32-4.33-.1-6.38-.34-1.67-1.57-3.16-2.4-4.73,2.43-2.66,4.79-5.34,1.58-9.66l-6.49,9.15,1,1Zm-7.87-3.32,2.18.32c4.26-6.26,7.75-12.76,6.8-20.83a13.68,13.68,0,0,1,.18-5.74,63.43,63.43,0,0,1,3.82-7.87c-2.26,1.63-3.17,5.12-4.74,5.44-4.66,1-4.36,4.1-4.81,7.38-.31,2.23-1.52,4.33-1.84,6.56C183.39,155.68,183,160.61,182.5,165.53Zm8-34.11,2,.43c1.21-3.14,2.79-6.22,3.39-9.48.18-1-2.33-2.49-3.61-3.76-.75,1.26-2,2.48-2.13,3.79A78.24,78.24,0,0,0,190.45,131.41Zm-60.27,38.45c-5.72-4.15-11.18-1.32-16.72-.83l.11,2Zm10.87,1.38-.39,2.39,8.77,1.09.29-1.7Z"/><path class="cls-1" d="M221.86,178.12c-3.38,2.65-5.25.6-6.54-3.07l-4.58,3.9-.41-2.51-2.73,2.36-.57-.4,4.62-8.38c-4.05-1.86-4.62,1.11-5.7,3.12s-2.1,4.19-3.14,6.29l-1.42-.54c.81-2.9,1.71-5.77,2.41-8.7,1.26-5.26,6.46-10,2.08-16,3.48,1.24,6.2,1.36,5.72-3.77H206l-.06-.08c1.18-.55,2.33-1.17,3.53-1.65,4-1.6,6.61-3.33,6-8.83-.4-3.44,2.6-7.22,3.83-10.93a40.33,40.33,0,0,0,1.17-5.61c2.75-1.76,5.78-2.92,7.49-5.11.86-1.1-.4-4.18-1.2-6.16a65.07,65.07,0,0,0-3.85-7c3.65,2.07,6.65,3.89,9.78,5.44.55.27,2.42-.73,2.39-.92-.68-4.1,3.11-3.32,4.61-5l1.21.78L230,126.29l6.18,1-3.76,4.58c2.35,1.2,4.26,2.31,6.27,3.17,4.45,1.92,11.83-.53,14.65-4.75a13.46,13.46,0,0,1,1.54-1.93A13.08,13.08,0,0,1,257,127.1c-2.25,4.32-5.18,8.33,1.18,11-8.8-3.1-16.94-.35-25.12,1.62-4.58,1.1-9.11,7.38-8.34,11.37l.25.27L223.09,157l.94,0-5.22,4.25.74,1.13,4.86-.65-4.33,3.4.23.65,5.21-1.12.31.77-3,1.59c-.18,3.65-6.43,5.22-3.65,10.51,3.55-3.18,4.07-6.72,3.55-10.61,2.32-.47,4.63-1,7-1.38a7.29,7.29,0,0,1,3.6-.05c1.14.45,2.46,2.57,2.9,2.35a16.22,16.22,0,0,0,4.51-3.64,2.05,2.05,0,0,0,.22-1.62c3.29.92,6.48,2.33,9.75,2.59,3.53.28,7.14-.53,11.43-.93-1.36,1.27-2.26,2.75-2.94,2.65-12-1.68-22.08,3.69-32.21,8.8l3.69-3.89C225.54,171.91,222.86,173.95,221.86,178.12Zm-4.09-34.52,1.55,1.14c5.93-.53,8.45-4.66,6.12-12.34Zm-1.56,7.29-1.53-.36-1.8,7.8C218.29,156.89,217.84,154,216.21,150.89Z"/><path class="cls-1" d="M158.77,169.25l-.85-.1c-5.49-2.74-3.71-8.06-4.39-12.49a37.93,37.93,0,0,1-.18-4.41l-.08.09Z"/><path class="cls-1" d="M224.69,151.12c5.24-6,10.26-7.44,16.11-4.83l-15.86,5.1Z"/><path class="cls-1" d="M170.08,101.42l9.1,13.8C173,113.7,170.61,110.43,170.08,101.42Z"/><path class="cls-1" d="M137.19,115.53l1.14.51c.39,1.71,1.34,3.51,1.08,5.12-.68,4.23,1.07,6.42,5,7.37l.13-.11-5.75,2.51Z"/></g></g></svg>