<svg xmlns="http://www.w3.org/2000/svg" viewBox="0 0 336.05 186.87"><defs><style>.cls-1{fill:none;stroke:#000;stroke-miterlimit:10;stroke-width:0.5px;}</style></defs><title>Asset 21</title><g id="Layer_2" data-name="Layer 2"><g id="Pics"><path class="cls-1" d="M25.18,186.15c.2-.84.38-1.69.61-2.51a11.36,11.36,0,0,0,.58-5.27,4.65,4.65,0,0,1,0-1.42c.13-1.05.48-1.27,1.63-.95a6.33,6.33,0,0,0-.06-1c-.23-1-.29-1.88.71-2.55a1.23,1.23,0,0,0,.46-1,2.67,2.67,0,0,1,.45-2l.38,1.29a2.31,2.31,0,0,0-.17-3.19l.2,1.32-.2,0-1.08-2.06-.52,1.8c-.33.1-.71.1-.86.29-.51.62-.92.29-1.68-.18.28-.11.55-.15.56-.23s0-.57-.1-.59a8.82,8.82,0,0,0-1.28-.08l.29.94a.52.52,0,0,1-.43-.2,3.51,3.51,0,0,1-.24-.48c-.8.42-.8.42-1.37-.17-.26.21-.6.65-.74.59a2.35,2.35,0,0,0-1.7.18,1.61,1.61,0,0,1-2-.74l-.45.84h.6c-.18.95-.38,1.83-.5,2.73a1.22,1.22,0,0,0,.24.81,14.07,14.07,0,0,0,1.08,1.16l-.26.09-.11.92.48,0c.18.35.51.71.51,1.08a19.06,19.06,0,0,1-.21,2.88,4.85,4.85,0,0,0,.52,3.23l.32-2.76.4-.07a4.54,4.54,0,0,1,.36,1.19c0,.75-.19,1.51-.12,2.24.14,1.29.42,2.57.64,3.85m109.29,0c0-.22.08-.44.13-.65a37.19,37.19,0,0,0,1.19-4.77c.28-2.35.26-4.73.39-7.09a6.23,6.23,0,0,1,.86-2.9c.64,1.33,1.13,2.69,1.71,4,.3.68.38,1.2-.44,1.68.27.19.57.39.77.32a6.08,6.08,0,0,0,1.33-.69.52.52,0,0,0,.16-.47c-1-1.71-.76-3.91-2.09-5.5a.78.78,0,0,1-.08-.28l.13-.09.25.51.23-.1a2.85,2.85,0,0,0,.06-1.1,14.49,14.49,0,0,1-.62-5.93c.05-1.26-.13-2.53-.17-3.8,0-.19.26-.37.31-.58.1-.47.37-1.1.17-1.4a1.16,1.16,0,0,1-.05-1.49c.54-.83.52-.85-.26-1.12l-.37,1.24-.8.23.55-1.36a1.07,1.07,0,0,1-.81-1.58c-.82-.46-1-.83-.38-1.16a9.2,9.2,0,0,1,1.75-.58c0,.68-.05,1.2-.79,1.33-.09,0-.15.24-.23.36a3.29,3.29,0,0,0,.46,0,1,1,0,0,0,.26-.12l.65.55.22-.1c-.81-.72-.7-1.29,0-1.92.19-.16,0-.77,0-1.17l-.85.27.55-1.83-.2-.07-.48.57-.32-.74c-.35-.78-.57-.83-1.1-.2-.36.42-.66.89-1,1.38l.86.61.1.23a4.9,4.9,0,0,1-.57,1.83c-.48.55-.76.91-.24,1.54.08.09,0,.29,0,.44l.16-.12.93,1.13-.25-.06-.81,1.27v.07a3.12,3.12,0,0,0-.73-.66c-.61-.27-.46-.68-.3-1.11.09-.23.3-.43.34-.66a1.63,1.63,0,0,0-.1-.87.65.65,0,0,0-.56-.24,6.58,6.58,0,0,0-1,.32l-.81,2-.7.18c.33.21.86.45.84.54-.22.85.35.82.8.87l.52-.64.89.9-.6.57,1.89-.33.22,1.11c.52-.26.73.07.55.47-.34.76-.07.8.58.7.11,0,.28.28.42.42-.17.12-.33.33-.51.35a2.81,2.81,0,0,1-.75-.1l-.55.81a3.9,3.9,0,0,1-.61-.6c-.25-.39-.44-.81-.69-1.3l1.11-.43a1.65,1.65,0,0,0-2,.74c-.12.15.21.64.35,1l-.76.65-.57-.63.44-.84H127a5.48,5.48,0,0,1-1.3.15c-.79-.08-1,0-.73.81a5.6,5.6,0,0,0,.47.8,3.11,3.11,0,0,1,.16.59,3.09,3.09,0,0,1-.52.06,1.66,1.66,0,0,1-.42-.16l-.19.91-.16-.71-.18.22c-.13-.08-.36-.13-.38-.23-.13-.68-.19-1.38-.32-2.06-.09-.46-.25-.9-.38-1.35l-.26.06a19.28,19.28,0,0,0,.5,5.16l1,.33-.07.22c-1,.06-1,.07-.91.8a2,2,0,0,1,1.77,1.65c-1.19-.44-.47.74-.89,1a2.82,2.82,0,0,0-.23-.59c-.09-.14-.36-.33-.39-.3s-.47.41-.43.52a13.65,13.65,0,0,0,1.08,2.2c.15.24.64.24,1,.39.15.07.35.22.38.36.45,2.12,1.16,4.19.65,6.43a7.66,7.66,0,0,0,.05,2.57c.1.85.36,1.69.54,2.53l.8,3.71m110.3,0c.34-1.11.62-2.26,1-3.33,1-2.48-.13-5,.14-7.46,0-.18-.21-.38-.32-.57l.17-.11.82,1,.08-.14-.3-1.08.23-.17c.17,1.41,1.17.94,1.94.92l.91,3.8c1.79.45,2.43-.1,2.28-2.27-.19.3-.41.5-.37.61.37,1.06-.44.81-1.08,1a4.16,4.16,0,0,0,.28-.93c0-1.08.07-2.16,0-3.23s.13-2.32-1-3.08a.71.71,0,0,1-.12-.68,8.8,8.8,0,0,1,.83-1.15l.66,1.45.17,0-.34-1.49.14-.14.73.69a6.16,6.16,0,0,0,.08-.86c0-.61-.31-1.31-.1-1.82.33-.82.1-1.18-.84-1.45,1-.81.26-1.46,0-2.16a5.49,5.49,0,0,1-.37-1.27c-.24-2.33-.43-4.67-.66-7a13.8,13.8,0,0,0-.29-1.39l-.92.53-.39-2.31-.45.38-.33-.49-.15,0v3.63h-.11l-.53-1.45-.12,0-.14-1.45a12.49,12.49,0,0,1-.85,1.48,8.45,8.45,0,0,1-1,.86c-.25.23-.47.49-.71.74l-.22-.18.51-1-1.14.23c-.08-.47.09-.68.64-.75s.72-.17.51-.72l-2,1.13-.3-1.91c-.93-.72-1.29.81-2.16.48l0-.61-.92.25a3.53,3.53,0,0,1,.47-.93,3.36,3.36,0,0,1,.83-.43l-.25,0,.33-3,.28,0-.17,1.88.6-2,.19.13c.13-.19.37-.38.38-.58,0-.7,0-1.41,0-2.11a3.35,3.35,0,0,1,.35-.92c-.86-.91-.44-1.91-.12-3.07a3,3,0,0,1,2.34-2.4l1.18,2.38c.42-.38.4-.38.16-1.67a3.23,3.23,0,0,0-2.55-2.48,2.05,2.05,0,0,0-2.26.95,5.27,5.27,0,0,0-.79,1.9c-.54,2.12-.67,4.37-1.84,6.28a3,3,0,0,0-.32,2.82c.16.43.07,1.05.35,1.32.91.87.59,1.9.55,2.89,0,.53-.12,1-.18,1.51l-1.66-.21v-2.39l-.22,0a25.4,25.4,0,0,1-1.16,4.16,14,14,0,0,0-.9,6.42,8.42,8.42,0,0,1-.11,2.33c-.2.89-.17,1.58.61,1.94,0,.52,0,.91,0,1.31,0,1.25.06,2.5,0,3.74,0,.51-.5,1.1-.36,1.5s.83.51,1.28.76c0,0,.06,0,.07,0,.5.69.88.57,1.16-.46l.06,1a6.42,6.42,0,0,0,.82.65,3.55,3.55,0,0,0,.78.22c-1.08-1-1.31-1.69-.71-2.72.12-.21.46-.31.74-.49l.1.63-.37,0-.21,1.79.86-1a29.63,29.63,0,0,1,.62,2.91c.11,1-.1,2,.11,3,.34,1.57.92,3.1,1.37,4.65.16.55.51.62,1,.5a.67.67,0,0,0,.56-.86,16.23,16.23,0,0,1-.14-2.07c0-1.22,0-2.44,0-3.66a6.36,6.36,0,0,1,.27-1.2l.31,0c0,.68.12,1.36.09,2,0,1.17-.16,2.34-.23,3.5,0,.5,0,1,0,1.5-.19,1.29-.76,1.57-1.89.94l-.05.66M335.8,1.93l-.81-1c-.15-.2-.28-.56-.44-.57a17.29,17.29,0,0,0-2.26,0c-.44,0-.5.23-.33.68A8.5,8.5,0,0,1,332.82,4a5.52,5.52,0,0,0,.61,2.87c.64,1.25,1.31,2.5,1.94,3.76a.75.75,0,0,1-.06.63,2.6,2.6,0,0,1-.52.51,5.17,5.17,0,0,1,.07,1.56c-.3,1-.77,2-1.12,3a5.94,5.94,0,0,0-.61,3.38c.17.73.3,1.48.49,2.2a1.58,1.58,0,0,1-.29,1.71,1.34,1.34,0,0,0-.23.85,13.56,13.56,0,0,0,.09,1.67,3.76,3.76,0,0,0,.22.72l.59-.29c-.09.68.54.69,1.21.65l.58,0M22,155.52a6,6,0,0,0-.58,1.08c-.13.43-.68,1,.35,1.33-.27-.9.77-1.55.23-2.41.59-.58.11-1.18,0-1.75,0-.15-.39-.24-.66-.4l-.1.65-.61-.32v1.16l-1.51-.44-.11.25a5.16,5.16,0,0,0,1.31.6c.23,0,.53-.35.83-.57l-.07,1Zm103.13-6.63,1.45-1.31-.64-.54-1,.45.16,1.4-.63,1.08,2.31,1.46-.84,1.19-.29-.71-.5,2c-.59,0-1.15-.06-1.49.58-.13.24-.6.55-.74.48a3.63,3.63,0,0,1-1-.86.39.39,0,0,1,0-.38,5.93,5.93,0,0,1,1.37-.7,11.72,11.72,0,0,1,1.79-.22l0-.24c-.77-.35-.92-.83-.46-1.51.06-.09-.1-.46-.21-.49a7.52,7.52,0,0,0-1.71-.35c-.23,0-.49.28-.69.49s0,.29.09.44c.13.38.31.74.41,1.12s.12.89-.53,1c-.1,0-.23.31-.24.48a3.44,3.44,0,0,0,0,1.64c.26.5-.31,1.48.78,1.45v.81l1.73,1.25-.24-.78.17-.19c.19.13.49.24.54.41s-.06.52-.08.78a3.11,3.11,0,0,0,0,.49,1.67,1.67,0,0,0,.34-.35c.2-.4.38-.82.58-1.27l.29.25c.44.38.86,1.15,1.24-.11.07-.22.94-.25,1.44-.26.24,0,.49.25,1,.5a5.44,5.44,0,0,0-.32-1,6.38,6.38,0,0,0-.54-.6c-.15-.19-.28-.41-.41-.61l-.6.59c-1.81-.54-2.21-1.15-1.31-2.21l.5,1,1.09-.18c-1.08-.4-1.09-.43-.5-1.44l.89.88,1.21-.71c0-.69.8-1.54-.31-2.19-.1-.06-.1-.54,0-.65a1,1,0,0,1,.69-.1c.85.12.85.85,1,1.6l1.6-.68-1.28-.44.33-.88.91.5-.44-1.17-.17-.2c-.15,1.06-.85.83-1.68,1,.39-.57.67-.94.9-1.33a5,5,0,0,0,.29-.88l-1.06,1,0,0c-.3-.37-.82-.66-.4-1.27,0,0-.29-.4-.45-.41-.45,0-.91-.08-1.1.58-.13.42-.57.74-.84,1.13-.08.12-.11.45-.06.48a4.3,4.3,0,0,0,.83.24c0,.45.9,1.14-.16,1.79a1.14,1.14,0,0,1,.07,1.65,2.35,2.35,0,0,1-.26-.48c-.14-.58-.26-.65-.71-.15a5.93,5.93,0,0,1-1.42.9l-.22-.12.17-1.34c.37.26.72.26.92-.17s.38-1,.52-1.41a8.83,8.83,0,0,1-1.37-.89A7.74,7.74,0,0,1,125.09,148.89ZM17.63,102.65H16.41a3.55,3.55,0,0,0,0-3.26A3.68,3.68,0,0,1,16,96.75c.14-.84.25-1.69.39-2.69l-1.81.29c0,.42,0,.75,0,1.08,0,1.69.08,3.39,0,5.08a2.26,2.26,0,0,0,.84,2A3.22,3.22,0,0,1,17,104.15c.14.44.32.87.47,1.3.07.21.13.43.2.64a2.25,2.25,0,0,0,.78-.32c.75-.74.09-1.32-.26-2l-.6.8c0-.81,0-1.38,0-2,.72,0,.5.76.91,1a3.59,3.59,0,0,0,.69.22,1.91,1.91,0,0,0,.08-.72,13.05,13.05,0,0,0-.7-1.81c-.11-.24-.4-.39-.6-.58l-.25.08Zm112.85,40.84c.15.11.41.19.43.32a3.18,3.18,0,0,0,2.78,3.07c.15-.86.36-1.72-.38-2.25a2.59,2.59,0,0,0,.15-.78c-.1-.6-.3-1.18-.39-1.78a6,6,0,0,0-2.48-4.44c-.64-.43-.93-.77-.55-1.54h-1l0,.91h-1.9l-.19.53h-.17l-.4-1.39a1.1,1.1,0,0,0-.16.66,4.55,4.55,0,0,1-.07,1.62c-.62,1.42-1.38,2.78-2.09,4.18l.65.45c-.11.92-.24,1.73-.3,2.55,0,.23.1.64.23.68a1.85,1.85,0,0,0,1.12,0,9.31,9.31,0,0,0,1.42-.91c-.34.85-.29,1,.58,1.18-.62-.57-.21-.82.14-1.06-.93-.58.38-1-.09-1.61a2.18,2.18,0,0,0,2.69-.48ZM27,153.8v1.71l1.11.89L26.57,158l.65.94.83-.46.55,1,.09-1.15-1.11-.68,1.78.17.2.36.2-.08-.32-1.27-1.35.46-.12-.22,1.1-1.26.56.72.27-.17-1-1.74.41-.05a5.78,5.78,0,0,0-.66-1c-.58-.56-1.07.1-1.61.18.16-.18.33-.36.47-.55s.43-.59.7-1l.35.52.19-.1-1.51-4.2.57-.37c-1-.11-1.12-.64-1.1-1.4a10.33,10.33,0,0,0-.24-2.15c-.32-1.67-.66-3.33-1.06-5a2.32,2.32,0,0,0-1.69-1.91,2.71,2.71,0,0,0-2.77,1,3.23,3.23,0,0,0-.55,3.1l.92-2.24c2.68,1.15,2.68,1.15,3,2.43l-.3.1c.2.33.54.64.54,1,0,1.87-1.35,2.7-3,1.89-.24-.44-.47-.88-.71-1.31-.15-.27-.31-.53-.47-.79l-.79.55c.73.6.18,1.18.18,1.71a16.19,16.19,0,0,1-.21,1.84,1.36,1.36,0,0,0,.76-.46c.43-.51.85-1,1.27-1.56.55,1,1.44.67,2.45.53l-1.81,5.92.57-.19a9.8,9.8,0,0,0,.78,1.54c.06.09.63-.19,1-.31a3.6,3.6,0,0,0,.29.77,1.07,1.07,0,0,0,.57.47A14.37,14.37,0,0,0,27,153.8Zm-5-46.57-2.53.19c-.46,0-.77.12-.86.75-.25,1.83.36,3.54.61,5.29.18,1.25.39,2.49.52,3.74s.14,2.25.21,3.43l1-.14c-.11.48.09,1-.63,1.19-.08,0-.18.22-.17.32.09.62.21,1.23.3,1.76.61,0,1.25-.19,1.65,0a5.63,5.63,0,0,0,2.06.77c.77.12,1.52.35,2.28.53l.1-.26L23,123.19l.17-3-1.88-.41,0-.21,1.82.32c.61-2.77,1.3-5.47,1.79-8.21a27.57,27.57,0,0,0,.19-4.34c0-.61.3-.83.85-.87a9,9,0,0,0,.92-.17l-.07-.26-.39.1c-.28.06-.64.26-.82.15a1,1,0,0,1-.26-.78,14.18,14.18,0,0,1,.3-1.6,2.91,2.91,0,0,0-.47,1c-.25.61-.5,1.15-1.39.95a4.09,4.09,0,0,0-1.62.16c-.24,0-.64.31-.62.4a3.16,3.16,0,0,0,.45.83ZM130.12,57.14l.28-.47a4,4,0,0,0,.58-2.92,15,15,0,0,1,0-4.26c.21-1.57.76-3.08,1-4.64.14-.77.35-1.17,1.22-1.24,1-.08,1.28-.5,1.12-1.49a24.79,24.79,0,0,1-.25-7.09,16.52,16.52,0,0,0,0-5.57,33.09,33.09,0,0,1-.5-3.8A1.07,1.07,0,0,1,134,25c.7.11,1-.33,1.35-1.08.26,1.87.53,3.49.69,5.12a5.43,5.43,0,0,1-.3,1.51c.67-.13,1.2-.14,1.43.58.42,1.33-.11,2-1.53,2.24.2.14.3.2.38.19a1.78,1.78,0,0,0,1.55-2.21,6.82,6.82,0,0,1-.21-1.32c-.06-2.09-.09-4.18-.13-6.27a.82.82,0,0,1,0-.4c.64-1.1.3-2.18,0-3.29a4.68,4.68,0,0,1-.44-2.21,7.61,7.61,0,0,0-.25-2.74c-.11-.62-.46-1.2-.59-1.82a1.9,1.9,0,0,0-1.79-1.76c-.49,0-1-.19-1.12-.82-.33-1.56-.69-3.12-1-4.68l-.84-3.76c-.57,1.07-1,.36-1.66.15l1.72-.79c-.86-.52-1-1.87-2.46-1.17l.27,1.79L126.78,3.5c-.13-.6-.24-1.2-.4-1.79,0-.17-.19-.41-.32-.43-.53-.09-1.07-.11-1.6-.15l.67.76c-1.33,0-1.73.7-1.24,1.87,0-1,0-1,1.52-1.35a3,3,0,0,1-.39.78c-.12.19-.38.44-.33.58.28.83,0,1.24-.83,1.43-.56.12-.65.62-.26,1,.15.17.28.35.52.66-.95,0-.93.58-.93,1.13a3.26,3.26,0,0,1,0,.64c-.13.62-.28,1.23-.41,1.85,0,0,.08,0,.14.08l.27-.42,1.1,1.56-.08.25-1.4-.12c.11.24.3.45.26.61-.25,1-.54,2-.82,3.07-.07.27-.27.59-.19.79.35.87-.45,1.87.32,2.68a3.23,3.23,0,0,0-.11,2.37.44.44,0,0,1-.06.32c-.63.8-.26,1.64-.13,2.48a2.18,2.18,0,0,1,.06.49c-.23,3-.47,5.94-.7,8.9a1.88,1.88,0,0,0,.06.41h.27c.13-1,.3-2.07.39-3.11.15-1.8.33-3.61.33-5.42,0-1.28,0-1.4,1.29-1.1a13.84,13.84,0,0,0-1.07,7c.06,1.29.74,2.57,0,3.77.24,0,.57,0,.61.13a6.51,6.51,0,0,1,.49,1.63c.25,2.26.73,4.51.19,6.85.83.17,1,.8,1.1,1.49.22,1.21.52,2.4.76,3.6.44,2.2,1.3,4.32,1.18,6.63,0,.72.23,1.53,0,2.13a3,3,0,0,0,.19,2.4c.26.76,1,.6,1.67.58s.61-.44.64-.89c0-.68.12-1.36.19-2.07l1.27-.16ZM295.36,85.93l-.62-1.69.23-.1c.31.61.43,1.42,1.55,1.45-.2-.43-.35-.71-.47-1a.88.88,0,0,1-.08-.51,8.14,8.14,0,0,0-.22-4.66,1.19,1.19,0,0,0-.68-.7c-1.17-.34-2.36-.61-3.54-.89a1.16,1.16,0,0,1-1-1.55c.2-.81.43-1.61.62-2.42.07-.29,0-.61.08-.91a2.75,2.75,0,0,0-1.59-2.84,2.69,2.69,0,0,0-2.9.32c-1.27,1.11-1.28,3.93-.09,5.36a10.31,10.31,0,0,1,1,1.78c-.76.68-.54,1.59-.51,2.51l-.86-.29.15-.69-.22-.08a4.71,4.71,0,0,1-.45.75c-.15.17-.53.41-.56.37-.35-.35-.65-.19-1,0s-.75.37-.85.65.28.6.43.87h-.55c0,.5.1,1,.14,1.42a5.54,5.54,0,0,1,.11,1.8c-.24.91-.27,1.68.32,2.14v1.3l-.57.91.22.17,1.22-.89c.14,1.18,0,1.34-1,1.21-.1,0-.22.12-.39.21l.34.3c-.71,1.13-.38,2.35-.48,3.49s-.23,2.45-.34,3.63c.79,0,.53.84.47.87-1,.49-.43,1.33-.45,2a7,7,0,0,0,.33,2.51c.14.4.83.6,1.28.89a4.78,4.78,0,0,0,.47-1.23,9.18,9.18,0,0,0-.13-1.67l.29,0c.48,2.34,1,4.66,1.4,7,.26,1.64.14,3.35.43,5,.36,2.08,1,4.12,1.45,6.19a5.59,5.59,0,0,1,.06,3.14,2.92,2.92,0,0,0,0,1.31c.17,1.09.43,2.16.57,3.25.19,1.45.31,1.59,1.75,1.5.46,0,.7-.12.62-.71s-.31-1.4.8-1.47c-.26-.18-.58-.28-.62-.45a10.51,10.51,0,0,1-.49-2.6c0-1.41.4-2.83.34-4.23a13.61,13.61,0,0,1,.28-3.8c.46-2,1.27-3.9.51-6a1.1,1.1,0,0,1,0-.5c.45-3,.88-6,1.38-8.93,0-.23.44-.46.72-.58s.81-.12.75-.69c-.23-2-.46-4-.7-6.13l-.65.35a4.57,4.57,0,0,0,.26-1.15c-.08-1.62-.24-3.23-.33-4.85a2.67,2.67,0,0,1,.23-.82h.25l.67,4.18c.28-.16.48-.3.49-.28.25.34.48.7.71,1l-.24.17-.79-.6a2.68,2.68,0,0,0-.06.77,43.77,43.77,0,0,1,1,6.32,12.79,12.79,0,0,1-.29,4.45,25.73,25.73,0,0,0-.43,4.39c0,.67.5.88,1,.85s1.5-.18,1.53-.39a21.56,21.56,0,0,0,.36-4.6c-.06-1-.47-2,.07-3a1,1,0,0,0,0-.63c-.16-.69-.37-1.38-.52-2.07s0-1.27-.93-1.28c-.12,0-.24-.26-.43-.48l1.22-.57-.35-2.36-.73.43-.4-.93c.48-.76.83-.18,1.37.29-.23-1.4-.4-2.53-.61-3.66a.79.79,0,0,0-1-.71c-.31,0-.66-.25-1.07-.43ZM202.94,82.3c-1.45.62-1.74,1.15-1.54,2.61a13.74,13.74,0,0,1,.14,5.32.65.65,0,0,0,.05.48c.55.78,0,.9-.58,1a9.37,9.37,0,0,0-3.6.9,2.45,2.45,0,0,1-2.53.17l-2.41,1L194,95.13l-.09.33c-.59,0-1.18,0-1.77,0-1.9,0-1.84,0-2.21-1.82a33.46,33.46,0,0,1-1-9.69,2.12,2.12,0,0,0-.15-.55c-.09.25-.13.35-.16.45a12.3,12.3,0,0,0,.09,5.4c.1.56.17,1-.52,1.28a1,1,0,0,0-.53,1.31,27.56,27.56,0,0,1,.92,4c.18,1.32.1,2.67.18,4a8.66,8.66,0,0,0,.29,1.34l.24,0,.38-.93.53,2.06a7.83,7.83,0,0,0,.87-2.6c0-.4-.36-.84-.5-1.28s-.2-.86-.31-1.29c-.19-.73.05-1,.83-1,1.36.1,2.74.06,4.09.25s2.69-.33,3.5,1.16c.1.18.46.19.66.33s.93.54.9.75c-.08.69.23.82.77.92a.68.68,0,0,1,.45.41c.2.84.81.77,1.53.77ZM42.39,162.46V140.92l-.93,1.76-.24-.09a3.48,3.48,0,0,0-.1-.8,3.24,3.24,0,0,0-.43-.66c-.19.25-.56.51-.54.73.07.69-.5,1.49.28,2.09,0,0,0,.18,0,.23a10,10,0,0,1-1.51,2.14,2.24,2.24,0,0,0-.88,2.31,31.08,31.08,0,0,1,.13,3.81c0,.54,0,1.09,0,1.85-.41.24-1.39.27-1.46,1.3,0,0-.09.05-.15.07-.82.22-.67.93-.6,1.45,0,.33.53.6.83.88s.55.29.53.4c-.1.75.46.8.9.8a6.28,6.28,0,0,1,3.21,1.37c-.16.25-.28.45-.41.65s-.35.48-.52.71a6.08,6.08,0,0,0,.93.46A4.69,4.69,0,0,0,42.39,162.46Zm0-65.09V77.18a34.88,34.88,0,0,0-2.08,3.52,1.84,1.84,0,0,1-.55.68c-1,.61-1.16.95-1,2.05a9.87,9.87,0,0,1,0,4.56.69.69,0,0,0,0,.55c.57.69,0,.76-.46.92-.27.09-.71.23-.74.41-.1.58-.47.59-.9.63s-.7.12-1.35.24l1,1.43c.14.2.31.39.44.59.42.65.8,1.3,1.72,1.39.3,0,.56.47,1,.84l-2.57.42,0,.25a6.06,6.06,0,0,0,.89.28c.88.14,1.77.22,2.65.36.2,0,.54.16.55.26C41,97.58,41.73,97.27,42.38,97.37ZM21.68,69.91l.59-.61-.59-.55A13.17,13.17,0,0,1,20.62,70c-.14.13-.46.07-.7.1a1.85,1.85,0,0,1,0-.49c.07-.37.18-.74.32-1.27a13.68,13.68,0,0,0-2,0,1.32,1.32,0,0,0-.9.65,3.2,3.2,0,0,0-.12,1.47c.09.89.47,1.76,0,2.66a1,1,0,0,0,0,.41,11.5,11.5,0,0,1,0,2.3c-.15.73-.11,1.23.62,1.54l2-.85a1.93,1.93,0,0,1-.87,2.67c.92.79,1.7,1.54,2.57,2.18.29.22,1,.35,1.14.2a10.68,10.68,0,0,0,1.51-2.37c.19-.43.55-1.19-.6-1.54l-.05.48-.2-.14c0-.35.07-.71.15-1.06.25-1.14.58-2.27.77-3.42a4.05,4.05,0,0,0-.83-3.28l-.09-1.45-.13,0-.42,1.3Zm124.15-39,.09.3c-.41.24-.83.46-1.22.73a4.2,4.2,0,0,0-.55.52c.2.15.39.39.6.42,1.3.19,2.6.33,3.9.51.63.08.89-.09.88-.79,0-4.94,0-9.89,0-14.83a14,14,0,0,0,0-2.09c-.05-.35-.39-.88-.67-.93-.54-.1-.76.44-.71.91a10.69,10.69,0,0,0,.49,1.66,6.53,6.53,0,0,1-.8.6,1.78,1.78,0,0,0-1.11,2.1,7.27,7.27,0,0,1-.19,2.21c-.26,1-.67,2-1,3.08a4.76,4.76,0,0,1,.66.34c.3.22.56.48.84.72a10.4,10.4,0,0,0-1,.52,4.68,4.68,0,0,0-.72.64c-.21.22-.35.6-.6.69a6.25,6.25,0,0,1-1.15.09,2.43,2.43,0,0,0-.63.31,3.46,3.46,0,0,0,.34.61c.19.22.62.41.61.6,0,.78.53.82,1,.95C145.23,30.87,145.53,30.9,145.83,30.94Zm37.89,37.42c-.44,0-.86,0-1.27,0s-1.19-.07-1.45.21c-.55.59-1,.07-1.43,0a7.3,7.3,0,0,1-1.32-.38,10.79,10.79,0,0,0,.33,1.55,3.39,3.39,0,0,1-.35,3,2.74,2.74,0,0,0-.35.92c-.19,1.42-.34,2.84-.48,4.26a1,1,0,0,0,.14.53c.18.32.39.63.62,1,1.16-.62,2.38-1.17,2.85-2.32l2.62-.46c1,.81,1.86,2.18,3.58,2.15a2.13,2.13,0,0,1,.23-.71c.41-.51.25-.82-.14-1.28a3.7,3.7,0,0,1-.6-1.51c-.22-.89-.31-1.8-.56-2.68s-.58-1.6-.88-2.42c.93-.41,1.21.07,1.33.91.33-1.18.23-1.5-.41-1.5-1.26,0-1.4-.23-.93-1.3a3.24,3.24,0,0,0-.59.61c-.22.23-.53.62-.72.58-.48-.1-.5-.52-.28-.93A1.43,1.43,0,0,0,183.72,68.37Zm2.22,42.49a15.83,15.83,0,0,1-2.24.38c-1.05,0-1.11.08-1.08,1.12.05,1.49,0,3,0,4.47a37.46,37.46,0,0,1-.35-3.9c-.05-1.35,0-2.71-.07-4.06s-.3-2.82-.46-4.24c-.73,2-1.29,4-1.84,6-.14.49-.22,1-1.23.69l2.65,10.41a4.92,4.92,0,0,1,1.67-.07,1.92,1.92,0,0,0,2-.34,2.71,2.71,0,0,1-.3-.79,24.4,24.4,0,0,1,0-4,43.57,43.57,0,0,1,1.07-4.38C185.84,111.72,185.88,111.23,185.94,110.86Zm70.72,31.86c-.77-.19-.7.21-.7.63a4.44,4.44,0,0,1-1.8,4.11,1.64,1.64,0,0,0-.59,1.86,9.2,9.2,0,0,1,.13,4.55c-.09.33.13.75.19,1.14,0,.15,0,.42,0,.44a2.34,2.34,0,0,0-1.75,1.41c-.19.47-.91.89-.86,1.26s.66.87,1.05,1.28c.16.17.58.27.58.4,0,.86.65.76,1.15.91s1.31,0,1.62.78c0,.12.49.19.68.11a.75.75,0,0,0,.32-.58c0-1.31,0-2.62,0-3.94C256.66,152.3,256.65,147.53,256.65,142.72ZM111.11,161.39l.37-.23c1.11-.7,1.21-1.33.48-2.36a1.29,1.29,0,0,1-.25-1c.3-.94.2-1.12-.67-1.58a2,2,0,0,1-.87-1.07,7.56,7.56,0,0,1-.07-1.62c-.08-1-.27-2-.26-3a2,2,0,0,0-2.17-2.17c0,.44,0,.88,0,1.31q0,2.34,0,4.69,0,5.65,0,11.3c0,.68.32.55.76.34l-.45-.77,1.63-.68-1.54-.41,2-.65-.53-1.53,2.21-.44ZM2.91,95.63A2.13,2.13,0,0,1,4.35,93a1.51,1.51,0,0,0,.72-2.24,7.84,7.84,0,0,1-.53-1.31c-.41-.33-1-.79-1.59-1.28-.09-.08,0-.33,0-.5A4.56,4.56,0,0,0,3.06,86a6.58,6.58,0,0,1-.31-2.87A2.27,2.27,0,0,0,.63,81V99.11l1.19-.18,0-.18L.72,98.19l1.6-.4L1.08,97.4l0-.24L3,96.57l-1.5-.28,0-.15ZM194,126.37l-4.09,1.71,0,.28c1,.16,2,.32,2.94.46a7.41,7.41,0,0,1,2.61.4,4.14,4.14,0,0,0,2.29.53c1.09,0,2.18,0,3.27,0,2.2,0,1.92.44,1.95-2,0-.56-.22-.73-.74-.75a22.36,22.36,0,0,1-2.5-.18c-1.21-.18-2.41-.46-3.62-.66-1.63-.27-3.27-.53-4.91-.77a6.85,6.85,0,0,0-1,0v.27Zm-49.53,35.15-.08.15a2.87,2.87,0,0,0,.84.45c1.16.17,2.33.27,3.49.41.6.07.82-.12.82-.78,0-3.29,0-6.59,0-9.88,0-1.45,0-2.91,0-4.43a7,7,0,0,1-.82.7,1.92,1.92,0,0,0-.93,2.35,9,9,0,0,1,.08,4.31c-.09.34.15.75.16,1.13,0,.21-.13.57-.27.61-.58.17-1.26.14-1.24,1,0,.08-.37.18-.58.23s-.51.09-.8.13c.16.31.4.56.35.71-.34,1,.25,1.44.94,1.72s.8.5.63,1.16Zm18-64.82v-.16c.67-.09,1.35-.15,2-.27a5.71,5.71,0,0,0,1.06-.37,15.35,15.35,0,0,0,1.78-.77A5.09,5.09,0,0,0,168.87,94a1.3,1.3,0,0,0-.26-1.26,4.68,4.68,0,0,0-1.92-.67c-1.82-.27-3.75.3-5.51-.74,0,1.93,0,3.8,0,5.66,0,.17.25.48.38.48a16.65,16.65,0,0,0,1.69-.21l0-.2Zm14.22-14.91-.25,0a6.35,6.35,0,0,0,.07,3.06,12.6,12.6,0,0,1,0,5.38c-.42,1.87-.6,3.79-.89,5.69a29.77,29.77,0,0,1-.67,3.94A2.76,2.76,0,0,0,175,102c.16.3.7.48,1.09.55.21,0,.7-.29.69-.43a3.88,3.88,0,0,0-.39-2.07,1.08,1.08,0,0,1-.15-1.39,5.51,5.51,0,0,0,.23-.89c.56-2.13,1.11-4.25,1.68-6.37.1-.38.41-.74.43-1.11.06-1.36.09-2.72,0-4.08a16.26,16.26,0,0,0-.44-2.32L178,84c0,.3.07.6.08.89,0,1.42-.08,2.84.05,4.25a9,9,0,0,1-.56,3.29,7.47,7.47,0,0,1-.61,1.27l-.4-.09c.08-1.11-.13-2.36.31-3.3a5.19,5.19,0,0,0,.52-2.79C177.19,85.61,176.9,83.7,176.65,81.79ZM1.15,159.26c.18-.1.41-.25.66-.38s.57-.23.84-.37a1.39,1.39,0,0,0,.58-2,1.67,1.67,0,0,1-.12-1.23c.34-1,.33-1.08-.55-1.54-.49-.25-1-.56-.61-1.29a.71.71,0,0,0,0-.4c-.2-1.39-.7-2.74-.46-4.19a.86.86,0,0,0-.84-1.09V161l.28,0Zm214,1.8a2.77,2.77,0,0,0,2.4-1.67.7.7,0,0,0-.17-1.06c-.2-.18-.41-.59-.33-.78.36-.83.4-1.37-.69-1.67-.81-.22-.88-1.12-.33-1.72a1.18,1.18,0,0,0,.16-1c-.35-1.39-1-2.7-.78-4.21,0-.28-.3-.63-.46-.95l-.31.12q0,.44,0,.88c0,1.92,0,3.85,0,5.77q0,3.51.07,7a4.13,4.13,0,0,0,.16.79l.27-.06Zm-183-32.87v.27c.48,0,1,.13,1.44.14,1.33,0,2.56-.23,3.91.62s3.21.64,4.93.47c0-.71,0-1.35,0-2,0-.18-.17-.48-.29-.49-.56-.06-1.25-.38-1.42.44l-9.61-1.32-.06.24,2.92.58,0,.17H30.53l0,.18,2.54.58ZM27,102l.34,0,.52-1.3h.3l.2,1.51a2.17,2.17,0,0,0,.53-2.51,5.55,5.55,0,0,1-.58-1.71c-.16-1.1-.2-2.21-.31-3.31,0-.21-.18-.58-.29-.59a.89.89,0,0,1-.93-1.07ZM146.91,61.75l0,.27h1.55c1.07,0,1.18-.17.9-1.11l-2-.63a1.41,1.41,0,0,1-.56.2c-1.9-.06-3.81-.19-5.71-.2a11.1,11.1,0,0,0-2.13.4l0,.39,8.38.38Zm42.53,63.73.05-.19-5.28-1a6.41,6.41,0,0,1-.42-1.38c-.05-.8-.49-.85-1.13-.83-.91,0-1.5.26-1.3,1.33a1.7,1.7,0,0,1-.06.5c-.13,1,.07,1.17,1.09,1.05a6.13,6.13,0,0,1,1.48.18c.25,0,.49.1.74.12Zm11.3-16,.13.13c.68-.48,1.37-1,2-1.45,0,0,0-.16,0-.24,0-.75,0-1.51,0-2.26a.63.63,0,0,0-.36-.47c-.15,0-.39.13-.52.28-.35.39-.68.8-1,1.22-.17.23-.31.49-.49.78s-.68.29-.87.59.1.61.17.94l1.11-.32ZM21.83,125.31c-1.33.36-1.33.36-1.48,1.73,0,0,0,.06,0,.08s.14.42.25.44c1.39.28,2.8.68,4.33-.13-.28-.07-.41-.1-.53-.12-1.55-.21-1.52-.21-1.75-1.71-.06-.38-.35-1-.64-1a4.36,4.36,0,0,0-1.55.2l0,.33Zm165.58,2.36-3.66-.18-.16-1.07-1.75.16v-.15l.81-.26v-.23c-.29,0-.69-.18-.85,0a1.65,1.65,0,0,0-.6,1c-.05.63.24,1.19,1,1.17,1.71,0,3.43-.11,5.14-.18C187.33,127.89,187.33,127.85,187.41,127.68Zm15.4-6.44a7,7,0,0,1-1-1.15,9.62,9.62,0,0,1-.53-1.56l-.13,0,.9,4.13a12.09,12.09,0,0,0-1.31-.2c-.14,0-.41.18-.42.29a.8.8,0,0,0,.24.56,1,1,0,0,0,.61.24c1.31,0,1.5.9,1.66,1.87,0,0,.06.08.11.15,0-1,0-2,0-2.93a1,1,0,0,0-.23-.47c-.16-.22-.36-.43-.58-.68ZM36.31,33.38l.37.06.11-2.07,1.08,1.92,1-1.84.2,2,.29,0V30.43c-1.13.1-.83,1.39-1.51,1.79-.65-.46-.41-1.69-1.54-1.79Zm32.26-.78.24-.06c.05-.5.31-1.11.11-1.48-.48-.93-1.43-.54-2.22-.58V33.4l.21,0,.37-1,1.65,1L69,33.3ZM238.44,142.5l-.24,0a4.4,4.4,0,0,0-.74,3.37c.13.46.67.81,1,1.21l.18-.17ZM47.63,33.43l.25-.06v-2.9l-.27,0-.21,1.29H46c-.41-.4.14-1.05-.58-1.32v3l.24,0,.25-1.13H47.4Zm6.94-.1,0-.3a9.7,9.7,0,0,0-1-.06c-.52,0-.73-.14-.52-.66l1.29-.17v-.28L53,31.72,53,31l1.49-.17,0-.26H52.58v2.78Zm9.6.09A1.55,1.55,0,0,0,65.72,32a1.53,1.53,0,0,0-1.46-1.52,1.48,1.48,0,0,0-.09,3ZM60.4,32.2c.74.28.72,1.28,1.67,1.2l-1.13-1.7,1-1.14-.19-.2-1.55,1.4c-.28-.44.17-1.05-.52-1.38v3l.19.08ZM48.77,33.31l.13.24c.89-1.28,1.83-1,2.8-.1a28.47,28.47,0,0,0-1-2.67c-.21-.46-.55-.52-.78-.05C49.47,31.57,49.13,32.45,48.77,33.31ZM29,164.4l.76-.15-.3-.85c.93,0,.57-.7.5-1.12-.13-.86-.23-.87-1.63-.43ZM69.89,32.66l-.17.26a3.51,3.51,0,0,0,.88.43c.57.11,1.17.07,1.37-.61s-.31-.87-.82-1a.77.77,0,0,1-.31-.12,4.75,4.75,0,0,1-.39-.46,1.91,1.91,0,0,1,.57-.23,4.92,4.92,0,0,1,.86.09l0-.35a4.74,4.74,0,0,0-1.35-.12,1,1,0,0,0-.68.68c0,.25.35.55.59.77s.39.09.54.2a2.39,2.39,0,0,1,.41.45c-.21.1-.42.29-.62.28A4.15,4.15,0,0,1,69.89,32.66ZM42.26,169.36a2.92,2.92,0,0,0,.17-.52c0-.56,0-1.12,0-1.67,0-.9-.55-1.15-1.5-.61l.82.32a6.08,6.08,0,0,0-.56,1.69C41.13,168.8,41.8,169.06,42.26,169.36ZM22.14,103.83l.21-.17c-.26-1.42.17-2.94-.74-4.27-.08-.12-.06-.31-.09-.46s-.12-.48-.18-.72l-.66.25c.26.69.45,1.21.66,1.72a1.48,1.48,0,0,0,.27.51,1,1,0,0,1,.21,1.13,6,6,0,0,0-.13,1.69C21.68,103.62,22,103.72,22.14,103.83ZM16.47,158.9a5.06,5.06,0,0,0,.46-1.61,4.63,4.63,0,0,0-.67-1.49c-.39.51.41,1.24-.37,1.71l-.26-.87C15.11,158.11,15.53,158.82,16.47,158.9Zm28-126.11c-.77.07-1.78.48-1.94-.65-.23-1.6,1.06-1.17,2.15-1-.94-.83-1.71-.82-2.31-.18a1.49,1.49,0,0,0,.06,2C43,33.58,43.7,33.55,44.43,32.8ZM76.58,96.73l-.26,0c0,.34,0,.67,0,1,0,1.2,0,1.22-1.18,1.17a3.46,3.46,0,0,0-.43,0v.17l1.53.1.13,1.76h.15l.32-2C76.25,98.37,76.83,97.47,76.58,96.73ZM290,31.82c-.64-.47.09-1.43-.39-2.17a3.52,3.52,0,0,0-.1,1.24c.09.79-.26,1.06-1,.95a4,4,0,0,0-.6,0v.24h1.51l.12,1.81h.17ZM56,30.44l-.29,0v2.83h1.61V33l-1.2-.12ZM17.82,154.68l-.69,1.47.51-.29,0,.92c.59-.25.77-2.16.36-2.93l-.6.17Zm111-58.15v1.73c.46.32,1,.5,1.15.85s-.17.86-.26,1.27c1-.86,1-1.85-.15-2.12s-.7-.76-.61-1.35l1.39-.18,0-.19Zm-103.19.15.14,3A2.23,2.23,0,0,0,25.65,96.67Zm284.24,5.82c0-.58,0-1.16,0-1.74,0-.13-.28-.23-.43-.34a2.41,2.41,0,0,0-.27.54c0,.09.12.22.19.36l-.55.52Zm-75.4-6-.2.07v4.34h.39c0-1.32,0-2.6,0-3.88A1.8,1.8,0,0,0,234.5,96.52Zm-107.06,0-.25.07V101h.27c0-1.25.09-2.5.11-3.75A3.4,3.4,0,0,0,127.44,96.52ZM73.38,101h.32c0-1.35.06-2.7.05-4,0-.13-.17-.26-.38-.55Zm2.38,64c-.63.77-.5,1.38.31,1.95a2.6,2.6,0,0,1,.93.87c.14.32,0,.79-.06,1.16.82-.6.62-1.67-.51-2.28A1.18,1.18,0,0,1,75.77,165Zm-35-131.5V30.26A3.84,3.84,0,0,0,40.81,33.47ZM20.64,160.93c-.35-.18-.21-1.1-.95-.68-.13.07-.16.32-.24.49l.26-.16c.19.16.36.33.56.47s.51.33.77.5l.25-.12c-.71-1,.66-.82.7-1.53C21.18,159.8,21.11,160.64,20.64,160.93ZM187.3,84.6H187l.44,5.11h-.09Zm-161,6c-.11,1.43.87,1.86,1.77,2.36-.1-.35-.23-.83-.48-.9a.92.92,0,0,1-.8-.78C26.71,91.05,26.49,90.88,26.27,90.58Zm14.67,10.61,1.45,1C42.47,100.89,42.37,100.78,40.94,101.19ZM149.37,40.51l.32-.41c-.22-.25-.43-.67-.68-.69s-.52.37-.78.58ZM15.06,160.68c.49-.93.24-1.67-.43-1.82l.28,1.5.18,1,.3,0,.19-1Zm294.74-31.26,0-.34-2.93-.21,0,.26ZM21.65,163.82l.32-.75-.14-.16-1.22.58,2.12,1.09-.32-.9ZM20.78,90l-.06-.3c-.71-.4-1.23,0-1.76.37l.06.3Zm3.14,72.62c.9.2,1.39-.12,1.64-1.14-.52,1.06-1.22.23-2.06.29C24.46,161.86,24,162.3,23.92,162.62Zm160.13,6a3.44,3.44,0,0,0,0-3.34Zm-1.41.06v-3.61A4.26,4.26,0,0,0,182.64,168.69ZM28.47,125.36l-.07.28c.76-.28,1.07,1.05,2.15.32Zm-8.74,27.83.14-.16-1.13-1.25-.51.57ZM182.64,31.1c.37-.67.34-1.14-.17-1.46a1,1,0,0,0-1.43.19C182.47,29.79,182.58,29.87,182.64,31.1ZM291.08,166l.29,0c-.12-.4-.12-.91-.37-1.16a1,1,0,0,0-1.51.1C291,164.93,291,165,291.08,166Zm-216.73.32c.39-.65.31-1.09-.18-1.43a.94.94,0,0,0-1.32.21C74.14,165,74.28,165.14,74.35,166.33Zm213.29.08-.24.37c1,.11,1.39.6,1.16,1.54.16-.43.33-.94.16-1.24S288,166.62,287.64,166.41Zm-107.55.44c.85.29,1.54.61,1.16,1.64a1.73,1.73,0,0,0,.16-1.27A.88.88,0,0,0,180.09,166.85Zm56-133.5a.87.87,0,0,0,.2-1.37.8.8,0,0,0-1.16-.16C236,32,236.55,32.38,236.14,33.35Zm-.66,63.23v.14h2.21l0-.14ZM15,167.73c-.15.7-.14.71,1.11.81ZM29,151l.24-1.23-.59-.07-.17,1Zm209.08.07-.92.8,0,.14,1.2-.26ZM234.8,29.67l-.05.37c.68-.1,1.4-.26,1.55.76,0-.38,0-.84-.19-.93A4.52,4.52,0,0,0,234.8,29.67Zm53.63,136.12.3-.15c-.13-.3-.18-.78-.4-.87a3.57,3.57,0,0,0-1.24-.09L287,165C287.75,164.85,288.45,164.71,288.43,165.79Zm-107.3.15.29-.11c-.11-.31-.14-.79-.35-.88a3.87,3.87,0,0,0-1.27-.13l0,.3C180.37,165.14,181.21,164.8,181.13,165.94ZM181,33.66l0,.13h2v-.13ZM72.69,168.92v.29l2-.09v-.2Zm216.72-.14,0,.12h2v-.12Zm-268-15.73.11-.06.38-1.51a2.55,2.55,0,0,0-.6.11A13.41,13.41,0,0,0,21.38,153.05Zm21-16.94c-.3.61-.64,1.23,0,1.87Z"/><path class="cls-1" d="M234,186.15l.05-.66c1.14.62,1.7.35,1.89-.94.07-.49,0-1,0-1.5.07-1.17.19-2.33.23-3.5,0-.68-.06-1.36-.09-2l-.31,0a6.36,6.36,0,0,0-.27,1.2c0,1.22,0,2.44,0,3.66a16.23,16.23,0,0,0,.14,2.07.67.67,0,0,1-.56.86c-.45.12-.8,0-1-.5-.45-1.55-1-3.07-1.37-4.65-.21-1,0-2-.11-3a29.63,29.63,0,0,0-.62-2.91l-.86,1,.21-1.79.37,0-.1-.63c-.28.18-.62.27-.74.49-.6,1-.37,1.71.71,2.72a3.55,3.55,0,0,1-.78-.22,6.42,6.42,0,0,1-.82-.65l-.06-1c-.28,1-.65,1.15-1.16.46,0,0,0,0-.07,0-.45-.24-1.15-.4-1.28-.76s.33-1,.36-1.5c.06-1.24,0-2.49,0-3.74,0-.4,0-.79,0-1.31-.77-.36-.81-1.05-.61-1.94a8.42,8.42,0,0,0,.11-2.33,14,14,0,0,1,.9-6.42,25.4,25.4,0,0,0,1.16-4.16l.22,0v2.39l1.66.21c.06-.46.16-1,.18-1.51,0-1,.36-2-.55-2.89-.28-.27-.19-.89-.35-1.32a3,3,0,0,1,.32-2.82c1.17-1.92,1.3-4.16,1.84-6.28a5.27,5.27,0,0,1,.79-1.9,2.05,2.05,0,0,1,2.26-.95,3.23,3.23,0,0,1,2.55,2.48c.24,1.29.26,1.29-.16,1.67L237,139.2a3,3,0,0,0-2.34,2.4c-.32,1.16-.73,2.16.12,3.07a3.35,3.35,0,0,0-.35.92c0,.7,0,1.41,0,2.11,0,.2-.24.39-.38.58l-.19-.13-.6,2,.17-1.88-.28,0-.33,3,.25,0a3.36,3.36,0,0,0-.83.43,3.53,3.53,0,0,0-.47.93l.92-.25,0,.61c.86.32,1.23-1.2,2.16-.48l.3,1.91,2-1.13c.2.55.15.64-.51.72s-.72.28-.64.75l1.14-.23-.51,1,.22.18c.24-.25.46-.51.71-.74a8.45,8.45,0,0,0,1-.86,12.49,12.49,0,0,0,.85-1.48l.14,1.45.12,0,.53,1.45h.11v-3.63l.15,0,.33.49.45-.38.39,2.31.92-.53a13.8,13.8,0,0,1,.29,1.39c.23,2.33.42,4.67.66,7a5.49,5.49,0,0,0,.37,1.27c.26.71,1,1.36,0,2.16.94.27,1.17.63.84,1.45-.2.51.07,1.21.1,1.82a6.16,6.16,0,0,1-.08.86l-.73-.69-.14.14.34,1.49-.17,0-.66-1.45a8.8,8.8,0,0,0-.83,1.15.71.71,0,0,0,.12.68c1.18.76,1,2,1,3.08s0,2.15,0,3.23a4.16,4.16,0,0,1-.28.93c.64-.18,1.45.07,1.08-1,0-.11.18-.31.37-.61.15,2.17-.49,2.72-2.28,2.27l-.91-3.8c-.77,0-1.77.49-1.94-.92l-.23.17.3,1.08-.08.14-.82-1-.17.11c.11.19.34.39.32.57-.27,2.48.85,5-.14,7.46-.43,1.08-.7,2.22-1,3.33h-.34c.13-.77.24-1.54.41-2.3a19,19,0,0,0,.62-5.62c0-.38.06-.86-.5-.61a12.24,12.24,0,0,0-.24-1.3,4,4,0,0,0-.42-.78,2.44,2.44,0,0,0-.36.74c-.09.85.55,1.78-.28,2.57-.09.08,0,.37,0,.56a14.35,14.35,0,0,1,.33,2.29c0,1.11-.22,2.21-.3,3.32a1.13,1.13,0,0,1-.81,1.12Zm7-20.23c.07-.75.14-1.33.18-1.91a.43.43,0,0,0-.1-.3c-.57-.57-.09-1.82-1.29-2,0,0,0-.22-.08-.31-.59-.84-1.2-1.67-1.79-2.5-.14-.2-.27-.4-.52-.77-.1.08-.41.21-.5.43s.2.41.31.61c-.44.59-1,1.12-1.48-.13l-.52,1.31h1.6l-.18,1.24.2.12c.36-.49.64-.56,1.15-.17a5.84,5.84,0,0,0,1.68.61,5.07,5.07,0,0,0,.48.8,1.3,1.3,0,0,1-.22,1.9ZM232.23,155c-.57,1.06-.43,3.83.17,4.42a4.71,4.71,0,0,1,.83-1.11c.91-.67.95-.66.25-1.82L232.39,158l-.28-.14a12.05,12.05,0,0,1,.58-1.28A1,1,0,0,0,232.23,155Zm6.27,19,.11-.18c.76.25.71-.37.67-.69-.07-.49.07-1.21-.75-1.27-.5,0-1.2.68-1,1.11S238.16,173.66,238.5,174Zm3.74-5.21.32-.14c-.19-.33-.4-.65-.56-1a3.38,3.38,0,0,1-.38-1.09c-.06-.77,0-1.55,0-2.32a26.15,26.15,0,0,0-.2,3.33A1.06,1.06,0,0,0,242.24,168.79Zm-6.36-12.7c-.25.44-.51.72-.53,1,0,.13.49.46.67.41s.49-.41.73-.64Zm-1.72-2.69c-.29.32-1.25,0-.93.86a.91.91,0,0,0,.83.3C234.71,154.29,234.36,153.81,234.16,153.4Zm-.28,21.73a1,1,0,0,0,0-1.59c-.11-.12-.45,0-.71,0l.11.81.47-.31Zm3.68-11.62c.25-.34.52-.55.51-.75s-.31-.37-.48-.56c-.17.17-.47.34-.49.52S237.34,163.16,237.56,163.52Zm-3.92,8.62.14-.24-1-.84v1.32Zm-1.14-10.35-.71,1.24.19.22.85-.23Zm5.93,6.49a8.86,8.86,0,0,0,1,0c.1,0,.19-.19.28-.29-.09-.08-.17-.2-.28-.23-.37-.11-.75-.19-1.11-.28Zm.18-10.46-.31.14.24,1.39c.24-.25.48-.41.46-.51A7,7,0,0,0,238.6,157.81Zm-3.86,14.77c.2-.26.44-.51.41-.55a1.23,1.23,0,0,0-.56-.44c-.07,0-.38.29-.36.4S234.5,172.31,234.74,172.58Z"/><path class="cls-1" d="M134.28,156.16l.8-.23.37-1.24c.78.28.8.29.26,1.12a1.16,1.16,0,0,0,.05,1.49c.2.3-.07.93-.17,1.4,0,.21-.31.39-.31.58,0,1.27.22,2.54.17,3.8a14.49,14.49,0,0,0,.62,5.93,2.85,2.85,0,0,1-.06,1.1l-.23.1-.25-.51-.13.09a.78.78,0,0,0,.08.28c1.33,1.59,1,3.8,2.09,5.5a.52.52,0,0,1-.16.47,6.08,6.08,0,0,1-1.33.69c-.21.07-.51-.13-.77-.32.82-.48.74-1,.44-1.68-.58-1.32-1.07-2.67-1.71-4a6.23,6.23,0,0,0-.86,2.9c-.12,2.36-.11,4.74-.39,7.09a37.19,37.19,0,0,1-1.19,4.77c-.06.21-.09.43-.13.65h-.84c.25-1.31.54-2.61.75-3.92.14-.89.16-1.8.23-2.7h-.24c-.11.71-.21,1.42-.32,2.12-.25,1.5-.5,3-.75,4.51H127.6l-.8-3.71c-.18-.84-.43-1.68-.54-2.53a7.66,7.66,0,0,1-.05-2.57c.51-2.24-.2-4.31-.65-6.43,0-.14-.23-.28-.38-.36-.31-.15-.8-.16-1-.39a13.65,13.65,0,0,1-1.08-2.2c0-.1.25-.38.43-.52s.3.17.39.3a2.82,2.82,0,0,1,.23.59c.43-.28-.3-1.47.89-1a2,2,0,0,0-1.77-1.65c0-.73,0-.74.91-.8l.07-.22-1-.33a19.28,19.28,0,0,1-.5-5.16l.26-.06c.13.45.29.89.38,1.35.13.68.19,1.38.32,2.06,0,.1.25.16.38.23l.18-.22.16.71.19-.91a1.66,1.66,0,0,0,.42.16,3.09,3.09,0,0,0,.52-.06,3.11,3.11,0,0,0-.16-.59,5.6,5.6,0,0,1-.47-.8c-.23-.78-.06-.89.73-.81a5.48,5.48,0,0,0,1.3-.15h3.43l-.44.84.57.63.76-.65c-.14-.39-.47-.88-.35-1a1.65,1.65,0,0,1,2-.74l-1.11.43c.25.49.44.91.69,1.3a3.9,3.9,0,0,0,.61.6l.55-.81a2.81,2.81,0,0,0,.75.1c.18,0,.34-.23.51-.35-.14-.15-.31-.44-.42-.42-.65.11-.91.06-.58-.7.18-.4,0-.73-.55-.47l-.22-1.11-1.89.33.6-.57-.89-.9-.52.64c-.45-.06-1,0-.8-.87,0-.09-.51-.34-.84-.54l.7-.18.81-2a6.58,6.58,0,0,1,1-.32.65.65,0,0,1,.56.24,1.63,1.63,0,0,1,.1.87c0,.23-.25.43-.34.66-.16.43-.31.84.3,1.11a3.12,3.12,0,0,1,.73.66l1.42,1.51.39-1.25.58.27-1.08-.54,0-.35Zm-4.1,9.15-1.66-.57c-.1.78.47,1.09,1,1.38.06,0,.46-.53.7-.81a4.17,4.17,0,0,1,.19-.71c.25-.55.06-.77-.5-.77-.18,0-.37,0-.86-.05l.67.87Zm1.14-2.42.47.28v-.26a13.16,13.16,0,0,0,1.48-.26c.18-.05.31-.31.46-.48a3.16,3.16,0,0,0-.65-.43,1.94,1.94,0,0,0-.67,0v.66l-.2-.17-.87.66-.85-.59,0,1.07c.25-.09.51-.18.75-.29C131.25,163.08,131.28,163,131.32,162.9ZM129.69,177c-.39,2.75-1.14,5.49-.32,8.29C129.43,182.48,130.06,179.74,129.69,177Zm3.07-10.12c.73.23,2.09-.15,2-.45-.19-.69.71-1.35,0-2.12l-1.24,2.44Zm-6.42-4.68a7.58,7.58,0,0,0,1-.78.94.94,0,0,0,.2-.63c0-.13-.29-.37-.37-.34-.36.13-.85.25-1,.53S126.25,161.68,126.33,162.16Zm-.3,5c.07-.29.27-.67.16-.8a2.76,2.76,0,0,0-.95-.67c-.07,0-.33.18-.4.33s.1.3.22.4S125.61,166.8,126,167.12Zm8.59-4.22-1.92.19a7,7,0,0,0,.76.54c.31.15.64.26,1,.38Zm-2,2.81a1.15,1.15,0,0,0-1.56.42c-.25.41-.26.68.11.85Zm-1.55-10.16.33-.07V153.7c-.33.17-.82.35-.8.44A9.2,9.2,0,0,0,131.1,155.55Zm-1.36,12,.22-.11a11.07,11.07,0,0,0-.73-1,.48.48,0,0,0-.45,0,4.19,4.19,0,0,0-.21.8Zm3.88-2.5-1.51-.71C133,165.91,133.16,166,133.62,165.09Zm-5.31,2.8a8.4,8.4,0,0,0-1.14.19.59.59,0,0,0-.3.4c0,.07.2.26.33.27a8.84,8.84,0,0,0,1,0Zm-3.06-3.79.36.19a1.76,1.76,0,0,0,.24-.63c0-.15-.27-.42-.36-.39a.94.94,0,0,0-.52.39C124.92,163.72,125.14,163.95,125.25,164.1Z"/><path class="cls-1" d="M22.17,186.15c-.22-1.28-.5-2.56-.64-3.85-.08-.73.14-1.5.12-2.24a4.54,4.54,0,0,0-.36-1.19l-.4.07-.32,2.76a4.85,4.85,0,0,1-.52-3.23,19.06,19.06,0,0,0,.21-2.88c0-.37-.34-.73-.51-1.08l-.48,0,.11-.92.26-.09a14.07,14.07,0,0,1-1.08-1.16,1.22,1.22,0,0,1-.24-.81c.12-.89.32-1.78.5-2.73h-.6l.45-.84a1.61,1.61,0,0,0,2,.74,2.35,2.35,0,0,1,1.7-.18c.14.06.49-.38.74-.59.57.6.57.6,1.37.17a3.51,3.51,0,0,0,.24.48.52.52,0,0,0,.43.2l-.29-.94a8.82,8.82,0,0,1,1.28.08c.08,0,.13.39.1.59s-.28.12-.56.23c.75.47,1.16.8,1.68.18.15-.18.53-.18.86-.29l.52-1.8,1.08,2.06.2,0-.2-1.32a2.31,2.31,0,0,1,.17,3.19l-.38-1.29a2.67,2.67,0,0,0-.45,2,1.23,1.23,0,0,1-.46,1c-1,.67-.94,1.56-.71,2.55a6.33,6.33,0,0,1,.06,1c-1.15-.32-1.49-.11-1.63.95a4.65,4.65,0,0,0,0,1.42,11.36,11.36,0,0,1-.58,5.27c-.23.83-.41,1.68-.61,2.51H25c.25-1.29.47-2.58.74-3.87a16.64,16.64,0,0,0-.26-7.15c-.07-.34-.42-.61-.65-.91l-.29.1-.13,1.86c-.87,0-.87-.57-.71-1.2h-1.6l0,.27a1.21,1.21,0,0,0,.32.21c1,.26,1.22.52,1,1.56-.24,1.23-.45,2.46-.72,3.68-.4,1.82-1,3.63-.06,5.45Zm3.45-12.73.23.84.9-.22-.31-1.37-.22-.09-.58.86-1.25-1.65-.14,1,.83.09-.29.27.6,1.06Zm.19-2.33h-.55l.65.91,1.1-.93.71.34.15-.17c-.37-.33-.69-.78-1.12-.92C26.54,170.24,26.14,170.79,25.8,171.08Z"/><path class="cls-1" d="M335.8,27.24l-.58,0c-.67,0-1.3,0-1.21-.65l-.59.29a3.76,3.76,0,0,1-.22-.72,13.56,13.56,0,0,1-.09-1.67,1.34,1.34,0,0,1,.23-.85,1.58,1.58,0,0,0,.29-1.71c-.19-.73-.32-1.47-.49-2.2a5.94,5.94,0,0,1,.61-3.38c.35-1,.81-2,1.12-3a5.17,5.17,0,0,0-.07-1.56,2.6,2.6,0,0,0,.52-.51.75.75,0,0,0,.06-.63c-.63-1.26-1.29-2.5-1.94-3.76A5.52,5.52,0,0,1,332.82,4,8.5,8.5,0,0,0,332,1c-.17-.45-.11-.66.33-.68a17.29,17.29,0,0,1,2.26,0c.16,0,.29.38.44.57l.81,1v2a13.33,13.33,0,0,0-1.5,0c-.18,0-.34.26-.5.41.17.13.33.35.52.39.48.1,1,.13,1.48.18V14.5a2.76,2.76,0,0,0-.51.72c-.25.85-.43,1.71-.63,2.57a10,10,0,0,0-.23,1.23c-.16,1.63-.43,3.27.42,4.84l-1.26.63c.46.35.23,1.19,1.09,1a9.16,9.16,0,0,1,1.12-.1ZM334.24,6.52a5.25,5.25,0,0,0,.79-.37c.07,0,0-.28,0-.42-.23,0-.59,0-.65.08A2,2,0,0,0,334.24,6.52Z"/><path class="cls-1" d="M22.67,186.15c-.91-1.83-.34-3.64.06-5.45.27-1.22.48-2.45.72-3.68.2-1,0-1.29-1-1.56a1.21,1.21,0,0,1-.32-.21l0-.27h1.6c-.16.63-.16,1.17.71,1.2l.13-1.86.29-.1c.22.3.57.58.65.91a16.64,16.64,0,0,1,.26,7.15c-.27,1.28-.5,2.58-.74,3.87Z"/><path class="cls-1" d="M335.8,25.39a9.16,9.16,0,0,0-1.12.1c-.87.18-.63-.67-1.09-1l1.26-.63c-.85-1.57-.58-3.21-.42-4.84a10,10,0,0,1,.23-1.23c.2-.86.38-1.72.63-2.57a2.76,2.76,0,0,1,.51-.72Z"/><path class="cls-1" d="M236.06,186.15a1.13,1.13,0,0,0,.81-1.12c.08-1.11.29-2.21.3-3.32a14.35,14.35,0,0,0-.33-2.29c0-.19-.13-.48,0-.56.82-.8.19-1.72.28-2.57a2.44,2.44,0,0,1,.36-.74,4,4,0,0,1,.42.78,12.24,12.24,0,0,1,.24,1.3c.56-.25.48.23.5.61a19,19,0,0,1-.62,5.62c-.17.76-.27,1.53-.41,2.3Z"/><path class="cls-1" d="M130.29,186.15c.25-1.5.5-3,.75-4.51.12-.71.22-1.42.32-2.12h.24c-.07.9-.09,1.81-.23,2.7-.2,1.31-.49,2.61-.75,3.92Z"/><path class="cls-1" d="M335.8,4.94c-.49-.06-1-.08-1.48-.18-.19,0-.35-.25-.52-.39.17-.14.32-.38.5-.41a13.33,13.33,0,0,1,1.5,0Z"/><path class="cls-1" d="M130.12,57.14l.76.32-1.27.16c-.07.71-.15,1.39-.19,2.07,0,.45-.07.88-.64.89s-1.41.17-1.67-.58a3,3,0,0,1-.19-2.4c.26-.6,0-1.42,0-2.13.12-2.3-.74-4.43-1.18-6.63-.24-1.2-.55-2.39-.76-3.6-.12-.69-.27-1.32-1.1-1.49.55-2.34.06-4.59-.19-6.85a6.51,6.51,0,0,0-.49-1.63c0-.1-.37-.09-.61-.13.78-1.21.1-2.48,0-3.77a13.84,13.84,0,0,1,1.07-7c-1.3-.3-1.29-.19-1.29,1.1,0,1.81-.18,3.62-.33,5.42-.08,1-.25,2.08-.39,3.11h-.27a1.88,1.88,0,0,1-.06-.41c.23-3,.47-5.94.7-8.9a2.18,2.18,0,0,0-.06-.49c-.13-.83-.51-1.68.13-2.48a.44.44,0,0,0,.06-.32,3.23,3.23,0,0,1,.11-2.37c-.77-.81,0-1.8-.32-2.68-.08-.21.11-.53.19-.79.28-1,.57-2,.82-3.07,0-.16-.15-.37-.26-.61l1.4.12.08-.25-1.1-1.56-.27.42c-.06,0-.14-.07-.14-.08.13-.62.28-1.23.41-1.85a3.26,3.26,0,0,0,0-.64c0-.55,0-1.1.93-1.13-.24-.3-.37-.49-.52-.66-.39-.43-.31-.92.26-1,.85-.18,1.11-.6.83-1.43,0-.14.21-.38.33-.58a3,3,0,0,0,.39-.78c-1.55.31-1.55.31-1.52,1.35-.5-1.17-.1-1.9,1.24-1.87l-.67-.76c.53,0,1.07.06,1.6.15.13,0,.28.27.32.43.16.59.27,1.2.4,1.79l2.32-1.27L128.83.45c1.43-.7,1.6.65,2.46,1.17l-1.72.79c.7.2,1.09.91,1.66-.15L132.07,6c.35,1.56.71,3.12,1,4.68.13.63.62.78,1.12.82A1.9,1.9,0,0,1,136,13.27c.13.62.48,1.2.59,1.82a7.61,7.61,0,0,1,.25,2.74,4.68,4.68,0,0,0,.44,2.21c.26,1.11.6,2.2,0,3.29a.82.82,0,0,0,0,.4c0,2.09.07,4.18.13,6.27a6.82,6.82,0,0,0,.21,1.32A1.78,1.78,0,0,1,136,33.53c-.09,0-.19-.06-.38-.19,1.42-.2,2-.91,1.53-2.24-.23-.72-.76-.71-1.43-.58A5.43,5.43,0,0,0,136,29c-.17-1.63-.43-3.25-.69-5.12-.34.74-.64,1.19-1.35,1.08a1.07,1.07,0,0,0-.32.71,33.09,33.09,0,0,0,.5,3.8,16.52,16.52,0,0,1,0,5.57,24.79,24.79,0,0,0,.25,7.09c.17,1-.08,1.41-1.12,1.49-.87.07-1.07.47-1.22,1.24-.29,1.56-.83,3.08-1,4.64a15,15,0,0,0,0,4.26,4,4,0,0,1-.58,2.92Zm-.28-42.73a9.77,9.77,0,0,1,.39-1.75c.06-.15.55-.17.84-.15.86.06,1.71.18,2.67.29-.54-1.7-1.93-2.14-3-2.89-.11-.07-.35,0-.52.08l-2.19.63c-.42.52.19,1,.69,1.56a4.94,4.94,0,0,0-3.78,1.75l3.52-.39v.2l1.12-.61c-.44.53-1.07,1-1.2,1.53a5,5,0,0,0,.35,1.92l.23,0,.54-1.1,1.87,2.37,1.13-.86c-.42-.56-.78-1.06-1.16-1.54-.75-1-.75-1-1.81-.39a1.56,1.56,0,0,1-.35.09l-.1-.16Zm2-7.87h-.28c-.14-.1-.34-.16-.41-.29s-.09-.59-.25-.78a3.6,3.6,0,0,0-1.23-1c-.16-.06-.68.54-.88.92a5.77,5.77,0,0,0-.32,1.42c-.82.56-.9.82-.49,1.9.09.23.17.47.24.71a.89.89,0,0,0,1.09.67c.82-.09,1.42-.73,1.72-1.82a4.6,4.6,0,0,1,.35-.8C131.52,7.13,131.69,6.84,131.85,6.54ZM128.4,53.46l.31,0a1.15,1.15,0,0,0,.1-.31,8.48,8.48,0,0,0,0-1.74c-.18-1,.44-1.7.56-2.53a15.12,15.12,0,0,0-.07-3.83,7.68,7.68,0,0,0-.87-2c-.5-.11-.75.05-.7.74.16,2.19.22,4.39.36,6.59C128.14,51.41,128.29,52.43,128.4,53.46Zm-1-.76.31-.06-.14-1c-.31-2.11-.62-4.23-1-6.34a2.26,2.26,0,0,0-.39-.68,2.38,2.38,0,0,0-.21.81c.16,1.36.31,2.71.56,4.05C126.75,50.58,127.09,51.63,127.37,52.7ZM129,21.51l-.28,0c0,.23,0,.46,0,.69,0,.5-.24.69-.75.62s-.43-.48-.41-.83-.07-.83.55-.8c.42,0,.84,0,1.26,0l0-.41c-.71.08-1.56,0-2.08.32a1.77,1.77,0,0,0-.06,1.75c.34.38,1.21.29,2,.42ZM125.22,9.86l.35,0c0-.54-.08-1.07-.12-1.61-.08-1.17-.77-1.21-1.6-.77-.14.07-.2.3-.29.45.14.08.28.22.43.24a1.07,1.07,0,0,1,1.07,1C125.1,9.37,125.16,9.61,125.22,9.86Zm11.36,15.39c.1-.68.2-1.18.23-1.68,0-.14-.18-.29-.28-.44-.15.1-.38.17-.43.31A1.65,1.65,0,0,0,136.58,25.25ZM125.07,4.69a7.84,7.84,0,0,0,.72-.67,1,1,0,0,0,.18-.53.54.54,0,0,0-.39-.15A1.09,1.09,0,0,0,125.07,4.69ZM124.65,10l-.46.1a8.58,8.58,0,0,0,.23.94,2.46,2.46,0,0,0,.49-.07Z"/><path class="cls-1" d="M295.36,85.93l-.62.53c.41.18.76.47,1.07.43a.79.79,0,0,1,1,.71c.21,1.13.38,2.26.61,3.66-.55-.46-.89-1-1.37-.29l.4.93.73-.43.35,2.36-1.22.57c.18.21.3.47.43.48.92,0,.8.71.93,1.28s.36,1.38.52,2.07a1,1,0,0,1,0,.63c-.53,1-.13,2-.07,3a21.56,21.56,0,0,1-.36,4.6c0,.22-1,.37-1.53.39s-1.06-.19-1-.85a25.73,25.73,0,0,1,.43-4.39,12.79,12.79,0,0,0,.29-4.45,43.77,43.77,0,0,0-1-6.32,2.68,2.68,0,0,1,.06-.77l.79.6.24-.17c-.23-.35-.47-.71-.71-1,0,0-.21.12-.49.28l-.67-4.18h-.25a2.67,2.67,0,0,0-.23.82c.09,1.62.24,3.23.33,4.85a4.57,4.57,0,0,1-.26,1.15l.65-.35c.24,2.09.47,4.11.7,6.13.06.57-.39.55-.75.69s-.68.35-.72.58c-.49,3-.93,5.95-1.38,8.93a1.1,1.1,0,0,0,0,.5c.76,2.07-.05,4-.51,6a13.61,13.61,0,0,0-.28,3.8c.06,1.4-.32,2.82-.34,4.23a10.51,10.51,0,0,0,.49,2.6c0,.17.36.27.62.45-1.1.07-.87.87-.8,1.47s-.17.68-.62.71c-1.44.09-1.57,0-1.75-1.5-.14-1.09-.41-2.16-.57-3.25a2.92,2.92,0,0,1,0-1.31,5.59,5.59,0,0,0-.06-3.14c-.48-2.07-1.09-4.11-1.45-6.19-.28-1.64-.17-3.34-.43-5-.37-2.35-.93-4.68-1.4-7l-.29,0a9.18,9.18,0,0,1,.13,1.67,4.78,4.78,0,0,1-.47,1.23c-.44-.29-1.13-.49-1.28-.89a7,7,0,0,1-.33-2.51c0-.65-.53-1.5.45-2,.06,0,.31-.86-.47-.87.11-1.18.23-2.41.34-3.63s-.23-2.36.48-3.49l-.34-.3c.17-.09.29-.22.39-.21,1,.13,1.16,0,1-1.21l-1.22.89-.22-.17.57-.91V87c-.59-.46-.57-1.22-.32-2.14a5.54,5.54,0,0,0-.11-1.8c0-.46-.09-.93-.14-1.42h.55c-.15-.28-.5-.65-.43-.87s.55-.44.85-.65.61-.38,1,0c0,0,.42-.2.56-.37a4.71,4.71,0,0,0,.45-.75l.22.08-.15.69.86.29c0-.93-.25-1.84.51-2.51a10.31,10.31,0,0,0-1-1.78c-1.19-1.43-1.19-4.25.09-5.36a2.69,2.69,0,0,1,2.9-.32,2.75,2.75,0,0,1,1.59,2.84c0,.3,0,.62-.08.91-.19.81-.43,1.61-.62,2.42a1.16,1.16,0,0,0,1,1.55c1.18.29,2.37.55,3.54.89a1.19,1.19,0,0,1,.68.7,8.14,8.14,0,0,1,.22,4.66.88.88,0,0,0,.08.51c.11.3.26.58.47,1-1.12,0-1.24-.83-1.55-1.45l-.23.1Zm-2.46-3a3.23,3.23,0,0,1,.38-.73,8.74,8.74,0,0,1,.8-.65c.2-.18.38-.38.57-.57a2.61,2.61,0,0,0-.83-.05c-.42.11-.56.06-.7-.29a.87.87,0,0,0-.47-.4,9,9,0,0,0-1.06-.27l-.12.24,1.17.52-.88.65Zm-3.14,4c.45.88.91,1.59,1.92,1.57.15,0,.3-.28.59-.58l-1,.11-.16-.23,1.09-.61-.24-.27-.82.4.6-1c-.34-.53-.63-.61-.86.1a.5.5,0,0,1-.27.23C290.32,86.74,290,86.83,289.75,86.93Zm-1.39,4.57c.05-.11.2-.36.17-.38-.45-.37-.29-.69,0-1.06a.52.52,0,0,0-.14-.46,1,1,0,0,0-.56.08c0,.84-.68,1-1.28,1.35Zm2.69-9.91c-.25,1.6-.1,2,.86,2.36C291.78,82.49,291.63,82.08,291.05,81.59Zm-.56,2.52-.25-.14-1.92.52,1.72.68Zm-6,9.05-1.1.62V94l.88-.05-.14,1,.88-.54ZM294.79,82.5l.44,1.29.85-1-.55-.75Zm-6.17-9.91c-.27.37-.52.58-.54.8s.36.52.46.48a1.06,1.06,0,0,0,.61-.54C289.19,73.22,288.88,73,288.61,72.59ZM292,96.53l-1.39-.92-.19.16,1,1.43Zm-1.33-3.29c.23-.09.42-.23.59-.22s.34.19.5.3l.09-.12L290,91.71l-.13.14Zm-4.82,4.19.27.09.57-1.13h-1.24Zm4.65-17.87-.1-.33c-.43.11-.86.2-1.28.34-.1,0-.13.25-.2.38.14.06.31.19.41.16C289.73,80,290.11,79.75,290.5,79.56ZM287.58,83l-.28-.09c-.27.74-1.09,1.29-.83,2.23Zm3.11,8.51.16.19,1.31-.39-.26-.57ZM286.35,89c-.29-1-.49-1.4-.86-1.34C286.3,87.94,285.27,88.84,286.35,89Zm-1.64,2.75-.15-.22-1.21.75.07.12,1.08-.1Z"/><path class="cls-1" d="M202.94,82.3v18.4c-.71,0-1.33.07-1.53-.77a.68.68,0,0,0-.45-.41c-.54-.1-.85-.23-.77-.92,0-.21-.57-.52-.9-.75s-.56-.15-.66-.33c-.81-1.49-2.29-1-3.5-1.16s-2.73-.15-4.09-.25c-.78-.06-1,.26-.83,1,.11.43.17.87.31,1.29s.55.88.5,1.28a7.83,7.83,0,0,1-.87,2.6l-.53-2.06-.38.93-.24,0a8.66,8.66,0,0,1-.29-1.34c-.08-1.34,0-2.69-.18-4a27.56,27.56,0,0,0-.92-4,1,1,0,0,1,.53-1.31c.69-.28.62-.72.52-1.28a12.3,12.3,0,0,1-.09-5.4c0-.11.07-.21.16-.45a2.12,2.12,0,0,1,.15.55,33.46,33.46,0,0,0,1,9.69c.37,1.84.31,1.85,2.21,1.82.59,0,1.18,0,1.77,0l.09-.33-1.48-1.38,2.41-1a2.45,2.45,0,0,0,2.53-.17,9.37,9.37,0,0,1,3.6-.9c.62-.06,1.12-.18.58-1a.65.65,0,0,1-.05-.48,13.74,13.74,0,0,0-.14-5.32C201.2,83.45,201.5,82.92,202.94,82.3Z"/><path class="cls-1" d="M22,107.23a3.16,3.16,0,0,1-.45-.83c0-.09.39-.35.62-.4a4.09,4.09,0,0,1,1.62-.16c.89.2,1.14-.33,1.39-.95a2.91,2.91,0,0,1,.47-1,14.18,14.18,0,0,0-.3,1.6,1,1,0,0,0,.26.78c.18.11.54-.09.82-.15l.39-.1.07.26a9,9,0,0,1-.92.17c-.55,0-.84.26-.85.87a27.57,27.57,0,0,1-.19,4.34c-.49,2.74-1.17,5.44-1.79,8.21l-1.82-.32,0,.21,1.88.41-.17,3,3.51,1.66-.1.26c-.76-.18-1.51-.41-2.28-.53a5.63,5.63,0,0,1-2.06-.77c-.39-.23-1,0-1.65,0-.1-.54-.21-1.15-.3-1.76,0-.1.09-.31.17-.32.73-.14.52-.71.63-1.19l-1,.14c-.07-1.18-.09-2.31-.21-3.43s-.35-2.5-.52-3.74c-.25-1.76-.86-3.46-.61-5.29.09-.63.4-.71.86-.75l2.53-.19a4.25,4.25,0,0,0-.36,1.09c-.11,2.17-.18,4.35-.24,6.52a6,6,0,0,0,.12,1h.25Z"/><path class="cls-1" d="M42.39,162.46a4.69,4.69,0,0,1-1-.08,6.08,6.08,0,0,1-.93-.46c.17-.24.35-.47.52-.71s.26-.4.41-.65a6.28,6.28,0,0,0-3.21-1.37c-.43,0-1,0-.9-.8,0-.11-.37-.24-.53-.4s-.78-.55-.83-.88c-.08-.51-.22-1.23.6-1.45.05,0,.14,0,.15-.07.07-1,1-1.06,1.46-1.3,0-.76,0-1.3,0-1.85a31.08,31.08,0,0,0-.13-3.81,2.24,2.24,0,0,1,.88-2.31,10,10,0,0,0,1.51-2.14c0-.06.05-.21,0-.23-.78-.6-.21-1.4-.28-2.09,0-.22.35-.49.54-.73a3.24,3.24,0,0,1,.43.66,3.48,3.48,0,0,1,.1.8l.24.09.93-1.76Z"/><path class="cls-1" d="M42.38,97.37c-.65-.1-1.4.2-1.43-.82,0-.09-.35-.23-.55-.26-.88-.13-1.77-.22-2.65-.36a6.06,6.06,0,0,1-.89-.28l0-.25L39.44,95c-.4-.37-.66-.81-1-.84-.92-.1-1.3-.75-1.72-1.39-.13-.21-.3-.39-.44-.59l-1-1.43c.65-.12,1-.21,1.35-.24s.8-.05.9-.63c0-.17.47-.31.74-.41.48-.16,1-.22.46-.92a.69.69,0,0,1,0-.55,9.87,9.87,0,0,0,0-4.56c-.16-1.11,0-1.45,1-2.05a1.84,1.84,0,0,0,.55-.68,34.88,34.88,0,0,1,2.08-3.52Z"/><path class="cls-1" d="M21.68,69.91l1,.23.42-1.3.13,0,.09,1.45a4.05,4.05,0,0,1,.83,3.28c-.19,1.15-.52,2.28-.77,3.42-.08.35-.1.7-.15,1.06l.2.14.05-.48c1.15.35.79,1.11.6,1.54a10.68,10.68,0,0,1-1.51,2.37c-.13.15-.85,0-1.14-.2-.86-.64-1.65-1.39-2.57-2.18a1.93,1.93,0,0,0,.87-2.67l-2,.85c-.72-.31-.77-.81-.62-1.54a11.5,11.5,0,0,0,0-2.3,1,1,0,0,1,0-.41c.43-.9.05-1.77,0-2.66A3.2,3.2,0,0,1,17.25,69a1.32,1.32,0,0,1,.9-.65,13.68,13.68,0,0,1,2,0c-.14.53-.25.9-.32,1.27a1.85,1.85,0,0,0,0,.49c.24,0,.56,0,.7-.1a13.17,13.17,0,0,0,1.06-1.25l.59.55ZM19.43,75.6l.07-.26L18.57,75l-.09,1Zm3-2.17c-.33-.22-.53-.45-.64-.41s-.31.29-.46.45c.12.11.25.33.36.32A2.72,2.72,0,0,0,22.38,73.43Z"/><path class="cls-1" d="M145.83,30.94c-.3,0-.6-.07-.89-.15-.5-.13-1.06-.16-1-.95,0-.19-.43-.38-.61-.6a3.46,3.46,0,0,1-.34-.61,2.43,2.43,0,0,1,.63-.31,6.25,6.25,0,0,0,1.15-.09c.25-.1.39-.47.6-.69a4.68,4.68,0,0,1,.72-.64,10.4,10.4,0,0,1,1-.52c-.28-.24-.55-.5-.84-.72a4.76,4.76,0,0,0-.66-.34c.35-1,.76-2,1-3.08a7.27,7.27,0,0,0,.19-2.21,1.78,1.78,0,0,1,1.11-2.1,6.53,6.53,0,0,0,.8-.6,10.69,10.69,0,0,1-.49-1.66c-.06-.46.16-1,.71-.91.28.05.62.58.67.93a14,14,0,0,1,0,2.09c0,4.94,0,9.89,0,14.83,0,.71-.25.88-.88.79-1.3-.17-2.61-.31-3.9-.51-.22,0-.4-.28-.6-.42a4.2,4.2,0,0,1,.55-.52c.39-.26.81-.49,1.22-.73Z"/><path class="cls-1" d="M183.72,68.37a1.43,1.43,0,0,1-.07.27c-.22.41-.2.83.28.93.19,0,.5-.35.72-.58a3.24,3.24,0,0,1,.59-.61c-.47,1.08-.33,1.29.93,1.3.64,0,.74.33.41,1.5-.12-.83-.4-1.32-1.33-.91.3.82.66,1.6.88,2.42s.34,1.8.56,2.68a3.7,3.7,0,0,0,.6,1.51c.4.46.56.77.14,1.28a2.13,2.13,0,0,0-.23.71c-1.73,0-2.55-1.34-3.58-2.15L181,77.2c-.47,1.15-1.69,1.7-2.85,2.32-.23-.36-.44-.66-.62-1a1,1,0,0,1-.14-.53c.14-1.42.3-2.84.48-4.26a2.74,2.74,0,0,1,.35-.92,3.39,3.39,0,0,0,.35-3,10.79,10.79,0,0,1-.33-1.55,7.3,7.3,0,0,0,1.32.38c.46,0,.88.56,1.43,0,.26-.28,1-.17,1.45-.21S183.28,68.37,183.72,68.37Zm-2.17,5.24c-.45.49-1.46.43-1.15,1.35a4.08,4.08,0,0,0,.88,1.48,1.51,1.51,0,0,0,2.36-.55c.19-.44.5-.82.72-1.25a6.28,6.28,0,0,0,.3-.89l-.24-.08-.4.57-.15-.61h-1.46l-.11-.31a3.57,3.57,0,0,1,.69-.51c.59-.25.68-.6.22-1a1.36,1.36,0,0,0-1.88.13.77.77,0,0,0,0,1.32A1.25,1.25,0,0,1,181.55,73.6Zm4.13-.12.37-.18c-.27-.47-.53-.94-.82-1.4a.39.39,0,0,0-.37,0,.35.35,0,0,0-.12.32C185,72.63,185.37,73.05,185.68,73.48Zm-3-3.77.27-.08.45-1.07-.16-.19c-.26.18-.62.3-.74.54S182.57,69.44,182.65,69.71Z"/><path class="cls-1" d="M185.94,110.86c-.06.38-.1.86-.21,1.33a43.57,43.57,0,0,0-1.07,4.38,24.4,24.4,0,0,0,0,4,2.71,2.71,0,0,0,.3.79,1.92,1.92,0,0,1-2,.34,4.92,4.92,0,0,0-1.67.07l-2.65-10.41c1,.33,1.09-.21,1.23-.69.56-2,1.12-4,1.84-6,.16,1.41.37,2.82.46,4.24s0,2.71.07,4.06a37.46,37.46,0,0,0,.35,3.9c0-1.49,0-3,0-4.47,0-1,0-1.1,1.08-1.12A15.83,15.83,0,0,0,185.94,110.86Z"/><path class="cls-1" d="M21.52,144.9c1.61.81,2.95,0,3-1.89,0-.31-.34-.62-.54-1l.3-.1c-.27-1.28-.27-1.28-3-2.43l-.92,2.24a3.23,3.23,0,0,1,.55-3.1,2.71,2.71,0,0,1,2.77-1,2.32,2.32,0,0,1,1.69,1.91c.4,1.65.73,3.32,1.06,5a10.33,10.33,0,0,1,.24,2.15c0,.76.14,1.3,1.1,1.4l-.57.37,1.51,4.2-.19.1-.35-.52c-.27.38-.48.68-.7,1s-.31.37-.47.55l0,0a14.53,14.53,0,0,1-1.59-.19,1.07,1.07,0,0,1-.57-.47,3.6,3.6,0,0,1-.29-.77c-.4.13-1,.4-1,.31a9.8,9.8,0,0,1-.78-1.54l-.57.19L24,145.41c-1,.13-1.9.43-2.45-.53ZM23,150.76c1.06-.74.88-1.62.75-2.49C23.49,149,22.72,149.65,23,150.76Z"/><path class="cls-1" d="M256.65,142.72c0,4.81,0,9.58,0,14.35,0,1.31,0,2.62,0,3.94a.75.75,0,0,1-.32.58c-.19.08-.63,0-.68-.11-.3-.8-1-.61-1.62-.78s-1.17-.05-1.15-.91c0-.13-.41-.23-.58-.4-.39-.41-1-.81-1.05-1.28s.67-.78.86-1.26a2.34,2.34,0,0,1,1.75-1.41s.06-.29,0-.44c-.06-.38-.29-.8-.19-1.14a9.2,9.2,0,0,0-.13-4.55,1.64,1.64,0,0,1,.59-1.86,4.44,4.44,0,0,0,1.8-4.11C256,142.93,255.88,142.52,256.65,142.72Z"/><path class="cls-1" d="M111.11,161.39l.67.22-2.21.44.53,1.53-2,.65,1.54.41-1.63.68.45.77c-.44.21-.76.34-.76-.34q0-5.65,0-11.3,0-2.34,0-4.69c0-.44,0-.87,0-1.31a2,2,0,0,1,2.17,2.17c0,1,.18,2,.26,3a7.56,7.56,0,0,0,.07,1.62,2,2,0,0,0,.87,1.07c.87.46,1,.64.67,1.58a1.29,1.29,0,0,0,.25,1c.73,1,.63,1.67-.48,2.36Z"/><path class="cls-1" d="M2.91,95.63l-1.43.51,0,.15,1.5.28-1.94.59,0,.24,1.24.39-1.6.4,1.12.56,0,.18-1.19.18V81a2.27,2.27,0,0,1,2.12,2.16A6.58,6.58,0,0,0,3.06,86a4.56,4.56,0,0,1-.13,1.65c0,.17-.06.42,0,.5.57.5,1.17,1,1.59,1.28a7.84,7.84,0,0,0,.53,1.31A1.51,1.51,0,0,1,4.35,93,2.13,2.13,0,0,0,2.91,95.63Z"/><path class="cls-1" d="M130.54,143.42a2.18,2.18,0,0,1-2.69.48c.47.64-.85,1,.09,1.61-.35.24-.76.49-.14,1.06-.87-.17-.91-.33-.58-1.18a9.31,9.31,0,0,1-1.42.91,1.85,1.85,0,0,1-1.12,0c-.13,0-.25-.45-.23-.68.06-.81.18-1.63.3-2.55l-.65-.45c.71-1.4,1.47-2.76,2.09-4.18a4.55,4.55,0,0,0,.07-1.62,1.1,1.1,0,0,1,.16-.66l.4,1.39H127l.19-.53h1.9l0-.91h1c-.37.77-.09,1.1.55,1.54a6,6,0,0,1,2.48,4.44c.08.6.29,1.18.39,1.78a2.59,2.59,0,0,1-.15.78c.74.53.53,1.39.38,2.25a3.18,3.18,0,0,1-2.78-3.07c0-.13-.28-.21-.43-.32.15-.3.29-.6.45-.89s.24-.62.45-.7c.84-.33.6-.87.43-1.63l-.52.64c-.41-.76-.77-1.53-1.22-2.25a.9.9,0,0,0-.73-.33,1.64,1.64,0,0,0-1.47,1.19,6,6,0,0,0-.35,2.19c.07.59.59,1.12.89,1.69a.91.91,0,0,0,1.21.42A8.76,8.76,0,0,0,130.54,143.42Z"/><path class="cls-1" d="M125.91,152.59l-.17,1.34.22.12a5.93,5.93,0,0,0,1.42-.9c.45-.5.57-.44.71.15a2.35,2.35,0,0,0,.26.48,1.14,1.14,0,0,0-.07-1.65c1.06-.64.21-1.34.16-1.79a4.3,4.3,0,0,1-.83-.24c-.05,0,0-.35.06-.48.27-.39.71-.71.84-1.13.2-.66.65-.61,1.1-.58.17,0,.47.38.45.41-.42.61.1.91.4,1.27-.81.24-.67-.74-1.21-.92-.41.28-.86.6-.49,1.17.21.32.61.71.93.71a.77.77,0,0,0,.75-1l1.06-1a5,5,0,0,1-.29.88c-.22.4-.51.76-.9,1.33.84-.15,1.53.08,1.68-1l.17.2.44,1.17-.91-.5-.33.88,1.28.44-1.6.68c-.17-.74-.17-1.47-1-1.6a1,1,0,0,0-.69.1c-.12.12-.12.59,0,.65,1.11.65.32,1.5.31,2.19l-1.21.71-.89-.88c-.6,1-.58,1,.5,1.44l-1.09.18-.5-1c-.9,1.06-.5,1.67,1.31,2.21l.6-.59c.14.21.26.42.41.61a6.38,6.38,0,0,1,.54.6,5.44,5.44,0,0,1,.32,1c-.46-.25-.71-.5-1-.5-.5,0-1.37,0-1.44.26-.38,1.26-.8.49-1.24.11l-.29-.25c-.2.46-.38.87-.58,1.27a1.67,1.67,0,0,1-.34.35,3.11,3.11,0,0,1,0-.49c0-.26.15-.55.08-.78s-.35-.28-.54-.41l-.17.19.24.78-1.73-1.25v-.81c-1.09,0-.52-1-.78-1.45a3.44,3.44,0,0,1,0-1.64c0-.17.14-.46.24-.48.65-.09.65-.51.53-1s-.28-.75-.41-1.12c-.05-.15-.15-.38-.09-.44s.47-.5.69-.49a7.52,7.52,0,0,1,1.71.35c.12,0,.27.41.21.49-.46.68-.31,1.17.46,1.51l0,.24a11.72,11.72,0,0,0-1.79.22,5.93,5.93,0,0,0-1.37.7.39.39,0,0,0,0,.38,3.63,3.63,0,0,0,1,.86c.15.07.61-.24.74-.48.34-.63.9-.59,1.49-.58l.5-2,.29.71Zm-1.12,4.88-.36-1.19.28-.09-.23-.23c-.8.15-1,.85-1.34,1.52Zm-.48-5.22-.94-.93c-.15.17-.46.42-.42.49a3.89,3.89,0,0,0,.7.91A5.06,5.06,0,0,0,124.3,152.26Z"/><path class="cls-1" d="M194,126.37l-3.76-.75v-.27a6.85,6.85,0,0,1,1,0c1.64.24,3.27.5,4.91.77,1.21.2,2.41.48,3.62.66a22.36,22.36,0,0,0,2.5.18c.52,0,.74.19.74.75,0,2.47.25,2-1.95,2-1.09,0-2.18,0-3.27,0a4.14,4.14,0,0,1-2.29-.53,7.41,7.41,0,0,0-2.61-.4c-1-.14-2-.31-2.94-.46l0-.28Z"/><path class="cls-1" d="M144.46,161.53h2.63c.16-.66-.05-.92-.63-1.16s-1.28-.77-.94-1.72c.05-.15-.19-.4-.35-.71.29,0,.55-.07.8-.13s.58-.16.58-.23c0-.9.66-.87,1.24-1,.14,0,.27-.4.27-.61,0-.38-.25-.79-.16-1.13a9,9,0,0,0-.08-4.31,1.92,1.92,0,0,1,.93-2.35,7,7,0,0,0,.82-.7c0,1.52,0,3,0,4.43,0,3.29,0,6.59,0,9.88,0,.66-.22.85-.82.78-1.16-.14-2.33-.24-3.49-.41a2.87,2.87,0,0,1-.84-.45Z"/><path class="cls-1" d="M162.43,96.7l.86.31,0,.2a16.65,16.65,0,0,1-1.69.21c-.13,0-.38-.31-.38-.48,0-1.86,0-3.72,0-5.66,1.76,1,3.69.47,5.51.74a4.68,4.68,0,0,1,1.92.67,1.3,1.3,0,0,1,.26,1.26,5.09,5.09,0,0,1-1.58,1.18,15.35,15.35,0,0,1-1.78.77,5.71,5.71,0,0,1-1.06.37c-.67.12-1.34.19-2,.27Z"/><path class="cls-1" d="M176.65,81.79c.24,1.91.53,3.82.7,5.73a5.19,5.19,0,0,1-.52,2.79c-.45.94-.24,2.19-.31,3.3l.4.09a7.47,7.47,0,0,0,.61-1.27,9,9,0,0,0,.56-3.29c-.13-1.41,0-2.83-.05-4.25,0-.3,0-.6-.08-.89l.23-.06a16.26,16.26,0,0,1,.44,2.32c.07,1.36,0,2.72,0,4.08,0,.38-.32.73-.43,1.11-.57,2.12-1.12,4.25-1.68,6.37a5.51,5.51,0,0,1-.23.89,1.08,1.08,0,0,0,.15,1.39,3.88,3.88,0,0,1,.39,2.07c0,.14-.48.47-.69.43-.4-.07-.93-.25-1.09-.55a2.76,2.76,0,0,1-.16-2.16,29.77,29.77,0,0,0,.67-3.94c.29-1.9.47-3.82.89-5.69a12.6,12.6,0,0,0,0-5.38,6.35,6.35,0,0,1-.07-3.06Z"/><path class="cls-1" d="M1.15,159.26.95,161l-.28,0V146.76a.86.86,0,0,1,.84,1.09c-.25,1.45.26,2.8.46,4.19a.71.71,0,0,1,0,.4c-.42.73.12,1,.61,1.29.88.46.89.55.55,1.54a1.67,1.67,0,0,0,.12,1.23,1.39,1.39,0,0,1-.58,2c-.27.13-.57.23-.84.37S1.33,159.15,1.15,159.26Z"/><path class="cls-1" d="M215.12,161.06v1.51l-.27.06a4.13,4.13,0,0,1-.16-.79q0-3.51-.07-7c0-1.92,0-3.85,0-5.77q0-.44,0-.88l.31-.12c.16.32.51.67.46.95-.26,1.52.43,2.83.78,4.21a1.18,1.18,0,0,1-.16,1c-.55.59-.48,1.5.33,1.72,1.09.29,1,.83.69,1.67-.08.19.13.6.33.78a.7.7,0,0,1,.17,1.06A2.77,2.77,0,0,1,215.12,161.06Z"/><path class="cls-1" d="M32.12,128.19l.93-.1-2.54-.58,0-.18h3.38l0-.17L31,126.58l.06-.24,9.61,1.32c.17-.82.86-.5,1.42-.44.12,0,.28.32.29.49,0,.64,0,1.28,0,2-1.73.17-3.57.4-4.93-.47s-2.58-.61-3.91-.62c-.48,0-1-.09-1.44-.14Z"/><path class="cls-1" d="M17.6,102.62v2l.6-.8c.35.68,1,1.26.26,2a2.25,2.25,0,0,1-.78.32c-.07-.21-.13-.43-.2-.64-.15-.44-.33-.86-.47-1.3a3.22,3.22,0,0,0-1.55-1.67,2.26,2.26,0,0,1-.84-2c.07-1.69,0-3.38,0-5.08,0-.33,0-.66,0-1.08l1.81-.29c-.15,1-.26,1.85-.39,2.69a3.68,3.68,0,0,0,.41,2.64,3.55,3.55,0,0,1,0,3.26h1.22Z"/><path class="cls-1" d="M130.54,143.42a8.76,8.76,0,0,1-.92.39.91.91,0,0,1-1.21-.42c-.3-.57-.82-1.1-.89-1.69a6,6,0,0,1,.35-2.19,1.64,1.64,0,0,1,1.47-1.19.9.9,0,0,1,.73.33c.45.72.82,1.49,1.22,2.25l.52-.64c.16.76.4,1.29-.43,1.63-.21.08-.32.45-.45.7s-.3.6-.45.89Z"/><path class="cls-1" d="M134.28,156.16l-.13.22-1.36.29.81-1.27.25.06-.93-1.13-.16.12c0-.15,0-.35,0-.44-.51-.63-.24-1,.24-1.54a4.9,4.9,0,0,0,.57-1.83,2.94,2.94,0,0,0,.71.12c.18,0,.46-.11.52-.25.19-.43.26-.9-.27-1.19-.16-.09-.51-.17-.53-.13-.2.39-.36.81-.52,1.22l-.86-.61c.36-.49.66-1,1-1.38.54-.63.75-.58,1.1.2l.32.74.48-.57.2.07-.55,1.83.85-.27c0,.4.2,1,0,1.17-.74.63-.85,1.2,0,1.92l-.22.1-.65-.55a1,1,0,0,1-.26.12,3.29,3.29,0,0,1-.46,0c.07-.13.13-.35.23-.36.74-.13.78-.65.79-1.33a9.2,9.2,0,0,0-1.75.58c-.58.33-.44.7.38,1.16a1.07,1.07,0,0,0,.81,1.58Z"/><path class="cls-1" d="M27,102l-.23-8.94a.89.89,0,0,0,.93,1.07c.11,0,.27.37.29.59.12,1.1.15,2.22.31,3.31a5.55,5.55,0,0,0,.58,1.71,2.17,2.17,0,0,1-.53,2.51l-.2-1.51h-.3l-.52,1.3Z"/><path class="cls-1" d="M146.91,61.75l.49-.29L139,61.07l0-.39a11.1,11.1,0,0,1,2.13-.4c1.9,0,3.81.14,5.71.2a1.41,1.41,0,0,0,.56-.2l2,.63c.28.94.17,1.1-.9,1.11h-1.55Z"/><path class="cls-1" d="M189.44,125.48l-4.83-.24c-.25,0-.49-.08-.74-.12a6.13,6.13,0,0,0-1.48-.18c-1,.12-1.22,0-1.09-1.05a1.7,1.7,0,0,0,.06-.5c-.2-1.07.39-1.31,1.3-1.33.64,0,1.08,0,1.13.83a6.41,6.41,0,0,0,.42,1.38l5.28,1Z"/><path class="cls-1" d="M27,153.82c.54-.09,1-.74,1.61-.18a5.78,5.78,0,0,1,.66,1l-.41.05,1,1.74-.27.17-.56-.72L28,157.14l.12.22,1.35-.46.32,1.27-.2.08-.2-.36-1.78-.17,1.11.68-.09,1.15-.55-1-.83.46-.65-.94,1.57-1.63L27,155.51c0-.4,0-1.05,0-1.71Z"/><path class="cls-1" d="M200.74,109.44l.24-.81-1.11.32c-.07-.33-.3-.75-.17-.94s.63-.44.87-.59.32-.55.49-.78c.32-.42.64-.83,1-1.22.13-.14.38-.31.52-.28a.63.63,0,0,1,.36.47c0,.75,0,1.51,0,2.26,0,.08,0,.21,0,.24-.68.49-1.36,1-2,1.45Z"/><path class="cls-1" d="M21.83,125.31l-1.35-.21,0-.33a4.36,4.36,0,0,1,1.55-.2c.28.07.58.64.64,1,.23,1.5.2,1.5,1.75,1.71.13,0,.25.06.53.12-1.54.82-2.94.42-4.33.13-.11,0-.17-.29-.25-.44s0-.05,0-.08C20.5,125.68,20.5,125.68,21.83,125.31Z"/><path class="cls-1" d="M187.41,127.68c-.08.17-.08.21-.1.22-1.71.06-3.43.15-5.14.18-.75,0-1-.55-1-1.17a1.65,1.65,0,0,1,.6-1c.16-.13.56,0,.85,0v.23l-.81.26v.15l1.75-.16.16,1.07Z"/><path class="cls-1" d="M202.81,121.24l-.67.29c.22.26.41.46.58.68a1,1,0,0,1,.23.47c0,1,0,1.94,0,2.93,0-.07-.1-.1-.11-.15-.16-1-.35-1.9-1.66-1.87a1,1,0,0,1-.61-.24.8.8,0,0,1-.24-.56c0-.11.27-.3.42-.29a12.09,12.09,0,0,1,1.31.2l-.9-4.13.13,0a9.62,9.62,0,0,0,.53,1.56A7,7,0,0,0,202.81,121.24Z"/><path class="cls-1" d="M36.31,33.38V30.43c1.13.1.89,1.33,1.54,1.79.68-.39.38-1.69,1.51-1.79v2.94l-.29,0-.2-2-1,1.84-1.08-1.92-.11,2.07Z"/><path class="cls-1" d="M21.54,144.88c-.42.52-.84,1-1.27,1.56a1.36,1.36,0,0,1-.76.46,16.19,16.19,0,0,0,.21-1.84c0-.52.55-1.1-.18-1.71l.79-.55c.16.26.32.52.47.79.24.43.48.87.71,1.31Z"/><path class="cls-1" d="M68.57,32.59l.43.7-.07.13-1.65-1-.37,1-.21,0V30.47c.79,0,1.74-.35,2.22.58.19.38-.06,1-.11,1.48Zm-1.45-.34a9.69,9.69,0,0,0,1.37-.46c.08,0,.05-.6,0-.64a8.5,8.5,0,0,0-1.33-.32Z"/><path class="cls-1" d="M238.44,142.5l.22,4.39-.18.17c-.35-.4-.89-.75-1-1.21a4.4,4.4,0,0,1,.74-3.37Z"/><path class="cls-1" d="M47.63,33.43,47.4,32.3H45.89l-.25,1.13-.24,0v-3c.71.27.16.92.58,1.32H47.4l.21-1.29.27,0v2.9Z"/><path class="cls-1" d="M54.57,33.33h-2V30.54H54.5l0,.26L53,31l0,.75,1.36.13v.28l-1.29.17c-.21.51,0,.68.52.66a9.7,9.7,0,0,1,1,.06Z"/><path class="cls-1" d="M64.18,33.41a1.48,1.48,0,0,1,.09-3A1.53,1.53,0,0,1,65.72,32,1.55,1.55,0,0,1,64.18,33.41Zm.06-.45a1,1,0,0,0,1-1,.94.94,0,0,0-1-1,1,1,0,0,0-1,1.07A1,1,0,0,0,64.24,33Z"/><path class="cls-1" d="M60.4,32.2l-.58,1.26-.19-.08v-3c.69.33.24.94.52,1.38l1.55-1.4.19.2-1,1.14,1.13,1.7C61.12,33.48,61.14,32.48,60.4,32.2Z"/><path class="cls-1" d="M125.93,152.62l.84-1.19L124.45,150l.63-1.08h0a7.87,7.87,0,0,0,.9,1.24,8.83,8.83,0,0,0,1.37.89c-.14.4-.3.92-.52,1.41s-.55.43-.92.17Z"/><path class="cls-1" d="M48.77,33.31c.37-.86.7-1.74,1.11-2.58.23-.47.57-.41.78.05a28.47,28.47,0,0,1,1,2.67c-1-.85-1.9-1.18-2.8.1ZM50.24,31l-.53,1.26h1.06Z"/><path class="cls-1" d="M29,164.4l-.67-2.55c1.4-.44,1.5-.43,1.63.43.07.42.42,1.08-.5,1.12l.3.85Z"/><path class="cls-1" d="M22,155.52l-.92.15.07-1c-.3.22-.6.61-.83.57a5.16,5.16,0,0,1-1.31-.6l.11-.25,1.51.44v-1.16l.61.32.1-.65c.27.16.63.25.66.4.11.57.58,1.18,0,1.75Z"/><path class="cls-1" d="M69.89,32.66a4.15,4.15,0,0,0,.94.27c.2,0,.41-.18.62-.28A2.39,2.39,0,0,0,71,32.2c-.15-.1-.41-.08-.54-.2s-.61-.53-.59-.77a1,1,0,0,1,.68-.68,4.74,4.74,0,0,1,1.35.12l0,.35a4.92,4.92,0,0,0-.86-.09,1.91,1.91,0,0,0-.57.23,4.75,4.75,0,0,0,.39.46.77.77,0,0,0,.31.12c.51.15,1,.35.82,1s-.8.72-1.37.61a3.51,3.51,0,0,1-.88-.43Z"/><path class="cls-1" d="M42.26,169.36c-.46-.31-1.13-.56-1.12-.79a6.08,6.08,0,0,1,.56-1.69l-.82-.32c1-.54,1.47-.29,1.5.61,0,.56,0,1.12,0,1.67A2.92,2.92,0,0,1,42.26,169.36Z"/><path class="cls-1" d="M22.14,103.83c-.16-.11-.46-.21-.46-.32a6,6,0,0,1,.13-1.69,1,1,0,0,0-.21-1.13,1.48,1.48,0,0,1-.27-.51c-.2-.51-.39-1-.66-1.72l.66-.25c.06.24.12.48.18.72s0,.34.09.46c.91,1.32.48,2.85.74,4.27Z"/><path class="cls-1" d="M17.63,102.65l.1-1.85.25-.08c.21.19.49.35.6.58a13.05,13.05,0,0,1,.7,1.81,1.91,1.91,0,0,1-.08.72,3.59,3.59,0,0,1-.69-.22c-.4-.23-.19-1-.91-1Z"/><path class="cls-1" d="M16.47,158.9c-.94-.08-1.36-.79-.84-2.27l.26.87c.78-.47,0-1.2.37-1.71a4.63,4.63,0,0,1,.67,1.49A5.06,5.06,0,0,1,16.47,158.9Z"/><path class="cls-1" d="M44.43,32.8c-.73.75-1.46.78-2,.19a1.49,1.49,0,0,1-.06-2c.6-.64,1.37-.65,2.31.18-1.1-.15-2.38-.58-2.15,1C42.64,33.28,43.65,32.87,44.43,32.8Z"/><path class="cls-1" d="M76.58,96.73c.26.74-.32,1.64.26,2.16l-.32,2h-.15l-.13-1.76-1.53-.1v-.17a3.46,3.46,0,0,1,.43,0c1.19.05,1.2,0,1.18-1.17,0-.34,0-.67,0-1Z"/><path class="cls-1" d="M290,31.82l-.29,2.06h-.17l-.12-1.81H288v-.24a4,4,0,0,1,.6,0c.75.11,1.09-.16,1-.95a3.52,3.52,0,0,1,.1-1.24C290.13,30.38,289.4,31.35,290,31.82Z"/><path class="cls-1" d="M56,30.44l.12,2.47,1.2.12v.26H55.66V30.46Z"/><path class="cls-1" d="M132.79,156.67l1.36-.29,0,.35,1.08.54-.58-.27-.39,1.25-1.42-1.51Z"/><path class="cls-1" d="M133.44,150.4c.17-.41.32-.83.52-1.22,0,0,.37,0,.53.13.53.28.46.75.27,1.19-.06.14-.33.24-.52.25a2.94,2.94,0,0,1-.71-.12Z"/><path class="cls-1" d="M17.82,154.68l-.38-.67.6-.17c.41.77.23,2.69-.36,2.93l0-.92-.51.29Z"/><path class="cls-1" d="M128.85,96.52h1.48l0,.19L129,96.9c-.09.58-.35,1.11.61,1.35s1.12,1.27.15,2.12c.1-.4.4-.91.26-1.27s-.69-.53-1.15-.85V96.52Z"/><path class="cls-1" d="M25.65,96.67a2.23,2.23,0,0,1,.14,3Z"/><path class="cls-1" d="M309.9,102.49l-1.08-.66.55-.52c-.08-.14-.22-.27-.19-.36a2.41,2.41,0,0,1,.27-.54c.15.11.42.22.43.34C309.93,101.33,309.9,101.91,309.9,102.49Z"/><path class="cls-1" d="M234.5,96.52a1.8,1.8,0,0,1,.19.53c0,1.28,0,2.56,0,3.88h-.39V96.59Z"/><path class="cls-1" d="M127.44,96.52a3.4,3.4,0,0,1,.13.7c0,1.25-.06,2.5-.11,3.75h-.27V96.59Z"/><path class="cls-1" d="M73.38,101v-4.6c.2.29.38.42.38.55,0,1.35,0,2.7-.05,4Z"/><path class="cls-1" d="M75.77,165a1.18,1.18,0,0,0,.68,1.69c1.13.6,1.33,1.68.51,2.28,0-.37.2-.83.06-1.16a2.6,2.6,0,0,0-.93-.87C75.27,166.34,75.14,165.73,75.77,165Z"/><path class="cls-1" d="M125.09,148.89l-.16-1.4,1-.45.64.54-1.45,1.31Z"/><path class="cls-1" d="M40.81,33.47a3.84,3.84,0,0,1,0-3.21Z"/><path class="cls-1" d="M20.64,160.93c.47-.29.54-1.12,1.36-1,0,.71-1.41.51-.7,1.53l-.25.12c-.26-.16-.52-.32-.77-.5s-.37-.31-.56-.47l-.26.16c.08-.17.11-.41.24-.49C20.43,159.83,20.29,160.74,20.64,160.93Z"/><path class="cls-1" d="M187.3,84.6v5.11h.09L187,84.6Z"/><path class="cls-1" d="M26.27,90.58c.23.3.44.47.49.68a.92.92,0,0,0,.8.78c.24.06.38.55.48.9C27.14,92.44,26.16,92,26.27,90.58Z"/><path class="cls-1" d="M40.94,101.19c1.43-.41,1.53-.3,1.45,1Z"/><path class="cls-1" d="M149.37,40.51,148.23,40c.26-.21.53-.6.78-.58s.45.45.68.69Z"/><path class="cls-1" d="M15.06,160.68l.53-.34-.19,1-.3,0-.18-1-.28-1.5C15.3,159,15.55,159.76,15.06,160.68Z"/><path class="cls-1" d="M309.81,129.42l-2.91-.29,0-.26,2.93.21Z"/><path class="cls-1" d="M21.65,163.82l.77-.14.32.9-2.12-1.09,1.22-.58.14.16Z"/><path class="cls-1" d="M20.78,90,19,90.37l-.06-.3c.53-.36,1.05-.77,1.76-.37Z"/><path class="cls-1" d="M22,155.52c.55.87-.5,1.52-.23,2.41-1-.32-.48-.91-.35-1.33a5.92,5.92,0,0,1,.58-1.08Z"/><path class="cls-1" d="M23.92,162.62c.09-.32.54-.76-.42-.85.84-.06,1.54.77,2.06-.29C25.31,162.49,24.81,162.82,23.92,162.62Z"/><path class="cls-1" d="M184,168.63v-3.34A3.44,3.44,0,0,1,184,168.63Z"/><path class="cls-1" d="M182.64,168.69a4.26,4.26,0,0,1,0-3.61Z"/><path class="cls-1" d="M28.47,125.36l2.08.61c-1.09.73-1.39-.6-2.15-.32Z"/><path class="cls-1" d="M19.73,153.19l-1.49-.84.51-.57L19.88,153Z"/><path class="cls-1" d="M182.64,31.1c-.06-1.23-.17-1.31-1.6-1.27a1,1,0,0,1,1.43-.19C183,30,183,30.43,182.64,31.1Z"/><path class="cls-1" d="M291.08,166c0-1-.11-1.08-1.59-1.1a1,1,0,0,1,1.51-.1c.26.25.26.76.37,1.16Z"/><path class="cls-1" d="M74.35,166.33c-.07-1.19-.21-1.3-1.5-1.22a.94.94,0,0,1,1.32-.21C74.66,165.24,74.74,165.68,74.35,166.33Z"/><path class="cls-1" d="M287.64,166.41c.37.21.89.34,1.08.66s0,.81-.16,1.24c.23-.94-.15-1.43-1.16-1.54Z"/><path class="cls-1" d="M180.09,166.85a.88.88,0,0,1,1.32.36,1.73,1.73,0,0,1-.16,1.27C181.63,167.45,180.94,167.14,180.09,166.85Z"/><path class="cls-1" d="M236.14,33.35c.41-1-.14-1.34-1-1.54a.8.8,0,0,1,1.16.16A.87.87,0,0,1,236.14,33.35Z"/><path class="cls-1" d="M235.48,96.58h2.2l0,.14h-2.21Z"/><path class="cls-1" d="M15,167.73l1.11.81C14.91,168.44,14.9,168.43,15,167.73Z"/><path class="cls-1" d="M29,151l-.52-.31.17-1,.59.07Z"/><path class="cls-1" d="M238.08,151l.3.68-1.2.26,0-.14Z"/><path class="cls-1" d="M234.8,29.67a4.52,4.52,0,0,1,1.3.2c.19.09.21.55.19.93-.15-1-.87-.86-1.55-.76Z"/><path class="cls-1" d="M288.43,165.79c0-1.08-.68-.94-1.4-.76l.06-.35a3.57,3.57,0,0,1,1.24.09c.22.1.27.57.4.87Z"/><path class="cls-1" d="M181.13,165.94c.09-1.14-.76-.8-1.37-.82l0-.3a3.87,3.87,0,0,1,1.27.13c.21.09.24.57.35.88Z"/><path class="cls-1" d="M181,33.66h2v.13h-2Z"/><path class="cls-1" d="M72.69,168.92h2v.2l-2,.09Z"/><path class="cls-1" d="M289.42,168.78h2v.12h-2Z"/><path class="cls-1" d="M21.38,153.05a13.41,13.41,0,0,1-.11-1.46,2.55,2.55,0,0,1,.6-.11L21.48,153Z"/><path class="cls-1" d="M42.39,136.12V138C41.75,137.34,42.09,136.72,42.39,136.12Z"/><path class="cls-1" d="M241.08,165.92l-1.09-1a1.3,1.3,0,0,0,.22-1.9,5.07,5.07,0,0,1-.48-.8,5.84,5.84,0,0,1-1.68-.61c-.51-.39-.79-.31-1.15.17l-.2-.12.18-1.24h-1.6l.52-1.31c.53,1.25,1,.72,1.48.13-.11-.2-.37-.47-.31-.61s.4-.35.5-.43c.25.37.38.57.52.77.6.83,1.2,1.66,1.79,2.5.06.08,0,.3.08.31,1.2.16.73,1.41,1.29,2a.43.43,0,0,1,.1.3C241.22,164.59,241.15,165.17,241.08,165.92Z"/><path class="cls-1" d="M232.23,155a1,1,0,0,1,.46,1.56,12.05,12.05,0,0,0-.58,1.28l.28.14,1.09-1.49c.7,1.15.66,1.15-.25,1.82a4.71,4.71,0,0,0-.83,1.11C231.8,158.85,231.66,156.09,232.23,155Z"/><path class="cls-1" d="M238.5,174c-.34-.34-.81-.62-1-1s.51-1.15,1-1.11c.81.06.68.78.75,1.27,0,.32.09.95-.67.69Z"/><path class="cls-1" d="M242.24,168.79a1.06,1.06,0,0,1-.84-1.22,26.15,26.15,0,0,1,.2-3.33c0,.77,0,1.55,0,2.32a3.38,3.38,0,0,0,.38,1.09c.16.34.37.66.56,1Z"/><path class="cls-1" d="M235.88,156.09l.87.78c-.24.23-.45.56-.73.64s-.68-.28-.67-.41C235.37,156.81,235.62,156.54,235.88,156.09Z"/><path class="cls-1" d="M234.16,153.4c.2.41.55.89-.1,1.15a.91.91,0,0,1-.83-.3C232.91,153.37,233.86,153.72,234.16,153.4Z"/><path class="cls-1" d="M233.88,175.13,233.8,174l-.47.31-.11-.81c.26,0,.6-.1.71,0A1,1,0,0,1,233.88,175.13Z"/><path class="cls-1" d="M237.56,163.52c-.22-.36-.47-.58-.45-.79s.31-.35.49-.52c.17.19.47.37.48.56S237.8,163.18,237.56,163.52Z"/><path class="cls-1" d="M233.64,172.13l-.87.24v-1.32l1,.84Z"/><path class="cls-1" d="M232.49,161.78l.33,1.24-.85.23-.19-.22Z"/><path class="cls-1" d="M238.43,168.27l-.07-.77c.37.09.74.17,1.11.28.11,0,.19.15.28.23-.09.1-.18.28-.28.29A8.86,8.86,0,0,1,238.43,168.27Z"/><path class="cls-1" d="M238.6,157.81a7,7,0,0,1,.38,1c0,.1-.22.26-.46.51l-.24-1.39Z"/><path class="cls-1" d="M234.74,172.58c-.24-.26-.46-.41-.5-.59s.28-.43.36-.4a1.23,1.23,0,0,1,.56.44S234.94,172.32,234.74,172.58Z"/><path class="cls-1" d="M129.69,177c.37,2.78-.26,5.52-.32,8.29C128.55,182.45,129.3,179.71,129.69,177Z"/><path class="cls-1" d="M132.76,166.84l.76-.13,1.24-2.44c.72.77-.18,1.43,0,2.12C134.84,166.69,133.48,167.07,132.76,166.84Z"/><path class="cls-1" d="M126.33,162.16c-.08-.49-.31-.94-.17-1.22s.63-.4,1-.53c.08,0,.36.21.37.34a.94.94,0,0,1-.2.63A7.58,7.58,0,0,1,126.33,162.16Z"/><path class="cls-1" d="M131.34,162.93l.87-.66.2.17v-.66a1.94,1.94,0,0,1,.67,0,3.17,3.17,0,0,1,.65.43c-.15.17-.27.43-.46.48a13.16,13.16,0,0,1-1.48.26v.26l-.47-.28Z"/><path class="cls-1" d="M130.18,165.32c-.24.29-.64.85-.7.81-.49-.29-1.06-.59-1-1.38l1.66.57Z"/><path class="cls-1" d="M126,167.12c-.43-.32-.71-.51-1-.74s-.25-.31-.22-.4.33-.36.4-.33a2.76,2.76,0,0,1,.95.67C126.3,166.45,126.1,166.83,126,167.12Z"/><path class="cls-1" d="M134.62,162.89l-.19,1.11c-.32-.13-.65-.24-1-.38a7,7,0,0,1-.76-.54Z"/><path class="cls-1" d="M132.65,165.71,131.2,167c-.36-.17-.36-.44-.11-.85A1.15,1.15,0,0,1,132.65,165.71Z"/><path class="cls-1" d="M131.1,155.55a9.2,9.2,0,0,1-.47-1.41c0-.08.47-.26.8-.44v1.77Z"/><path class="cls-1" d="M130.18,165.32l-.5-.66-.67-.87c.49,0,.67.05.86.05.56,0,.76.22.5.77a4.18,4.18,0,0,0-.19.71Z"/><path class="cls-1" d="M129.73,167.58l-1.16-.25a4.19,4.19,0,0,1,.21-.8.48.48,0,0,1,.45,0,11.07,11.07,0,0,1,.73,1Z"/><path class="cls-1" d="M133.62,165.09c-.46.9-.65.82-1.51-.71Z"/><path class="cls-1" d="M128.3,167.89l-.07.87a8.84,8.84,0,0,1-1,0c-.13,0-.34-.2-.33-.27a.59.59,0,0,1,.3-.4A8.4,8.4,0,0,1,128.3,167.89Z"/><path class="cls-1" d="M125.25,164.1c-.1-.15-.32-.38-.28-.44a.94.94,0,0,1,.52-.39c.09,0,.36.25.36.39a1.76,1.76,0,0,1-.24.63Z"/><path class="cls-1" d="M131.32,162.9c0,.07-.07.18-.14.2-.24.11-.5.19-.75.29l0-1.07.85.6Z"/><path class="cls-1" d="M25.8,171.08c.34-.3.74-.84.94-.77.43.14.75.6,1.12.92l-.15.17-.71-.34-1.1.93-.65-.91Z"/><path class="cls-1" d="M25.64,173.43l.58-.86.22.09.31,1.37-.9.22-.24-.84Z"/><path class="cls-1" d="M25.64,173.43l0,0-.23.79-.6-1.06.29-.27-.83-.09.14-1Z"/><path class="cls-1" d="M334.24,6.52a2,2,0,0,1,.16-.71c.06-.11.42-.06.65-.08,0,.15,0,.37,0,.42A5.25,5.25,0,0,1,334.24,6.52Z"/><path class="cls-1" d="M129.84,14.42l-.76.55.1.16a1.56,1.56,0,0,0,.35-.09c1.05-.56,1.06-.57,1.81.39.38.48.74,1,1.16,1.54l-1.13.86-1.87-2.37-.54,1.1-.23,0a5,5,0,0,1-.35-1.92c.13-.56.76-1,1.2-1.53l-1.12.61v-.2l-3.52.39a4.94,4.94,0,0,1,3.78-1.75c-.5-.53-1.11-1-.69-1.56l2.19-.63c.17,0,.42-.16.52-.08,1.1.75,2.49,1.19,3,2.89-1-.11-1.81-.22-2.67-.29-.29,0-.78,0-.84.15A9.77,9.77,0,0,0,129.84,14.42Z"/><path class="cls-1" d="M131.85,6.54c-.16.29-.33.59-.48.88a4.6,4.6,0,0,0-.35.8c-.3,1.09-.89,1.73-1.72,1.82a.89.89,0,0,1-1.09-.67c-.07-.24-.16-.48-.24-.71-.41-1.08-.32-1.34.49-1.9a5.77,5.77,0,0,1,.32-1.42c.2-.38.73-1,.88-.92a3.6,3.6,0,0,1,1.23,1c.17.19.13.54.25.78s.27.2.41.29Z"/><path class="cls-1" d="M128.4,53.46c-.11-1-.26-2.05-.32-3.08-.14-2.2-.21-4.4-.36-6.59,0-.69.19-.85.7-.74a7.68,7.68,0,0,1,.87,2,15.12,15.12,0,0,1,.07,3.83c-.11.83-.74,1.57-.56,2.53a8.48,8.48,0,0,1,0,1.74,1.15,1.15,0,0,1-.1.31Z"/><path class="cls-1" d="M127.37,52.7c-.28-1.06-.62-2.12-.82-3.19-.25-1.34-.41-2.7-.56-4.05a2.38,2.38,0,0,1,.21-.81,2.26,2.26,0,0,1,.39.68c.34,2.11.64,4.23,1,6.34l.14,1Z"/><path class="cls-1" d="M129,21.51l.17,1.8c-.74-.13-1.61,0-2-.42a1.77,1.77,0,0,1,.06-1.75c.51-.36,1.37-.24,2.08-.32l0,.41c-.42,0-.84,0-1.26,0-.62,0-.53.43-.55.8s-.15.74.41.83.74-.12.75-.62c0-.23,0-.46,0-.69Z"/><path class="cls-1" d="M125.22,9.86c-.05-.24-.12-.48-.16-.73a1.07,1.07,0,0,0-1.07-1c-.15,0-.29-.15-.43-.24.09-.15.15-.38.29-.45.83-.44,1.53-.4,1.6.77,0,.54.08,1.07.12,1.61Z"/><path class="cls-1" d="M136.58,25.25a1.65,1.65,0,0,1-.48-1.82c0-.14.28-.21.43-.31.1.15.29.3.28.44C136.78,24.07,136.68,24.57,136.58,25.25Z"/><path class="cls-1" d="M125.07,4.69a1.09,1.09,0,0,1,.51-1.35.54.54,0,0,1,.39.15,1,1,0,0,1-.18.53A7.84,7.84,0,0,1,125.07,4.69Z"/><path class="cls-1" d="M124.65,10l.26,1a2.46,2.46,0,0,1-.49.07,8.58,8.58,0,0,1-.23-.94Z"/><path class="cls-1" d="M292.89,82.91l-1.13-1.56.88-.65-1.17-.52.12-.24a9,9,0,0,1,1.06.27.87.87,0,0,1,.47.4c.14.35.28.4.7.29a2.61,2.61,0,0,1,.83.05c-.19.19-.37.4-.57.57a8.74,8.74,0,0,0-.8.65A3.23,3.23,0,0,0,292.89,82.91Z"/><path class="cls-1" d="M289.75,86.93c.3-.11.57-.19.83-.31a.5.5,0,0,0,.27-.23c.24-.71.53-.63.86-.1l-.6,1,.82-.4.24.27-1.09.61.16.23,1-.11c-.29.3-.44.58-.59.58C290.66,88.52,290.19,87.81,289.75,86.93Z"/><path class="cls-1" d="M288.36,91.5l-1.8-.47c.6-.4,1.28-.51,1.28-1.35a1,1,0,0,1,.56-.08.52.52,0,0,1,.14.46c-.3.37-.45.69,0,1.06C288.56,91.14,288.41,91.39,288.36,91.5Z"/><path class="cls-1" d="M291.05,81.59c.58.49.73.9.86,2.36C290.95,83.59,290.8,83.19,291.05,81.59Z"/><path class="cls-1" d="M290.49,84.11,290,85.17l-1.72-.68,1.92-.52Z"/><path class="cls-1" d="M284.5,93.17l.53,1.25-.88.54.14-1-.88.05v-.18Z"/><path class="cls-1" d="M294.79,82.5l.74-.49.55.75-.85,1Z"/><path class="cls-1" d="M288.61,72.59c.27.37.58.63.53.75a1.06,1.06,0,0,1-.61.54c-.1,0-.48-.32-.46-.48S288.34,73,288.61,72.59Z"/><path class="cls-1" d="M292,96.53l-.54.67-1-1.43.19-.16Z"/><path class="cls-1" d="M290.67,93.24l-.83-1.39.13-.14,1.89,1.49-.09.12c-.17-.11-.33-.28-.5-.3S290.9,93.15,290.67,93.24Z"/><path class="cls-1" d="M285.85,97.43l-.4-1h1.24l-.57,1.13Z"/><path class="cls-1" d="M290.5,79.56c-.39.19-.77.4-1.17.55-.1,0-.27-.1-.41-.16.06-.13.1-.35.2-.38.42-.14.85-.23,1.28-.34Z"/><path class="cls-1" d="M287.58,83l-1.1,2.14c-.27-.93.56-1.49.83-2.23Z"/><path class="cls-1" d="M290.69,91.54l1.2-.76.26.57-1.31.39Z"/><path class="cls-1" d="M286.35,89c-1.08-.19-.05-1.09-.86-1.34C285.86,87.63,286.05,88.06,286.35,89Z"/><path class="cls-1" d="M284.71,91.78l-.2.55-1.08.1-.07-.12,1.21-.75Z"/><path class="cls-1" d="M22,107.23l-.22,8.56h-.25a6,6,0,0,1-.12-1c.06-2.17.13-4.35.24-6.52a4.25,4.25,0,0,1,.36-1.09Z"/><path class="cls-1" d="M19.43,75.6l-1,.4.09-1,.93.36Z"/><path class="cls-1" d="M22.38,73.43a2.72,2.72,0,0,1-.74.37c-.11,0-.24-.21-.36-.32.15-.16.28-.39.46-.45S22.05,73.21,22.38,73.43Z"/><path class="cls-1" d="M181.55,73.6a1.25,1.25,0,0,0-.2-.37.77.77,0,0,1,0-1.32,1.36,1.36,0,0,1,1.88-.13c.46.43.37.78-.22,1a3.57,3.57,0,0,0-.69.51l.11.31h1.46l.15.61.4-.57.24.08a6.28,6.28,0,0,1-.3.89c-.22.43-.52.81-.72,1.25a1.51,1.51,0,0,1-2.36.55A4.08,4.08,0,0,1,180.4,75C180.09,74,181.1,74.09,181.55,73.6Z"/><path class="cls-1" d="M185.68,73.48c-.31-.43-.64-.85-.93-1.3a.35.35,0,0,1,.12-.32.39.39,0,0,1,.37,0c.29.45.55.93.82,1.4Z"/><path class="cls-1" d="M182.65,69.71c-.07-.27-.28-.61-.18-.79s.49-.37.74-.54l.16.19-.45,1.07Z"/><path class="cls-1" d="M23,150.76c-.31-1.11.45-1.73.75-2.49C23.92,149.14,24.09,150,23,150.76Z"/><path class="cls-1" d="M130.44,149.59a.77.77,0,0,1-.75,1c-.32,0-.72-.39-.93-.71-.37-.58.08-.89.49-1.17.54.19.4,1.17,1.21.92Z"/><path class="cls-1" d="M124.79,157.48h-1.66c.31-.67.54-1.36,1.34-1.52l.23.23-.28.09Z"/><path class="cls-1" d="M124.3,152.26a5.06,5.06,0,0,1-.67.47,3.89,3.89,0,0,1-.7-.91c0-.07.27-.32.42-.49Z"/><path class="cls-1" d="M67.12,32.25V30.84a8.5,8.5,0,0,1,1.33.32c.09,0,.12.6,0,.64A9.69,9.69,0,0,1,67.12,32.25Z"/><path class="cls-1" d="M64.24,33a1,1,0,0,1-1-1,1,1,0,0,1,1-1.07.94.94,0,0,1,1,1A1,1,0,0,1,64.24,33Z"/><path class="cls-1" d="M50.24,31l.54,1.26H49.71Z"/></g></g></svg>