<svg xmlns="http://www.w3.org/2000/svg" viewBox="0 0 244.28 341.53"><defs><style>.cls-1{fill:none;stroke:#000;stroke-miterlimit:10;stroke-width:0.5px;}</style></defs><title>Asset 24</title><g id="Layer_2" data-name="Layer 2"><g id="Pics"><path class="cls-1" d="M225.23,197.43a9.13,9.13,0,0,1,1.6,1.27c1.06,1.3,2,1.21,3.63-.57l-5.3-.67-1.31-2.93h5.47l-4.69-4.4-.46.53,1.59,1.26L219.25,193l.11,1,4.64.43-3.41,1.23-.2.56C222,196.63,223.6,197,225.23,197.43ZM39.88,22.55a1.65,1.65,0,0,1-.09.24c-.79,1.26-2.26,2.59.78,3,.55.08.87,1.69,1.44,2.92l1.42-.22,1,2.3c4.55-1.1,1.25-3.27.43-5.3L51.44,29c0-.38-.23-1-.1-1.09,1.87-1.09,1.23-1.47-.39-1.94a29.75,29.75,0,0,1-3.8-1.66A10.49,10.49,0,0,0,48.22,22c.08-.36-.85-1.29-.89-1.27-2.33,1.46-3-.83-4.27-1.79-.27-.21-.76-.12-1.16-.17.92-1.87,2.19-3,4.77-2.16L43.93,17c1.39.89,2.35,2.92,4.39,1.21a1.57,1.57,0,0,1,2.61.49c.46.82,1.48,1.32,2.25,2l.69-.35V30.9c3.45-2.6,4.36-9.68-.19-13.83-4-3.64-10.15-5-13.69-.61l1.86,2.18-2.69-.79C37.75,19.84,38.2,21.3,39.88,22.55Zm-29,281.37c-3.73-1.71-3.48,1.67-4.54,3.49a8.41,8.41,0,0,0,1-.07c2.11-.42,3.67-2,3.41-3.49,2.12.11,2,1.26.51,3.28l2.8-1.89L13,301C10.29,302.26,10.18,302.42,10.91,303.92ZM106.42,39.16l-.11-.1.86,2.25a4.26,4.26,0,0,0,.71-.64,9,9,0,0,0-2.06-11.19c-3.75-3.21-9.22-3.84-12.26-1.25A9.82,9.82,0,0,0,91.95,31l.57.34-1.9.66L95,34.7l3.37-2.09-.16.57,4.71,1.55-.66.92c2.21,1-.46,1.44-.4,2.45l-2.23-1.54c-2,.14-4,.23-5.85.41a7.5,7.5,0,0,0-1.59.52c.52.36,1,.93,1.58,1,1.42.24,2.87.27,4.31.38L94.57,41l3.31,1.71.18-3.86L98,38.59c.08,0,.19,0,.24,0,.47.34.93.7,1,.79,1.47-.16,2.76-.6,3.84-.31.91.25,1.58,1.36,2.37,2.09Zm72.29,83.3-.4,3.17.48.25,2.46-2.64a4.74,4.74,0,0,1-.34,1.37c-1,1.72-.91,2.8,1.12,3.81a19.4,19.4,0,0,1,4.35,3.54,7.81,7.81,0,0,1,1.12,2.12l1.81-.87c-1.14,1.82.72,1.3,1.46,1.78l-2.1,3c3.89-3.25,8.13-6.27,8.35-12.07-1.64,1.9-3.28,2-5.38.83-2.92-1.67-6-3-9.19-4.61l-1.29,1.15.15-3L179,122.22c-.12.1-.23.22-.35.32,1.25-3.31,1.6-6.5-1.43-9.22l2.36-3.32c-3,1.44-4.25,2.81-5.87,6.31-.74,1.6,1.47,6.58,3.17,6.89C177.41,123.3,178.08,122.73,178.71,122.46Zm37.08,130.21-.28,1.84c-2.25-.74-3.48.13-3.91,2.29-.13.68-.94,1.25-1.52,1.79a8.44,8.44,0,0,1-1.42.88,9.85,9.85,0,0,1,2.49,1.61c1.19,1.55,2.12,3.3,3.26,4.9A6,6,0,0,0,216,267.1l.68-1.32,3-1c5.81-4,4.94-9.45,1.64-13.22-3.53-4-9.8-4.66-13.34-1.71l2,4.41c.39-.12,1.23-.38,2.09-.61C213.32,253.28,214.56,253,215.79,252.67ZM59.66,38c-1.16.33-2.32.62-3.46,1-2,.66-3.57,1.74-3,4.13l-2.91,1.23.09.77c3.86-.12,4.34,3.48,6.55,5.56a19,19,0,0,0,.6-4.63c.1-2.2-.39-4.53,1.67-6.25.39-.33.35-1.19.5-1.8-1.71-.28-3.2-.9-4-2.65,1.55.39,3.25.8,4.23,1.86.65.71.46,2.39.28,3.59-.11.78-1.22,1.43-1.29,2.19-.18,2.21-.07,4.45-.07,6.54,1.69,1.32,3,.76,4.21-.43,1.7-1.7,3.17-3.65,2.69-6.16a20.72,20.72,0,0,0-2-5.54c-2.13-4.09-9.08-5.9-13-3.49-.94.58-1.6,1.25-.76,2.54a23.55,23.55,0,0,1,1.57,3.68C53.65,38.82,56.3,37,59.66,38Zm67.06,22.53-1.38,8c1.84-.13,3.25.2,4-.36A8.1,8.1,0,0,0,133,60.7c-.58-6.6-8.16-11.1-14.23-8.54-2.17.92-2.67,2.06-1.71,4.12a27.42,27.42,0,0,0,1.45,2.47l5.3-3.19-1-1.23a7.38,7.38,0,0,1,3.49.81c2,.95,2.15,2.72.6,4.4-.22.24-.2.7-.3,1.06Zm35.7,253.28-.86.6c.65.42,1.74,1.3,1.89,1.17a7.15,7.15,0,0,0,2.12-2.78,9.66,9.66,0,0,0-3.7-10.29c-3.23-2.35-7.93-2.85-10.86-.63-1.41,1.07-2.15,3-3.09,4.44.85.48,1.43.86,2.06,1.14s1.24.65,1.68.49c4.45-1.69,6.7-.57,7.84,3.87.14.54,1,.93,1.54,1.32a11.13,11.13,0,0,0,1.37.71Zm-146-169.17c.24.12.64.18.7.36,1.51,4.36,3,8.75-.94,12.43l3.69.89c.72-2.27,1.66-4.72,2.25-7.25.39-1.68.8-3.65.3-5.2-1.32-4.1-5.85-6.25-10.94-5.61-4.35.55-6.2,3.87-7.38,7.72-.11.36.32,1.26.62,1.32,2.21.43,1.18,2.29,1.59,3.47s.44,2.41.87,3.53c.15.38,1,.49,1.52.73A6.46,6.46,0,0,0,9,155.38c-.32-3.23-.91-6.46-1-9.69,0-1.28,1.15-2.57,1.77-3.85l.59.2,2.89,15.25c.4-.77.61-1.72,1-1.8,2.37-.51,3-2.16,2.86-4.21-.12-2.23-.42-4.46-.64-6.68ZM190,223.17l.08-.09c-2,2.73-.39,5.35.17,8,.47,2.28,1.28,1.75,2.42.36a4.69,4.69,0,0,1,.47,1.22,4.88,4.88,0,0,0,4.5,4.74c5.3.84,11.58-5.22,9.26-12.27-1.22-3.72-5.35-7.1-8.17-6.35a45.53,45.53,0,0,0-6.81,2.65A8.56,8.56,0,0,0,190,223.17Zm21.15-12.24c.17-3.48-.25-6.74-3-9.3-2.59-2.38-6.79-3.45-9.43-1.91.94.21,1.59.33,2.22.49,1.8.48,4.09.46,5.28,1.59,2,1.86,4.59,3.7,4.06,7.19-.08.56.63,1.23,1,1.86-.16,1.5-.64,3.05-.41,4.49,1.37,8.52,10.47,12.1,18.1,6.88,3.77-2.59,4.91-7.56,2.94-12.39a11.3,11.3,0,0,0-11.58-6.64C215.6,203.88,212.89,206.8,211.16,210.93Zm-9.65,111.35c4.88-.51,6.41-1,7.46-5.27,1.46-6-1.69-10-7.33-12.57,5.66-1.9,8.49-5.51,8.11-11.22a8.19,8.19,0,0,0-5.82-7.55,1.52,1.52,0,0,0,.55.43c3.84,2.4,4.58,6.16,3.8,10.12a8.77,8.77,0,0,1-5.83,6.85c-2,.68-4.23.7-6,1.7a62,62,0,0,0-6.9,5.16c-3.09-7.51-7.06-10.42-13.16-9.33a11.45,11.45,0,0,0-9.1,10.78c-.13,4.35,3.6,9.06,8.14,10.29,5.76,1.55,11-1.43,14.37-8.11,2.76-.31,2.14,2.2,2.2,3.28.2,3.57,1.42,5.56,5,6.41,1.64.4,3.6,1.61,4.61-1ZM172.22,98.74c-1.72-.83-3.42-1.72-5.18-2.46-2.76-1.17-5.54-2.63-8.58-.86l3.35,7.55L166,99.45l6.29-.76-2.52,2.2.27.33,2.24-.92c-2.08,2.25-1.15,10.16,1.11,12.31l-.94,3c2.19-3.32,4.24-6.6,8.05-8.23,3.24-1.39,3.5-1.3,5,1.41l6.33,1.24-1.93-1.36c3.17-3.61,4.07-7.52,1.82-11.71-2.58-4.8-6.84-6-12.16-4.76a11.85,11.85,0,0,1,.44-1.61c3.25-7.1-1.29-14.57-9.12-14.76-3.45-.08-8,1.27-8.59,5.17-.38,2.53-2,5.52,1,7.71-1.47,3.7,3.77,2.59,3.75,5.25,2.42,0,4.85.11,7.26-.07a15.43,15.43,0,0,0,3.51-1.13c-1.17,1.85-2.12,3.59-3.33,5.12C174.07,98.43,173,98.46,172.22,98.74ZM31.77,57.31c-1.31,2.68-.64,6.09,1,6.75l-.31,2,2.42-.94c-.06,3.86,1.95,6,5.92,6.22-5.4,7.25-6,12.77-2,17.07C44,94,49.54,94,54.18,90.59c2.76-2,3.95-5,4.34-8.33S57.8,76,55.36,72.8c1.11.47,1.53.66,2,.83,4.63,1.85,8.3.73,11.18-3.31a5.36,5.36,0,0,1,2-1.77,4.91,4.91,0,0,0,2.9-5.82c-.81-4.08-2.24-8.09-6.69-9.6a57.49,57.49,0,0,0-8.72-1.91c-.45-.08-1.1.69-1.58,1.15s-.63,1-1.07,1.32a11.92,11.92,0,0,0-2.68,16,23.84,23.84,0,0,0,2,2.31L46,68.86a1.84,1.84,0,0,1,.34-.37c5-4.18,3.23-11.58-1.62-15-3.78-2.7-6.77.33-10,1.14-1.17.29-2,1.83-3,2.8Zm141.46-6.63c-.63,10.68,5,19.14,14.62,21.77a19.86,19.86,0,0,0,16.91-2.9c5.21-3.45,7.89-8.53,9-15,2.68,6.21,7.18,10.24,11.66,10.75l-.54-1.12c6.16-1.2,9.83-2.44,10.56-9.07.24-2.2,1.31-4.62.72-6.55-2.5-8.2-15.34-9.79-19.47-3.45-1.06,1.62-1.95,3.35-3,5.24a49.79,49.79,0,0,0-2.33-6.51,19.44,19.44,0,0,0-13.63-10.37c-5.88-1.25-11.76-1.22-16.37,3.54-2.68,2.76-5.08,5.8-7.36,8.43-1.27-5.62-4.54-8.91-9.58-9.14-3.67-.17-7.87,2.55-8.78,5.69-1,3.31,1.54,9.48,4.65,11.46C164.19,56,168.63,55,173.23,50.69ZM103.49,14C100.77,6.28,97,3,91.53,3.39c-5.11.33-9.59,4.62-10.75,10.3a11.41,11.41,0,0,0,6.54,12.12,15.4,15.4,0,0,0,7.05,1c3.86-.33,6.46-2.92,8.31-6.38,3.8,7.64,8.25,10.56,14,9.37s9.17-5.06,9.54-10.66c.29-4.37-3.1-9.89-7.13-11.17C113.71,6.25,107.08,7.23,103.49,14ZM43.4,210.86a20.34,20.34,0,0,0-.51-2.17c-1.09-3-.79-6.43-3.42-9-1.72-1.71-2.68-4.18-3.77-6-.79,10.41,6,17.54,12.64,24.85,3-4.54,5.88-8.82,8.71-13.11a2.44,2.44,0,0,0,.34-1.32c-.05-2.79-.2-5.57-.23-8.36,0-1.64.15-3.28.24-5-3.47.64-4.91,2-5,4.89,0,1.63.62,3.26.84,4.91.13.92.34,2.5,0,2.69a4.09,4.09,0,0,1-3.1.18c-2.7-1.14-4.13-5.48-2.56-8,1.27-2.05.75-3.63-.46-5.31s-2.51-.29-3.81,0a5.92,5.92,0,0,1-2.17-.39c.2-.7.2-1.62.65-2.08,3.17-3.23,6.93-3.24,10.34-.17a3.1,3.1,0,0,0,.83.38c1.33-3.45.9-6.25-1.25-7.15-3.57-1.5-4.07-4.64-4.79-7.94,2.42-.68,3.19.88,4,2.34s1.75,2.86,2.62,4.28a32,32,0,0,0-.64-10c-.38-1.37-2.66-2.9-4.24-3.11-3.44-.46-7.78,4-8.25,8.17l2.39-1.58a55.92,55.92,0,0,1-.41,5.74c-.49,2.86-1.5,4.26-2.8,4.48,1.34-3.85,1.37-5.85.07-7.44-1,4.52-3.69,8.57-3.46,13.62l2.7-4.58a31.34,31.34,0,0,1-.63,5.15c-.62,4.6,1.82,9.28,4.88,10.2.91,2,1.61,3.78,2.51,5.46.65,1.22,1,2.1-.54,2.95C44.53,208.84,44.19,209.77,43.4,210.86ZM6.64,128.22a11.78,11.78,0,0,0,11.55,11.63A12,12,0,0,0,30.37,127.7c0-5.93-6-11.21-12.69-11.2C11.46,116.52,6.66,121.62,6.64,128.22Zm211.6,120.13a11.66,11.66,0,0,0,11.81-11.85A12,12,0,0,0,217.8,225c-6.56.1-11.32,5.22-11.27,12.1C206.57,243,212.2,248.41,218.25,248.35Zm5.51-113.81c-6.15-.75-11.42,4.73-11.78,11.76-.31,6.15,5.09,11.41,11.58,11.57a10.65,10.65,0,0,0,11.14-10.64C234.93,139.91,230.41,134.68,223.76,134.54Zm-5,158.55a11.21,11.21,0,0,0,11.55-11.24c0-6-5.58-11.89-11.05-11.62-8,.39-12.1,4.83-12.27,11A11.54,11.54,0,0,0,218.76,293.09ZM209,306.52a11.78,11.78,0,0,0,11.35,11.55c5.86,0,10.87-5.38,10.91-11.7s-5.17-11.59-11-11.69C214,294.56,208.81,300.68,209,306.52ZM144.87,88.8l.16-.23c1.58.38,3.51.31,4.64,1.24a4.07,4.07,0,0,0,5.21.52c4.26-2.44,6.12-7,5.12-12.54-1.2-6.61-7.24-10.88-13.39-9.46S136.2,77,138,83a6.24,6.24,0,0,0,1.68,2.61,12.19,12.19,0,0,0,2.63,1.5l-.09.22ZM163,12.88c-6.09,0-9.33,2.39-11.54,7.62-1.87,4.43-.64,8.28,2.4,11.62,3.19,3.51,7.24,4.37,11.71,3,4-1.23,6.66-3.83,6.59-8.2,0-2.8,1.7-5.53-.12-8.43A11.28,11.28,0,0,0,163,12.88Zm-12.92,3.48c.12-4.8-2.84-8.58-8.15-10.44-4.42-1.54-9.35-.4-11.53,3.36-1.41,2.44-2.59,5.54-2.39,8.23A10.71,10.71,0,0,0,133.41,26,11.07,11.07,0,0,0,150.05,16.36Zm54.53,74.91a11.1,11.1,0,0,0-10.93,10.78c0,6,5.08,11.22,11.06,10.76,6.45-.49,11.35-4,11.22-10.56C215.82,96,210.94,91.39,204.59,91.27ZM143.42,48.83c1.62-.58,3.23-1.2,4.86-1.72,5.25-1.68,6.89-8.08,4.92-13.24A9.74,9.74,0,0,0,141.07,28a14.21,14.21,0,0,0-1.88.45c-1.47.68-3.25,1.14-4.28,2.26-3,3.27-3.93,7.19-2.1,11.41C134.78,46.62,138.43,48.54,143.42,48.83Zm93.19-17.68c0-5.73-4.35-10-10.38-10.31-5.12-.26-8.34,2.63-9,8.07-.45,3.72,1,6.47,4,8a.91.91,0,0,1,.46.65c0,1.54,1,1.62,2.13,1.56,2.19-.12,4.41-.08,6.56-.42C234.7,38,236.64,35.53,236.61,31.15ZM24.31,99.32c-.26,3.81,3,5.54,5.36,7.12,1.61,1.07,4.54.17,6.88.1.44,0,.87-.35,1.32-.45,2.39-.52,4.37-1.55,5.13-4.08,1.17-4,.51-7.57-2.52-10.46-3.35-3.19-7.28-3.83-11.66-2.27C25.06,90.6,24.08,93.56,24,97c0,.42.79,1,1.34,1.25s1.1-.1,1.65-.17l.1.64ZM76.83,60.16l.18-.41c.32.68.58,1.9,1,1.95,2.59.31,5.26,1.51,7.78-.33.49-.36,1.34-.91,1.63-.73,1.65,1,2.25-.53,2.87-1.27,2.52-3,2.46-7.76.06-11.09-3-4.16-7.64-5.56-12.67-3.82-3.77,1.3-5.23,3.7-4.87,8.61a16.89,16.89,0,0,0,1.42,5.51C74.56,59.34,75.93,59.65,76.83,60.16ZM168,330.34a11.07,11.07,0,0,0-12.93-10.14c-4.87.94-6.93,3.27-6.83,7.78a9.69,9.69,0,0,0,.3,1.6c.34,1.75.31,3.7,1.13,5.18s2.42,2.25,3.7,3.32a.83.83,0,0,0,.69.14c1.11-.45,2.3.46,3,.32a26.19,26.19,0,0,0,8.54-2.92C167,334.75,167.23,332.16,168,330.34Zm55.25-198.71c1.54.39,2.42.85,3.25.77,1.18-.11,2.3-.8,3.48-.92a5.71,5.71,0,0,0,5.07-4.2,10.21,10.21,0,0,0-3.94-11.73c-4-2.66-9.55-2.4-12.84.59a7,7,0,0,0-1.47,7.54l2.77-.19,0,.64-3.57.48c1,1.75,1.64,3.95,3,4.79S221.14,134,223.25,131.64ZM205.4,252.19l.3-1.63c1.16-6.35-2.55-11.49-8.9-12.34-4.37-.58-7.21,1.38-9.52,6.61-.92,2.09.27,5.37,2.86,7.64.94.83,2.55,1.31,2.92,2.29a3,3,0,0,0,4,2.09c3.4-1,6.67-2.49,10-3.76l-.18-.65ZM25.09,315.48c-.84,3.24-3.12,1.55-4.88,2l4.51,12.81-.25.11-8.13-13,.17-.17L18.62,319c-1.26-3-2.31-5.7-3.56-8.3-.3-.62-1.43-1.37-2-1.23a37,37,0,0,0-5,2l15.77,23.63A37.09,37.09,0,0,0,31,312.49c-1.71.89-3.9.83-2.25,3l-2.78.93ZM44.48,42.38c.26-5.54-2.59-9.46-7.37-10.54-5-1.13-9.16,1.08-11.19,5.81-.63,1.47-.62,3.67.36,3.85,2.1.38,1.51,2.06,1.47,2.7-.27,3.93,1.9,5,4.4,6.12,3.76,1.66,6.66-.94,9.7-2.3C44.22,46.95,44.86,44.58,44.48,42.38ZM233,110.56c3.45-3.16,3.81-8.82.48-13-3.13-3.9-9.91-5.08-13.6-2.27-.51.39-.52,1.41-.89,2.51-.22.19-1.28.69-1.3,1.23a11.36,11.36,0,0,0,.77,3.22l.9-.29-.49-2,3.37,2.4c-.67,2.85-2.73,1.75-4.56,1.85.55.67,1.39,1,1.83,1.56a13.15,13.15,0,0,1,1.21,2.74l1.58-.23,1.81,2.28,2-3.75,5.25.77.29-.61a9.88,9.88,0,0,1-1.65-1.14c-1.21-1.26-5.34-.7-2.8-4.38,0-.07-.11-.28-.17-.42-3.57-.27-5-1.36-5.11-4l4,1.84c3-3.41,4,1,6.09,2.12l-4,.62,3.09,3,1.44-3.07.38.06ZM71.77,96.13a4.14,4.14,0,0,0,0-1.09c-1.17-3.57-5.72-8.16-11.59-7.1-4.49.81-7.3,5.2-6.73,10.24a3.61,3.61,0,0,0,3.06,3.29c1.52.32,3.34-1.74,3.38-3.51,1.89.52,3.68.62,4.22-1.16Zm48.75-48.48c-4.28-6-4.28-6-3.73-6.84,3,3.86,3.76,2.82,6.83.09-1.33-.13-2.42-.17-3.49-.37-.89-.16-1.76-.5-3-.87a36.53,36.53,0,0,1,4.09-2.31,32.52,32.52,0,0,1,4.13-1l-1.07,3.31H128v6.89c2.74-4.26,2.69-8,.16-11.72a10.33,10.33,0,0,0-10.43-4.22c-2.13.5-4.45,1.33-4.9,3.72-.42,2.24-.09,4.62-.09,7.07l1.22-.5C115.12,46,116.59,47.56,120.52,47.65Zm30,17.62c.82-.81,1.39-1.66,1.64-1.58,2.21.76,1.75-1.29,2.28-2.17a4.49,4.49,0,0,0,.18-1.91c.23-4-1.87-6.75-5.11-8.68a9,9,0,0,0-9.84-.06A5,5,0,0,0,138,53.78c-.62,2.56,1.58,3.08,3.15,4.08,3.34-4.8,5.22.92,8.1.71C146.83,61.69,150.9,62.65,150.54,65.26Zm-140.4,139c-2.22,3.72-4.46,7.08-2.8,11.42,2,5.21,5.14,8.17,8.81,7.46-1.22-2.34-1.66-4.71.17-6.74l-3.37-2.22,1.83-5.75C12.45,207.76,12.68,204,10.13,204.29ZM14,178.15l.73.53c1-1.16,1.92-2.35,2.93-3.48,1.19-1.34,2.24-2.58,1.29-4.64a8.8,8.8,0,0,1-.53-3.74c0-2,.3-4.07.47-6.14-5.9.91-7.51,4.79-8,9.77-.1,1,.78,2.86,1.62,3.15C15.17,174.55,15,176.11,14,178.15ZM62.74,137c1.46-2.71,2.48-5,3.87-7.08,1.6-2.36,3.54-4.49,5.27-6.77.22-.29.11-.92,0-1.35-.69-2.91-2.47-3.71-6-2.76a3.05,3.05,0,0,0-1.61,4.66c.73,1.16,3.67,2.42.37,4.07-.11.05.1.62.06.92-.17,1.07-.38,2.13-.54,3a9.9,9.9,0,0,0-2.05,0,19.71,19.71,0,0,0-.22,3l-2.08-.46-.43,1Zm136.78,48.1.49.56a38.84,38.84,0,0,1,.75-4c.15-.52.8-.9,1.22-1.34a10.73,10.73,0,0,1,1.09,2c.43,1.36.65,2.79,1.09,4.15.08.24.81.26,1.56.48v-5.35c3.09,1.63,1.2,4.7,2.44,6.55l2.93-1.88c-2.62-1.94-3-6.44-7.64-6.19a8.12,8.12,0,0,1,7.76,2.38c2.83,2.69,3.19,6.31,2.15,10.21.64-.22,1.24-.56,1.26-.93.1-2.05.45-4.2,0-6.15-1-4.16-4.19-6.13-8.13-7-3.32-.76-5.45.84-7.26,3.46a61,61,0,0,1-4.4,5.12l.51.52ZM135.74,83.8l.55-.57c-.52-5.13-3.54-9.21-8.05-10.34-2.91-.73-5.91-.9-8.85,1.57l9.32,3.85a5.52,5.52,0,0,1,1.48.63C132.06,80.52,133.89,82.17,135.74,83.8ZM20.29,234.43l-3.72-2-.33-6.61c-2.38,1.4-4.16,5.67-3.4,8.22.86,2.87,1.68,5.84,5.18,6.79Zm8.23-23c-.94-3.17-1.9-5.73-2.41-8.38s-.63-5.52-.92-8.29a5.44,5.44,0,0,0-4.74,4.17l1.19,1.86.46-1.9-.38.35,4,7.65-2,3.49ZM11,98.11l.19.58c2.12.36,4.51.22,6.27,1.21s3,3.12,4.6,5c-2.89.78-2.81,1.31.4,6.47,2.51-3.19,1.74-6.4,0-9.48a9,9,0,0,0-8-4.64A12.65,12.65,0,0,0,11,98.11ZM41.39,119.8c-1.8-2.07-4.73-2.19-7.27-.59a28.73,28.73,0,0,0-2.58,2.16l2.68-.19L33.66,123l-2.14-1.19a11.09,11.09,0,0,0-.2,3.22A2.43,2.43,0,0,0,33,126.56a17,17,0,0,0,3.84-.39c2-1.68-1.87-2.72-1.36-4.54,1.31-.19,2.87,2,3.86-.42l-2.07-.68ZM125.2,58.27c-.67-.21-1.61-.82-2.3-.62a5,5,0,0,0-2.33,1.84,5.73,5.73,0,0,0-.58,2.13l-2.57,1.23c3.8.49,4,4.29,6.74,6.51Zm63.39-32.05c2.52-.27,4.1.37,3.19,3.42,3.11-2,3.43-6.28,1-10.27a9.22,9.22,0,0,0-12.44-3.45,20.64,20.64,0,0,1,4,.05c1.18.27,2.24,1.06,3.41,1.39,2.14.6,4.14,3.35,4.45,5.75C192.56,26.09,190,25.18,188.59,26.21ZM6.16,2.35C5.46,4.57,7.16,5.08,8.41,6c.62.48-.53,2.48,1.3,2.12.55-.11.81-1.61,1.23-2.46,0-.1.27-.11.83-.3l1.54,5L15.06,8.9l1.8,1.58.57-.61A23.71,23.71,0,0,1,14.85,6.2C13.09,2.35,10.08,1.56,6.16,2.35ZM147.52,61.17l-4.31-3.76-.3.35,1.37,1.65a62,62,0,0,1-6.47-.06c-1.42-.16-1.79.33-1.7,1.54.05.69.2,1.37.3,2h.71l.15-2,6,1,0,.5-3.94.24c3,2.95,3.88,2.95,6.31.26C146.21,62.28,146.87,61.77,147.52,61.17Zm-44.81,6.2c2.56.63,5,.73,6.92,1.85s3.67,2.8,3.08,5.68l2.74.17A9.38,9.38,0,0,0,109,66.75C107.13,66.05,104.81,65,102.71,67.37Zm25.76,31.58-.67,3.15L125.93,101c.66,2.49.72,5.35,3.7,6.07,1,.25,2.25-.29,3.68-.51Zm54.19,116.42c-2.72,3.28-5.12,11.33-3.87,14.2l4.38-6.89-3.15-.45C182.81,220.38,183.51,218.22,182.66,215.37Zm7.07-140.31c4-1.63,6.76.9,9.63,2.86,3.69,2.51,2.32,6.51,2.68,10.37,2.17-4.59,1.49-8.64-1.68-11.64C197.39,73.82,192.86,73,189.73,75.06ZM101.13,46.3c2.75.82,5.93.61,8.08,3s3.57,5,3.29,8.19l1.93-.54a14,14,0,0,1-.91-2.39C112.36,48.35,107.22,44.67,101.13,46.3Zm64.09,245.87c1.9-3.69,1.44-6.86-1.11-9.78-2.69-3.08-6.25-4.28-10-2.9C161.81,280.38,165.87,284.11,165.22,292.17ZM22.92,68c7.91,0,11.61,4.21,11.95,11.92a8.28,8.28,0,0,0-1.56-9C30.61,67.89,27.28,66.15,22.92,68ZM189.55,209.34c.5,4-3.22,5.82-4.83,9.15,5.37-3.08,6.75-6.46,6-14-1.4,1.55-3.56,2.45-3,5.2Zm-34.39,98.94-.65.62,1.41,2-8.23-.65c-.46,3.34-.46,3.34,1.09,3.3l-.45-1.6L158.47,313Zm21.17,16.28c2.52,1.1.3,4.66,3.5,5.31v-5.29l.6-.2c.4,1.12.78,2.25,1.2,3.37a2.34,2.34,0,0,0,3.19,1.56C182.9,326.31,181.76,322.36,176.33,324.55Zm58.56-153.35a8.5,8.5,0,0,0-2.43-9.25c-2.26-2.16-5-3.34-8.4-2.3C231,160.46,234.32,164.49,234.88,171.21ZM162.45,56.49c7.41.37,11.37,4,12,11.39,1.27-2.62.42-6-1.86-8.6A9.55,9.55,0,0,0,162.45,56.49Zm28.41,19.84,2.05,6,.58-.21L194,77l1.06-.12,1.78,6.68c.57-1.23,1.21-2.78.79-3.93C196.46,76.61,194,75.56,190.85,76.32Zm-8.92,246.35c5.5,2.86,6.93,7.45,5.64,13.23C191,330.11,187.92,322.82,181.93,322.67ZM215.68,26.49a8.55,8.55,0,0,0-2.81-8.58,9,9,0,0,0-9.53-2.31C209.5,16,213.94,18.11,215.68,26.49ZM187.24,294.81c.51-7.06-4.1-12.59-9-11.84,1.85,1.34,4.33,2.48,5.82,4.4S186.1,292,187.24,294.81ZM16.93,190.23c1.51,2.1,3.36.69,5,.47.49-.07.89-.83,1.34-1.28-.54-.48-1-1.17-1.64-1.4a14.59,14.59,0,0,0-3-.44Zm16.88-25.56a30.22,30.22,0,0,0,1.46-3.1,1.37,1.37,0,0,0-.51-1.24,34.57,34.57,0,0,0-3.54-.94l-.51.34,2.19,3.2-2.88,2,.24.4ZM183.3,225c3.24,2.65,1.63,6.23,2.1,9.46,2.46-3.77,2-7.21-1.49-11.18Zm-23.64,92.33c-4.18-3.24-6.91-4.68-9.32-2.89C153.55,315.38,156.3,317.4,159.67,317.36ZM26.16,243.15l-.53-.64-4,1.48,1.7,4.19Zm92.53,61.63,6.89,6.77A8.11,8.11,0,0,0,118.69,304.78ZM11,251.9l8.49,4C17.53,252.7,14.6,251.83,11,251.9ZM25.53,144.49l.75.63L32.19,138l-.75-.63Zm-6.18,48.62.37,1.08L26.07,193c-.5-.78-.87-1.62-1-1.58C23.13,191.94,21.24,192.54,19.35,193.11Zm116.08-86.74.65-.61c-1.24-3.5-2.25-4.38-4.38-3.25ZM9.94,144.54l-.81-.1c-.13,1.51-.33,3-.34,4.54,0,.43.59.86.91,1.29.31-.48.89-1,.87-1.45C10.49,147.38,10.17,146,9.94,144.54Zm67-17.48.56,3.11,3.08-1.57-.79-1.71Zm164.73,62.11-.55,5.68C243.29,194.42,243.61,192.18,241.65,189.16ZM68,110.07c1.74-.08,3.51,1.09,4.52-1.09C70.17,107.06,69.4,107.21,68,110.07Zm42.48-32.54c-1.81-.82-6.05,1-6.93,2.81Zm-57.59-53c-.26-1.34-.23-2.86-.66-3-.9-.3-2,.13-3.08.27l.16.64Zm104,178.73.24.69,6.24-1.51-.26-.94ZM30,3.15l.36-.8C29.3,1.58,28.43.17,26.89,1l-.3.94ZM149.31,66.09,144.88,64C145.73,66.76,146.88,67.27,149.31,66.09ZM34.38,130.78l1.56-1.37-.18-.52H31.12Zm17.18-29.09a4.39,4.39,0,0,0-5.54-1ZM29.13,217.77l-.72-.49-2.73,3.85.87.6Zm152.93,9.29-.95,4.72C181.35,230.31,184.53,229.5,182.07,227.06Z"/><path class="cls-1" d="M205.8,341.23.25,322.75C3,322.15,1.54,319.5,2.6,318l2.7,1.31c0-1.25-.07-2.15,0-3,.1-1.12.33-2.22.5-3.34.8.35,1.91.48,2.35,1.09,2.47,3.4,4.78,6.9,7.13,10.38,2.58,3.81,5.15,7.63,8.08,12l-6.83,3.81.24.52,2.3-.91c1.71,1.75,5.4,1.2,6.67-1a11.19,11.19,0,0,1,2.53-2.9A23.17,23.17,0,0,1,31.59,334L34,335.7l-.59-3L38,337.55l.45-.45-2.87-5.88.38-.25,5.62,3.74.45-.48-3.08-3.3,2.47.33-2-3.1,2.12.31a20.72,20.72,0,0,1-1.1-3.07c-1.16-6.27-2.54-12.53-3.25-18.86-.35-3.16.58-6.45.87-9.69a4.3,4.3,0,0,0-.27-2,75.45,75.45,0,0,0-9.94-16.08c-2.21-2.87-4.65-5.57-6.74-8.53-.63-.89-1-2.83-.45-3.53,1.57-2.06,1.43-4.51,2.18-6.72.56-1.66,1.27-3.27,1.86-4.92.37-1,.65-2.11.94-3.18,1-3.61,2.38-6.84,6.24-8.37a4.82,4.82,0,0,0,2.06-2c1.5-2.51,2.85-5.11,4.26-7.67l-.74-.43-5.2,7.91-.68-.4,5.63-12.21,4.27,5.71c2.41.29,3-1.71,4.1-3.48,1-1.54,2.64-2.62,4-3.91A11.2,11.2,0,0,0,51,225.55c2-2.86,4.34-5.34,8.09-5.83l5.26-4.66-.82-.78-4.38,5.51c-1.15-1.8.51-2.68,1.32-3.73,1.91-2.46,4-4.81,6-7.2l-.48-.48L50.87,222.69l-.85-.48a7.61,7.61,0,0,1,.43-2.52c2.29-4,4.68-8,7.1-11.89a2.46,2.46,0,0,1,1.5-1.12c3.62-.42,3.64-3.92,5.59-5.74l-.48-.44-3.5,4.21-.38-.26L66,192.32c1.35,1.38,2.52,2.63,3.75,3.83a6.12,6.12,0,0,1,1.65,5.78,10.89,10.89,0,0,1-1,3c-1.68,3.36-2.74,6.5-1,10.43.82,1.81-.45,4.57-.8,7.13l7.89-4.31L76.17,220c2.13,1.41,2.88-.8,4-1.48C82.73,217,85,215,87.48,213.24a9.34,9.34,0,0,1,2-.83l-.94-1.08-13,6.19L75,217c.85-1.3,1.47-2.36,0-3.77-.7-.68-.52-2.43-.45-3.68.12-2.14.55-4.27.65-6.41,0-.58-.71-1.16-1-1.79a1.8,1.8,0,0,1,0-1c.26-1.33.55-2.65.89-4.23l-1.44,1.12.93-10.48,1.94.39a11.76,11.76,0,0,1,5.79-9.9c1.55-.93,1.17-1.49.28-2.88l2.65.53c.09-1.86-.19-3.51,2.68-3.65,1.69-.08,3.46-1.6,4.89-2.82a32,32,0,0,0,4.19-4.75c.33-.42.17-1.22.27-2.09l1.76.25c2.29-6,4-7.17,10.06-5.82a27.51,27.51,0,0,1,7.37,2.73,83,83,0,0,1,11.72,7.52c3,2.45,5.39,5.74,8.08,8.64.51.55,1.13,1,1.92,1.7,1.9-4.71-.36-8-2.73-11.17a19.21,19.21,0,0,0-9.25-6.32c-1.9-.68-3.41-2.37-5.25-3.27-5.15-2.53-10.66-3-16.93-2.21,1-3.46,2.12-6.5,2.71-9.64.39-2.07,0-4.28,0-6.43l-1.26.2c1.34-1.62,2.07-2.94.73-4.82-.87-1.21.32-5,1.32-5.57l-1.15-1.22,1.85-1.91-4.7.49-.08-.65,7-1.19,0-.3h-8.48c-3.33,0-4.21-.79-4.6-4.55a12.76,12.76,0,0,0,10.14,3.17,36.31,36.31,0,0,0,6.27-1.83c1.2-.39,2.37-.87,3.54-1.35.61-.25,1.18-.6,1.76-.91-.54-.5-1-1.26-1.63-1.44a37.32,37.32,0,0,1-3.7-.79l2.44-.24-2.83-2.73-5.41.41a26.22,26.22,0,0,1-2.22-4.63c-.89-3.43.74-6.37,2.4-9.2a35.58,35.58,0,0,1,3.24-5c1.58-1.88,3.44-3.52,5.35-5.42l1.58,1.89,1.63-2,.51.14c-.1.52,0,1.22-.34,1.55-2.6,2.71-5.27,5.36-7.93,8-3.42,3.41-3.72,8.17-.52,11.63l.23-1.71,1.4.43c-.12-1.92-.56-3.75-.25-5.43s1.38-3.22,2.11-4.82l.63.26-1,4,.63.24,1.1-2.33A17.63,17.63,0,0,1,118.1,102a24.44,24.44,0,0,1,1.12,2.59c.24.54.55,1,.82,1.57-.65,1.27-.84,2.52.7,3.22,1.33.61,2.75,1,4.74,1.68l-5.5-4.85-.2-3.55.47-.23c2.41,2.61,4.67,5.38,7.26,7.8,2.94,2.75,6.17,5.2,9.29,7.75,1.68,1.37,3.4,2.68,5.16,4.07,2-.8,2.68,2.39,4.75,3l-.62-3.31c.68.37,1.1.47,1.31.73a8.15,8.15,0,0,0,6.22,3.28c.83.07,2,1.07,3.26,1.37a22.94,22.94,0,0,0,2.88.89c-.2-1.23-1-2.35,1.15-2-1.25-3.32-2.56-6.28-5.18-8.54-1.44-1.24-2.47-3-3.94-4.13-2.93-2.31-6-4.41-9.1-6.55a2.81,2.81,0,0,0-1.39-.4c-3.94-.25-5.4-1.45-6.21-5.12,3,0,6.09-.14,9.12.07,1.24.09,2.42.95,3.63,1.46.37.16.73.46,1.1.47,4.48.07,6.2,3.15,7.49,6.75.53,1.47,1.44,2.19,3,1.31-1.17-3.5-.8-4.23,2.76-5.1.71,3.26,1.38,6.54,2.16,9.79.18.75,1,1.36,1.11,2.09.19,1.67-.92,3.24.54,5.11.74.94-.27,3.25-.5,5l1.33-.37-.66,2.42,1.46-.45,1.09,6,2.86-2-1,2c.77.46,1.41,1.13,2.14,1.23,2.56.35,5.06,1.54,7.77.48.64-.25,1.6.3,2.41.48l-.05.94,4.35-2.64c-.68,3.23-4.3,2.93-5.57,5.79l6-3-2.31,2.61.14.24a11.17,11.17,0,0,0,1.51-.82c3.29-2.49,7.14-4.22,9.44-8A14.92,14.92,0,0,0,199,126a13.89,13.89,0,0,1,.67-3c.57-2,1.19-4,1.85-6.24l-2-.82-.22-.67c1.39-.56,2.75-1.54,4.17-1.62,5.94-.33,11.37,5.27,10.57,11-.2,1.48-1.56,2.8-2.39,4.19.2-1.65.4-3.29.57-4.78a13.93,13.93,0,0,1-2.46-.43,15.92,15.92,0,0,1-2.28-1.28l1.82-1.42c-.33-2.62-1.78-4.28-4.23-4.62-.29,0-.69.73-1,1.13-.14.45-.55,1.14-.39,1.32,1.41,1.58-.17,2.49-.66,3.7-.93,2.31-1.7,4.68-2.53,7l.47.15,4.54-7.85c2.4,2,5.41,3.54,6.23,7-.11,2.75-.12,5.5-.4,8.24-.08.84-.88,1.61-1.28,2.29l-3.09-.43,1.83-1.29.59-3.46-.37-.39-2.16,2.85-.67-.37c.72-.89-.68-2.37,1.27-3a5.56,5.56,0,0,0-.1-1.38c-.53.18-1.36.21-1.54.57-1.5,3-2.87,6.14-4.43,9.55l1.8-.08v5.85c3.75-1.08,5.31-3.9,6.63-7,3.44,4.67.45,12.48-3.84,14.5-.71.34-1.16,1.24-2.08,2.27l3.14.81c5.12,1.38,9.2,8.27,6.14,13.28-.41.67-1.38,1-2.1,1.49,1.4-2.93,2-6.26-.1-8.67-1.87-2.1-4.92-3.15-7.45-4.66l-.67,1.07c1,.73,1.94,1.78,3.08,2.12,3.51,1,5.39,3.63,4.32,7.06-.48,1.51.11,2.22.87,3.13-1.48.69-2.28.87-2.79-1.34-.59-2.6-2.09-5-3.26-7.6A8.81,8.81,0,0,0,208,173l-5.46-.55-1.79,3.72-.35-.14.56-4.77-.65-.13-2.8,4.79c-1.38-5.49.7-9.85,3.67-14.17,1.45-2.12,1.95-4.9,2.87-7.38l-.73-.28-2.45,2.23-1.78-8.91-.55.13,1.21-3.39-3.31,1-.36-1.36-5.8,2.79.24.58,4.09-1.53c-1.53,1.73-4.84,1.92-3.15,5l-3,.74c1.87,2,5.16,2.21,4,5.07l5,2.14-.24.74,2.58-1.1.47.38-8.11,12.5-.83-.41a7.15,7.15,0,0,0,.32-1.34,6.77,6.77,0,0,0-.19-1.34l-.82-.21c-1.16,3.84-2.44,7.65-3.43,11.53s-1.71,8-2.67,12.49c-1.67-3.5-4.45-4.28-7.52-4.69-2.15-.29-4.24-1.05-6.4-1.37-4.61-.68-8.3,1.48-10.16,6,3.49-.39,6.85-1.08,10.2-1.05a54.65,54.65,0,0,1,10.75,1.22c2.53.53,3,1.9,2.3,4.41-1.33,4.52-2.75,9-4.51,13.48.23-4.15-1.87-6.88-4.79-9.24L172.64,202l-1.54-2.55c-2,2.89-4.51,1.73-6.62,1.28-3.79-.8-6.75.65-9.37,2.87-1.78,1.51-3.07,3.61-4.78,5.69a6.89,6.89,0,0,0,1.76-1c3.26-3.58,7.62-4,12-4.1,4.19-.08,9.11,4.07,9,9.06,0,1.84-.3,3.68-.47,5.61l2.2-.4c-2.13,10.39-1.3,21.09-6,30.55,2.71-2.64,5.37-5.29,8.13-7.83.31-.28,1.24-.08,1.79.13a9.58,9.58,0,0,1,3.11,16.1c-1.2,1.07-3.1,1.35-4.92,2.09,4.65,1.45,7.81,4.45,8.92,9.24,1.52-2.18,2.68-4.43,4.37-6.13,3.11-3.14,7-3.28,11.05-2,3.72,1.17,6.67,3.72,7,7.26a22.39,22.39,0,0,1-2.14,10.66c-.77,1.75-3.55,2.9-5.65,3.72-5.31,2.08-12.53-1.53-14.14-8.35,0-.2-.26-.36-.53-.72-1.42,4.57-4.18,7.39-8.89,8.35-5.73,1.17-10.6-1.94-12.1-6.55-1.25-3.86-1.32-8.53,1.7-12.11,1-1.16,2.81-1.6,4.27-2.35.89-.46,1.81-.86,2.45-1.16L166.77,253c-1.74,2.16-3.89,4.73-5.88,7.41a2.41,2.41,0,0,0,.22,2c2.15,3.78,2,8-.38,10.87l-.43-7.18-1.77.94-.87-2.18-3.12,2.87,3.41,1.14c-2.2.53-4.37,1-6.44,1.63-.66.21-1.09,1.12-1.47,1.54l3.23,2.3-.28.77a12.26,12.26,0,0,1-2.53-.83c-1.23-.72-2.2-.8-3.16.39a14.65,14.65,0,0,1-1.75,1.69c-1.25,1.1-1.52,2.08-.55,3.75,3.8,6.49.57,15.1-6.28,17.07a10.06,10.06,0,0,1-8.63-1.15c-1.39-.92-2.17-.62-3.32.43-3,2.7-6,5.26-9.18,7.74-.58.46-1.67.34-2.53.36-8.86.14-16.52-2.53-22.29-9.58-2.78-3.39-5.48-6.84-8.35-10.14a7.19,7.19,0,0,1-1.85-4.24l-2,.22L82,278.61l-.26-.34-2.33,1.65L78,276.64l-.7.11c-.56-3.26-.36-6.78-3.26-9.43,3.61-1.21.15-4.21,1.91-6.09H74.59l.64-3.67-3.18-1.08c3.67.11,3.71.08,3.84-3.37a1.36,1.36,0,0,0-.45-.9c-1-.92-2-1.78-3.06-2.66l1.55.16L76,241.16l-.87-4,1.77-.72-2.73-3.94.54-.45,1.78,1.9c1-2.71,2.42-5.1,5.37-6.2a55.56,55.56,0,0,0-7.63,3.51c-4,2.19-4.88,5.64-2.51,10L72,239c2.78,1.69-.07,3.45-.33,5.35h2.41c-2.17,2.47-2.17,2.47-1.22,5l-.43.13c-1.43,7.54-3.17,15.05-1.32,22.8,1.62,6.81,3.22,13.63,4.63,20.49a63.45,63.45,0,0,1,.72,19.45,16.08,16.08,0,0,1,3-1.66c1-.33,2.24-.07,3.3-.35,2.66-.69,5.29-1.51,7.92-2.3,3.12-.94,6.21-2,9.35-2.83,4-1.07,6.61.92,6.56,5a11.38,11.38,0,0,1-6.65,10.72c-3,1.48-3.16,2.12-1.23,5a7.32,7.32,0,0,1,.44.86c-1.33.68-2.7,1.28-4,2.05-1.8,1.1-3.52,2.33-5.27,3.5l-.42-.49,5.75-17.68-.67-.23c-4.84,8.73-7.28,18.7-14.07,26.62,4.37.34,6.24-.82,7.5-3.66a12,12,0,0,1,3.14-4c2.54-2.19,5.29-4.15,8-6.2.66,1.41,1.4,2.79,2,4.23.43,1.12.49,2.38,1,3.47.89,2,2,4,3,6.16h6.79l.47-.62-5-4.94a5.47,5.47,0,0,1,1-.46c1-.31,2-.34,1.65-2-.12-.53,1.09-1.32,1.61-2,.76-1,1.41-1.18,2,.1l1.5-.76c-1,3.73-2.05,7.24-.19,10.88.09-.78.2-1.55.26-2.33.14-1.81.25-3.62.41-5.42a1.53,1.53,0,0,1,.43-1c1.85-1.42,1.63-3.41-.56-4.43-1-.49-2.14-.89-3.21-1.33l-.26.72,1.69,1.19-4.9,2.2-2.93-4.15c3.72-3.74,8.74-2.69,12.2-.26,4.79,3.37,5.16,7.66,1.56,14.55H130.8c-6.2-3.9-9.06-8.71-6.77-15.18,1.72-4.86,5.34-7.56,11.14-6.81-2.62-1.72-6-2.69-5.33-7-2.05,1.43-2.62.86-2.74-1.19-.08-1.46-1.19-2.86-1.28-4.33a4.6,4.6,0,0,1,3.06-4.75c-.76,1.21-1.83,2.32-2.2,3.63-.71,2.5.78,3.89,3.35,3.52a19.8,19.8,0,0,1,2.13-.11l.29-6.22v0l2.5,3.68a3.24,3.24,0,0,0-2.77-4.3c-1.11-.09-2.23-.11-3.34-.17l4-1.34a6.68,6.68,0,0,0,.9-.28c.86-.43,1.89-1.45,2.51-1.24a13.24,13.24,0,0,1,4.83,2.62c5.39,5.11,3.63,13.19-3.34,15.9-.57.22-1.12.5-2.41,1.07,8.67,1.45,11.72,6.44,10.86,14.25-.36,3.24-2.95,6.18-8,8.46H196.7L195.64,338l-.75,1.32-3.27-4a6.73,6.73,0,0,0,2.57-.08c.63-.28,1-1.22,1.43-1.86-.62-.17-1.43-.68-1.83-.46-1.56.87-2.4.18-2.68-1.2-.32-1.57-.13-3.08,2.53-2.9l-1.46-1.36c2.63-3.16,6.34-3.22,9.42-2.23,2.92.93,5.31,3.5,7.51,5,.72-1.83,1.54-4.31,2.64-6.67,1.28-2.75,4-3.67,6.65-4.35,3.79-1,8.76,1.24,10.89,4.78,2.75,4.56,3.42,10.25-2.27,16.67m-26.83-68.1,2.54,3,.41-.28-.25-3.75-2.77,1.1,2.68-4.65.2.42-8,4.88-2.73-1.46c2.21,5.62,7.95,3.48,11.32,6.05a2.17,2.17,0,0,0-1.2-1.51c-1.38-.42-2.85-.55-4.24-1s-3-.06-3.14-2.12Zm-19.09-4.21.37-5.16L178.84,265l.2.35,1.39-.09-.55.54,1.25,2.63L179,273.67l-.68-.24,1.5-5.46c-2.14.25-2.51,1-2.25,2.64s-.29,3.21-.5,4.91l1.46.44L175.64,277c2.16.69,3.28.22,4-1.73a8,8,0,0,1,2.19-3.67c2.15-1.69,1.45-3.29.62-5.4Zm-50.24-78.18c-.09-1.58,2.92-2.46.83-4.46v1.38l-2.07.27,1.24,2.79a45.67,45.67,0,0,1,1.08,5.23c.19,2,0,4,0,6.36l2.63-1.15,1.15-6.79-1.38-4.79C133.41,189.42,132.12,189.85,130.84,190.26Zm-2.95,90.05c-1.47-.31-2.63-.88-3.67-.71-4.43.71-7.62-1.93-11.11-3.81-1.47-.79-2-1.92-1.16-3.71a30.51,30.51,0,0,0,4.93,2.22,32,32,0,0,0,5.46.5c-7.13-2.51-13.42-5.75-17.05-13.19l9.2,5.28.22-.43-6.9-6.14c2.8-1.3,5-.26,6.65.93,3.75,2.69,7.72,3.29,12.13,2.77.91-.11,2.57.48,2.77,1.1a5.6,5.6,0,0,1-.37,3.71c-.45,1-1.61,1.64-2.6,2.58l3.3.58L127,274.17l.37.61c1.29-.72,2.84-1.2,3.82-2.22,3.57-3.7,6.91-7.61,10.4-11.37,3.87-4.18,3.25-8-2.11-10a90.85,90.85,0,0,1-13.19-6.49,32.32,32.32,0,0,0-10.89-3.6c-3.79-.61-7.74-.07-11.62-.21-2.37-.09-3.5,1.07-3.75,3.19a79.42,79.42,0,0,0-.64,8c-.13,7.2-.29,14.43,3.42,21a1.24,1.24,0,0,1,.07.87,2.38,2.38,0,0,0,1.52,3,18.83,18.83,0,0,1,4.81,1.83,22.68,22.68,0,0,0,10.67,3.58C122.6,282.53,125.39,282.56,127.89,280.31ZM95,180.89c.53,1.42,1.25,2.36,1,3a3.49,3.49,0,0,0,2.27,4.44c4.94,1.85,10.08,3.13,15.13,4.69,2.11.66,3-.69,3.69-2.17,1.36-3-.35-7-3.55-8.8a6.34,6.34,0,0,0-8.29,2,32.63,32.63,0,0,0-1.74,3.26L100,184.71c.47-.78.8-1.42,1.21-2,3-4.27,9.21-6.35,13.29-4.49a15.47,15.47,0,0,1,9.48,13c.15,1.26.46,2.49.7,3.74l.65-.13L123,179.17l3.42,4.3c-1-3.47-3.28-5.9-6-8a10.86,10.86,0,0,1-2.68-2.63c-1.9-3.2-4.92-4.39-8.11-3l-1.38-2-.54.13-.39,4.91-.45,0L105.82,168c-.73,1-1.15,2.26-1.69,2.32-2.62.29-3.78,1.57-4.74,4.08S96.27,179.09,95,180.89Zm69.83,36.9c2.94-4.14,2.67-8.18-.85-10.26a8.18,8.18,0,0,0-4.79-.9c-3.44.4-4.42,3.46-5.69,6.09,7.94,6.1,14.14,8.81,16.45,7.1ZM39.88,243a18.33,18.33,0,0,1-2,3.54c-4.91,5.07-5.17,11.77-6.44,18.1-.35,1.72,2.77,4.53,4.27,3.87a49.62,49.62,0,0,0,4.67-2.63l.17-.71c-2.2.83-4.14.38-4.22-1.68-.14-4-1.68-8.29,1.76-11.8.29-.3.3-.89.4-1.36C38.91,248.14,39.33,245.89,39.88,243Zm75.42-16.63c2.07,1.83,3.55,3.27,5.18,4.54a9.76,9.76,0,0,0,6.81,2.15c-4.25-4.35-1.09-8,.2-11.76l-.56-.61Zm91.83,106.27-1.26-.06-.28,4c-.88-1-1.64-2.38-2.78-2.83-.87-.35-2.23.54-3.62,1l6.35,2.88-.24.83-6.3-.69.65,2.54h6.71ZM60.5,247.6c-.94-.13-1.65-.19-2.33-.35a1.68,1.68,0,0,1-.06-.84c2.93-.77,1.25-4.27,3.49-5.42-3.83,1.44-5.19,3.21-4.67,6.47.41,2.62.42,5.57,2.74,7.37l.8-.4-1.61-2.75Zm139.3,82.31-4.67-2c1.87,5.24,5.77,4.17,9.26,4a4.9,4.9,0,0,0,1.48-.43,12,12,0,0,1-2-1.8C202.73,328.13,201,328.1,199.8,329.91ZM128.1,233.4c3.13-.5,5.32,0,6.91,2.29l-2.16.61c1.7.88,2.61,3.09,4.63.73l-1.74-.73c1.08-2.41,1-3.59-.31-4.38A6,6,0,0,0,128.1,233.4ZM190,271.31a53.7,53.7,0,0,1,6.78-3c6.53-1.89,6.56-1.79,6.72-2.77-5.54,1.89-11.54,2.66-16.56,6.53l4.3,2.48.54-.45Zm-69.62,62.75-3.21-1.17-1.64,2.84c2.68,1,.82,2.65.5,4.15C119.9,339.53,119.83,336.55,120.38,334.06Zm75.45-196c-1.58,2.45-5.58,2.93-5.7,6.58l.63.61,6.4-5.62Zm13.93,197.19-1.68,5.3h5.34Zm-35.59-68.48-.58-.05-.83,3.74-3.37,1.35.17.44,3.22-.43.92,3.26.46-.13ZM45.63,252.29v7l4-1,.08-.59C45.61,257.77,46.89,254.38,45.63,252.29ZM147.7,236.16l-1-.48-3.49,2.63.21.91c1.15,0,2.53.39,3.36-.12C147.47,238.7,147.43,237.18,147.7,236.16ZM14.7,335l.32.37,3.06-2.1-4.67-6.13-.58.45,4.06,5.62Zm189-163.79.73-.31-1.9-6.07-.7.22C203.44,166.85,201.86,169.57,203.73,171.25ZM175.5,268.37l.41,6.07C177.57,272,177.09,270.1,175.5,268.37Z"/><path class="cls-1" d="M.25,15.82c4.06,2.41,4.6,6.51,5,11.11,2.8-3.41,5.93-5.44,10.12-4.94A10.65,10.65,0,0,1,23,26.16c3.59,4.88,4.27,13.3-3.48,18.31,2.16,1.13,4.69,2,6.66,3.59s4.22,3.72,2.73,7.16c-.64,1.47-.26,3.35-.59,5a9.63,9.63,0,0,1-11.78,7.45c-5.23-1.15-8.28-4.47-9.37-9.59C6.33,54,8.9,48.86,12.9,46.32l.86-.57C5.66,44,2.66,37.43,3.94,31.63L.25,34.79ZM21.3,57.52l2.29,3.05.5-.31-.2-3.67-2.66,1,2.45-4.38.2.44L15.65,58.5l-2.26-2.18C15.12,54.5,17,53,19.68,52.84a19.86,19.86,0,0,0,4.22-.91c.39-.11.65-.66,1-1C19,52.37,13.08,53.3,7.94,57l4.33,2.63.6-.7L11,56.54c1.46-1.57,1.46-1.57,2.42-.22-.08,2.07,1.66,4.05,4.17,4.71,2.29.6,4.58,1.18,7.43,1.91-.7-.68-1.07-1.33-1.6-1.49-1.38-.43-2.88-.48-4.23-1a25.22,25.22,0,0,1-3.57-2Z"/><path class="cls-1" d="M70.35,21.63a64.41,64.41,0,0,1-6.78.49C59,22,54.66,16.6,54.62,12.2a52.69,52.69,0,0,1,.7-6.59l-2-5.37H55.7l.75,3.42L61.54.25h7.78C73.43,2,76.38,4.77,77.15,9.31c.82,4.83-1.38,9-5.79,11.48a7.54,7.54,0,0,0-1.1.92Z"/><path class="cls-1" d="M233.25.25c.67.9,1.41,1.76,2,2.71a10.17,10.17,0,0,1,0,11.46,11.52,11.52,0,0,1-10.94,5.46c-8.62-.43-12.93-10.64-8.39-17.6l1.32-2Z"/><path class="cls-1" d="M12.9.25c5,2.21,5.9,3.34,7.42,9.37C22.48,8.54,24.59,7,26.93,6.4c4.79-1.29,9.92,2.32,11.1,7.41s-1.35,9.74-6.35,10.89c-4.14.95-11.07-1.32-12.21-8.07-.19-1.1-.08-2.59-1.9-1.17.33-2.22,1.1-4.43.84-6.51-.23-1.79-1.63-3.44-2.45-5-3-3-6.83-2.85-10.8-2l0-.66.88-1Z"/><path class="cls-1" d="M.25,78.08c8.12-2,10.21-7.59,6.24-16.7,4.81,3.29,4.46,9.69-.62,15.7,2.45,1,5.21,1.68,7.52,3.11,2.9,1.78,4,4.85,3.66,8.22-.23,2.42-1,4.63-3.42,4.83-1.12-1.3-1.91-3-3-3.29S7.94,90.88,6,91.67L11.26,94c-2,1.21-6.5-.19-8.7-2.55L6,90.15l-5.7-.88V87.81l10,.58.27.79c.17-.88.34-1.77.5-2.66a18.92,18.92,0,0,1,2.17.6,22.24,22.24,0,0,1,2.08,1.06l.57-.88a12.15,12.15,0,0,0-2.8-1.93c-.65-.23-2.13-.48-2,1.22a16.22,16.22,0,0,1-2.58-1.35c-1.44-1.1-2.87-1.7-4.42-.37-1.22,1-1.73,1.06-2.64-.05a6.33,6.33,0,0,0-1.21-.91Z"/><path class="cls-1" d="M192.39.25c2.76,7-.31,12.21-7.68,12.84-1.39.12-3.41.7-3.82-1.74,0-.09-.24-.16-.37-.22C175.81,9,174.37,5,174.39.25Zm-11.22,4-.68.78,4.8,3.77.51-.63Z"/><path class="cls-1" d="M243.46,249.79c-1.56-.48-3.58-.5-4.58-1.52-2.42-2.47-5.9-3.92-7.18-7.53a11.75,11.75,0,0,1,.07-8.45,10.86,10.86,0,0,1,11.7-7.31v7.3l-11.79,3.89.12.86,4.08,2.65.71-1.24,6.88,3.09Z"/><path class="cls-1" d="M243.46,80c-7.67-1.1-12.91-11.08-7.52-18.05,2-2.59,4-4.72,7.52-4.81Z"/><path class="cls-1" d="M243.46,188.5l-.76-1.69c-2.84,3-3.35,8.51-1.34,13.09a3.19,3.19,0,0,1-.11,2.27c-1.64-1.37-3.14-2.49-2.41-5.08.3-1.09-1.18-2.67-1.85-4l-.71.19-1.41,3.38h-2.67c-.49-.5-1.15-1.14-1.77-1.81-1-1-1.84-2.06.12-2.77a26.25,26.25,0,0,0-3.31-2.28c-1-.49-2.47-1.18-3.24-.8-2.35,1.17-4.14.48-5.77-.79a13.42,13.42,0,0,1,1.13-3c1.8-2.61,4.58-3.2,7.45-2.78,4.64.68,7.83,3.24,8.93,8a3.22,3.22,0,0,0,.37.88c.06.11.26.14.58.3a9.55,9.55,0,0,1,6.77-6.49Zm-13.27,1.18,4,4.84C235.29,191.25,234.5,190.14,230.19,189.68Z"/><path class="cls-1" d="M.25,232.27c7-1.43,11.56,2.68,12.8,7.48,1,4-.77,8.33-4.15,9.57-1.31.48-2.65.87-4.13,1.35,2.65-2.56,4.37-5.49,3.31-9.76-1-3.89-3.1-7.38-7-7.87L3.21,249.2l-.1,0L.25,235.68Z"/><path class="cls-1" d="M243.46,141.31c-4.27-.39-6.57-3.66-7.29-8.12-.91-5.68,1.22-8.38,7.29-9.88Z"/><path class="cls-1" d="M.25,188.5a11.58,11.58,0,0,1,6.68,7.78c.44,1.43,1.54,2.65,2.3,4,.16.28.12.68-.24,1.21l-1.69-2.74c-.58,4.84-2.52,8.12-7,9.22Z"/><path class="cls-1" d="M132.07.25c-1.66,5.26-4.31,7.81-8.14,7.46-4-.36-7.49-1.8-9.12-5.94-.21-.52-.49-1-.73-1.52Z"/><path class="cls-1" d="M.25,210.39c6.59,2.7,9.11,14.5,2.07,19.89a11.62,11.62,0,0,1-2.07,1Z"/><path class="cls-1" d="M.25,169c1.58.34,3.17.61,4.72,1,4.29,1.11,8.18,9.4,5.16,13.2-.28.35-.61.65-1.11,1.18,1.4-7.45,1.06-8.14-3.76-7.45l3.33,2.53c-.8,3.62-1,3.7-4,1.23L5.32,179l-5.07-4.6Z"/><path class="cls-1" d="M172.44.25c.15,2.94.68,6-1.92,8.26a12.94,12.94,0,0,1-3.27,1.58,11.27,11.27,0,0,0-1.32.44c-3.23,2-4.17,1.68-7.25-.45-.92-.64-2.25-.76-2.61-2.05-.25-.9-.12-1.9-.38-2.79a11.31,11.31,0,0,0-1.14-2,.62.62,0,0,1,0-.5c.05-.11.27-.14.29-.15L152,.25h4.86c.09,1.35.16,2.7.29,4,.29,3.09,1.66,5.46,4.62,6.69.21.09.63-.34,1-.53l-.07,0c.61.14,1.59.59,1.77.37,1.19-1.42,2.69-2.85,3.15-4.53.51-1.88,0-4,0-6.07Z"/><path class="cls-1" d="M243.46,314.48l-3.87,1.92-1.43-2.78-1.7.42c.31-2.11-1.29-2.83-3.38-3.48,2-1.12,4.6.68,5-2l-1.77-2.71-2.68,1.52v-3.92l3.56,1c0-.06,0-.11.1-.17,1.92,1,3.4,3.42,6.11,1.92Z"/><path class="cls-1" d="M207,3.92a8.33,8.33,0,0,1-2.64-1.06,3.45,3.45,0,0,0-4.29-.65c-2.05,1-3.54.27-4.29-2h16.05A28.84,28.84,0,0,1,213,5.32c.18,3.14-.46,3.82-3.71,5.19l-2.81-3.4.06.07.26-3.36,4.53,2C210,2.67,208.57,2.23,207,3.92Z"/><path class="cls-1" d="M243.46,119.42c-2.36.19-3.14-1.54-3.77-3.28a16.68,16.68,0,0,1-.48-3.25l-1.37.71c-1.11-2.25,2.82-4.47-.16-6.46.85-3.06,3.38-3.57,5.78-4.26Z"/><path class="cls-1" d="M.25,262.43c6,2.58,6.89,11.46,2.87,14.86A18.61,18.61,0,0,1,.25,279Z"/><path class="cls-1" d="M.25,109.21c6.09,2.43,8.84,7.92,6.22,13-.58,1.12-2.26,1.67-3.44,2.48a19.67,19.67,0,0,0-1.47-2.39c-.24-.3-.86-.29-1.31-.42v-7.78c1.15,1.29,2.81,2.4,3.32,3.91s-.12,3.42-.26,5.35c2.77-.63,2.18-2.67,2.19-4.14,0-3.58-1.56-5.39-5.24-6.58Z"/><path class="cls-1" d="M243.46,219.63a39.71,39.71,0,0,1-3.41-5.91c-.31-.8.79-2.15,1.34-3.48-1.93-.26-2.59,1.28-3.18,2.61-1.32,3,.1,7.21,2.9,9-2,.32-3.15-.57-4-4.7-.45-2.08.26-4.4.92-6.61l-1.07,1.55c-.55-.64-.75-.78-.73-.86,1-3.73,3.77-5.41,7.27-6.23Z"/><path class="cls-1" d="M243.46,13.87c-1.17-.77-2.79-1.28-3.43-2.36-1.86-3.15-3.32-7.76-.46-11.26h3.89Z"/><path class="cls-1" d="M.25,151c5.12,3.13,6.46,9.71,2.77,14.13-.61.74-1.83,1-2.77,1.43Z"/><path class="cls-1" d="M243.46,53.76c-.87-.87-.32-3.65-2.35-2.32L238,47.54c1.08-.73,3.92.93,4.07-2.23l-1.84-.94,1.19-1.93c-1.31.46-3,.69-1.86,2.71-1.91.31-2.14-1.14-2.31-2.31-.3-2.08,1.62-1.64,3.08-2.13l-1.68-1.23c1.34-1.51,2.75-2.54,4.81-2.26Z"/><path class="cls-1" d="M243.46,285.78c-1.86-.44-3.57-.89-5.51.35-.69.44-2.49-.85-3.71-1.32-.12-3.79,3.88-6.14,7.31-6.23.64,0,1.27-.06,1.91-.1Z"/><path class="cls-1" d="M160.77.25h5.84a26.45,26.45,0,0,1-.17,4.58c-.21,1.07-.81,2.48-1.65,2.9a3.35,3.35,0,0,0-2.11,2.75l.07,0Z"/><path class="cls-1" d="M160.77.25l2,10.2c-.32.19-.75.62-1,.53-3-1.23-4.33-3.61-4.62-6.69-.13-1.34-.19-2.69-.29-4Z"/><path class="cls-1" d="M.25,83.92a6.33,6.33,0,0,1,1.21.91c.92,1.11,1.43,1.1,2.64.05,1.55-1.33,3-.74,4.42.37a16.22,16.22,0,0,0,2.58,1.35l0-.06-.51,2.65-.27-.79-10-.58Q.25,85.86.25,83.92Z"/><path class="cls-1" d="M237.35,304.29c-.08.06-.12.12-.1.17l-1.68-3.31c1.68-1.46,4.57-2.18,7.9-1.26v3.89c-2.11,1.61-3.73-.37-5.59-.88Z"/><path class="cls-1" d="M243.46,294.54l-6-1.42.12-1,3.11-.59.06-.58-5.42-.81c1.25-1.7,5.64-2.14,8.09-1Z"/><path class="cls-1" d="M243.46,241.52l-6.88-3.09-.71,1.24L231.79,237l-.12-.86,11.79-3.89v.49c-2.08.64-4.54.59-5.23,2.4l-4.16,1.19,6,2.18c.26,2.11,1.94,1.84,3.36,2Z"/><path class="cls-1" d="M240.1,238.54l-6-2.18,4.16-1.19c.68-1.81,3.14-1.76,5.23-2.4v4.38Z"/><path class="cls-1" d="M243.46,33.81l-1.82-4-1.8,1.31c-.28-3.13-2.61-5.63-1.19-8.79a5.74,5.74,0,0,1,1.18-1.3c-1.08,1.52-1.49,3.1-.44,4.82s2.64.84,4.06.71Z"/><path class="cls-1" d="M.25,112.61c3.69,1.18,5.26,3,5.24,6.58,0,1.47.58,3.51-2.19,4.14.14-1.93.77-3.83.26-5.35S1.4,115.36.25,114.07Z"/><path class="cls-1" d="M243.46,148.61,240.88,150l-.43-.45c1.8-2.14-.11-3.13-1.61-4.7l4.63-2.11Z"/><path class="cls-1" d="M162.68,10.48a3.35,3.35,0,0,1,2.11-2.75c.84-.42,1.44-1.83,1.65-2.9a26.45,26.45,0,0,0,.17-4.58h1c0,2,.53,4.19,0,6.07-.46,1.68-2,3.11-3.15,4.53C164.27,11.07,163.29,10.62,162.68,10.48Z"/><path class="cls-1" d="M.25,129.15c3.4,1.84,6.18,4.21,6.56,8.37a18.8,18.8,0,0,1-.34,3.55l-.73-.1c0-.38.08-.77.13-1.15.49-3.63-2.46-8-5.62-8.23Z"/><path class="cls-1" d="M.25,174.39,5.32,179l-.71,1.76.07-.06L.25,179.25Q.25,176.82.25,174.39Z"/><path class="cls-1" d="M243.46,26.52c-1.42.13-3,1.06-4.06-.71s-.64-3.29.44-4.82l3.62-1.77v2.92l-3-.73V26h3Z"/><path class="cls-1" d="M.25,38.68C5.34,40.36,8,45.24,6.17,50.08c.45-4.93-2-8.14-5.92-10.43Z"/><path class="cls-1" d="M243.46,26h-3V21.41l3,.73Z"/><path class="cls-1" d="M237.35,304.29l.52-1.38c1.87.51,3.48,2.49,5.59.88v2.43C240.75,307.71,239.27,305.31,237.35,304.29Z"/><path class="cls-1" d="M61.54.25,56.45,3.67,55.7.25Z"/><path class="cls-1" d="M243.46,156.39l-3.21-2.12,3.29-1.73-3.23-.67,3.15-1.32Z"/><path class="cls-1" d="M243.46,323.72h-4.63c.88-2.91,3.23-1.22,4.63-1.95Z"/><path class="cls-1" d="M240.1,238.54l3.36-1.4v3.4C242,240.38,240.36,240.65,240.1,238.54Z"/><path class="cls-1" d="M.25,183.63l5.17,1.46c-.84,1.48-1.62,2-3,.81a14.43,14.43,0,0,0-2.2-1.3Z"/><path class="cls-1" d="M.25,179.25l4.42,1.44-4.42.5Q.25,180.23.25,179.25Z"/><path class="cls-1" d="M173.23,50.69c-4.6,4.35-9,5.3-13,2.78-3.11-2-5.61-8.15-4.65-11.46.92-3.14,5.11-5.86,8.78-5.69,5,.23,8.31,3.52,9.58,9.14,2.28-2.63,4.68-5.67,7.36-8.43,4.61-4.76,10.49-4.79,16.37-3.54A19.44,19.44,0,0,1,211.3,43.86a49.79,49.79,0,0,1,2.33,6.51c1.09-1.89,2-3.61,3-5.24,4.13-6.35,17-4.75,19.47,3.45.59,1.93-.47,4.35-.72,6.55-.74,6.63-4.4,7.87-10.56,9.07l.54,1.12c-4.48-.52-9-4.55-11.66-10.75-1.08,6.47-3.77,11.54-9,15a19.86,19.86,0,0,1-16.91,2.9C178.27,69.82,172.6,61.37,173.23,50.69Zm47.7,2.48c-.21.29-.63.83-.61.85,1.26,1.07,2.42,2.44,3.89,3a52.08,52.08,0,0,0,6.93,1.88l-.53-6.35-2.47,1.13-.4-.71,3-3.68c-2.41,1.69-4.62,3.32-6.92,4.81-1.22.79-2.28.42-2.88-1a3.21,3.21,0,0,1,2.84-3.56c2.26-.53,4.53-1,6.77-1.65.41-.11.71-.64,1.05-1l-.4-.55-16.47,5.91,0,.85L219,55.77l.66-.76-2-2.35C219.42,50.85,219.59,50.87,220.94,53.17Z"/><path class="cls-1" d="M31.7,57.39c1-1,1.86-2.51,3-2.8,3.25-.81,6.24-3.84,10-1.14,4.85,3.47,6.57,10.87,1.62,15a1.84,1.84,0,0,0-.34.37L54.64,72a23.84,23.84,0,0,1-2-2.31,11.92,11.92,0,0,1,2.68-16c.44-.33.66-.94,1.07-1.32s1.13-1.23,1.58-1.15a57.49,57.49,0,0,1,8.72,1.91c4.44,1.51,5.87,5.52,6.69,9.6a4.91,4.91,0,0,1-2.9,5.82,5.36,5.36,0,0,0-2,1.77c-2.88,4-6.55,5.16-11.18,3.31-.43-.17-.84-.36-2-.83C57.8,76,58.91,79,58.52,82.26s-1.58,6.32-4.34,8.33C49.54,94,44,94,38.85,88.46c-4-4.3-3.41-9.82,2-17.07-4-.25-6-2.36-5.92-6.22l-2.42.94.31-2c-1.69-.66-2.36-4.07-1-6.76-.34,4.79.33,5.33,5.8,4.59V56.43l.82-.19L40.06,60a3.51,3.51,0,0,0-3-4.8C34.72,54.92,33.16,55.91,31.7,57.39Z"/><path class="cls-1" d="M103.49,14c3.59-6.74,10.22-7.72,15.6-6,4,1.28,7.42,6.8,7.13,11.17-.38,5.6-3.84,9.48-9.54,10.66s-10.18-1.72-14-9.37c-1.85,3.46-4.45,6.05-8.31,6.38a15.4,15.4,0,0,1-7.05-1,11.41,11.41,0,0,1-6.54-12.12c1.15-5.68,5.63-10,10.75-10.3C97,3,100.77,6.28,103.49,14Z"/><path class="cls-1" d="M172.25,98.72c.76-.26,1.82-.29,2.24-.82,1.21-1.54,2.16-3.27,3.33-5.12a15.43,15.43,0,0,1-3.51,1.13c-2.41.18-4.84.06-7.26.07,0-2.66-5.23-1.55-3.75-5.25-3-2.19-1.4-5.18-1-7.71.59-3.9,5.14-5.25,8.59-5.17,7.83.18,12.37,7.65,9.12,14.76a11.85,11.85,0,0,0-.44,1.61c5.31-1.25,9.57,0,12.16,4.76,2.25,4.19,1.35,8.1-1.82,11.71l1.93,1.36-6.33-1.24c-1.48-2.71-1.74-2.8-5-1.41-3.81,1.63-5.86,4.91-8.05,8.23l.94-3c-2.25-2.15-3.18-10.06-1.11-12.31l-2.24.92-.27-.33,2.52-2.2Zm4.83,3.09a9,9,0,0,0-2.72-1.55c-.44-.09-1.56,1.17-1.68,1.93s.64,1.6,1,2.34Z"/><path class="cls-1" d="M201.57,322.22c-1,2.66-3,1.44-4.6,1-3.54-.85-4.76-2.84-5-6.41-.06-1.08.56-3.59-2.2-3.28-3.32,6.68-8.61,9.67-14.37,8.11-4.54-1.23-8.27-5.94-8.14-10.29a11.45,11.45,0,0,1,9.1-10.78c6.1-1.09,10.07,1.81,13.16,9.33a62,62,0,0,1,6.9-5.16c1.75-1,4-1,6-1.7a8.77,8.77,0,0,0,5.83-6.85c.78-4,0-7.72-3.8-10.12a1.52,1.52,0,0,1-.55-.43,8.19,8.19,0,0,1,5.82,7.55c.39,5.71-2.44,9.32-8.11,11.22C207.28,307,210.43,311,209,317c-1.05,4.31-2.58,4.76-7.46,5.27,4.07-4.26,4.15-7.53,0-14.53-.94-1.6-2.82-2-4.65-1.93a5.85,5.85,0,0,0,1.9,1.39,8.25,8.25,0,0,1,4.2,10c-.35,1-1.17,2.48-1.84,2.52-2,.11-1.84,1.28-1.91,2.53a11.27,11.27,0,0,1-.52-1.58c-.84-4.79-1.66-9.58-2.57-14.86-1.08,1.44-2.43,2.4-2.47,3.42a50.18,50.18,0,0,0,.56,9.08c.36,2.41,2.19,3.8,4.43,4.58.08,0,.34-.46.52-.71C200,323.6,200.77,323,201.57,322.22Zm-19.69-2.9.65-.71c-.95-.76-2.28-1.34-2.76-2.33a36.22,36.22,0,0,1-1.77-5.75l-1.67.36,1.88,4.55-1.27,1-3.36-5.09-.55.45c0,.29,0,.64.11.86C175.26,315.93,179,317.1,181.88,319.32Zm-.13-8.32c0-1,.42-2.63-.08-3a18.79,18.79,0,0,0-4.38-1.87l1.16-.81-3.51-1.61-1.07.72,1.73,4.1C180.27,307.39,180.27,307.39,181.75,311Z"/><path class="cls-1" d="M43.4,210.86c.79-1.1,1.13-2,1.78-2.37,1.55-.85,1.19-1.73.54-2.95-.9-1.68-1.6-3.46-2.51-5.46-3.06-.92-5.5-5.6-4.88-10.2a31.34,31.34,0,0,0,.63-5.15l-2.7,4.58c-.23-5,2.5-9.09,3.46-13.62,1.3,1.59,1.27,3.59-.07,7.44,1.3-.22,2.31-1.62,2.8-4.48a55.92,55.92,0,0,0,.41-5.74l-2.39,1.58c.47-4.18,4.81-8.63,8.25-8.17,1.58.21,3.86,1.74,4.24,3.11a32,32,0,0,1,.64,10c-.88-1.43-1.77-2.84-2.62-4.28s-1.63-3-4-2.34c.72,3.29,1.22,6.43,4.79,7.94,2.15.9,2.58,3.7,1.25,7.15a3.1,3.1,0,0,1-.83-.38c-3.41-3.08-7.17-3.07-10.34.17-.45.46-.44,1.37-.65,2.08a5.92,5.92,0,0,0,2.17.39c1.3-.29,2.52-1.79,3.81,0s1.72,3.25.46,5.31c-1.57,2.55-.14,6.88,2.56,8a4.09,4.09,0,0,0,3.1-.18c.38-.2.17-1.77,0-2.69-.23-1.65-.88-3.28-.84-4.91.06-2.93,1.5-4.25,5-4.89-.09,1.71-.26,3.35-.24,5,0,2.79.17,5.57.23,8.36a2.44,2.44,0,0,1-.34,1.32c-2.82,4.3-5.68,8.57-8.71,13.11-6.6-7.3-13.44-14.44-12.64-24.85,1.08,1.78,2,4.25,3.77,6,2.62,2.6,2.33,6,3.42,9A20.34,20.34,0,0,1,43.4,210.86Z"/><path class="cls-1" d="M6.64,128.22c0-6.6,4.82-11.7,11-11.71,6.71,0,12.69,5.27,12.69,11.2a12,12,0,0,1-12.17,12.15A11.78,11.78,0,0,1,6.64,128.22Zm17.23-2.72-7.74,2.2C19.22,128.93,21.48,126.77,23.88,125.5Z"/><path class="cls-1" d="M218.25,248.35c-6,.05-11.68-5.37-11.72-11.29,0-6.88,4.72-12,11.27-12.1a12,12,0,0,1,12.26,11.54A11.66,11.66,0,0,1,218.25,248.35Zm5.28-14.48a25.5,25.5,0,0,1-4.38,1.67,23.11,23.11,0,0,1-4.46.06C217.54,237.26,220,236.92,223.53,233.87Z"/><path class="cls-1" d="M223.76,134.54c6.66.14,11.17,5.37,10.94,12.68a10.65,10.65,0,0,1-11.14,10.64c-6.5-.15-11.89-5.41-11.58-11.57C212.33,139.27,217.61,133.79,223.76,134.54Z"/><path class="cls-1" d="M218.76,293.09A11.54,11.54,0,0,1,207,281.22c.17-6.16,4.23-10.6,12.27-11,5.47-.26,11,5.67,11.05,11.62A11.21,11.21,0,0,1,218.76,293.09Z"/><path class="cls-1" d="M209,306.52c-.19-5.84,5-12,11.26-11.85,5.83.1,11,5.5,11,11.69s-5,11.69-10.91,11.7A11.78,11.78,0,0,1,209,306.52Z"/><path class="cls-1" d="M144.87,88.8l-2.69-1.44.09-.22a12.19,12.19,0,0,1-2.63-1.5A6.24,6.24,0,0,1,138,83c-1.76-6,2.58-13.32,8.64-14.71s12.2,2.85,13.39,9.46c1,5.54-.85,10.1-5.12,12.54a4.07,4.07,0,0,1-5.21-.52c-1.13-.92-3.07-.86-4.64-1.24Z"/><path class="cls-1" d="M163,12.88a11.28,11.28,0,0,1,9,5.61c1.82,2.9.08,5.64.12,8.43.07,4.37-2.58,7-6.59,8.2-4.48,1.37-8.53.5-11.71-3-3-3.34-4.27-7.19-2.4-11.62C153.64,15.27,156.88,12.86,163,12.88Zm4.84,18.36.49-.57c-.49-.46-.91-1.17-1.49-1.35a34.48,34.48,0,0,0-4.48-.93c-2-.33-4.6-2.42-4.58-4,0-2.43,2-2.85,3.8-3.29s3.92-.85,5.84-1.39c.39-.11.64-.72,1-1.1l-.39-.41L151.6,24l.06.89,4.09,2.65.68-2.58C159,30.17,164.5,28.37,167.81,31.24Zm-.21-10.08-.35-.29-4.33,4.23,4.54,3.27c.58-2.53-1.77-2.59-3.16-3.54Z"/><path class="cls-1" d="M150.05,16.36A11.07,11.07,0,0,1,133.41,26,10.71,10.71,0,0,1,128,17.52c-.2-2.69,1-5.8,2.39-8.23,2.18-3.77,7.11-4.91,11.53-3.36C147.22,7.78,150.17,11.56,150.05,16.36Zm-8.17.5-2.39-3.42.44,6.19a3.42,3.42,0,0,0,.92-1.46,12.62,12.62,0,0,1,.95-1.4,15.13,15.13,0,0,0,1.84-.8c.13-.08,0-.57,0-.9l-1.75.26,1.53-1.77C141.16,14.18,141.1,14.33,141.88,16.86Zm0,4.74-3.32.76c3.12,1.21,4.53.53,5.28-2a6.45,6.45,0,0,1,2.21-3.21c1.93-1.4.91-3,.62-4.53-.2-1-1-2-1.76-3.19l-2.64,1.29.23.49,1.81-.6c0,2.17.35,4.19-.1,6A23.85,23.85,0,0,1,141.89,21.6Zm-3.66.25V12.53C136.57,15.48,136.58,18.36,138.23,21.85Z"/><path class="cls-1" d="M211.16,210.93c1.72-4.13,4.44-7,9.13-7.72a11.3,11.3,0,0,1,11.58,6.64c2,4.83.84,9.8-2.94,12.39-7.62,5.22-16.73,1.64-18.1-6.88-.23-1.44.26-3,.41-4.49Zm9.47,2.43-1,.2,2,4.61-.48.28-4.46-4.16-.49.53c1,1.73,2.11,3.58,4.27,4.05s2.78,1.27,1.75,3.19l3.27-.21Zm-1.9-2.39c1.83-.14,3.24-.64,4.27-.21.81.34,1.14,1.82,2.07,3.47.07-1.45.53-2.91.08-3.28a21.1,21.1,0,0,0-4.2-2.24l-.2.53-2.66-2.64-.92.58Z"/><path class="cls-1" d="M204.59,91.27c6.35.12,11.23,4.73,11.35,11,.12,6.58-4.77,10.07-11.22,10.56-6,.46-11-4.71-11.06-10.76A11.1,11.1,0,0,1,204.59,91.27Zm3.53,18.88.58-.57-2.29-2.39c.49-.52,1.45-1.07,1.52-1.71a10,10,0,0,0-.64-3.09l-.7.14v3.62l-.73.12L204,101.39l-1.57.16,2.17,4.81-.5.3-4.48-4.3-.63.77C201.21,106.51,205.07,107.84,208.11,110.15Zm-7.21-15.49c-.67,2.2-.67,2.2,1.23,4.46,1.37-.17,2.8-.76,3.81-.34.8.33,1.08,1.91,1.6,2.94.51-.92.93-2.43.43-2.87a16.8,16.8,0,0,0-4.09-2l0,.32Z"/><path class="cls-1" d="M143.42,48.83c-5-.3-8.64-2.22-10.61-6.74-1.84-4.22-.92-8.14,2.1-11.41,1-1.12,2.81-1.58,4.28-2.26a14.21,14.21,0,0,1,1.88-.45,9.74,9.74,0,0,1,12.13,5.89c2,5.16.33,11.56-4.92,13.24C146.64,47.64,145,48.26,143.42,48.83ZM142.69,42l-.48.4-4.38-4.15c-.29.77-.25,1.22,0,1.43,2.53,2.1,5.09,4.17,7.68,6.19.27.21.84,0,1.38,0-1.69-2.82-4.22-4.92-4.41-8.3,0-.14-1-.23-1.86-.41Zm2.76-4.13c1.75-.78,1.28-2.08.78-3.19-1.07-2.37-3-1.54-4.26-1.21l-2.61-3-1.06.65,1.76,4.06C144.83,33.83,145.06,33.95,145.45,37.83Z"/><path class="cls-1" d="M70.26,21.71c3.62-1.3,7.2-1.52,10.59.66a11.32,11.32,0,0,1,4,15.25,11.2,11.2,0,0,1-15,3.94c-5.26-2.95-8.15-11.15-3.27-16.23,1.22-1.27,2.52-2.47,3.78-3.7ZM81.83,30.1c-.47.87-.91,1.76-1.41,2.61-.84,1.42-1,3.75-3.67,2.78,1.11-2.2.57-4.21-.68-6.54,0,2.4,0,4.37,0,6.35,0,.07.38.14.59.21l-.9,2.88c2.19.48,3.57.11,4.34-2.12.48-1.38,1.76-2.46,2.43-3.81A6.72,6.72,0,0,0,82.72,30c.16-.5.61-1.13.44-1.47A37.84,37.84,0,0,0,81,25l-2.46,1.29,2.88,2.63.41-.44Zm-7.57,6.65.26-.11V27.85l-.43-.08-1.08,4-2.24.71.08.36,2.17.26Zm4.38-4.11,1-.16.26-3.28-.68-.3c-.49.52-1.32,1-1.38,1.57S78.34,31.91,78.63,32.63Z"/><path class="cls-1" d="M236.61,31.15c0,4.38-1.91,6.85-6.21,7.52-2.16.33-4.37.29-6.56.42-1.13.06-2.14,0-2.13-1.56a.91.91,0,0,0-.46-.65c-3.07-1.5-4.48-4.25-4-8,.66-5.44,3.88-8.33,9-8.07C232.26,21.14,236.57,25.42,236.61,31.15Z"/><path class="cls-1" d="M24.31,99.32l2.77-.55-.1-.64c-.56.07-1.2.35-1.65.17S24,97.47,24,97c.09-3.49,1.07-6.45,4.82-7.78,4.38-1.55,8.31-.92,11.66,2.27,3,2.89,3.7,6.5,2.52,10.46-.75,2.53-2.74,3.56-5.13,4.08-.45.1-.87.44-1.32.45-2.34.07-5.27,1-6.88-.1C27.29,104.86,24,103.13,24.31,99.32Z"/><path class="cls-1" d="M76.83,60.16c-.9-.51-2.27-.82-2.61-1.59a16.89,16.89,0,0,1-1.42-5.51c-.36-4.91,1.1-7.3,4.87-8.61,5-1.74,9.66-.34,12.67,3.82,2.4,3.33,2.46,8.1-.06,11.09-.62.73-1.22,2.25-2.87,1.27-.3-.18-1.15.38-1.63.73-2.52,1.84-5.19.63-7.78.33-.4,0-.66-1.27-1-1.95Z"/><path class="cls-1" d="M168,330.34c-.77,1.81-1.05,4.41-2.42,5.27a26.19,26.19,0,0,1-8.54,2.92c-.68.14-1.87-.77-3-.32a.83.83,0,0,1-.69-.14c-1.29-1.07-2.95-1.94-3.7-3.32s-.79-3.44-1.13-5.18a9.69,9.69,0,0,1-.3-1.6c-.1-4.51,2-6.84,6.83-7.78A11.07,11.07,0,0,1,168,330.34Z"/><path class="cls-1" d="M223.25,131.64c-2.11,2.32-2.85-1.45-4.15-2.23s-2-3-3-4.79l3.57-.48,0-.64-2.77.19a7,7,0,0,1,1.47-7.54c3.29-3,8.89-3.25,12.84-.59a10.21,10.21,0,0,1,3.94,11.73,5.71,5.71,0,0,1-5.07,4.2c-1.18.12-2.3.81-3.48.92C225.67,132.48,224.79,132,223.25,131.64Z"/><path class="cls-1" d="M205.4,252.19l1.46.25.18.65c-3.32,1.28-6.59,2.72-10,3.76a3,3,0,0,1-4-2.09c-.37-1-2-1.47-2.92-2.29-2.59-2.27-3.79-5.56-2.86-7.64,2.31-5.22,5.15-7.19,9.52-6.61,6.36.85,10.07,6,8.9,12.34Z"/><path class="cls-1" d="M190,223.17a8.56,8.56,0,0,1,1.93-1.71,45.53,45.53,0,0,1,6.81-2.65c2.82-.75,6.95,2.63,8.17,6.35,2.31,7.05-4,13.12-9.26,12.27a4.88,4.88,0,0,1-4.5-4.74,4.69,4.69,0,0,0-.47-1.22c-1.15,1.39-2,1.91-2.42-.36-.56-2.7-2.19-5.31-.17-8-.65,5.33-.62,5.36,5.64,5.31v-5.57l.75-.15,1.67,3.6c.55-1.74-.27-4.16-1.72-4.58a1.8,1.8,0,0,0-1.57.73c-.69,1.39-1.15,2.89-1.7,4.37l1.43.34-.06.6c-1,0-2.88.21-2.95,0a26.57,26.57,0,0,1-.39-4.82l2.17,1.22.64-3Zm9.6,3.31c-1.27,2.07-1.1,5,.19,5.51.34.14,1-.36,1.44-.57l-.22-.52-1.4.68Z"/><path class="cls-1" d="M25.09,315.48l.85,1,2.78-.93c-1.65-2.19.54-2.13,2.25-3a37.09,37.09,0,0,1-7.08,22.56L8.11,311.42a37,37,0,0,1,5-2c.54-.14,1.68.61,2,1.23,1.26,2.59,2.3,5.29,3.56,8.3l-2.11-1.79-.17.17,8.13,13,.25-.11L20.2,317.48C22,317,24.25,318.72,25.09,315.48Z"/><path class="cls-1" d="M44.48,42.38c.38,2.2-.26,4.57-2.63,5.63-3,1.36-5.93,4-9.7,2.3-2.5-1.1-4.67-2.19-4.4-6.12,0-.64.63-2.31-1.47-2.7-1-.18-1-2.38-.36-3.85,2-4.73,6.2-6.94,11.19-5.81C41.89,32.92,44.74,36.84,44.48,42.38Zm-9.62,7.08c-.23-.84-.52-1.66-.68-2.51-.82-4.46-1.6-8.92-2.43-13.59-3.64,3.58-3.49,12.63.12,15.38.66.51,1.67,1.79,2.92.64.87.91,1.69,1,2.53-.08.43-.57,1-1,1.44-1.61,1.84-2.29,1.66-8.2-.13-9.8a34.85,34.85,0,0,1-.09,5.82c-.2,1.19-1,2.89-2,3.2C35,47.43,34.86,48.24,34.85,49.46Zm2.36-13.29c-.57-2.49-2.71-3.73-4.83-3Z"/><path class="cls-1" d="M16.47,144.6c.22,2.23.52,4.45.64,6.68.11,2-.49,3.7-2.86,4.21-.39.08-.59,1-1,1.8L10.36,142l-.59-.2C9.15,143.12,8,144.42,8,145.69c0,3.23.64,6.46,1,9.69a6.46,6.46,0,0,1-.28,1.67c-.53-.24-1.37-.35-1.52-.73-.43-1.12-.48-2.39-.87-3.53s.62-3-1.59-3.47c-.3-.06-.73-1-.62-1.32,1.18-3.85,3-7.17,7.38-7.72,5.09-.64,9.63,1.51,10.94,5.61.5,1.55.09,3.52-.3,5.2-.59,2.53-1.53,5-2.25,7.25l-3.69-.89c4-3.69,2.45-8.07.94-12.43-.06-.18-.46-.24-.71-.36a6.63,6.63,0,0,0-5-3.65l-.48.77Z"/><path class="cls-1" d="M233,110.56v-8.95l-.38-.06-1.44,3.07-3.09-3,4-.62C230,99.84,229,95.45,226,98.86l-4-1.84c.07,2.68,1.54,3.77,5.11,4,.06.14.22.35.17.42-2.54,3.67,1.59,3.11,2.8,4.38a9.88,9.88,0,0,0,1.65,1.14l-.29.61-5.25-.77-2,3.75-1.81-2.28-1.58.23a13.15,13.15,0,0,0-1.21-2.74c-.45-.6-1.29-.9-1.83-1.56,1.84-.09,3.89,1,4.56-1.85l-3.37-2.4.49,2-.9.29a11.36,11.36,0,0,1-.77-3.22c0-.54,1.08-1,1.3-1.23.37-1.09.38-2.12.89-2.51,3.69-2.82,10.48-1.63,13.6,2.27C236.79,101.74,236.43,107.4,233,110.56Z"/><path class="cls-1" d="M71.77,96.13l-7.67.68c-.55,1.77-2.34,1.68-4.22,1.16,0,1.77-1.85,3.84-3.38,3.51a3.61,3.61,0,0,1-3.06-3.29c-.57-5,2.24-9.43,6.73-10.24C66,86.88,70.59,91.47,71.76,95A4.14,4.14,0,0,1,71.77,96.13Z"/><path class="cls-1" d="M120.52,47.65c-3.93-.09-5.4-1.6-6.57-6.79l-1.22.5c0-2.44-.33-4.83.09-7.07.45-2.4,2.77-3.22,4.9-3.72a10.33,10.33,0,0,1,10.43,4.22c2.53,3.73,2.58,7.46-.16,11.72V39.62h-3.73l1.07-3.31a32.52,32.52,0,0,0-4.13,1,36.53,36.53,0,0,0-4.09,2.31c1.26.37,2.12.71,3,.87,1.07.19,2.17.23,3.49.37-3.07,2.73-3.84,3.78-6.83-.09C116.25,41.64,116.25,41.64,120.52,47.65Zm-6.24-8.21A27.45,27.45,0,0,1,117,36.28c.58-.49,1.53-.54,2.25-.9a10.09,10.09,0,0,0,1.49-1.12l-4.35-1c.39.61.95,1.22.84,1.39a2.52,2.52,0,0,1-1.39,1.13C114.12,36.12,113.76,37.07,114.29,39.44Z"/><path class="cls-1" d="M150.54,65.26c.36-2.62-3.7-3.57-1.25-6.69-2.88.21-4.76-5.52-8.1-.71-1.57-1-3.77-1.52-3.15-4.08a5,5,0,0,1,1.64-2.91,9,9,0,0,1,9.84.06c3.24,1.94,5.35,4.65,5.11,8.68a4.49,4.49,0,0,1-.18,1.91c-.53.87-.07,2.92-2.28,2.17C151.93,63.6,151.36,64.45,150.54,65.26Zm1.52-2.77h.88c0-1.31.37-2.76-.08-3.89-.71-1.76-2.44-1.69-4.17-1.3C150.16,58.88,153.22,59.22,152.06,62.5Zm-6-9.65L149.94,55C148.78,52,148.78,52,146,52.84Z"/><path class="cls-1" d="M162.4,313.85a11.13,11.13,0,0,1-1.37-.71c-.56-.39-1.4-.78-1.54-1.32-1.14-4.43-3.4-5.55-7.84-3.87-.44.17-1.14-.25-1.68-.49s-1.21-.67-2.06-1.14c.95-1.41,1.68-3.37,3.09-4.44,2.93-2.21,7.63-1.72,10.86.63a9.66,9.66,0,0,1,3.7,10.29,7.15,7.15,0,0,1-2.12,2.78c-.14.13-1.23-.76-1.89-1.17l.87-.61c2.33.21,2.26-1.46,2.09-2.89-.29-2.46-1.38-3.06-4.41-2.53l2.35,1.86C164,311.48,163.89,312.68,162.4,313.85Zm-5.12-10.05,3.65,2.09C160.66,303.25,159.48,302.89,157.28,303.8Z"/><path class="cls-1" d="M181.17,123.33l1.29-1.14c3.17,1.57,6.27,2.94,9.19,4.61,2.11,1.2,3.74,1.07,5.38-.83-.22,5.81-4.46,8.82-8.35,12.07l2.1-3c-.75-.48-2.6,0-1.46-1.78l-1.81.87a7.81,7.81,0,0,0-1.12-2.12,19.4,19.4,0,0,0-4.35-3.54c-2-1-2.17-2.1-1.12-3.81a4.72,4.72,0,0,0,.34-1.37Z"/><path class="cls-1" d="M10.13,204.29c2.55-.27,2.32,3.47,4.63,4.17l-1.83,5.75,3.37,2.22c-1.83,2-1.39,4.4-.17,6.74-3.67.71-6.81-2.25-8.81-7.46C5.67,211.37,7.91,208,10.13,204.29Z"/><path class="cls-1" d="M102.92,34.74l-4.71-1.55.16-.57L95,34.7,90.61,32l1.9-.66L91.95,31a9.82,9.82,0,0,1,1.61-2.73c3-2.59,8.52-2,12.26,1.25a9,9,0,0,1,2.06,11.19,4.26,4.26,0,0,1-.71.64l-.86-2.25c2.48-1.58,2.15-2.21-2.83-5.51l-.65,1.25Z"/><path class="cls-1" d="M126.65,60.61c.09-.36.08-.82.3-1.06,1.55-1.68,1.35-3.45-.6-4.4a7.38,7.38,0,0,0-3.49-.81l1,1.23-5.3,3.19a27.42,27.42,0,0,1-1.45-2.47c-1-2.07-.45-3.21,1.71-4.12,6.07-2.56,13.65,1.94,14.23,8.54a8.1,8.1,0,0,1-3.67,7.47c-.77.56-2.18.23-4,.36l1.38-8c.75,2.06.71,4.26.87,6.48,3.84-.3,2.32-3.63,3.65-5-.9-.36-1.47-.64-2.06-.81C128.35,60.93,127.49,60.79,126.65,60.61Z"/><path class="cls-1" d="M59.67,38c-3.36-1.06-6,.81-8.15,2.13a23.55,23.55,0,0,0-1.57-3.68c-.84-1.29-.18-2,.76-2.54,3.88-2.41,10.83-.6,13,3.49a20.72,20.72,0,0,1,2,5.54c.48,2.52-1,4.47-2.69,6.16-1.19,1.19-2.52,1.74-4.21.43,0-2.1-.12-4.33.07-6.54.06-.76,1.17-1.41,1.29-2.19.18-1.19.37-2.88-.28-3.59-1-1.07-2.67-1.47-4.23-1.86.79,1.75,2.28,2.36,4,2.65Zm.63,4c-.11,2-.22,3.57-.27,5.18a10.9,10.9,0,0,0,.22,1.72c.69-.32,1.61-.46,2-1C64.41,45.35,63.95,43.66,60.29,42Z"/><path class="cls-1" d="M215.79,252.67c-1.23.31-2.47.61-3.69.94-.85.23-1.69.5-2.09.61l-2-4.41c3.53-2.95,9.81-2.33,13.34,1.71,3.29,3.77,4.17,9.27-1.64,13.22l-3,1,.07.08a36.16,36.16,0,0,1,0-4.82c.23-1.92-.69-4.28,1.83-5.51.26-.13.33-.84.33-1.28,0-2.32-2.56-3.93-5.08-3.26l1.94,1.74Zm6.6,5.7-.7-.8-4.08,3.32,2,3Z"/><path class="cls-1" d="M14,178.15c1-2,1.22-3.6-1.47-4.54-.84-.29-1.72-2.12-1.62-3.15.47-5,2.07-8.87,8-9.77-.17,2.07-.44,4.1-.47,6.14a8.8,8.8,0,0,0,.53,3.74c.95,2.05-.1,3.29-1.29,4.64-1,1.13-2,2.32-2.93,3.48Z"/><path class="cls-1" d="M62.74,137l-3.37-1.83.43-1,2.08.46a19.71,19.71,0,0,1,.22-3,9.9,9.9,0,0,1,2.05,0c.16-.84.37-1.9.54-3,0-.31-.16-.87-.06-.92,3.3-1.65.36-2.91-.37-4.07A3.05,3.05,0,0,1,65.86,119c3.57-1,5.34-.15,6,2.76.1.44.21,1.06,0,1.35-1.73,2.28-3.67,4.41-5.27,6.77C65.22,132,64.2,134.28,62.74,137Z"/><path class="cls-1" d="M41.86,18.64,40,16.46c3.55-4.37,9.7-3,13.69.61,4.55,4.15,3.65,11.23.19,13.83V20.33l-.69.35c-.77-.64-1.79-1.14-2.25-2a1.57,1.57,0,0,0-2.61-.49c-2,1.71-3-.32-4.39-1.21l2.75-.45c-2.58-.89-3.85.29-4.77,2.16l0-.06Z"/><path class="cls-1" d="M199.52,185.08l-4.19,2.52-.51-.52a61,61,0,0,0,4.4-5.12c1.81-2.62,3.94-4.22,7.26-3.46,3.95.91,7.16,2.88,8.13,7,.46,1.95.11,4.1,0,6.15,0,.37-.62.71-1.26.93,1-3.9.68-7.52-2.15-10.21a8.12,8.12,0,0,0-7.76-2.38c4.61-.25,5,4.24,7.64,6.19l-2.93,1.88c-1.24-1.85.65-4.92-2.44-6.55v5.35c-.75-.21-1.48-.24-1.56-.48-.44-1.36-.66-2.78-1.09-4.15a10.73,10.73,0,0,0-1.09-2c-.42.44-1.07.82-1.22,1.34a38.84,38.84,0,0,0-.75,4Z"/><path class="cls-1" d="M135.74,83.8c-1.85-1.63-3.68-3.28-5.56-4.87a5.52,5.52,0,0,0-1.48-.63l-9.32-3.85c2.95-2.47,5.94-2.31,8.85-1.57,4.51,1.14,7.53,5.21,8.05,10.34Z"/><path class="cls-1" d="M41.94,18.67l0,.06c.39,0,.88,0,1.15.17,1.27,1,1.94,3.25,4.27,1.79,0,0,1,.91.89,1.27a10.49,10.49,0,0,1-1.08,2.35A29.75,29.75,0,0,0,50.95,26c1.62.47,2.26.85.39,1.94-.13.08.06.71.1,1.09l-6.55-3.47c.81,2,4.12,4.2-.43,5.3l-1-2.3L42,28.75c-.58-1.22-.9-2.83-1.44-2.92-3-.45-1.57-1.78-.78-3,.21.57.31,1.57.64,1.65,1.45.35,2.64,0,2.7-1.67l-1.51-1.81Z"/><path class="cls-1" d="M20.29,234.43,18,240.85c-3.5-.95-4.32-3.92-5.18-6.79-.76-2.55,1-6.82,3.4-8.22l.33,6.61Z"/><path class="cls-1" d="M172.28,98.69l-6.29.76L161.82,103l-3.35-7.55c3-1.77,5.82-.31,8.58.86,1.76.74,3.45,1.64,5.19,2.45Z"/><path class="cls-1" d="M59.65,38c-.16.61-.11,1.47-.5,1.8-2.06,1.73-1.58,4.05-1.67,6.25a19,19,0,0,1-.6,4.63c-2.2-2.08-2.69-5.67-6.55-5.56l-.09-.77,2.91-1.23c-.53-2.39,1-3.47,3-4.13,1.14-.37,2.31-.66,3.47-1Z"/><path class="cls-1" d="M206.52,7.11l-3.85,2.7,4.28,1.81-.3,1.11c-.82-.2-1.66-.37-2.46-.63-.28-.09-.44-.52-.71-.62-2.79-.95-5.59-1.86-8.77-2.91l-.18-3.38c4.16,1.5,8.6-1.47,12.06,2Z"/><path class="cls-1" d="M216.68,265.79,216,267.1a6,6,0,0,1-1.58-1.13c-1.14-1.6-2.07-3.34-3.26-4.9a9.85,9.85,0,0,0-2.49-1.61,8.44,8.44,0,0,0,1.42-.88c.58-.54,1.39-1.12,1.52-1.79.43-2.15,1.65-3,3.91-2.29l.28-1.84-.07.07c1.75,0,2.07,1.19,1.25,2.17-1.63,2-1.36,4.14-1.41,6.36,0,1.59-.25,3.18-.4,4.94l1.58-.34Z"/><path class="cls-1" d="M178.7,122.47c-.62.26-1.29.83-1.84.74-1.71-.31-3.92-5.3-3.17-6.89,1.63-3.49,2.87-4.87,5.87-6.31l-2.36,3.32c3,2.73,2.68,5.91,1.43,9.22Z"/><path class="cls-1" d="M28.52,211.42l-4.81-1,2-3.49-4-7.65.38-.35-.46,1.9-1.19-1.86a5.44,5.44,0,0,1,4.74-4.17c.29,2.77.39,5.57.92,8.29S27.58,208.25,28.52,211.42Z"/><path class="cls-1" d="M11,98.11a12.65,12.65,0,0,1,3.45-.92,9,9,0,0,1,8,4.64c1.76,3.09,2.53,6.3,0,9.48-3.21-5.16-3.29-5.68-.4-6.47-1.63-1.84-2.81-3.95-4.6-5s-4.16-.85-6.27-1.21Z"/><path class="cls-1" d="M41.39,119.8l-4.15.74,2.07.68c-1,2.47-2.54.23-3.86.42-.51,1.82,3.38,2.86,1.36,4.54a17,17,0,0,1-3.84.39,2.43,2.43,0,0,1-1.65-1.48,11.09,11.09,0,0,1,.2-3.22L33.66,123l.56-1.87-2.68.19a28.73,28.73,0,0,1,2.58-2.16C36.65,117.61,39.58,117.73,41.39,119.8Z"/><path class="cls-1" d="M125.2,58.27l-1,11.1c-2.74-2.22-2.94-6-6.74-6.51L120,61.62a5.73,5.73,0,0,1,.58-2.13,5,5,0,0,1,2.33-1.84C123.59,57.45,124.52,58.06,125.2,58.27Z"/><path class="cls-1" d="M188.59,26.21c1.43-1,4-.12,3.57-3.11-.32-2.4-2.32-5.15-4.45-5.75-1.18-.33-2.23-1.12-3.41-1.39a20.64,20.64,0,0,0-4-.05,9.22,9.22,0,0,1,12.44,3.45c2.43,4,2.11,8.32-1,10.27C192.69,26.58,191.12,25.94,188.59,26.21Z"/><path class="cls-1" d="M6.16,2.35c3.92-.79,6.93,0,8.68,3.85a23.71,23.71,0,0,0,2.58,3.68l-.57.61L15.06,8.9l-1.75,1.45-1.54-5c-.56.2-.79.2-.83.3-.42.85-.68,2.36-1.23,2.46C7.88,8.52,9,6.51,8.41,6,7.16,5.08,5.46,4.57,6.16,2.35Z"/><path class="cls-1" d="M147.52,61.17c-.65.6-1.31,1.11-1.86,1.72-2.43,2.69-3.35,2.69-6.31-.26l3.94-.24,0-.5-6-1-.15,2h-.71c-.1-.68-.25-1.36-.3-2-.09-1.21.28-1.69,1.7-1.54a62,62,0,0,0,6.47.06l-1.37-1.65.3-.35Z"/><path class="cls-1" d="M98.07,38.89c-1.44-.11-2.89-.14-4.31-.38-.57-.1-1.05-.67-1.58-1A7.5,7.5,0,0,1,93.78,37c1.9-.18,3.8-.27,5.85-.41l2.23,1.54c-.06-1,2.61-1.46.4-2.45l.66-.92-.08.07c1.76,1,4.3,1.34,3.58,4.36l-.94,2c-.78-.73-1.46-1.84-2.37-2.09-1.09-.29-2.37.15-3.84.31-.11-.09-.57-.45-1-.79,0,0-.16,0-.24,0l.07.31Z"/><path class="cls-1" d="M102.71,67.37c2.1-2.38,4.42-1.32,6.33-.62a9.38,9.38,0,0,1,6.42,8.32l-2.74-.17c.59-2.88-1.3-4.61-3.08-5.68S105.27,68,102.71,67.37Z"/><path class="cls-1" d="M128.47,98.95l4.83,7.57c-1.42.22-2.65.76-3.68.51-3-.72-3-3.58-3.7-6.07l1.88,1.13Z"/><path class="cls-1" d="M182.66,215.37c.84,2.85.14,5-2.64,6.86l3.15.45-4.38,6.89C177.55,226.7,179.94,218.65,182.66,215.37Z"/><path class="cls-1" d="M189.73,75.06c3.13-2.07,7.66-1.24,10.63,1.58,3.17,3,3.84,7.05,1.68,11.64-.36-3.86,1-7.87-2.68-10.37C196.49,76,193.77,73.43,189.73,75.06Z"/><path class="cls-1" d="M101.13,46.3c6.09-1.63,11.23,2.05,12.38,8.24a14,14,0,0,0,.91,2.39l-1.93.54c.28-3.15-1.13-5.83-3.29-8.19S103.88,47.12,101.13,46.3Z"/><path class="cls-1" d="M190,223.17l4-2-.64,3-2.17-1.22a26.57,26.57,0,0,0,.39,4.82c.06.24,1.92,0,2.95,0l.06-.6-1.43-.34c.55-1.48,1-3,1.7-4.37a1.8,1.8,0,0,1,1.57-.73c1.45.42,2.27,2.83,1.72,4.58l-1.67-3.6-.75.15v5.57c-6.26,0-6.29,0-5.64-5.31Z"/><path class="cls-1" d="M165.22,292.17c.66-8.06-3.41-11.79-11.16-12.68,3.79-1.38,7.36-.18,10,2.9C166.66,285.31,167.12,288.48,165.22,292.17Z"/><path class="cls-1" d="M22.92,68c4.37-1.87,7.69-.13,10.39,2.95a8.28,8.28,0,0,1,1.56,9C34.52,72.23,30.83,68,22.92,68Z"/><path class="cls-1" d="M189.55,209.34l-1.81.3c-.61-2.75,1.55-3.65,3-5.2.78,7.59-.6,11-6,14C186.34,215.16,190.05,213.37,189.55,209.34Z"/><path class="cls-1" d="M155.16,308.27l3.31,4.76L148.32,312l.45,1.6c-1.55,0-1.55,0-1.09-3.3l8.23.65-1.41-2Z"/><path class="cls-1" d="M176.33,324.55c5.44-2.19,6.57,1.76,8.48,4.75a2.34,2.34,0,0,1-3.19-1.56c-.41-1.12-.8-2.25-1.2-3.37l-.6.2v5.29C176.63,329.21,178.85,325.65,176.33,324.55Z"/><path class="cls-1" d="M234.88,171.21c-.57-6.71-3.89-10.74-10.83-11.55,3.42-1,6.15.14,8.4,2.3A8.5,8.5,0,0,1,234.88,171.21Z"/><path class="cls-1" d="M162.45,56.49a9.55,9.55,0,0,1,10.16,2.8c2.28,2.58,3.13,6,1.86,8.6C173.82,60.47,169.86,56.85,162.45,56.49Z"/><path class="cls-1" d="M190.85,76.32c3.16-.76,5.61.29,6.72,3.34.42,1.16-.22,2.7-.79,3.93L195,76.91,194,77l-.46,5.05-.58.21Z"/><path class="cls-1" d="M211.16,210.93l.09-.07c-.35-.62-1.07-1.3-1-1.86.53-3.49-2.1-5.33-4.06-7.19-1.19-1.13-3.48-1.11-5.28-1.59-.63-.17-1.28-.29-2.22-.49,2.64-1.54,6.84-.47,9.43,1.91C210.91,204.19,211.33,207.45,211.16,210.93Z"/><path class="cls-1" d="M181.93,322.67c6,.14,9.09,7.43,5.64,13.23C188.86,330.12,187.43,325.54,181.93,322.67Z"/><path class="cls-1" d="M215.68,26.49C213.94,18.11,209.5,16,203.34,15.6a9,9,0,0,1,9.53,2.31A8.55,8.55,0,0,1,215.68,26.49Z"/><path class="cls-1" d="M187.24,294.81c-1.15-2.8-1.69-5.5-3.21-7.44s-4-3.06-5.82-4.4C183.14,282.22,187.75,287.75,187.24,294.81Z"/><path class="cls-1" d="M224,194.43l-4.64-.43-.11-1,6.51-1.07-1.59-1.26.46-.53,4.69,4.4h-5.46Z"/><path class="cls-1" d="M16.93,190.23l1.77-2.65a14.59,14.59,0,0,1,3,.44c.63.23,1.1.92,1.64,1.4-.44.44-.84,1.21-1.34,1.28C20.29,190.92,18.44,192.33,16.93,190.23Z"/><path class="cls-1" d="M33.81,164.67l-3.54.66-.24-.4,2.88-2-2.19-3.2.51-.34a34.57,34.57,0,0,1,3.54.94,1.37,1.37,0,0,1,.51,1.24A30.22,30.22,0,0,1,33.81,164.67Z"/><path class="cls-1" d="M183.3,225l.61-1.72c3.46,4,3.94,7.41,1.49,11.18C184.93,231.26,186.54,227.69,183.3,225Z"/><path class="cls-1" d="M159.67,317.36c-3.36,0-6.12-2-9.32-2.89C152.75,312.69,155.49,314.13,159.67,317.36Z"/><path class="cls-1" d="M26.16,243.15l-2.81,5L21.65,244l4-1.48Z"/><path class="cls-1" d="M10.79,303.84c.27,1.46-1.3,3.08-3.41,3.49a8.41,8.41,0,0,1-1,.07c1.06-1.82.81-5.2,4.54-3.49Z"/><path class="cls-1" d="M118.69,304.78a8.11,8.11,0,0,1,6.89,6.77Z"/><path class="cls-1" d="M11,251.9c3.6-.07,6.53.8,8.49,4Z"/><path class="cls-1" d="M41.94,18.67l-.32,2.28-1.74,1.6c-1.68-1.25-2.14-2.71-.72-4.7l2.69.79Z"/><path class="cls-1" d="M10.79,303.84l.11.08c-.72-1.49-.61-1.65,2.08-2.94l1.12,4.25-2.8,1.89C12.76,305.1,12.92,303.95,10.79,303.84Z"/><path class="cls-1" d="M178.64,122.55c.12-.11.23-.22.35-.32l2.33-1.94-.14,3,.08-.1-2.46,2.64-.48-.25q.2-1.58.39-3.16Z"/><path class="cls-1" d="M106.42,39.16c.71-3-1.83-3.37-3.58-4.36l.65-1.25c5,3.3,5.31,3.93,2.83,5.51Z"/><path class="cls-1" d="M25.53,144.49l5.91-7.09.75.63-5.92,7.09Z"/><path class="cls-1" d="M39.88,22.55l1.74-1.6,1.51,1.81c-.06,1.68-1.26,2-2.7,1.67-.33-.08-.43-1.07-.64-1.65A1.67,1.67,0,0,0,39.88,22.55Z"/><path class="cls-1" d="M19.35,193.11c1.89-.57,3.78-1.17,5.7-1.64.16,0,.52.79,1,1.58l-6.35,1.15Z"/><path class="cls-1" d="M135.43,106.37l-3.72-3.86c2.12-1.13,3.14-.24,4.38,3.25Z"/><path class="cls-1" d="M9.94,144.54c.23,1.42.55,2.84.63,4.28,0,.46-.56,1-.87,1.45-.32-.43-.91-.86-.91-1.29,0-1.51.21-3,.34-4.54Z"/><path class="cls-1" d="M224,194.43l-.14.1,1.31,2.93h0l-4.82-1.22.2-.56Z"/><path class="cls-1" d="M76.92,127.06l2.86-.18.79,1.71-3.08,1.57Z"/><path class="cls-1" d="M241.65,189.16c2,3,1.64,5.26-.55,5.68Z"/><path class="cls-1" d="M68,110.07c1.36-2.86,2.13-3,4.52-1.09C71.54,111.16,69.77,110,68,110.07Z"/><path class="cls-1" d="M110.51,77.53l-6.93,2.81C104.46,78.51,108.7,76.71,110.51,77.53Z"/><path class="cls-1" d="M207,3.92c1.56-1.69,3-1.25,4.36,1.87l-4.53-2Z"/><path class="cls-1" d="M52.92,24.52l-3.58-2.1-.16-.64c1-.13,2.18-.56,3.08-.27C52.69,21.65,52.66,23.18,52.92,24.52Z"/><path class="cls-1" d="M98.06,38.89l-.18,3.86L94.57,41l3.5-2.14Z"/><path class="cls-1" d="M156.88,203.25l6.23-1.76.26.94-6.24,1.51Z"/><path class="cls-1" d="M30,3.15,26.59,2l.3-.94c1.54-.85,2.42.55,3.48,1.33Z"/><path class="cls-1" d="M149.31,66.09c-2.42,1.19-3.57.67-4.43-2.06Z"/><path class="cls-1" d="M34.38,130.78l-3.26-1.89h4.65l.18.52Z"/><path class="cls-1" d="M51.56,101.69l-5.54-1A4.39,4.39,0,0,1,51.56,101.69Z"/><path class="cls-1" d="M225.17,197.45l5.3.67c-1.64,1.78-2.57,1.87-3.63.57a8.54,8.54,0,0,0-1.62-1.26Z"/><path class="cls-1" d="M29.13,217.77l-2.59,3.95-.87-.6,2.73-3.85Z"/><path class="cls-1" d="M182.07,227.06c2.47,2.45-.72,3.26-.95,4.72Z"/><path class="cls-1" d="M127.89,280.31c-2.51,2.25-5.3,2.22-8,2a22.68,22.68,0,0,1-10.67-3.58,18.83,18.83,0,0,0-4.81-1.83,2.38,2.38,0,0,1-1.52-3,1.24,1.24,0,0,0-.07-.87c-3.72-6.59-3.55-13.81-3.42-21a79.42,79.42,0,0,1,.64-8c.25-2.12,1.38-3.28,3.75-3.19,3.88.14,7.83-.4,11.62.21a32.32,32.32,0,0,1,10.89,3.6,90.85,90.85,0,0,0,13.19,6.49c5.36,2,6,5.87,2.11,10-3.49,3.77-6.84,7.68-10.4,11.37-1,1-2.53,1.49-3.82,2.22l-.37-.61,2.67-2.19-3.3-.58c1-.94,2.15-1.6,2.6-2.58a5.6,5.6,0,0,0,.37-3.71c-.2-.62-1.85-1.21-2.77-1.1-4.41.52-8.38-.07-12.13-2.77-1.66-1.19-3.85-2.23-6.65-.93l6.9,6.14-.22.43-9.2-5.28c3.63,7.44,9.92,10.68,17.05,13.19a32,32,0,0,1-5.46-.5,30.51,30.51,0,0,1-4.93-2.22c-.84,1.8-.31,2.92,1.16,3.71,3.49,1.88,6.68,4.52,11.11,3.81C125.27,279.43,126.42,280,127.89,280.31Zm-6.21-24.1c.53,1.83,2.71,2.45,4.95,3,.45.1,1.21-.12,1.36.11,1.33,2,3,2.8,5.35,1.91.23-.09.68.53,1.08.73.79.39,2.19,1.17,2.34,1a11,11,0,0,0,2.37-4c.15-.59-1.12-1.88-2-2.34-2.6-1.35-5.56-2.11-8-3.71-5.4-3.57-10.89-6.81-17.32-8.07-3.33-.65-6.7-1.16-10.28-1.77,1.46,6,2,7,4.18,6.28l4.87,2.52c1.46,1.51,3,2.22,5,1.54Z"/><path class="cls-1" d="M95,180.89c1.29-1.8,3.44-3.9,4.41-6.44s2.12-3.79,4.74-4.08c.54-.06,1-1.27,1.69-2.32l1.06,4.85.45,0,.39-4.91.54-.13,1.39,2c3.19-1.44,6.21-.25,8.11,3a10.86,10.86,0,0,0,2.68,2.63c2.68,2.14,5,4.57,6,8l-3.42-4.3,2.32,15.67-.65.13c-.24-1.25-.55-2.48-.7-3.74a15.47,15.47,0,0,0-9.48-13c-4.08-1.86-10.27.23-13.29,4.49-.41.58-.74,1.22-1.21,2l3.58,2.56a32.63,32.63,0,0,1,1.74-3.26,6.34,6.34,0,0,1,8.29-2c3.21,1.76,4.91,5.82,3.55,8.8-.68,1.48-1.58,2.83-3.69,2.17-5-1.57-10.2-2.84-15.13-4.69A3.49,3.49,0,0,1,96,183.87C96.23,183.25,95.51,182.31,95,180.89Zm18.9,2.74c-.61,1-1.28,1.6-1.21,2.1.1.66.78,1.23,1.21,1.84.41-.5,1.14-1,1.14-1.5C115,185.4,114.44,184.73,113.89,183.63Z"/><path class="cls-1" d="M164.81,217.79l5.12,2c-2.31,1.71-8.51-1-16.45-7.11,1.27-2.63,2.25-5.69,5.69-6.09a8.18,8.18,0,0,1,4.79.9C167.48,209.61,167.75,213.65,164.81,217.79Z"/><path class="cls-1" d="M99,326.65c-2.66,2.05-5.41,4-8,6.2a12,12,0,0,0-3.14,4c-1.26,2.84-3.13,4-7.5,3.66,6.79-7.92,9.23-17.89,14.07-26.62l.67.23-5.75,17.68.42.49c1.75-1.17,3.47-2.4,5.27-3.5,1.27-.77,2.64-1.38,4-2.05Z"/><path class="cls-1" d="M39.88,243c-.54,2.85-1,5.09-1.41,7.33-.09.47-.1,1.06-.4,1.36-3.43,3.51-1.9,7.82-1.76,11.8.07,2.06,2,2.51,4.22,1.68l-.17.71a49.62,49.62,0,0,1-4.67,2.63c-1.5.66-4.62-2.15-4.27-3.87,1.27-6.33,1.53-13,6.44-18.1A18.33,18.33,0,0,0,39.88,243Z"/><path class="cls-1" d="M72.42,249.56l.43-.13c-.95-2.56-.95-2.56,1.22-5H71.66c.26-1.9,3.11-3.65.33-5.35l-.28,2.22c-2.37-4.31-1.49-7.77,2.51-10a55.56,55.56,0,0,1,7.63-3.51c-2.94,1.1-4.36,3.49-5.37,6.2l-1.78-1.9-.54.45,2.73,3.94-1.77.72.87,4-2.06,8.55-1.55-.16Z"/><path class="cls-1" d="M115.3,226.42l11.63-5.68.56.61c-1.29,3.75-4.45,7.41-.2,11.76a9.76,9.76,0,0,1-6.81-2.15C118.85,229.69,117.36,228.24,115.3,226.42Z"/><path class="cls-1" d="M130.83,190.28l3.55-1.17,1.38,4.79-1.15,6.79L132,201.84c0-2.33.15-4.36,0-6.36a45.67,45.67,0,0,0-1.08-5.23Z"/><path class="cls-1" d="M207.12,332.69l-.77,7.64h-6.71l-.65-2.54,6.3.69.24-.83-6.35-2.88c1.4-.41,2.75-1.3,3.62-1,1.14.45,1.9,1.88,2.78,2.83l.28-4Z"/><path class="cls-1" d="M181.08,268.44l1.33-2.22c.83,2.11,1.53,3.72-.62,5.4a8,8,0,0,0-2.19,3.67c-.67,1.95-1.8,2.42-4,1.73l2.91-1.07-1.46-.44c.21-1.7.75-3.37.5-4.91s.1-2.4,2.25-2.64l-1.5,5.46.68.24,2.11-5.29Z"/><path class="cls-1" d="M60.5,247.6l-1.64,4.06,1.61,2.75-.8.4c-2.32-1.8-2.33-4.75-2.74-7.37-.51-3.26.85-5,4.67-6.47-2.24,1.15-.56,4.65-3.49,5.42a1.68,1.68,0,0,0,.06.84C58.86,247.41,59.56,247.48,60.5,247.6Z"/><path class="cls-1" d="M211.12,173.2c-.76-.91-1.35-1.61-.87-3.13,1.07-3.42-.81-6-4.32-7.06-1.14-.34-2.06-1.39-3.08-2.12l.67-1.07c2.53,1.51,5.58,2.56,7.45,4.66,2.14,2.41,1.51,5.74.1,8.67Z"/><path class="cls-1" d="M199.8,329.91c1.19-1.81,2.93-1.78,4-.15a12,12,0,0,0,2,1.8,4.9,4.9,0,0,1-1.48.43c-3.48.13-7.39,1.2-9.26-4Z"/><path class="cls-1" d="M128.1,233.4a6,6,0,0,1,7.33-1.48c1.29.79,1.39,2,.31,4.38l1.74.73c-2,2.36-2.93.15-4.63-.73l2.16-.61C133.41,233.42,131.23,232.9,128.1,233.4Z"/><path class="cls-1" d="M132.47,302l-.29,6.22a19.8,19.8,0,0,0-2.13.11c-2.57.38-4.06-1-3.35-3.52.37-1.31,1.44-2.42,2.2-3.63l-.05.05c1.12,0,2.24.07,3.35.16a3.24,3.24,0,0,1,2.77,4.3c-.76-1.12-1.63-2.4-2.5-3.67-3.59-.3-5.34,1.47-4.47,4.7.13.48,1.19.83,1.88,1,.47.1,1-.26,1.56-.42l-.08-.4-1.89-.32Z"/><path class="cls-1" d="M211.73,128.81c-.81-3.46-3.83-4.95-6.23-7l0,.07c2.92-2,2.87-2.77-.33-4.27a4.13,4.13,0,0,0-1.18-.17h.05c.35-.4.75-1.17,1-1.13,2.45.34,3.9,2,4.23,4.62l-1.82,1.42a15.92,15.92,0,0,0,2.28,1.28,13.93,13.93,0,0,0,2.46.43c-.18,1.49-.37,3.13-.57,4.78Z"/><path class="cls-1" d="M190,271.31l1.78,2.84-.54.45-4.3-2.48c5-3.87,11-4.64,16.56-6.53-.16,1-.19.87-6.72,2.77A53.7,53.7,0,0,0,190,271.31Z"/><path class="cls-1" d="M120.38,334.06c-.55,2.49-.47,5.47-4.35,5.82.32-1.5,2.19-3.11-.5-4.15l1.64-2.84Z"/><path class="cls-1" d="M195.82,138.06l1.32,1.57-6.4,5.62-.63-.61C190.24,141,194.24,140.5,195.82,138.06Z"/><path class="cls-1" d="M205.5,121.82,201,129.67l-.47-.15c.84-2.35,1.6-4.72,2.53-7,.48-1.2,2.07-2.12.66-3.7-.16-.18.24-.87.39-1.32H204l1.51,1.64-.54.13.54,2.68Z"/><path class="cls-1" d="M209.76,335.25l3.65,5.3h-5.34Z"/><path class="cls-1" d="M174.16,266.77V275l-.46.13-.92-3.26-3.22.43-.17-.44,3.37-1.35.83-3.74Z"/><path class="cls-1" d="M195,273.36c.12,2.08,1.91,1.78,3.16,2.14s2.85.53,4.24,1a2.17,2.17,0,0,1,1.2,1.51c-3.37-2.57-9.11-.43-11.32-6.05l2.75,1.47Z"/><path class="cls-1" d="M45.63,252.29c1.26,2.09,0,5.48,4.1,5.4l-.08.59-4,1Z"/><path class="cls-1" d="M147.7,236.16c-.27,1-.23,2.54-.88,2.94-.83.51-2.22.12-3.36.12l-.21-.91,3.49-2.63Z"/><path class="cls-1" d="M14.7,335l2.2-1.78-4.06-5.62.58-.45,4.67,6.13L15,335.41Z"/><path class="cls-1" d="M120,106.22l5.5,4.85c-2-.69-3.41-1.07-4.74-1.68-1.54-.7-1.35-2-.7-3.22Z"/><path class="cls-1" d="M200.17,272.65l-5.21.72h0q4-2.45,8-4.89l-.2-.42-2.68,4.65Z"/><path class="cls-1" d="M200.12,272.71l2.77-1.1.25,3.75-.41.28-2.54-3Z"/><path class="cls-1" d="M130.85,190.24l-1.24-2.79,2.07-.27V185.8c2.09,2-.92,2.88-.84,4.47Z"/><path class="cls-1" d="M203.73,171.25c-1.87-1.67-.29-4.39-1.87-6.16l.7-.22,1.9,6.07Z"/><path class="cls-1" d="M59.19,219.79l4.38-5.51.82.78-5.26,4.66Z"/><path class="cls-1" d="M175.5,268.37c1.59,1.73,2.07,3.62.41,6.07Z"/><path class="cls-1" d="M181.13,268.38l-1.25-2.63.55-.54-1.39.09-.2-.35,2.61-1.68c-.16,2.19-.26,3.68-.37,5.17Z"/><path class="cls-1" d="M13.4,56.32C12.46,55,12.46,55,11,56.54l1.88,2.4-.6.7L7.94,57c5.14-3.71,11-4.64,16.92-6.09-.32.35-.58.89-1,1a19.86,19.86,0,0,1-4.22.91C17,53,15.12,54.5,13.39,56.32Z"/><path class="cls-1" d="M13.39,56.32l2.26,2.18-.06,0a25.34,25.34,0,0,0,3.58,2c1.34.5,2.85.55,4.23,1,.53.16.9.82,1.6,1.49-2.85-.73-5.14-1.31-7.43-1.91-2.5-.65-4.25-2.64-4.17-4.71Z"/><path class="cls-1" d="M15.65,58.5l8.24-4.86-.2-.44-2.45,4.38.07-.07-5.7,1Z"/><path class="cls-1" d="M21.24,57.59l2.66-1,.2,3.67-.5.31-2.29-3.05Z"/><path class="cls-1" d="M11.11,86.59c-.15-1.7,1.32-1.45,2-1.22a12.15,12.15,0,0,1,2.8,1.93l-.57.88a22.24,22.24,0,0,0-2.08-1.06,18.92,18.92,0,0,0-2.17-.6Z"/><path class="cls-1" d="M181.17,4.29l4.62,3.93-.51.63-4.8-3.77Z"/><path class="cls-1" d="M230.19,189.68c4.31.46,5.1,1.57,4,4.84Z"/><path class="cls-1" d="M220.93,53.16c.6,1.4,1.65,1.77,2.87,1,2.3-1.49,4.51-3.12,6.92-4.81l-3,3.68.4.71,2.47-1.13.53,6.35a52.08,52.08,0,0,1-6.93-1.88c-1.47-.61-2.63-2-3.89-3,0,0,.4-.55.61-.85Zm1.86,2.66,7.59,1.67C228.69,53.56,227.31,53.2,222.79,55.82Z"/><path class="cls-1" d="M220.94,53.17c-1.34-2.29-1.51-2.32-3.32-.5l2,2.35-.66.76-4.22-2.58,0-.85,16.47-5.91.4.55c-.35.34-.64.87-1.05,1-2.24.61-4.51,1.12-6.77,1.65a3.22,3.22,0,0,0-2.84,3.56Z"/><path class="cls-1" d="M31.7,57.39c1.45-1.48,3-2.47,5.3-2.19a3.51,3.51,0,0,1,3,4.8l-1.66-3.76-.82.19V61.9c-5.47.74-6.13.2-5.8-4.59Zm2.21-.62-.84.08a33,33,0,0,0,.51,4.49,15.25,15.25,0,0,0,2.8-.22c.06,0,.1-.23.16-.4l-1.5-.3,1.72-4.32C34.95,54.61,36.07,59.61,33.92,56.77Z"/><path class="cls-1" d="M177.08,101.81l-3.42,2.73c-.34-.74-1.1-1.62-1-2.34s1.25-2,1.68-1.93A9,9,0,0,1,177.08,101.81Z"/><path class="cls-1" d="M199.18,322.21c-.18.25-.44.73-.52.71-2.24-.78-4.07-2.17-4.43-4.58a50.18,50.18,0,0,1-.56-9.08c0-1,1.38-2,2.47-3.42.91,5.28,1.73,10.07,2.57,14.86a11.27,11.27,0,0,0,.52,1.58Zm-4.7-7.23c2.14-1.34,2.24-3.49.38-6Z"/><path class="cls-1" d="M199.23,322.28c.07-1.25,0-2.42,1.91-2.53.67,0,1.5-1.54,1.84-2.52a8.25,8.25,0,0,0-4.2-10,5.85,5.85,0,0,1-1.9-1.39c1.83,0,3.71.33,4.65,1.93,4.12,7,4,10.28,0,14.53l.06-.06c-.8.76-1.6,1.39-2.39,0Z"/><path class="cls-1" d="M181.88,319.32c-2.91-2.22-6.62-3.39-8.74-6.63-.14-.22-.08-.57-.11-.86l.55-.45,3.36,5.09,1.27-1-1.88-4.55,1.67-.36a36.22,36.22,0,0,0,1.77,5.75c.49,1,1.81,1.57,2.76,2.33Z"/><path class="cls-1" d="M181.75,311c-1.48-3.61-1.48-3.61-6.14-2.47l-1.73-4.1,1.07-.72,3.51,1.61-1.16.81a18.79,18.79,0,0,1,4.38,1.87C182.17,308.36,181.75,310,181.75,311Z"/><path class="cls-1" d="M23.88,125.5c-2.4,1.27-4.65,3.43-7.74,2.2Z"/><path class="cls-1" d="M223.53,233.87c-3.49,3-6,3.38-8.83,1.74a23.11,23.11,0,0,0,4.46-.06A25.5,25.5,0,0,0,223.53,233.87Z"/><path class="cls-1" d="M167.81,31.24C164.5,28.37,159,30.17,156.43,25l-.68,2.58-4.09-2.65L151.6,24,168,18.22l.39.41c-.31.38-.56,1-1,1.1-1.93.54-3.89.93-5.84,1.39s-3.77.85-3.8,3.29c0,1.56,2.55,3.66,4.58,4a34.48,34.48,0,0,1,4.48.93c.58.18,1,.88,1.49,1.35Z"/><path class="cls-1" d="M167.6,21.16l-3.3,3.66c1.39.95,3.74,1,3.16,3.54l-4.54-3.27,4.33-4.23Z"/><path class="cls-1" d="M141.89,21.6a23.85,23.85,0,0,0,2.33-5c.44-1.83.1-3.85.1-6l-1.81.6-.23-.49,2.64-1.29c.71,1.24,1.56,2.15,1.76,3.19.29,1.48,1.31,3.12-.62,4.53a6.45,6.45,0,0,0-2.21,3.21c-.74,2.53-2.16,3.2-5.28,2Z"/><path class="cls-1" d="M138.23,21.85c-1.66-3.49-1.66-6.37,0-9.32Z"/><path class="cls-1" d="M141.8,16.78a12.1,12.1,0,0,0-.95,1.4,3.42,3.42,0,0,1-.92,1.46l-.44-6.19,2.39,3.42Z"/><path class="cls-1" d="M141.88,16.86c-.78-2.54-.72-2.69,1.56-3.29l-1.53,1.77,1.75-.26c0,.33.11.82,0,.9a15.37,15.37,0,0,1-1.84.8Z"/><path class="cls-1" d="M220.63,213.36l4.79,8.49-3.27.21c1-1.93.28-2.75-1.75-3.19s-3.24-2.32-4.27-4.05l.49-.53,4.46,4.16.48-.28-2-4.61Z"/><path class="cls-1" d="M218.72,211l-1.56-3.78.92-.58,2.66,2.64.2-.53a21.1,21.1,0,0,1,4.2,2.24c.45.37,0,1.83-.08,3.28-.92-1.65-1.26-3.13-2.07-3.47C222,210.33,220.55,210.82,218.72,211Z"/><path class="cls-1" d="M208.11,110.15c-3-2.31-6.9-3.64-9.07-7l.63-.77,4.48,4.3.5-.3-2.17-4.81,1.57-.16,1.81,4.88.73-.12v-3.62l.7-.14a10,10,0,0,1,.64,3.09c-.07.64-1,1.19-1.52,1.71l2.29,2.39Z"/><path class="cls-1" d="M200.91,94.66l2.94,2.51,0-.32a16.8,16.8,0,0,1,4.09,2c.51.43.09,2-.43,2.87-.51-1-.8-2.6-1.6-2.94-1-.42-2.45.17-3.81.34C200.23,96.86,200.23,96.86,200.91,94.66Z"/><path class="cls-1" d="M142.69,42l-2.06-4.81c.88.19,1.85.27,1.86.41.19,3.38,2.72,5.48,4.41,8.3-.55,0-1.12.18-1.38,0-2.6-2-5.15-4.1-7.68-6.19-.25-.21-.29-.66,0-1.43l4.38,4.15Z"/><path class="cls-1" d="M145.45,37.83c-.39-3.88-.62-4-5.39-2.69l-1.76-4.06,1.06-.65,2.61,3c1.27-.33,3.19-1.16,4.26,1.21C146.73,35.75,147.21,37,145.45,37.83Z"/><path class="cls-1" d="M76.75,35.5c2.66,1,2.83-1.36,3.67-2.78.5-.85.94-1.74,1.41-2.61l.89-.14a6.72,6.72,0,0,1-.17,2.51c-.67,1.34-2,2.43-2.43,3.81-.77,2.22-2.14,2.59-4.34,2.12l.9-2.88Z"/><path class="cls-1" d="M82.72,30l-.89.14q0-.81,0-1.62l-.41.44-2.88-2.63L81,25a37.84,37.84,0,0,1,2.16,3.49C83.33,28.83,82.88,29.46,82.72,30Z"/><path class="cls-1" d="M74.25,36.75,73,33.08l-2.17-.26-.08-.36L73,31.74l1.08-4,.43.08v8.79Z"/><path class="cls-1" d="M76.75,35.5l-.07,0c-.21-.07-.59-.13-.59-.21,0-2,0-4,0-6.35C77.32,31.29,77.85,33.3,76.75,35.5Z"/><path class="cls-1" d="M78.63,32.63c-.3-.72-.87-1.48-.8-2.16s.89-1.05,1.38-1.57l.68.3-.26,3.28Z"/><path class="cls-1" d="M199.61,226.48v5.1l1.4-.68.22.52c-.49.21-1.09.71-1.44.57C198.51,231.46,198.34,228.56,199.61,226.48Z"/><path class="cls-1" d="M34.79,49.38c-1.25,1.15-2.26-.14-2.92-.64-3.61-2.76-3.76-11.8-.12-15.38.83,4.66,1.61,9.13,2.43,13.59.16.85.45,1.68.68,2.51ZM30,41.58l1.08.16c1.92-1.78.2-3.84.34-5.75l-.89-.08Z"/><path class="cls-1" d="M34.85,49.46c0-1.22.16-2,1.7-2.54.94-.32,1.79-2,2-3.2a34.85,34.85,0,0,0,.09-5.82c1.78,1.61,2,7.51.13,9.8-.45.56-1,1-1.44,1.61-.83,1.09-1.66,1-2.53.08Z"/><path class="cls-1" d="M37.22,36.17l-4.83-3C34.51,32.43,36.65,33.67,37.22,36.17Z"/><path class="cls-1" d="M16.47,144.6l-5.53-2.82.48-.77a6.63,6.63,0,0,1,5,3.65Z"/><path class="cls-1" d="M114.29,39.44c-.53-2.36-.17-3.32,1.55-3.63a2.52,2.52,0,0,0,1.39-1.13c.11-.17-.45-.78-.84-1.39l4.35,1a10.09,10.09,0,0,1-1.49,1.12c-.73.36-1.67.4-2.25.9A27.45,27.45,0,0,0,114.29,39.44Z"/><path class="cls-1" d="M152.06,62.5c1.16-3.28-1.9-3.62-3.38-5.18,1.73-.39,3.46-.46,4.17,1.3.45,1.12.08,2.58.08,3.89Z"/><path class="cls-1" d="M146,52.84c2.73-.79,2.73-.79,3.89,2.12Z"/><path class="cls-1" d="M162.4,313.85c1.49-1.17,1.61-2.38.07-3.61l-2.35-1.86c3-.52,4.13.07,4.41,2.53.17,1.43.23,3.1-2.09,2.89Z"/><path class="cls-1" d="M157.28,303.8c2.2-.91,3.37-.55,3.65,2.09Z"/><path class="cls-1" d="M126.65,60.61c.84.18,1.69.33,2.52.56.59.17,1.16.45,2.06.81-1.33,1.41.2,4.75-3.65,5-.16-2.22-.11-4.42-.87-6.48Z"/><path class="cls-1" d="M60.29,42c3.66,1.65,4.11,3.34,2,5.91-.44.53-1.35.67-2,1A10.9,10.9,0,0,1,60,47.19C60.07,45.58,60.19,44,60.29,42Z"/><path class="cls-1" d="M216.74,265.86l-1.58.34c.15-1.76.36-3.35.4-4.94.05-2.22-.22-4.39,1.41-6.36.81-1,.5-2.21-1.25-2.17L213.78,251c2.52-.67,5.07.94,5.08,3.26,0,.44-.07,1.15-.33,1.28-2.52,1.22-1.6,3.59-1.83,5.51A36.16,36.16,0,0,0,216.74,265.86Z"/><path class="cls-1" d="M222.38,258.37l-2.8,5.49-2-3,4.08-3.32Z"/><path class="cls-1" d="M121.68,256.21l-6.14-2.86c-2,.68-3.49,0-5-1.54l-4.87-2.52c-2.18.76-2.72-.28-4.18-6.28,3.58.61,6.94,1.11,10.28,1.77,6.43,1.26,11.92,4.51,17.32,8.07,2.42,1.6,5.38,2.36,8,3.71.89.46,2.16,1.75,2,2.34a11,11,0,0,1-2.37,4c-.16.19-1.55-.59-2.34-1-.4-.19-.85-.81-1.08-.73-2.36.89-4,.09-5.35-1.91-.16-.23-.91,0-1.36-.11C124.39,258.65,122.22,258,121.68,256.21Z"/><path class="cls-1" d="M113.89,183.63c.55,1.11,1.13,1.77,1.14,2.43,0,.5-.73,1-1.14,1.5-.43-.61-1.12-1.18-1.21-1.84C112.6,185.23,113.28,184.62,113.89,183.63Z"/><path class="cls-1" d="M132.47,302l-3,4.57,1.89.32.08.4c-.52.15-1.09.52-1.56.42-.69-.15-1.75-.5-1.88-1-.87-3.23.88-5,4.47-4.7A.06.06,0,0,0,132.47,302Z"/><path class="cls-1" d="M205.53,121.89l-.54-2.68.54-.13L204,117.45a4.13,4.13,0,0,1,1.18.17C208.4,119.12,208.45,119.86,205.53,121.89Z"/><path class="cls-1" d="M222.79,55.82c4.52-2.62,5.9-2.25,7.59,1.67Z"/><path class="cls-1" d="M33.92,56.77c2.15,2.84,1-2.16,2.85-.67l-1.72,4.32,1.5.3c-.06.17-.1.4-.16.4a15.25,15.25,0,0,1-2.8.22,33,33,0,0,1-.51-4.49Z"/><path class="cls-1" d="M194.48,315l.38-6C196.72,311.49,196.63,313.63,194.48,315Z"/><path class="cls-1" d="M30,41.58l.52-5.67.89.08c-.13,1.92,1.58,4-.34,5.75Z"/></g></g></svg>