<svg xmlns="http://www.w3.org/2000/svg" viewBox="0 0 388.89 342.1"><defs><style>.cls-1{fill:none;stroke:#000;stroke-miterlimit:10;stroke-width:0.5px;}</style></defs><title>Asset 10</title><g id="Layer_2" data-name="Layer 2"><g id="Pics"><path class="cls-1" d="M270.89.25c-.21,7.67-.45,15.22-3.07,22.71-1.63,4.64-1.07,10-1.44,15.12-.34,4.74-1,9.51-.82,14.24.2,6.29,1.1,12.55,1.56,18.83.43,6,.77,12,1,18.06.37,10.59.69,21.19.89,31.78.11,6.05-.11,12.11-.06,18.17a37.09,37.09,0,0,0,.7,5l.88.07,1-3.54V176.1h-.7V148.49h-1.09c-.19,10.11-.13,20.24-.64,30.34s-3.09,19.9-1.8,30.35c.21,0-.16.1-.53.1a2.94,2.94,0,0,1-.87-.28l-6.18,55.37-.53,0v-9.56l-1.09-.08c-.26,2.94-.49,5.88-.78,8.81-.08.84-.4,1.65-.47,2.49s-.21,1.76.18,2.27c2.05,2.68,1.68,4.71-.2,7.37-1,1.39-.87,3.81-.67,5.71.15,1.37,1.16,2.7,2,3.93a20.71,20.71,0,0,0,2.41,2.77c.55.58,1.58,1,1.71,1.63.77,3.91,1.34,7.86,2.06,12.36l-4.11-5.34c-1,3.55-2.48,6.55-2.68,9.62-.59,9.29-.58,18.62-1.06,27.92-.13,2.54-1.15,5-1.76,7.55H102.37c-.32-6.24-.71-12.47-.92-18.72-.1-3,.19-6,.25-9.06q.38-19.82.71-39.64c0-.28-.11-.56-.63-.84l-1.39,23.52-1,0,1-24.21c-3.76,17-2,34.85-7.92,51.47l-1-.07V314.13c4.14-4.59,3.13-11,3.44-17.18l-1.29,7.27L92.33,304c.4-3.38.88-6.76,1.18-10.16.4-4.53,1.67-9.32.65-13.53-.88-3.64-.19-6.87,0-10.2.26-4.94,1.26-9.84,2-14.76l1.41.18-1.24,15c3-3.56,5.69-54.82,3-62.32a34.58,34.58,0,0,0-.63,4.15c-.32,9.86-.69,19.71-.82,29.57-.06,4.83-1.67,9-4.08,13.28L98.56,180l.2,0v24l1,0,1.34-25,1.21,0v50.74c4-.92,4.16-1.21,2.53-4.41-.1-.19-.35-.47-.29-.55,1.74-2.54-.18-5.77.61-7.65,1.7-4.06,1.16-8.05,1.47-12a75.43,75.43,0,0,0-.43-11.94c-.13-1.67.36-3.59-1.85-4.81-.74-.41-.45-2.66-.68-4.48l2.79,1.07-2.78-9.11.71-.47-2.73-.81.32-5.14c2.94.87,3.26-.75,3.34-2.82.29-7.67.54-15.34,1-23,.27-4.5,1-9,1.41-13.46a8.82,8.82,0,0,0,0-2.92c-1.61-6.54-3.56-13-4.86-19.6-.7-3.55-2.25-7-1.41-10.93.8-3.74.38-7.73.63-11.59.46-6.9,1.06-13.79,1.53-20.69.18-2.67.19-5.36.26-8a16.54,16.54,0,0,1,1.87-7.3c1.3-2.58.67-6.1,1.06-9.19,1.25-9.77,2.6-19.53,3.86-29.3.22-1.7,0-3.46.26-5.16s.76-3.5,1.16-5.25ZM257.08,73.43a18.51,18.51,0,0,1-2-2.74c-.69-1.49-2-3.45-1.57-4.57,1.31-3.14-.71-4-2.66-4.24-5-.53-10.08-.61-15.12-.81-1.94-.08-3.89,0-5.84,0,4.28-1.44,9.14-.61,12.59-4.32.21-.23.88,0,1.25-.13,1.34-.57,2.65-1.21,4-1.83-.92-1.28-1.6-2.92-2.84-3.73s-1.3-1.8-1.77-3.09c-1.58-4.31-3.08-9.73-6.45-12-3.69-2.51-3.35-4.9-3.33-8,0-3.61-.76-6.83-4-8.94-.2-.13-.55-.05-1-.08l.56,1.71-12.63-2.26c-3-.53-6-1.08-8.95-1.52-1-.14-2.31-.35-2.95.15-2.45,1.92-4,.52-5.53-1.16-.79-.85-1.56-1.73-2.89-3.21v2.54a42.91,42.91,0,0,1-5.66,1.15,137.79,137.79,0,0,1-14.14.53c-6-.22-10.48,3.09-15,6.08C158,25,155.4,27.89,154.79,32c-.29,2-.74,3.62,1.86,4.33.51.14,1,1.28,1.05,2,.43,3.46.75,6.93,1.05,10.4a17.63,17.63,0,0,1-.14,2.55,7.25,7.25,0,0,0-7.47-4.15c-1.72.12-2.42.83-1.18,2.52s2.14,3.55,3.5,5.06c.88,1,2.33,1.46,3.52,2.16l.43-.65,1.89,3.59-2.6.78a4.88,4.88,0,0,0,0,1.39c2.13,6.13,4.08,12.34,6.58,18.33.63,1.51,2.9,2.71,4.66,3.28a55.52,55.52,0,0,0,8.85,1.69c1.15.17,2.37-.15,3.53,0a36.51,36.51,0,0,1,6.09.94c4.43,1.24,8.74,2.83,13.49,1.36a11.73,11.73,0,0,1,6-.58c3.54.89,6,.53,8.49-2.29,3.87-4.36,4.65-4.39,7.83-.71,2.47-.56,5-.54,6.86-1.7a8,8,0,0,1,6.41-1.24c2.9.62,5-.2,6.53-2.89a4.87,4.87,0,0,1,2.83-1.79C248.7,75.34,252.63,74.49,257.08,73.43Zm-69.43,68c-.19-.39-.28-1-.58-1.13-3.49-1.74-5.11-5.08-7.23-8a3.33,3.33,0,0,0-3-.86c-2.79,1.08-5.41,2.59-8.12,3.88-1.52.73-3.06,1.86-4.65,2-5.17.33-10.37.21-15.55.37-4.92.15-9.84.42-15.35.67l8.35,8.17c-3.8,1.87-4.22,4.12-2.28,7.1L141,152a4.67,4.67,0,0,1,.09,3.09c-.61,2.38,0,4.9,2.29,5.23a22.31,22.31,0,0,0,10.08-.52c5.61-1.9,10.75-5.21,16.37-7.07C176.76,150.46,183.41,148.2,187.66,141.39Zm40.19.92c2.73.47,5.5.77,8.18,1.46a42.42,42.42,0,0,1,5.87,2.33,34.27,34.27,0,0,1,3.72,1.76,21.61,21.61,0,0,1,3.15,2.23,40.82,40.82,0,0,1,4.67,4.28c2.73,3.16,5.19,6.57,7.91,9.74,1.85,2.15,3.59.06,5.21-.64.42-.18.27-1.67.36-2.57,0-.39,0-.78.05-1.17.36-3.55.74-7.09,1.07-10.64a1.08,1.08,0,0,0-.34-.88c-2-1.16-.61-2.77-.7-4.23-.25-4-.32-8.24-1.57-12-.54-1.64-3.79-2.37-5.39-3.28-1.43.94-2.39,2.09-3.4,2.13-2.81.12-4.48,1.28-4.89,4.58-5.23-1.26-10.13-2.49-15.06-3.62a64,64,0,0,0-8.18-1.48c-.88-.08-2.53.78-2.71,1.5C224.8,135.78,223.64,139.93,227.85,142.31Zm1.49,7.93.72-.65c-.55-.83-.94-2.14-1.69-2.39-3.65-1.26-4.21-4.68-5.6-7.5-1.72-3.48-3.4-7-4.94-10.55s-3-7.46-4.53-11.2-2.84-7.84-4.67-11.56c-1.14-2.32-6.51-3.53-8.67-2.18a3.31,3.31,0,0,0-1.23,2.79c.5,2.29,1.62,4.43,2.23,6.7.93,3.48,1.62,7,2.45,10.54a2.72,2.72,0,0,0,.64,1.38c3.17,2.8,4,5.82,1.23,9.41-.3.39.05,1.23,0,1.85a14.11,14.11,0,0,1-.43,3.42c-2,5.93,1.35,9.46,6.61,10.27,2,.31,4,1,6,.87s4.88-.23,6.15-1.53c1.8-1.85,2.65-2.68,4.32-.23C228.19,150,228.86,150.06,229.33,150.24Zm-21,50.46c1.8.42,3.13,1.07,4.42,1,3.67-.27,6.84-2.7,10.68-2.57a15.88,15.88,0,0,0,4.5-.71c1.49-.39,3.5-.65,4.19-1.69s-.08-2.91-.34-4.39c-.11-.6-.68-1.11-.89-1.71-.88-2.54-2.14-2.44-3.62-.54a17.91,17.91,0,0,0-1.19,2c-3.07-4.26-3.07-4.26-7.31-1.17-4.58-3.54-6.23-3.19-9.73,1.71-2-1-4-2.91-5.87-2.76s-3.53,2.32-4.89,3.32c-1.75-.68-3.56-2.08-4.84-1.69s-2.28,2.49-3.58,4.1c-.71-.89-1.29-1.63-1.89-2.36s-1.15-1.4-1.76-2.14c-2.64,2.87-2.78,7.66-.48,9.9.47.46,1.61.95,1.92.72,2.26-1.64,4.33-.55,6.55,0,1,.28,2.29-.23,3.44-.26a6,6,0,0,1,2.72.29C203.07,203.18,207.08,202.52,208.31,200.7Zm23.78,6.23c-4.26-3.6-9.53-2.41-14.29-2.43a127.13,127.13,0,0,0-18.25,1.71c-3.67.52-7.22,1.77-10.85,2.6a10.81,10.81,0,0,1-2.35-.09c-3,0-6,0-9,0,4.66,4.72,15.76,6,18.86,3.19,4.34,2.2,5.44,1.7,6.85-3.11,2.34,3.6,3.2,3.81,6.46,1.51,2.53,2,4.76,2.08,6.22-1.43,2.08,3.61,3.32,3.68,6.15.68C225.1,212.78,229.82,211.66,232.09,206.92Zm2.88-87.4c2.8-.17,5-.19,7.11-.46,2.57-.31,5.85-7.49,4.44-9.55a2.24,2.24,0,0,0-.76-.57c-4-2.29-10.25-.5-12.54,3.6C231.84,115,233.36,119.5,235,119.52Zm-82.75,2.68c4.58-.36,8.59-.19,12.26-1.23,1.41-.4,2-3.6,3-5.52-1.27-.61-2.49-1.62-3.81-1.75C157.91,113.14,155.16,115.08,152.21,122.2Zm5.39-52c-1.59-3.74-2.55-6.74-4.14-9.36-.51-.84-2.7-1-4.07-.86-.65.06-1.62,1.45-1.68,2.29-.22,3.1,3.43,8.14,6.56,9C155.09,71.52,156.19,70.7,157.61,70.21Zm64.9,145.42c-1.7-.38-3.4-1.09-5.1-1.06-1.86,0-3.7,1-5.56,1.07-5.77.15-11.55.06-17.37.06,1.23,3.4,6.17,5.57,8.38,3.75,3.58-3,7.88-2.92,11.87-2C217.66,218.14,220,217.91,222.51,215.63ZM146.17,75.73c-.61-3-.77-3.09-3.7-3.54-3.22-.5-8,1.5-9.18,3.54Zm65.92,166.68c-2.61-2.05-5.32-1.14-7.62-.5-.92.25-1.17,2.91-1.48,3.76l6.34,2.59C210,246.57,207.42,243,212.09,242.42Zm-108,3.81c-.18,2-.35,4-.56,6-.14,1.37,0,2.92-.6,4.08-1.26,2.43-2.88,9.61-2.34,12.41A39.41,39.41,0,0,0,104.12,246.23Zm86.38-94.42c3.52.07,5.43-1.22,5.23-3.21a3.64,3.64,0,0,0-1.75-2c-1.85,1.07-3.56,2.37-5.3,3.61ZM217.67,117l-.54,1.15c2,4.36,4,5.37,9.81,3.55ZM138.15,65.15l5.44-3.31c-.87-.55-1.9-1.72-2.57-1.54a28.3,28.3,0,0,0-5,2.33Zm23.32,14-4-3.81-2,2.15c1.35,1.15,2.67,2.33,4.09,3.38A14.85,14.85,0,0,0,161.47,79.15Zm.78,47.58-.11-1.17-3.4-1.13-5.1,4,.33.82Zm56.82,123,1-.7-2.91-4-3.32,4.69ZM134.36,54.56l-1.29-1.17-3.57,3.25c.74.43,1.94,1.37,2.14,1.19A24.7,24.7,0,0,0,134.36,54.56ZM254.17,36.42c-.64,3.38-.22,6.39,2.83,8l.9-.46ZM182.84,199.75c-.95-.82-1.44-1.52-2.08-1.69-.29-.08-1.26.94-1.21,1.39.07.69.75,1.31,1.17,2Zm14.64-97.48.46,1.31,5.74-2.28-.31-.89Zm-95.85,140.6,1.06,0,.48-6.7-1.19-.07Zm118.21.74c.57-1,1.22-1.57,1.15-2.07s-1-1.27-1.36-1.18a2,2,0,0,0-1.32,1.42C218.27,242.22,219.09,242.75,219.85,243.61Z"/><path class="cls-1" d="M291.06.25c.83,8.08,1.65,16.16,2.5,24.23.64,6,1.24,12.08,2.05,18.09.13,1,1.32,1.82,2,2.75s1.56,1.77,1.71,2.75c1.36,8.88,2.8,17.76,3.78,26.68.92,8.38,1.39,16.8,1.88,25.22.12,2-.5,4.09-.77,6.13l-1.59.05-4.24-26.88-1.1.06v52l-1.62.33c-.38-1-1.09-2-1.09-3.05,0-9.63.16-19.26.18-28.89,0-8.45-.08-16.9-.14-25.35,0-1.57-.52-2.46-1.84-3.77-1.69-1.66-1.8-5.09-2.23-7.82-.77-4.91-1.14-9.89-1.91-14.8-1.45-9.32-3.16-18.59-2.75-28.12.18-4.06-.84-8.16-1-12.25a66.34,66.34,0,0,1,.4-7.4h3.25l1.18,9.54,1-.1L289.76.25Z"/><path class="cls-1" d="M6.72,341.85q-.13-3.81-.26-7.61c-.19-5.73-.3-11.47-.68-17.18,0-.71-1.53-1.32-1.65-1.41.4-2.91.8-5.33,1-7.76.11-1.06-.24-2.18-.11-3.23.36-2.87,1.6-5.89-2.64-7.92L5,296.05l.44-4.86.84,0,1.45,3c.32-1.37.73-2.12.6-2.75-1.63-7.66.38-15.26.27-22.88-.07-4.78-.88-9.55-1.36-14.32l-1.11,0c0,2.1,0,4.21,0,6.31.21,8.21.51,16.42.67,24.64.08,4.41,0,4.41-5.55,5.21,6.52-3.83,4-9.54,4.07-14.3.1-9.83-.7-19.68-1.08-29.52-.25-6.37-.36-12.76-.67-19.13-.11-2.23-1.26-4.57-.84-6.64,2-9.91,1.6-19.89,1.24-29.86-.25-7-.75-14-1.07-21a11.66,11.66,0,0,1,.54-2.75l.85,0c.13,1.63.34,3.26.38,4.89q.78,30.37,1.54,60.75c0,1.31-.39,3,1.94,3.07a5.07,5.07,0,0,1,.42,3.38c-2.67,5.24-2.76,5.19-1.79,11.44,0-.93,0-1.86,0-2.79a12.58,12.58,0,0,1,0-3.23A9.87,9.87,0,0,1,8.32,242l.92.06c0,2.5,0,5,0,7.5.24,15.92.43,31.84.77,47.76.32,14.84.83,29.67,1.25,44.51h-2l-.48-8.06-.82,0v8Zm.89-12.33h.66V303.34H7.61Z"/><path class="cls-1" d="M24.29,341.85q-.39-24.85-.78-49.7-.36-24.2-.64-48.4c-.08-8.2.13-16.41,0-24.6-.2-9.51-.75-19-1-28.52-.11-4.42.27-8.85.23-13.28-.14-14.71-.37-29.42-.54-44.13,0-1.33.14-2.67.21-4l1-.12a16.41,16.41,0,0,1,.49,2.74c.24,24.9.41,49.8.69,74.7.14,11.91.56,23.81.72,35.71.18,13.42.09,26.85.31,40.27.25,15.25.72,30.49,1.1,45.73,0,.32-.1.73.06,1,2.87,4.2.14,8.44.1,12.65Z"/><path class="cls-1" d="M34.7.25c.16,14.19.35,28.38.47,42.57.25,29.14.52,58.28.64,87.42,0,7.13-.62,14.25-.76,21.38-.11,5.5.1,11,.16,16.51,0,2.57,0,5.13,0,7.7l-1,.09c-.09-1.46-.25-2.92-.26-4.39-.12-10.92-.19-21.83-.33-32.75-.28-22.95-.65-45.89-.84-68.84,0-5.72.7-11.46.67-17.18,0-6.33-.51-12.65-.83-19-.16-3.28-1.3-6.83-.41-9.77C34.56,16.1,31.46,8.07,33.4.25Z"/><path class="cls-1" d="M292.36,341.85q.24-17.69.47-35.38.14-10.37.29-20.73a8.39,8.39,0,0,1,.17-1c3.4,6,2.33,12.35,2.39,18.43.13,11.91-.2,23.83-.31,35.75,0,1,.16,1.93.24,2.9Z"/><path class="cls-1" d="M384.11.25c.48,4.83.82,9.69,1.51,14.49.22,1.53,1.34,2.93,2.08,4.38.14.27.5.42.64.69.94,1.86-.46,9.51-2,11.09a8.34,8.34,0,0,1-1.15.81c-2.47-1.82-3.58-3.75-1.87-6.82.57-1,.17-2.7-.05-4C382.05,14,380.79,7.12,379.55.25Z"/><path class="cls-1" d="M21.69.25c.11,4.42.27,8.84.3,13.27q.17,22.07.24,44.14a7.63,7.63,0,0,1-1.17,4.19C20.38,41.29,19,20.8,19.73.25Z"/><path class="cls-1" d="M280.65,341.85c0-7.24.09-14.48.1-21.72,0-1.4-.15-2.8-.23-4.34,3.52-2,2.28,2,3.91,3.45,1.93-6.4.36-12.64,1.64-18.55,1.45,1,1.9,5,1.36,8-.51,2.83-.39,5.77-.8,8.62s-1.15,5.69-1.92,9.38l-1.7-5.3-1.06.08v20.41Z"/><path class="cls-1" d="M268.94,341.85c0-6.47.17-12.93.12-19.4,0-5.57-.33-11.13-.35-16.7,0-.69,1-1.39,1.53-2.06v38.16Z"/><path class="cls-1" d="M45.11,341.85V320.36h1c.42,7.16,1.39,14.31-.36,21.49Z"/><path class="cls-1" d="M283.91,341.85a1.28,1.28,0,0,1,0-.32c.48-1.43.92-2.88,1.53-4.25.07-.15,1.11.13,1.7.21l-1.3,4.36Z"/><path class="cls-1" d="M89.19,119.43l1.11,126H89.08l-1-126Z"/><path class="cls-1" d="M88.7,2.13v98.66H88V2.15Z"/><path class="cls-1" d="M21.55,125.35c.26-20-2.25-40-.41-60.05H22l1.09,60Z"/><path class="cls-1" d="M43.94,217.41c2.38,13,.81,26.09,1.5,39.14l-1.5,0Z"/><path class="cls-1" d="M45.68,109.08V60.6h.53v48.48Z"/><path class="cls-1" d="M36,331.39V311.53c3.1,6.45,1.54,13.19,1.27,19.86Z"/><path class="cls-1" d="M44.76,315.11V284.38l.54,0V315Z"/><path class="cls-1" d="M34.5,202.05V179.59l.39,0v22.36Z"/><path class="cls-1" d="M44.51,273.78V259.05l1,0v14.77Z"/><path class="cls-1" d="M3.68,105.71v16.94l-.72,0v-17Z"/><path class="cls-1" d="M105.37,31l1.81-20.88.75.05-1.6,21Z"/><path class="cls-1" d="M43,65.11V80.62h-.78V65.11Z"/><path class="cls-1" d="M35.1,250c-.15-1.92-.41-3.83-.42-5.75a16.57,16.57,0,0,1,.9-5.73v11.52Z"/><path class="cls-1" d="M7.51,232.79V222.73C8.86,223.46,9.39,228.81,7.51,232.79Z"/><path class="cls-1" d="M89,104.52v6.74h-.78v-6.74Z"/><path class="cls-1" d="M37.51,307.49l-.41-3.92-1.56,4.12v-6C38.78,303,37.67,305.42,37.51,307.49Z"/><path class="cls-1" d="M105.59,202.93l-.54,7-1.21-.11.73-6.87Z"/><path class="cls-1" d="M6.84,155.25v8.18l-.41,0v-8.17Z"/><path class="cls-1" d="M45.45,50.13V43.62h.38v6.51Z"/><path class="cls-1" d="M293.53,280.91c0-9.38,0-18.68,0-28,.07-11.7.22-23.4.34-35.1.21-18.75.46-37.5.62-56.25.07-8.22-.09-16.45,0-24.67a13.56,13.56,0,0,1,1.09-3.63l1.26.28c.08,1.23.23,2.47.22,3.7q-.19,38.38-.43,76.75c-.16,21.36-.42,42.71-.65,64.07C296,279.57,296.37,281.42,293.53,280.91Z"/><path class="cls-1" d="M282.88,114v74.69h-.8v-74.8Z"/><path class="cls-1" d="M281.35,314c-.44-1.86-1.26-3.73-1.24-5.59.08-7.22.49-14.44.68-21.67.31-11.74.54-23.48,1.45-35.21v62.26Z"/><path class="cls-1" d="M285.77,266.79c-2.79-7.35.75-14.73-.22-22.58,2.06,1.74-.1,4.94,3.31,5.85,0,3.87.16,8.27-.09,12.65-.09,1.46-1.25,2.86-1.93,4.29Z"/><path class="cls-1" d="M270.67,233.7V188.19h.62v45.52Z"/><path class="cls-1" d="M284.31,44.65l-1.23,57.84H283V44.67Z"/><path class="cls-1" d="M272.1,338.74l1.14-32.07.34,0v32.08Z"/><path class="cls-1" d="M270.67,237.13v46.36l-.64,0V237Z"/><path class="cls-1" d="M274.36,163.95V144.72H275V164Z"/><path class="cls-1" d="M272,74.45V92.13c-2.44-5.87-.25-11.82-.89-17.72Z"/><path class="cls-1" d="M285.59,268.88l1.28,11.9C284.5,279.11,283.6,272,285.59,268.88Z"/><path class="cls-1" d="M271.87,97.43v14.62h-.77V97.46Z"/><path class="cls-1" d="M274.27,282.42v14.72h-.89C273.3,292.21,272.56,287.3,274.27,282.42Z"/><path class="cls-1" d="M275,93.33V79.74h.49V93.34Z"/><path class="cls-1" d="M270.7,287.13V299h-.63V287Z"/><path class="cls-1" d="M271.47,69.29V53.56H272V69.29Z"/><path class="cls-1" d="M274.12,247.43V235.67h.53v11.69Z"/><path class="cls-1" d="M282.39,230.93V222.3l1.12.09Z"/></g></g></svg>