<svg xmlns="http://www.w3.org/2000/svg" viewBox="0 0 572.48 192.53"><defs><style>.cls-1{fill:none;stroke:#000;stroke-miterlimit:10;stroke-width:0.5px;}</style></defs><title>Asset 8</title><g id="Layer_2" data-name="Layer 2"><g id="Pics"><path class="cls-1" d="M223.65,138.15l-.34.63c-1.08-.26-2.14-.61-3.23-.76s-2.6-.57-3.65-.17a34,34,0,0,0-7.75,3.76,88,88,0,0,0-9.4,8c-4.84,4.63-10.22,7.76-17.18,7.43a6.38,6.38,0,0,0-2.07.67c.29.75.36,1.75.9,2.22a48.33,48.33,0,0,0,6.95,5.59c4.69,2.8,9.54,5.38,14.47,7.74,5.53,2.66,11.22,5,16.84,7.45,2.2,1,4.39,1.93,6.62,2.82a26.92,26.92,0,0,0,3.55,1.12c1.49.37,3,.64,4.51.92,2.92.55,5.85,1.11,8.78,1.59,5.68.93,11.45,1.48,17,2.79a45.72,45.72,0,0,0,16.58.69,6.25,6.25,0,0,1,2.55.16c4.77,1.44,9.66,1.54,14.57,1.41,7.19-.18,14.38-.32,21.56-.55,4.61-.15,9.21-.39,13.81-.68a8.67,8.67,0,0,0,3.33-.82,21.26,21.26,0,0,1,10.65-2c3.17.09,6.35,0,9.52,0,1.34,0,2.68-.16,4-.28,2.86-.27,5.73-.5,8.57-.9a48.39,48.39,0,0,0,5.88-1.26c2.4-.65,4.79-1.38,7.13-2.21a23.41,23.41,0,0,0,4.42-2c3.19-1.94,6.24-4.11,9.44-6a25.84,25.84,0,0,1,4.51-1.86c4.95-1.8,9.93-3.52,14.86-5.35a12.24,12.24,0,0,0,3-1.73,17.9,17.9,0,0,1,6-2.78,10,10,0,0,0,4.21-2.27,22,22,0,0,1,8.6-5.07,39.79,39.79,0,0,0,13.65-8.37,13.14,13.14,0,0,1,3.17-2.44c2.61-1.18,5.37-2,8-3.14a12.63,12.63,0,0,0,3.15-1.91c1.48-1.22,2.73-2.71,4.21-3.93,4.52-3.71,9.11-7.34,13.65-11q5.49-4.43,10.94-8.91c2-1.65,4-3.28,5.89-5.06,2.68-2.54,4.51-6,8.06-7.65.63-.29,1-1.15,1.48-1.74,1.3-1.54,2.57-3.11,3.92-4.59,3.36-3.69,6.76-7.34,10.15-11a8.8,8.8,0,0,1,1.18-1.26,19,19,0,0,0,5.77-7.44,14.34,14.34,0,0,1,5-5.88,8.45,8.45,0,0,0,2.45-2.4c1.59-2.5,3-5.14,4.51-7.69.83-1.38,1.53-3,2.73-4,4.56-3.7,7-8.89,9.64-13.83a66.48,66.48,0,0,1,6-9.81,65.42,65.42,0,0,0,5.24-8.25c2.22-3.92,4.24-8,6.39-11.92a6.12,6.12,0,0,1,1.39-1.82c2.4-2,2.93-4.6,2.88-7.51-.07-3.49-.58-4.11-4-4.18C559.53.61,550.78.33,542,.32Q301.77.25,61.5.26C42.37.26,23.25.6,4.12.79A8.63,8.63,0,0,0,2.39.86a15.9,15.9,0,0,0-2,.77C1.21,3.38,2,4.88,2.72,6.43c2.89,6.38,7.18,11.77,11.86,16.9a19,19,0,0,1,2.93,4.22C20.45,33.4,23.45,39.18,29.07,43A11.31,11.31,0,0,1,31,45.15q4,4.71,8,9.44a47.14,47.14,0,0,1,4.68,5.83,69,69,0,0,0,8.15,11.14c1.47,1.62,2.51,3.62,3.85,5.36a26.24,26.24,0,0,0,3.4,3.83c4.19,3.66,8.46,7.18,11.89,11.68a44.71,44.71,0,0,0,8.57,8.47,68.06,68.06,0,0,1,7.06,5.87c2.57,2.54,5.95,4.25,7.81,7.55.22.38.77.56,1.12.89.83.78,1.63,1.61,2.46,2.4a36,36,0,0,0,2.91,2.75c3.42,2.64,6.89,5.21,10.36,7.79,2.3,1.71,4.6,3.44,7,5a38.11,38.11,0,0,0,4.27,2.31,38.51,38.51,0,0,1,3.62,1.7,2.35,2.35,0,0,0,3.12-.11,16.27,16.27,0,0,1,3.89-2.42c5.84-2.25,11.74-4.11,18.14-4.22,5.17-.09,10.39-.49,15.06-3.23a2.37,2.37,0,0,1,3.36.47c1.12,1.38,2.51,1.22,3.91.56a2.59,2.59,0,0,0,1.39-3.17c-.75-3.46.5-6.66,1.19-9.93a3.88,3.88,0,0,1,2.45-3,21.56,21.56,0,0,1,10.72-1.65c2.6.37,6.56,4.15,6.94,6.66a6.27,6.27,0,0,1-.15,2c-.36,2-.78,4-1.13,5.94-.67,3.76,0,4.79,3.58,5.91.64.2,1.31.31,2,.48,2.32.59,4.63,1.24,7,1.75a11.69,11.69,0,0,0,2.82.05c2.78-.1,5.55-.29,8.33-.32a3.9,3.9,0,0,1,3.81,2.59C222.88,136.42,223.27,137.28,223.65,138.15Zm-89.28,4.15a6.71,6.71,0,0,0,1.5,1.17,60.45,60.45,0,0,0,7.91,2.53,32.19,32.19,0,0,1,9.24,3.09,21.33,21.33,0,0,0,4.24,1.76,4.51,4.51,0,0,0,5-2,2.13,2.13,0,0,0,.06-2.68c-2.88-3.55-5.86-6.94-11-7.06a14,14,0,0,1-3.14-.42c-3.43-.88-6.63-.69-9.62,1.45a15.72,15.72,0,0,1-2.65,1.1A13.88,13.88,0,0,0,134.37,142.3Z"/></g></g></svg>