<svg xmlns="http://www.w3.org/2000/svg" viewBox="0 0 128.04 290.79"><defs><style>.cls-1{fill:none;stroke:#000;stroke-miterlimit:10;stroke-width:0.5px;}</style></defs><title>Asset 19</title><g id="Layer_2" data-name="Layer 2"><g id="Pics"><path class="cls-1" d="M.25,141.4Q.25,86.69.25,32c0-3.55,0-3.55,3.43-3.55h120.9c3.18,0,3.18,0,3.18,3.09q0,109.41,0,218.81c0,4.4.56,4-3.91,4H3.43c-3.18,0-3.18,0-3.18-3.09Q.25,196.34.25,141.4ZM19.85,29.57c-5.39,0-10.48.12-15.57-.05-2.35-.08-2.94.71-2.94,3q.07,108.89,0,217.79c0,2.46.72,3,3.12,3q59.47-.11,118.94-.05c3.25,0,3.26,0,3.26-3.3q0-108.77,0-217.55c0-2.37-.77-2.91-3-2.91-31.35.07-62.7,0-94.05.1C26,29.63,22,28.35,18.53,31Z"/><path class="cls-1" d="M121.72,288.84a10.53,10.53,0,0,1-2.67,1.27,64.37,64.37,0,0,1-6.91.41q-49.16,0-98.31,0c-2.91,0-5.81-.3-8.72-.46L5,289a12.23,12.23,0,0,1,3-.61c5.07.23,10.14.61,15.21.88,1.67.09,3.35,0,5,0C40.79,289.14,53.39,289,66,289c11.64,0,23.27.22,34.91.22C107.56,289.22,114.22,289,121.72,288.84Z"/><path class="cls-1" d="M63.88,12.7c-3,0-6,.08-9.06-.05-.75,0-1.48-.73-2.22-1.12.7-.38,1.38-1.07,2.09-1.08q9.3-.15,18.6,0c.73,0,1.44.79,2.17,1.21a6.84,6.84,0,0,1-2.27,1C70.08,12.77,67,12.7,63.88,12.7Z"/><path class="cls-1" d="M71.19,262.67c-3.09-1.84-6.23-3.06-9.93-2.05s-5.67,3.75-7.63,7.33c0-3.61,2.69-6.78,6.34-8.12A9.72,9.72,0,0,1,71.19,262.67Z"/><path class="cls-1" d="M43.73,12.11c-.94.63-1.87,1.74-2.81,1.75-.78,0-2.28-1.42-2.18-2a3.48,3.48,0,0,1,2.13-2.44c.83-.15,1.89,1,2.85,1.61Z"/><path class="cls-1" d="M61.18,280.78l8.8-1.66C68.57,281.49,64.07,282.35,61.18,280.78Z"/><path class="cls-1" d="M63.89.45c.72,1,1.49,1.6,1.42,2.09a2.19,2.19,0,0,1-1.47,1.35c-.32.08-1.23-.81-1.24-1.28S63.25,1.46,63.89.45Z"/><path class="cls-1" d="M106.72,35.87v-3.7c1.86-.22,4,.07,5.53-.79,2-1.13,3.34,0,5,.17,2,.25,4-.06,6,.22.78.11,1.43,1.16,2.14,1.79-.68.68-1.29,1.86-2,2-2.11.27-4.29,0-6.43.12-2.5.12-5,.44-7.49.57A14.52,14.52,0,0,1,106.72,35.87Z"/><path class="cls-1" d="M23.3,34.26,24,32l2.13,3.36c-1.89.18-3.64.45-5.41.49a7.75,7.75,0,0,1-3.53-.53c-.51-.25-.6-1.61-.58-2.47,0-.22,1.11-.47,1.72-.62a10,10,0,0,1,1.4-.11c1.65-.16,3.12-.06,2.73,2.77Z"/><path class="cls-1" d="M13.4,30.35c.16.34.3.7.5,1,2,3.3,2,3.31-1.94,3.38a47.16,47.16,0,0,1-4.74,0c-.46,0-1-.65-1.23-1.12-.09-.15.57-1,.72-1C9.42,33.39,10.79,30.57,13.4,30.35Z"/><path class="cls-1" d="M67.19,34.18,65.48,35.5c-.09-1-.37-1.75-.14-2.3a2.45,2.45,0,0,1,1.47-1.4,28.88,28.88,0,0,1,4.3-.07l.32,3.59-4.25-.41Z"/><path class="cls-1" d="M59.69,32.55c1.08-.2,2.25-.75,3.2-.49.57.16,1,1.56,1.07,2.44,0,.36-1.12,1.13-1.72,1.12a12.86,12.86,0,0,1-3-.84C59.38,34,59.53,33.29,59.69,32.55Z"/><path class="cls-1" d="M90.15,131.66c2.2,1.32,2.22,1.39,1.78,6.2l-1.52-.3c-1,3.67-4,1.83-6.09,2.36a8.47,8.47,0,0,0,5.48-2.73c1.69-1.78,1.65-2.53.46-4.1C90.06,132.85,90.19,132.35,90.15,131.66Z"/><path class="cls-1" d="M26.54,34.71c.8-1,1.43-2.35,2.47-2.89.61-.32,2.16.39,2.77,1.09s.29,1.83.4,2.78l-.81,0,.1-1.56-4.39,1.21Z"/><path class="cls-1" d="M59.69,32.55c-.15.75-.31,1.5-.45,2.23-1.52,2.59-2.46-.43-3.81-.21C56.8,31.66,57.69,31.27,59.69,32.55Z"/><path class="cls-1" d="M51.7,129.43v7.65h-.6v-7.65Z"/><path class="cls-1" d="M78.11,130c.92,7,.5,8.58-2.43,9.25C79.2,136.83,77.86,133.24,78.11,130Z"/><path class="cls-1" d="M103.78,33.66l-1.82,2c-.35-.69-1-1.43-1-2.07s.86-1.38,1.34-2.06Z"/><path class="cls-1" d="M44.86,138.61,47,135.47a15.22,15.22,0,0,0,.17,2.66A19.74,19.74,0,0,0,48.24,141l.87-.55Z"/><path class="cls-1" d="M40.61,136.9,38,140l-.74-.45c1-1.45,2.5-2.9.5-4.72Z"/><path class="cls-1" d="M62.17,139.46c2.4-2.19,2.86-4.89,2.18-8.22C65.8,134.55,64.68,138.69,62.17,139.46Z"/><path class="cls-1" d="M66.27,141.72l4.82.93C68.76,144.08,67.1,143.68,66.27,141.72Z"/><path class="cls-1" d="M68.84,105.63c1.73-1.9,3.37-2.07,4.82-.51Z"/><path class="cls-1" d="M83.91,135.53h4.34l0,.18-4.29.67Z"/></g></g></svg>