<svg xmlns="http://www.w3.org/2000/svg" viewBox="0 0 293.3 276.85"><defs><style>.cls-1{fill:none;stroke:#000;stroke-miterlimit:10;stroke-width:0.5px;}</style></defs><title>Asset 18</title><g id="Layer_2" data-name="Layer 2"><g id="Pics"><path class="cls-1" d="M293.06,276.6c-1.07-2.75-2-5.54-3.25-8.23-1.07-2.41-2.48-4.68-3.58-7.08a62.81,62.81,0,0,0-6.3-10.21,21.93,21.93,0,0,0-3.34-3.65,69,69,0,0,0-5.86-4.69,35,35,0,0,0-6-3.66c-3.8-1.66-7.75-3-11.63-4.49a32.66,32.66,0,0,0-14.76-2.06,38,38,0,0,1-11.63-1.1A50,50,0,0,1,216,227.57c-1.67-.8-3.33-1.62-5-2.44s-3.49-1.55-5.1-2.54c-3.6-2.22-7.58-3.64-11.33-5.53-2.73-1.37-5.43-2.81-8.15-4.2a2,2,0,0,1-1.16-1.78c-.15-1.85-.46-3.68-.54-5.53-.17-4.26-.23-8.52-.34-12.78,0-1.2,0-2.41-.16-3.6s-.37-1.35-1.57-1.19c-.52.07-1,.1-1.56.15.66-.65,1.49-1,2-1.55a34.76,34.76,0,0,1,4.87-3.75,3.78,3.78,0,0,1,5.27,1.32,14.23,14.23,0,0,0,2.68-1.84c1.79-1.94,2.86-4.39,4.28-6.6.79-1.23,1-2.8,2.18-3.83a.46.46,0,0,0,.13-.4c-.26-.59.21-.78.51-1.11a3,3,0,0,0,.52-.88c.22-.54.34-1.11.58-1.64.39-.86.91-1.67,1.25-2.55.54-1.44,1-2.92,1.46-4.38a6.71,6.71,0,0,0,.48-1.72c0-1.33,0-2.65,1-3.73a.47.47,0,0,0,.07-.43c-.53-1-.07-2.11-.2-3.18a27.35,27.35,0,0,1,0-4.49c0-.58.43-1.16.4-1.73-.1-2,.2-3.95,0-6-.27-2.91,0-5.88,0-8.82,0-1.49,0-3-.16-4.47a33.22,33.22,0,0,0-.54-4.15c-.43-2.06-1-4.09-1.49-6.12q-.91-3.47-1.91-6.92c-.41-1.39-1-2.74-1.32-4.15-.15-.58-.15-1.62.15-1.8a1.73,1.73,0,0,0,1-2.19c0-.18.19-.42.3-.64-.9-.39-1.53-.86-1.21-1.84-.52-.3-1.13-.44-1.33-.81s0-1,0-1.49c-1.46-.58-1.28,1.81-2.63,1.39-.43-1.32-.2-2.78-1-4a1.4,1.4,0,0,1,.19-1.25,10.86,10.86,0,0,1,2.13-2.25,2,2,0,0,0,1-2.25,14,14,0,0,1,0-2.23,59.2,59.2,0,0,0-1.67-12.31,40.27,40.27,0,0,0-4.29-9.7,11.51,11.51,0,0,1-1.12-2.61,9,9,0,0,0-1.75-3.77,2.55,2.55,0,0,1-.17-3.09c.3-.52.66-1,1-1.52.63-1,1.32-2,1.85-3.09s.27-1.31-.6-1.8a3.93,3.93,0,0,1-2.32-3.11,2.49,2.49,0,0,0-.34-.82,14.71,14.71,0,0,1-.87-1.72c-.18-.51-.38-.9-.93-1.06-.11,0-.18-.2-.3-.35l1-.89c-1.65-1.28-2.06-3.12-2.67-4.86a6.94,6.94,0,0,0-.51-1.09c-1-1.75-2-3.49-3-5.22a7.16,7.16,0,0,0-1.21-1.7c-2.59-2.37-5.14-4.78-7.87-7A28.39,28.39,0,0,0,170,16.19c-3.09-1.41-6.37-2.4-9.58-3.56a6.76,6.76,0,0,1-.86-.25c-2.34-1.24-4.71-2.44-7-3.77-1.85-1.08-3.59-2.36-5.42-3.47A9.22,9.22,0,0,0,144.39,4c-2.3-.49-4.64-.8-7-1.2a3.69,3.69,0,0,1-1.31-.3A15.44,15.44,0,0,0,131.93,1a11.15,11.15,0,0,0-4.75-.49c-2.56.42-5.1.06-7.64.24A7.44,7.44,0,0,1,117,.53c-2.63-.77-5,.17-7.25,1.21a6,6,0,0,1-3.11.6c-2.3-.15-4.6-.25-6.9-.43-.93-.07-1.85-.34-2.78-.43-1.14-.12-2.26-1-3.45-.13-.08.05-.26,0-.4-.08-2.38-.51-4.74-.12-7.1.14-1.88.2-3.47,1.28-5.23,1.82A39.89,39.89,0,0,0,68.56,9.55a13.74,13.74,0,0,0-3.84,3.77,37.31,37.31,0,0,0-4.89,12.22c-.46,2.46-.77,5-1.48,7.37a59,59,0,0,0-1.75,8.68,7.77,7.77,0,0,0,4.11,8.18,34.14,34.14,0,0,1,6.11,4.34,4.22,4.22,0,0,1,1.68,3.53c0,.9-.12,1.79-.12,2.69,0,1.1.17,2.2.11,3.3A9.26,9.26,0,0,0,69.74,69,10.08,10.08,0,0,1,71,72.31a20,20,0,0,1,.15,4.5,53.58,53.58,0,0,0,3.27,21.71A52.79,52.79,0,0,1,76.53,106c.68,3.54,1,7.14,1.53,10.71.13.94.18,1.9.31,2.84.73,5.3,3.15,9.9,6,14.33,2.33,3.69,4.67,7.37,6,11.57a41.7,41.7,0,0,0,1.88,4.59,12.45,12.45,0,0,0,3.88,5.1c2.7,1.93,5.54,3.66,9.07,3.55a1,1,0,0,1,1.09,1c.3,2.44.76,4.86.89,7.31.29,5.2.54,10.41.55,15.62,0,3.45-.39,6.9-.66,10.35-.23,2.9-.45,5.8-.82,8.68A24.27,24.27,0,0,1,103,211a11.41,11.41,0,0,1-4.29,4.32l-4.33,2.43c-3.4,1.92-6.87,3.74-10.19,5.81-5.87,3.66-11.61,7.52-17.47,11.21a64.28,64.28,0,0,1-23.42,9.06c-3,.52-6,1.06-9,1.87a58,58,0,0,0-11.5,4.81,34.57,34.57,0,0,0-11.13,8.58c-2.64,3.27-5.13,6.68-7.47,10.17-1.55,2.32-2.71,4.9-4,7.37"/><path class="cls-1" d="M188.33,276.6a3.57,3.57,0,0,0-.42-.76c-2.37-2.58-4.77-5.14-7.15-7.72-1.73-1.88-3.53-3.71-5.11-5.71-2.1-2.68-4-5.5-6.81-7.56a17.25,17.25,0,0,1-1.91-1.91,8.47,8.47,0,0,0-.74-.75c-.6-.48-1-.43-1.35.19-.94,1.59-1.89,3.19-2.77,4.82a5,5,0,0,0-.53,3.76,21.09,21.09,0,0,1,.44,3.12,3.09,3.09,0,0,1-.12.8,6.77,6.77,0,0,1-1.39-5.17,14.94,14.94,0,0,1,1.94-5.64c.46-.71.65-1.65,1.23-2.21,1.3-1.24,1.19-2.82,1.12-4.28a41.2,41.2,0,0,0-1-5.3,4.16,4.16,0,0,1,0-.75c.68,1.18,1,2.53,1.71,3.57a21,21,0,0,0,3.06,2.91,2.72,2.72,0,0,1,.94-.35,3.4,3.4,0,0,0,3.06-2.33c1.22-2.76,1.45-5.5-.74-8-1.39-.26-2.73-.63-4.07.27-1.15.77-1.23.79-.48,1.94.23.35.64.66.38,1.12a3.76,3.76,0,0,1-3.17-1.4,6.57,6.57,0,0,0-2.89-1.78,11.44,11.44,0,0,1-3.72-1.5c-2.53-1.61-2.9-1.57-5.37.15-1.43,1-2.91,1.94-4.42,2.81-3.22,1.85-3.94,2.58-4.94,5.3a57.47,57.47,0,0,1-4.66,10.07,11,11,0,0,0-1.51,7.21,56.5,56.5,0,0,1,.16,7,13.35,13.35,0,0,1-.23,2.69A7.47,7.47,0,0,0,137,275a7.46,7.46,0,0,1,.12,1.62h-.3a11.64,11.64,0,0,1-1.6-3.17,27.86,27.86,0,0,1-.24-6,10.71,10.71,0,0,0-.32-4.57c-1.23,1.45-2.48,2.74-3.52,4.19-2.16,3-4.9,5.71-5.76,9.53m-125.2,0c1.33-2.47,2.49-5,4-7.37,2.33-3.5,4.83-6.91,7.47-10.17a34.57,34.57,0,0,1,11.13-8.58,58,58,0,0,1,11.5-4.81c2.94-.81,6-1.34,9-1.87a64.28,64.28,0,0,0,23.42-9.06c5.85-3.69,11.6-7.55,17.47-11.21,3.32-2.07,6.79-3.88,10.19-5.81l4.33-2.43A11.41,11.41,0,0,0,103,211a24.27,24.27,0,0,0,3.2-9.33c.37-2.88.6-5.78.82-8.68.27-3.45.67-6.9.66-10.35,0-5.21-.27-10.42-.55-15.62-.13-2.45-.59-4.87-.89-7.31a1,1,0,0,0-1.09-1c-3.53.11-6.37-1.62-9.07-3.55a12.45,12.45,0,0,1-3.88-5.1,41.7,41.7,0,0,1-1.88-4.59c-1.36-4.2-3.7-7.88-6-11.57-2.8-4.44-5.22-9-6-14.33-.13-.94-.18-1.9-.31-2.84-.49-3.57-.85-7.17-1.53-10.71a52.79,52.79,0,0,0-2.14-7.51,53.58,53.58,0,0,1-3.27-21.71,20,20,0,0,0-.15-4.5A10.08,10.08,0,0,0,69.74,69a9.26,9.26,0,0,1-1.24-5.33c.07-1.09-.1-2.2-.11-3.3,0-.9.09-1.79.12-2.69a4.22,4.22,0,0,0-1.68-3.53,34.14,34.14,0,0,0-6.11-4.34,7.77,7.77,0,0,1-4.11-8.18,59,59,0,0,1,1.75-8.68c.7-2.39,1-4.91,1.48-7.37a37.31,37.31,0,0,1,4.89-12.22,13.74,13.74,0,0,1,3.84-3.77A39.89,39.89,0,0,1,80.78,3.23C82.54,2.69,84.12,1.61,86,1.4c2.36-.26,4.73-.65,7.1-.14.14,0,.32.13.4.08,1.19-.84,2.31,0,3.45.13.93.09,1.85.36,2.78.43,2.3.18,4.6.28,6.9.43a6,6,0,0,0,3.11-.6c2.24-1,4.62-2,7.25-1.21a7.44,7.44,0,0,0,2.54.18c2.54-.17,5.09.18,7.64-.24a11.15,11.15,0,0,1,4.75.49,15.44,15.44,0,0,1,4.2,1.51,3.69,3.69,0,0,0,1.31.3c2.32.39,4.65.71,7,1.2a9.22,9.22,0,0,1,2.75,1.17c1.84,1.1,3.57,2.39,5.42,3.47,2.29,1.33,4.66,2.53,7,3.77a6.76,6.76,0,0,0,.86.25c3.2,1.16,6.48,2.15,9.58,3.56A28.39,28.39,0,0,1,175.92,20c2.73,2.2,5.28,4.61,7.87,7A7.16,7.16,0,0,1,185,28.7c1,1.73,2,3.47,3,5.22a6.94,6.94,0,0,1,.51,1.09c.61,1.74,1,3.58,2.67,4.86l-1,.89c.12.15.19.32.3.35.55.15.75.54.93,1.06a14.71,14.71,0,0,0,.87,1.72,2.49,2.49,0,0,1,.34.82A3.93,3.93,0,0,0,195,47.8c.87.49,1.07.87.6,1.8s-1.22,2.07-1.85,3.09c-.32.51-.68,1-1,1.52a2.55,2.55,0,0,0,.17,3.09,9,9,0,0,1,1.75,3.77,11.51,11.51,0,0,0,1.12,2.61,40.27,40.27,0,0,1,4.29,9.7,59.2,59.2,0,0,1,1.67,12.31,14,14,0,0,0,0,2.23,2,2,0,0,1-1,2.25,10.86,10.86,0,0,0-2.13,2.25,1.4,1.4,0,0,0-.19,1.25c.82,1.23.59,2.7,1,4,1.35.42,1.17-2,2.63-1.39,0,.51-.17,1.11,0,1.49s.81.52,1.33.81c-.33,1,.31,1.45,1.21,1.84-.11.22-.34.47-.3.64a1.73,1.73,0,0,1-1,2.19c-.31.17-.3,1.22-.15,1.8.36,1.4.92,2.75,1.32,4.15q1,3.45,1.91,6.92c.53,2,1.07,4.07,1.49,6.12a33.22,33.22,0,0,1,.54,4.15c.12,1.49.16,3,.16,4.47,0,2.94-.3,5.91,0,8.82.19,2-.11,4,0,6,0,.57-.37,1.15-.4,1.73a27.35,27.35,0,0,0,0,4.49c.12,1.06-.34,2.15.2,3.18a.47.47,0,0,1-.07.43c-1,1.07-.95,2.4-1,3.73a6.71,6.71,0,0,1-.48,1.72c-.47,1.46-.91,2.94-1.46,4.38-.33.88-.86,1.69-1.25,2.55-.24.53-.37,1.1-.58,1.64a3,3,0,0,1-.52.88c-.29.32-.77.52-.51,1.11a.46.46,0,0,1-.13.4c-1.18,1-1.39,2.6-2.18,3.83-1.42,2.21-2.48,4.66-4.28,6.6a14.23,14.23,0,0,1-2.68,1.84,3.78,3.78,0,0,0-5.27-1.32,34.76,34.76,0,0,0-4.87,3.75c-.55.58-1.38.9-2,1.55.52,0,1-.08,1.56-.15,1.2-.16,1.42-.06,1.57,1.19s.13,2.4.16,3.6c.11,4.26.17,8.52.34,12.78.07,1.85.39,3.68.54,5.53a2,2,0,0,0,1.16,1.78c2.72,1.39,5.42,2.83,8.15,4.2,3.75,1.89,7.73,3.31,11.33,5.53,1.61,1,3.4,1.71,5.1,2.54s3.32,1.64,5,2.44a50,50,0,0,0,10.72,3.88,38,38,0,0,0,11.63,1.1,32.66,32.66,0,0,1,14.76,2.06c3.88,1.49,7.83,2.82,11.63,4.49a35,35,0,0,1,6,3.66,69,69,0,0,1,5.86,4.69,21.93,21.93,0,0,1,3.34,3.65,62.81,62.81,0,0,1,6.3,10.21c1.1,2.4,2.51,4.67,3.58,7.08,1.2,2.69,2.17,5.48,3.25,8.23M133.51,107.14l-.45.07c-.63.06-1.25,0-1.52-.67a1.52,1.52,0,0,1,.44-1.77c.37-.34.79-.61,1.14-1s.93-.94.52-1.66a7.47,7.47,0,0,0-3.78.77,2.27,2.27,0,0,0-1.3,2.33,16.63,16.63,0,0,1,.1,2.39,2.4,2.4,0,0,0,1.33,2.46c1.86,1.12,2.26,1.13,4-.13a7.58,7.58,0,0,0,.93-.75,2.63,2.63,0,0,0,.88-1.64l-2.36-.47a7.13,7.13,0,0,0,1.15-.43c.1-.06,0-.41.06-.62-.21,0-.52,0-.62.08A6,6,0,0,0,133.51,107.14Zm1.84-63.5c-.78,0-1.37,0-2,0s-1,.37-.89,1.08a9.11,9.11,0,0,0,.25,1l-3.52-.28,1.29,2.92a5.89,5.89,0,0,1-1.4.9c-1.18.36-2.4.58-3.65.86,0,.12.09.24.15.36s.13.21.19.32c-.94.64-1.82,1.31-2.82.36-.66.36-1.07.75-.73,1.62l1.21.24a2,2,0,0,1,1.42,3,2.48,2.48,0,0,0-.37,1.24c-.1,2.07-.11,4.14-.25,6.21a20.69,20.69,0,0,1-.54,2.62,3.3,3.3,0,0,0-.15,1.17,6.32,6.32,0,0,1-.35,3.1,6.94,6.94,0,0,0-.18,1.31c-.25,2.23,0,4.51-.8,6.67a2.71,2.71,0,0,0,.34,2.44,3.18,3.18,0,0,1,.61,1.48,3,3,0,0,0,.74,2,2.4,2.4,0,0,1,.43,1.25A5.06,5.06,0,0,0,126,88.3a1.69,1.69,0,0,0,1.19.38,6,6,0,0,0,3.09-1.42,36.38,36.38,0,0,1,14.14-5.63c4-.69,8.15-1,12.23-1.32a12.37,12.37,0,0,1,4.29.55,53.65,53.65,0,0,1,5.31,2.07,10,10,0,0,0,6.72.67,9.25,9.25,0,0,0,3.53-1.24c.22-.17.58-.17.85-.29.81-.37,1.59-.78,2.41-1.13,1.14-.49,1.9-1.67,3.22-1.79a3,3,0,0,0,1.85-.87,2.14,2.14,0,0,1,.85-.57,16.53,16.53,0,0,0,4.83-2.37,4.21,4.21,0,0,1,3.57-.67,9.59,9.59,0,0,0,2.37.33c1,0,1.26-.36,1.13-1.31a4.7,4.7,0,0,0-.39-1.29q-.82-1.78-1.7-3.52c-1.29-2.55-2.56-5.1-3.91-7.61a2.22,2.22,0,0,1-.07-2,3.9,3.9,0,0,0,.37-1.88c-.39-2,0-4.22-1.14-6.21-.86.51-1.36,0-1.94-.69a1.68,1.68,0,0,1-.4-1.78,2.21,2.21,0,0,0,.09-1,6.8,6.8,0,0,1,.08-3.33l-2,1.4.24-2.16-1.39.79c-1.75-.31-2.26-2.51-4.27-2.53l.78,2.08a8.82,8.82,0,0,1-3.51-3.11s-.09,0-.13,0l-.2.91-1.45-.68v1.07c-1.38-.4-1.28-1.88-2.09-2.56-1.09.4-.07,1.48-.57,1.82-.86.58-.11,1.33-.4,2.21a14.52,14.52,0,0,1-1-1.17c-.7-1.08-1-1-2.51-1.1a3.5,3.5,0,0,0-1.88.32c-.24.12-.76-.14-1.07-.35a4.73,4.73,0,0,1-.8-.88,9.86,9.86,0,0,1-2.42-.37c-1.2-.28-2.42-.5-3.6-.85-1-.3-1.08-.32-1.52.72a4.08,4.08,0,0,1-.35.54,14.1,14.1,0,0,1-1.47-.38c-1.22-.46-2.33-.65-3.09.79-.13.25-.56.33-.84.49l-1.21-.92-.39,1.5c-1.38.16-2.93-.87-4,1-.45-.95-1.1-.78-1.84-.6a3.2,3.2,0,0,1-1.77,0,4.71,4.71,0,0,0-2.91.17l-1.47.38-1.86-1.63-2.17,1.22Zm28,76.16a4.86,4.86,0,0,0,2.32,2.32c1,.53,1.94,1.22,2.92,1.81a4.29,4.29,0,0,0,1.32.66,17.5,17.5,0,0,0,8.61-.43,7.73,7.73,0,0,1,4.42-.3c2,.53,4,1.07,5.92,1.7,1,.33,1.76,1,1.51,2,.5.31,1.06.47,1.12.74a3.24,3.24,0,0,0,2.15,2.21c.94-1.69,2.51-3.08,2.66-5.19a30.72,30.72,0,0,0-.07-3.43.94.94,0,0,0-.26-.52q-2.49-2.79-5-5.57c-.64-.7-1.31-1.38-2-2.08a3.44,3.44,0,0,1-.8-2.8c.1-1.13.3-2.25.49-3.57a9.27,9.27,0,0,0-2.23-.4,1.92,1.92,0,0,1-1.72-.57,10.46,10.46,0,0,0-1.61-1.34,14.23,14.23,0,0,0-1.79-1.07,1.16,1.16,0,0,0-1.47.34,6.12,6.12,0,0,1-1.78,1.28,10,10,0,0,0-3.81,2.85c-1.53,1.86-3,3.72-4.58,5.57a17.06,17.06,0,0,1-3.7,3.7A32.81,32.81,0,0,0,163.36,119.79ZM142.71,100a32.35,32.35,0,0,0,4.35-.22,8.85,8.85,0,0,1,3.85.27c1.65.41,3.35.65,4.64,1.93.07.07.19.08.27.12,2.23,1.22,4.72,1.64,7.13,2.28a4.48,4.48,0,0,0,3.35-.49,7.6,7.6,0,0,1,1.23-.56c1.29-.44,2.62-.77,3.88-1.28,2.18-.87,4.35-1.49,6.72-.9.89.22,1.33,0,1.38-.87a3.73,3.73,0,0,1,2-3,17.93,17.93,0,0,0,2.07-1.72c.53-.49,1-1.07,1.28-1.39L186,91.13c-.66-.35-1.37-.71-2.06-1.11a3.86,3.86,0,0,0-2.41-.69,5.17,5.17,0,0,1-3-.72,14.4,14.4,0,0,0-3-1c-1.1-.29-2.25-.43-3.34-.75-2-.61-3.83-.48-5.25,1.36a3.29,3.29,0,0,1-1.26.74,40.83,40.83,0,0,0-4.2,1.93,10.81,10.81,0,0,1-2.34,1.27,103.44,103.44,0,0,0-13.55,5.32A7.61,7.61,0,0,0,142.71,100Zm-10.46-7.2a7.44,7.44,0,0,1,.35,1,5.13,5.13,0,0,0,1.91,3.13c.53.45,1.09.86,1.59,1.34.75.71.89.72,1.8.13.66-.43,1.39-.77,2.06-1.19,1.27-.8,3.14-.52,3.91-2.19a12,12,0,0,0,3.67-2.14c1-.76,2.52-.87,3.8-1.29,1.47-.47,3-.9,4.39-1.48a4.23,4.23,0,0,1,2.54-.67,1,1,0,0,0,.7-.17c.92-.67,1.85-1.34,2.72-2.09a3.32,3.32,0,0,1,1.86-.86,3.6,3.6,0,0,0,2.29-1.16c-.32-.3-.53-.65-.81-.73a24.3,24.3,0,0,0-2.49-.52c-1-.18-2.08-.25-3.08-.51-1.48-.39-2.92-.73-4.38,0a2,2,0,0,1-.72.2c-1.38.13-2.76.22-4.14.37a38.24,38.24,0,0,0-5.19.69,16.29,16.29,0,0,1-4,.65,3.75,3.75,0,0,0-2.44.88,8,8,0,0,1-2.47,1.61c-2.14,1-4.29,1.91-6.43,2.87a3.18,3.18,0,0,0-.53.42l1.52,1.38-.43,1.57Zm63.43,78.89a10.5,10.5,0,0,0,1.08.59,2,2,0,0,0,2.95-1.76,9.77,9.77,0,0,0-2.4-7.22c-1.38-1.45-1.77-1.51-3.68-.75-.8.32-2.91-.21-3.05-.92-.19-1-.89-1.36-1.48-1.94s-1.15-1.2-1.79-1.89A11.47,11.47,0,0,0,186,159c-1.29,1.72-2.51,3.49-3.81,5.2a2.57,2.57,0,0,0-.34,3,2.81,2.81,0,0,1,.28,2.91c.87.26,1,.91,1.15,1.64a11.4,11.4,0,0,0,.61,2.32,3.88,3.88,0,0,0,.93,1.3c.79.76,1.65,1.44,2.46,2.18,1.11,1,2.33,1.16,3.18.14a5.48,5.48,0,0,1,3.48-1.88A5.1,5.1,0,0,1,195.68,171.66ZM171.9,85.61l.11.5a7.28,7.28,0,0,0,1.21-.18,6.88,6.88,0,0,0,1.37-.61,1.55,1.55,0,0,1,1.91.16,7.59,7.59,0,0,0,6.22,1.33,3,3,0,0,1,2.75.65c.66.55,1.36,1.31,2.37,1.13a5.16,5.16,0,0,1,4.48,1.08,2.15,2.15,0,0,0,2.51.06,8.56,8.56,0,0,0,2.45-4.06,11.51,11.51,0,0,1,1.52-4.49,1.25,1.25,0,0,0,.22-1,22.5,22.5,0,0,0-1.62-3.29c-.87-1.36-2-1.48-3.28-.54a9.5,9.5,0,0,1-1.23.85,45.68,45.68,0,0,0-4.62,2.35,31.45,31.45,0,0,1-4.16,2,2.13,2.13,0,0,1-1.16.24,1.74,1.74,0,0,0-1.48.54,6.82,6.82,0,0,1-4.86,1.57C174.69,83.79,173.38,84.81,171.9,85.61Zm-8.29,131.51a1.6,1.6,0,0,0-.86-1.64,5,5,0,0,1-2.06-1.91,1.34,1.34,0,0,0-2.17-.32c-1.3.93-2.63,1.82-3.87,2.83a4.3,4.3,0,0,0-1.35,1.72c-1,2.63-1.84,5.29-2.66,8-.62,2-.2,2.92,1.58,4a13.36,13.36,0,0,1,2.14,1.37,1.62,1.62,0,0,0,2.17.16,7.48,7.48,0,0,0,1.14-1,16.61,16.61,0,0,1,2.77-2.5,5,5,0,0,0,2.45-3.89c.11-.59.06-1.2.12-1.8.12-1.29.26-2.58.41-3.87C163.47,217.9,163.55,217.51,163.61,217.11Zm15.88-76.34c.35,2.11.87,4.21,1,6.34a12,12,0,0,0,1.8,5.33,2.34,2.34,0,0,0,3.7.46c.35-.35.72-.68,1.08-1a21.58,21.58,0,0,0,4-4.44,2.9,2.9,0,0,0,.33-2.7,14.86,14.86,0,0,1-.94-2.84,26.56,26.56,0,0,0-2.47-6.56c-.5-1.08-1.19-1.2-2.18-.76a4.15,4.15,0,0,0-.88.56c-1.48,1.19-2.94,2.41-4.44,3.57A2.27,2.27,0,0,0,179.49,140.77ZM161.58,107.2c-.26,1.46-.37,1.59-1.93,2.33-.41.19-.8.42-1.2.63-2.43,1.26-4.89,2.4-7.71,2.38a11.14,11.14,0,0,0-1.51.19l-.51,1.65c.88.39,1.69.78,2.52,1.1,2.05.79,4.19,1.4,6.16,2.37a2.67,2.67,0,0,0,3.19-.25c2.59-2.13,5.25-4.2,7.63-6.56a67.06,67.06,0,0,1,6.68-6.26,6.52,6.52,0,0,0,.78-.94,16.56,16.56,0,0,0-4.17,1.14,19.2,19.2,0,0,1-3,1q-2.31.6-4.65,1.06A20.17,20.17,0,0,1,161.58,107.2Zm-1.29,92.89L159,201.73c-1.28,1.58-1.2,3.69-2.05,5.44a1.1,1.1,0,0,0,.68,1.48c.64.29,1.29.56,1.9.9,1.4.79,1.79.76,3-.31a18,18,0,0,0,3.35-4,7.8,7.8,0,0,0,1.31-3.74c.07-.95.08-1.9.06-2.85a1.73,1.73,0,0,0-1.51-1.76c-.63-.1-1.26-.19-2-.29a1.87,1.87,0,0,0-.76-2.69,8,8,0,0,0-1.72,1.73,16.25,16.25,0,0,0-1.12,3.36A2.79,2.79,0,0,0,160.29,200.09ZM115,68.41c.37-.15.89-.55,1.25-.44s.53.75.68,1.19a3.68,3.68,0,0,1,0,1,15.2,15.2,0,0,0,1.42,6.21,3.43,3.43,0,0,0,.26.54c.38.53.88.52,1.15-.08a9.07,9.07,0,0,0,.61-1.85c.53-2.54,1-5.08,1.53-7.62a.75.75,0,0,0,0-.44c-.56-1.07-.06-2.17-.11-3.25-.07-1.65.25-3.3-.78-4.86-.5-.75-.85-1.84.42-2.58.68-.39.62-1.17.53-1.9-.17-1.36-.72-1.66-1.8-.84a1.37,1.37,0,0,1-1.5.28,1.81,1.81,0,0,0-2.18.44,10,10,0,0,0,.38,2.36c.3.68,1,1.2,1.34,1.86a13.41,13.41,0,0,1,.75,2A1.8,1.8,0,0,1,118,63.07a3.39,3.39,0,0,1-.61.18c-.41.68-.6,1.39-1,1.61s-1.1-.07-1.88-.16a5.5,5.5,0,0,0-.05,1.37C114.56,66.93,114.86,67.77,115,68.41Zm60.78,102.93a12.31,12.31,0,0,0,.45-1.79c.16-1.89-.6-2-2.32-1.74a1.45,1.45,0,0,0-.52.29c-1.65,1.16-3,2.48-2.87,4.75a2.3,2.3,0,0,1,0,.6,3.67,3.67,0,0,0,1.15,3.25,4.37,4.37,0,0,0,5.64,1.28,16.68,16.68,0,0,0,1.78-.78,3.62,3.62,0,0,0,1-1.06,11.73,11.73,0,0,0,.75-1.44,5.78,5.78,0,0,0-.43-5.82l-3.34,3.35Zm-6.24-30.51a1.94,1.94,0,0,0-1.85-1.13c-.65,0-1.3-.09-2-.07-3.62.15-5.41,1.85-5.54,5.67a3.57,3.57,0,0,0,.6,2,6.49,6.49,0,0,0,5,3,3.08,3.08,0,0,0,2.92-1.17,6.67,6.67,0,0,1,1.19-1.34,4.52,4.52,0,0,0,1.5-3c.27-1.13-.32-1.63-1.44-1.29s-2,.72-3,1.07c-.53.19-1.08.34-1.61.5a5,5,0,0,1,1.95-2.31Zm-3.07,84.66c.42.18.79.49,1.12.45,2.18-.23,4.24-.73,5.46-2.87a7.69,7.69,0,0,0,.63-5.81,1.93,1.93,0,0,0-1-1.19c-1.66-.65-3.35-1-4.9.39a3.49,3.49,0,0,1-1.36.6,3,3,0,0,0-1.79,1.49,6,6,0,0,0-.68,3.63c.11,1.4.52,1.76,2,1.81-.87.78-2,1.31-2.12,2.93Zm-11.19-31.92c.91-1.28-.38-2.72.64-4.1.34.45.49.81.76,1,1.12.7,2.26,1.37,3.41,2a1,1,0,0,0,.72.06,5.19,5.19,0,0,1,3.37.4,2.82,2.82,0,0,0,2.44,0,.64.64,0,0,1,1,.32l-1.3,1.5c1.18,1.15,1.85,1,2.18-.32a10.07,10.07,0,0,0,.26-2.08c0-1.27.19-2.43,1.8-2.58-.43-1-.42-1-.9-1.12-2.14-.38-4.19-.34-5.94,1.22a10.11,10.11,0,0,1-1.29,1c-.81.51-1.52.26-2-.69l1.16-.7a1.84,1.84,0,0,0-1.54-1.18,25.65,25.65,0,0,0-2.9-.7,29.13,29.13,0,0,0-4.16-.3c-1,0-1.3.41-1.37,1.4C151.47,191.26,152.76,192.9,155.33,193.57ZM137,243a2.84,2.84,0,0,0-3-3c-.4,0-.8,0-1.19.05-2.12.31-4,.89-4.57,3.16a17.58,17.58,0,0,1-1.06,3,2.49,2.49,0,0,0,.49,2.77,2.35,2.35,0,0,0,2.43.77,11.08,11.08,0,0,1,1.76-.12,5.06,5.06,0,0,0,4.74-2.61,1.91,1.91,0,0,0,0-1.54c-.24-.51-.83-.4-1.34-.22s-1.24.41-1.86.59a1.11,1.11,0,0,1-1.42-.54C133.26,243.71,135.29,243.88,137,243Zm15.11-39.14a1.55,1.55,0,0,1,1.53.78,8,8,0,0,1,.72,1.14,1.39,1.39,0,0,0,1.62.79c.77-.11.92-.73,1-1.32a5.51,5.51,0,0,0-.74-3.6,3.75,3.75,0,0,0-5-1.3,3.86,3.86,0,0,1-1.84.37,2.06,2.06,0,0,0-2.18,1.26,3.55,3.55,0,0,0,.09,3.72,1.77,1.77,0,0,1,.26,2.13c2.11,1.52,3.8,1.59,5.41.25C152.6,206.69,151.41,205.47,152.09,203.82Zm37.12-73.09a11.65,11.65,0,0,0-1.07-1,17.47,17.47,0,0,0-5.82-2.67,6.35,6.35,0,0,0-3,0,22.49,22.49,0,0,1-2.82.22,5.46,5.46,0,0,0-2.62.38,10.2,10.2,0,0,0,3.62,2.76c.85.38,1.09,1.09,1.52,1.76s-.08,1-.21,1.54c-.05.19-.18.4-.14.57.1.37.19.86.46,1a1.18,1.18,0,0,0,1-.2c.93-.75,1.81-1.57,2.69-2.37.1-.09.1-.27.24-.65l-.57-.32-1-.52a5,5,0,0,1,5.06,1C187.09,131.08,188.6,132.18,189.2,130.73ZM118.62,91.48h2.63a7.84,7.84,0,0,0,1.64,0,1.45,1.45,0,0,0,1-.7c.09-.32-.22-.79-.43-1.15-.12-.2-.41-.28-.58-.46a8.5,8.5,0,0,1-1.06-1.23,2.2,2.2,0,0,0-2.83-.86,6,6,0,0,0-3,3.8A6.5,6.5,0,0,0,117.1,96a3.36,3.36,0,0,0,3.2,1.5c2.56-.36,3.68-1.69,3.77-4.49-.65.08-1.27.13-1.88.23s-1,.28-1.45.32C119.25,93.74,118.9,93.42,118.62,91.48Zm75.85,24.76a19.14,19.14,0,0,0,.66,2.07,9,9,0,0,0,3.64,3.68,2.58,2.58,0,0,0,4-1.89,7.14,7.14,0,0,0-3.12-6.75,3.22,3.22,0,0,0-4.12.25c-.81.72-.74,1.36.25,1.81.56.26,1.16.43,1.46,1.28-.78-.4-1.42-.7-2-1.05a1.77,1.77,0,0,0-2.1.13Zm-44.35,7.6a20.33,20.33,0,0,0,2.1-1.17,23.29,23.29,0,0,0,1.89-1.67c-1.45-.89-2.36-1.09-3.37-.78-.74.23-1.47.73-2.18-.11-.1-.12-.48-.07-.71,0a3.43,3.43,0,0,0-2.24,4.66,4.54,4.54,0,0,0,3.06,2.44,6.35,6.35,0,0,0,3.2-.27,8.42,8.42,0,0,0,2.4-1.76c.82-.71.83-1.07.21-2.36-.37.23-.85.36-1.06.68-.47.71-1.25.77-1.9,1.12S150.47,124.54,150.12,123.85ZM193.54,140a11,11,0,0,0,2,6,1.58,1.58,0,0,0,1,.54c2.23.39,3.53-.83,3.68-3.14a8.91,8.91,0,0,0-1.06-4,3.58,3.58,0,0,0-2.93-2.24c-.34-.07-.69-.12-1-.18-1.09-.2-1.45-.06-1.72.65-.37,1-.22,1.35.76,1.9a4.51,4.51,0,0,0,.93.46c.75.21.89.76,1.07,1.75Zm-48.73,82.23c.6.73,1.13,1.36,1.63,2,.25.31.45.66.67,1a1.08,1.08,0,0,0,1.28.54c.59-.2.62-.77.57-1.26a5.64,5.64,0,0,0-3.06-4.54,5.44,5.44,0,0,0-6.84,1.17,2.38,2.38,0,0,0-.69,2.19,4.76,4.76,0,0,0,4.78,3.67c.79-.06,1-.44.68-1.25-.19-.52-.32-1.06-.48-1.59-.27-.76-1.49-.63-1.64-1.66,1-.31,1.85-.61,2.74-.86a.59.59,0,0,1,.48.24C145,221.95,144.84,222.18,144.82,222.23Zm27.8-23.65c.42.83-.05,1.13-.36,1.49-.72.83-1.46,1.64-2.12,2.52-.21.28-.35.91-.2,1.07a1.37,1.37,0,0,0,1.17.36,5.22,5.22,0,0,0,2.33-1.24,8,8,0,0,0,1.51-7.87,3.15,3.15,0,0,0-.57-.78c-3.24.82-3.29.85-3.79,2.55l.59.23c-.46.62-.89,1.16-1.28,1.74a9.93,9.93,0,0,0-1,1.67c-.25.6-.55,1.3.29,1.88Zm17.74-94.37a7.14,7.14,0,0,0,5.09-1.63,2.21,2.21,0,0,0-.32-3.6A5.14,5.14,0,0,0,194,98.3a2.75,2.75,0,0,0-2.54-.14l-.14,1.8a8.33,8.33,0,0,0-1.43.1,1.75,1.75,0,0,0-1.24,1.84c.05.84.59,1.08,1.32,1.12a1.12,1.12,0,0,1,.37.17Zm-41.2,4.22-.58,2.06a9,9,0,0,0,5.58-2.27c.63-.6,1.19-1.26,1.79-1.91-1.29-1.87-3.4-2.5-6.27-1.79,0,1.35-2,1.81-1.62,3.53Zm32.73,51.94c.5-.5,1.14-.9,1.42-1.47a19.65,19.65,0,0,0,1-3,.83.83,0,0,0-.46-1.12A15.57,15.57,0,0,0,181,154c-.74-.1-1.06.31-1,1.11a9.35,9.35,0,0,1,.23,1.91C179.89,158.48,180.56,159.4,181.89,160.37Zm-35.35,76.5.37.38c1.74-1.05,3.84-1.31,5.41-2.73a3.8,3.8,0,0,0,.53-.53.7.7,0,0,0-.08-1.06c-.93-.79-1.91-1.52-3.23-1.21a1.65,1.65,0,0,0-1,.66C147.78,233.84,147.18,235.36,146.54,236.87Zm32.83-49.18a6.76,6.76,0,0,0-2.73-1.12l-4.92-.42a4.49,4.49,0,0,0-2.77,1,.53.53,0,0,0,0,1,3.57,3.57,0,0,0,3.3.28,3.16,3.16,0,0,1,2.69-.12A4.7,4.7,0,0,0,179.37,187.69ZM157.53,233c2.06,1.88,3.1,2.46,4.47,2.5a5.87,5.87,0,0,0,.16-5.18Zm34.19-76a4.69,4.69,0,0,0-.37-3.89,2.11,2.11,0,0,0-1.35-1c-.68-.11-2,1.65-2,2.41a.75.75,0,0,0,.24.52C189.33,155.74,190.24,156.73,191.71,157Zm2.94,19.58a5.06,5.06,0,0,0-2.24,3.3c2,1.33,2.29.62,2.83-.83a4.88,4.88,0,0,1,.23-.71C195.94,177.5,195.58,177,194.66,176.57Zm-36.12,35.21c-.49-.38-.91-.71-1.34-1a.8.8,0,0,0-1.2.09,3.51,3.51,0,0,0-.62,2.74l1.43.11-.38-.43Zm29.09-31.7-.54-.4a1.71,1.71,0,0,0-2.09,0c-.72.44-.18,1.07-.08,1.61.06.37.16.73.25,1.09C186.6,182.11,186.88,181.85,187.62,180.09ZM147.51,227.8a4.65,4.65,0,0,0,3.93,2.9A4.18,4.18,0,0,0,147.51,227.8Zm16.18-15.59c.58-1.39.58-1.39.26-2.65-.6.46-1.47.58-1.52,1.45C162.4,211.65,163,212,163.7,212.21ZM141.47,110.65l.23-.29c-.36-.45-.69-.93-1.09-1.35-.68-.72-.86-.67-1.46.51Zm2.09-2.61c.38-.42.73-.65.81-.95s-.3-.64-.54-.69a.71.71,0,0,0-.9.72C142.93,107.37,143.25,107.61,143.56,108Zm23.17-69c.31.73.51,1.19,1.22,1.2C168.18,39.31,167.69,39.11,166.73,39Zm-34.92,4,.23.27,1.31-.86C132.26,41.74,132.13,42.56,131.81,43Zm-3,4.39c-.61-.68-.61-.68-1.25,0Zm11.16,162.19-.16-.43c-.62-.17-1.13-.13-1.36,1ZM133.37,97.42l.27-.26c-.12-.29-.23-.59-1-.48Zm60.22-47-.32-.26-.59.74.25.21ZM117.17,61.5a3,3,0,0,0-.31.58s.18.15.27.22c.09-.11.22-.21.24-.34S117.29,61.75,117.17,61.5ZM127.82,49l.27-.18a1.15,1.15,0,0,0-.29-.21c-.05,0-.14.09-.22.13Zm-8.67,35.43.36,0,0-.77h-.27ZM162.2,227.36c.22.13.34.27.42.25a.51.51,0,0,0,.31-.27c0-.07-.11-.21-.17-.31ZM123.64,49.7a1.54,1.54,0,0,0-.36-.22c-.06,0-.15.08-.23.13a1.4,1.4,0,0,0,.3.25S123.51,49.78,123.64,49.7Z"/><path class="cls-1" d="M137.16,276.6A7.46,7.46,0,0,0,137,275a7.47,7.47,0,0,1-.14-3.71,13.35,13.35,0,0,0,.23-2.69,56.5,56.5,0,0,0-.16-7,11,11,0,0,1,1.51-7.21,57.47,57.47,0,0,0,4.66-10.07c1-2.71,1.72-3.45,4.94-5.3,1.51-.87,3-1.81,4.42-2.81,2.47-1.72,2.84-1.76,5.37-.15a11.44,11.44,0,0,0,3.72,1.5,6.57,6.57,0,0,1,2.89,1.78,3.76,3.76,0,0,0,3.17,1.4c.26-.45-.15-.76-.38-1.12-.74-1.14-.67-1.17.48-1.94,1.34-.9,2.68-.53,4.07-.27,2.19,2.46,2,5.2.74,8a3.4,3.4,0,0,1-3.06,2.33,2.72,2.72,0,0,0-.94.35,21,21,0,0,1-3.06-2.91c-.73-1-1-2.39-1.71-3.57a4.16,4.16,0,0,0,0,.75,41.2,41.2,0,0,1,1,5.3c.07,1.45.18,3-1.12,4.28-.58.55-.77,1.5-1.23,2.21a14.94,14.94,0,0,0-1.94,5.64,6.77,6.77,0,0,0,1.39,5.17,3.09,3.09,0,0,0,.12-.8,21.09,21.09,0,0,0-.44-3.12,5,5,0,0,1,.53-3.76c.87-1.63,1.82-3.22,2.77-4.82.37-.63.75-.67,1.35-.19a8.47,8.47,0,0,1,.74.75,17.25,17.25,0,0,0,1.91,1.91c2.79,2.06,4.71,4.88,6.81,7.56,1.57,2,3.38,3.83,5.11,5.71,2.37,2.58,4.77,5.14,7.15,7.72a3.57,3.57,0,0,1,.42.76"/><path class="cls-1" d="M125.42,276.6c.86-3.82,3.6-6.51,5.76-9.53,1-1.45,2.29-2.74,3.52-4.19a10.71,10.71,0,0,1,.32,4.57,27.86,27.86,0,0,0,.24,6,11.64,11.64,0,0,0,1.6,3.17Z"/><path class="cls-1" d="M135.35,43.64l.08-1.14,2.17-1.22,1.86,1.63,1.47-.38a4.71,4.71,0,0,1,2.91-.17,3.2,3.2,0,0,0,1.77,0c.74-.18,1.39-.35,1.84.6,1.07-1.85,2.63-.82,4-1l.39-1.5,1.21.92c.27-.15.71-.24.84-.49.76-1.44,1.86-1.25,3.09-.79a14.1,14.1,0,0,0,1.47.38,4.08,4.08,0,0,0,.35-.54c.45-1,.51-1,1.52-.72,1.18.35,2.4.57,3.6.85a9.86,9.86,0,0,0,2.42.37,4.73,4.73,0,0,0,.8.88c.31.21.83.47,1.07.35a3.5,3.5,0,0,1,1.88-.32c1.54.05,1.81,0,2.51,1.1a14.52,14.52,0,0,0,1,1.17c.29-.89-.46-1.63.4-2.21.5-.34-.51-1.41.57-1.82.8.68.71,2.16,2.09,2.56V41.09l1.45.68.2-.91s.13,0,.13,0a8.82,8.82,0,0,0,3.51,3.11l-.78-2.08c2,0,2.52,2.22,4.27,2.53l1.39-.79-.24,2.16,2-1.4a6.8,6.8,0,0,0-.08,3.33,2.21,2.21,0,0,1-.09,1,1.68,1.68,0,0,0,.4,1.78c.58.65,1.08,1.2,1.94.69,1.15,2,.75,4.17,1.14,6.21a3.9,3.9,0,0,1-.37,1.88,2.22,2.22,0,0,0,.07,2c1.34,2.51,2.62,5.07,3.91,7.61q.88,1.74,1.7,3.52a4.7,4.7,0,0,1,.39,1.29c.13.95-.17,1.33-1.13,1.31a9.59,9.59,0,0,1-2.37-.33,4.21,4.21,0,0,0-3.57.67,16.53,16.53,0,0,1-4.83,2.37,2.14,2.14,0,0,0-.85.57,3,3,0,0,1-1.85.87c-1.32.12-2.08,1.3-3.22,1.79-.81.35-1.6.77-2.41,1.13-.27.12-.62.12-.85.29A9.25,9.25,0,0,1,173,83.61a10,10,0,0,1-6.72-.67,53.65,53.65,0,0,0-5.31-2.07,12.37,12.37,0,0,0-4.29-.55c-4.09.31-8.2.63-12.23,1.32a36.38,36.38,0,0,0-14.14,5.63,6,6,0,0,1-3.09,1.42A1.69,1.69,0,0,1,126,88.3a5.06,5.06,0,0,1-1.62-2.78,2.4,2.4,0,0,0-.43-1.25,3,3,0,0,1-.74-2,3.18,3.18,0,0,0-.61-1.48,2.71,2.71,0,0,1-.34-2.44c.8-2.17.55-4.45.8-6.67a6.94,6.94,0,0,1,.18-1.31,6.32,6.32,0,0,0,.35-3.1,3.3,3.3,0,0,1,.15-1.17,20.69,20.69,0,0,0,.54-2.62c.14-2.07.15-4.14.25-6.21a2.48,2.48,0,0,1,.37-1.24,2,2,0,0,0-1.42-3l-1.21-.24c-.34-.87.08-1.25.73-1.62,1,1,1.88.28,2.82-.36-.06-.1-.14-.21-.19-.32s-.1-.24-.15-.36c1.25-.29,2.48-.5,3.65-.86a5.89,5.89,0,0,0,1.4-.9l-1.29-2.92,3.52.28a9.11,9.11,0,0,1-.25-1c-.09-.71.16-1,.89-1.08S134.58,43.64,135.35,43.64Zm41.37.73v1.28l.28,0-.28-1.24-1.21-2.18C175.48,44.11,175.49,44.13,176.72,44.37Z"/><path class="cls-1" d="M163.36,119.79a32.81,32.81,0,0,1,2.65-2.1,17.06,17.06,0,0,0,3.7-3.7c1.54-1.85,3.06-3.71,4.58-5.57a10,10,0,0,1,3.81-2.85,6.12,6.12,0,0,0,1.78-1.28,1.16,1.16,0,0,1,1.47-.34,14.23,14.23,0,0,1,1.79,1.07,10.46,10.46,0,0,1,1.61,1.34,1.92,1.92,0,0,0,1.72.57,9.27,9.27,0,0,1,2.23.4c-.18,1.32-.39,2.44-.49,3.57a3.44,3.44,0,0,0,.8,2.8c.65.69,1.32,1.37,2,2.08q2.52,2.77,5,5.57a.94.94,0,0,1,.26.52,30.72,30.72,0,0,1,.07,3.43c-.15,2.11-1.72,3.5-2.66,5.19a3.24,3.24,0,0,1-2.15-2.21c-.06-.27-.63-.43-1.12-.74.25-1-.5-1.65-1.51-2-2-.63-3.93-1.17-5.92-1.7a7.73,7.73,0,0,0-4.42.3,17.5,17.5,0,0,1-8.61.43,4.29,4.29,0,0,1-1.32-.66c-1-.6-1.91-1.29-2.92-1.81A4.86,4.86,0,0,1,163.36,119.79Z"/><path class="cls-1" d="M142.71,100a7.61,7.61,0,0,1,2.85-2.47,103.44,103.44,0,0,1,13.55-5.32,10.81,10.81,0,0,0,2.34-1.27,40.83,40.83,0,0,1,4.2-1.93,3.29,3.29,0,0,0,1.26-.74c1.42-1.84,3.21-2,5.25-1.36,1.09.32,2.24.46,3.34.75a14.4,14.4,0,0,1,3,1,5.17,5.17,0,0,0,3,.72,3.86,3.86,0,0,1,2.41.69c.69.4,1.4.76,2.06,1.11l-1.07,3.08c-.29.32-.75.89-1.28,1.39a17.93,17.93,0,0,1-2.07,1.72,3.73,3.73,0,0,0-2,3c0,.85-.49,1.09-1.38.87-2.37-.59-4.54,0-6.72.9-1.26.5-2.59.84-3.88,1.28a7.6,7.6,0,0,0-1.23.56,4.48,4.48,0,0,1-3.35.49c-2.41-.64-4.9-1.06-7.13-2.28-.09,0-.21-.06-.27-.12-1.28-1.28-3-1.52-4.64-1.93a8.85,8.85,0,0,0-3.85-.27A32.35,32.35,0,0,1,142.71,100Z"/><path class="cls-1" d="M132.25,92.77l-2,1.3.43-1.57-1.52-1.38a3.18,3.18,0,0,1,.53-.42c2.14-1,4.29-1.91,6.43-2.87a8,8,0,0,0,2.47-1.61,3.75,3.75,0,0,1,2.44-.88,16.29,16.29,0,0,0,4-.65,38.24,38.24,0,0,1,5.19-.69c1.38-.15,2.76-.24,4.14-.37a2,2,0,0,0,.72-.2c1.46-.77,2.9-.43,4.38,0,1,.26,2.06.33,3.08.51a24.3,24.3,0,0,1,2.49.52c.28.08.49.43.81.73a3.6,3.6,0,0,1-2.29,1.16,3.32,3.32,0,0,0-1.86.86c-.87.74-1.8,1.41-2.72,2.09a1,1,0,0,1-.7.17,4.23,4.23,0,0,0-2.54.67c-1.43.58-2.92,1-4.39,1.48-1.28.41-2.78.53-3.8,1.29A12,12,0,0,1,143.86,95c-.77,1.68-2.65,1.39-3.91,2.19-.67.43-1.4.76-2.06,1.19-.91.59-1.05.58-1.8-.13-.5-.48-1.06-.89-1.59-1.34a5.13,5.13,0,0,1-1.91-3.13A7.44,7.44,0,0,0,132.25,92.77Z"/><path class="cls-1" d="M195.68,171.66a5.1,5.1,0,0,0-1.72,4.21,5.48,5.48,0,0,0-3.48,1.88c-.85,1-2.07.86-3.18-.14-.81-.74-1.67-1.42-2.46-2.18a3.88,3.88,0,0,1-.93-1.3,11.4,11.4,0,0,1-.61-2.32c-.12-.73-.28-1.38-1.15-1.64a2.81,2.81,0,0,0-.28-2.91,2.57,2.57,0,0,1,.34-3c1.31-1.71,2.52-3.48,3.81-5.2a11.47,11.47,0,0,1,1.28-1.23c.65.69,1.2,1.31,1.79,1.89s1.28,1,1.48,1.94c.14.71,2.25,1.24,3.05.92,1.9-.76,2.3-.7,3.68.75a9.77,9.77,0,0,1,2.4,7.22,2,2,0,0,1-2.95,1.76A10.5,10.5,0,0,1,195.68,171.66Zm.06-4.7c-.38-1-.72-2.06-1.73-2.41a2.4,2.4,0,0,0-1.67.12c-.21.1-.18.89-.12,1.34a6,6,0,0,0,.5,1.28c.29-1,.83-1,1.5-.78Z"/><path class="cls-1" d="M171.9,85.61c1.48-.79,2.78-1.82,4.73-1.68a6.82,6.82,0,0,0,4.86-1.57,1.74,1.74,0,0,1,1.48-.54,2.13,2.13,0,0,0,1.16-.24,31.45,31.45,0,0,0,4.16-2,45.68,45.68,0,0,1,4.62-2.35,9.5,9.5,0,0,0,1.23-.85c1.28-.94,2.41-.82,3.28.54A22.5,22.5,0,0,1,199,80.21a1.25,1.25,0,0,1-.22,1,11.51,11.51,0,0,0-1.52,4.49,8.56,8.56,0,0,1-2.45,4.06,2.15,2.15,0,0,1-2.51-.06,5.16,5.16,0,0,0-4.48-1.08c-1,.17-1.71-.58-2.37-1.13a3,3,0,0,0-2.75-.65,7.59,7.59,0,0,1-6.22-1.33,1.55,1.55,0,0,0-1.91-.16,6.88,6.88,0,0,1-1.37.61,7.28,7.28,0,0,1-1.21.18Z"/><path class="cls-1" d="M163.61,217.11c-.06.39-.14.79-.19,1.18-.14,1.29-.29,2.58-.41,3.87-.06.6,0,1.21-.12,1.8a5,5,0,0,1-2.45,3.89,16.61,16.61,0,0,0-2.77,2.5,7.48,7.48,0,0,1-1.14,1,1.62,1.62,0,0,1-2.17-.16,13.36,13.36,0,0,0-2.14-1.37c-1.78-1.09-2.19-2-1.58-4,.82-2.68,1.7-5.34,2.66-8a4.3,4.3,0,0,1,1.35-1.72c1.24-1,2.57-1.89,3.87-2.83a1.34,1.34,0,0,1,2.17.32,5,5,0,0,0,2.06,1.91A1.6,1.6,0,0,1,163.61,217.11Z"/><path class="cls-1" d="M179.49,140.77a2.27,2.27,0,0,1,1-2.09c1.51-1.16,3-2.38,4.44-3.57a4.15,4.15,0,0,1,.88-.56c1-.44,1.68-.31,2.18.76a26.56,26.56,0,0,1,2.47,6.56,14.86,14.86,0,0,0,.94,2.84,2.9,2.9,0,0,1-.33,2.7,21.58,21.58,0,0,1-4,4.44c-.36.35-.73.68-1.08,1a2.34,2.34,0,0,1-3.7-.46,12,12,0,0,1-1.8-5.33C180.35,145,179.84,142.89,179.49,140.77Z"/><path class="cls-1" d="M161.58,107.2a20.17,20.17,0,0,0,2.29-.18q2.34-.47,4.65-1.06a19.2,19.2,0,0,0,3-1,16.56,16.56,0,0,1,4.17-1.14,6.52,6.52,0,0,1-.78.94A67.06,67.06,0,0,0,168.2,111c-2.37,2.36-5,4.43-7.63,6.56a2.67,2.67,0,0,1-3.19.25c-2-1-4.1-1.58-6.16-2.37-.83-.32-1.63-.71-2.52-1.1l.51-1.65a11.14,11.14,0,0,1,1.51-.19c2.83,0,5.29-1.13,7.71-2.38.4-.21.79-.44,1.2-.63C161.21,108.79,161.31,108.67,161.58,107.2Zm-6.87,5.62a4.34,4.34,0,0,0,.57.43,1,1,0,0,0,.31-.4c0-.06-.17-.27-.26-.26A2.52,2.52,0,0,0,154.7,112.82Z"/><path class="cls-1" d="M160.29,200.09a2.79,2.79,0,0,1-.17-1.1,16.25,16.25,0,0,1,1.12-3.36A8,8,0,0,1,163,193.9a1.87,1.87,0,0,1,.76,2.69c.74.11,1.37.19,2,.29a1.73,1.73,0,0,1,1.51,1.76c0,1,0,1.91-.06,2.85a7.8,7.8,0,0,1-1.31,3.74,18,18,0,0,1-3.35,4c-1.24,1.07-1.63,1.1-3,.31-.61-.34-1.26-.61-1.9-.9a1.1,1.1,0,0,1-.68-1.48c.85-1.76.77-3.86,2.05-5.44Zm1.28-.76c.79-.43,1.24-.83.93-1.82A1.73,1.73,0,0,0,161.57,199.33Z"/><path class="cls-1" d="M115,68.41c-.19-.65-.49-1.48-.67-2.34a5.5,5.5,0,0,1,.05-1.37c.78.09,1.45.37,1.88.16s.62-.92,1-1.61a3.39,3.39,0,0,0,.61-.18A1.8,1.8,0,0,0,119,60.43a13.41,13.41,0,0,0-.75-2c-.38-.66-1-1.17-1.34-1.86a10,10,0,0,1-.38-2.36,1.81,1.81,0,0,1,2.18-.44,1.37,1.37,0,0,0,1.5-.28c1.08-.82,1.63-.52,1.8.84.09.73.15,1.51-.53,1.9-1.27.73-.92,1.82-.42,2.58,1,1.56.71,3.22.78,4.86,0,1.08-.44,2.18.11,3.25a.75.75,0,0,1,0,.44c-.5,2.54-1,5.09-1.53,7.62a9.07,9.07,0,0,1-.61,1.85c-.27.6-.77.61-1.15.08a3.43,3.43,0,0,1-.26-.54A15.2,15.2,0,0,1,117,70.21a3.68,3.68,0,0,0,0-1c-.15-.44-.36-1.09-.68-1.19S115.42,68.27,115,68.41Z"/><path class="cls-1" d="M175.82,171.34l1.24.86,3.34-3.35a5.78,5.78,0,0,1,.43,5.82,11.73,11.73,0,0,1-.75,1.44,3.62,3.62,0,0,1-1,1.06,16.68,16.68,0,0,1-1.78.78,4.37,4.37,0,0,1-5.64-1.28,3.67,3.67,0,0,1-1.15-3.25,2.3,2.3,0,0,0,0-.6c-.18-2.27,1.21-3.59,2.87-4.75a1.45,1.45,0,0,1,.52-.29c1.72-.3,2.48-.15,2.32,1.74A12.31,12.31,0,0,1,175.82,171.34Z"/><path class="cls-1" d="M169.58,140.83l-2.22,1.87a5,5,0,0,0-1.95,2.31c.54-.17,1.08-.31,1.61-.5,1-.35,2-.77,3-1.07s1.7.16,1.44,1.29a4.52,4.52,0,0,1-1.5,3,6.67,6.67,0,0,0-1.19,1.34,3.08,3.08,0,0,1-2.92,1.17,6.49,6.49,0,0,1-5-3,3.57,3.57,0,0,1-.6-2c.13-3.81,1.92-5.52,5.54-5.67.65,0,1.3.06,2,.07A1.94,1.94,0,0,1,169.58,140.83Z"/><path class="cls-1" d="M166.52,225.49l-2.67,1.44c.09-1.62,1.25-2.15,2.12-2.93-1.44-.06-1.85-.42-2-1.81a6,6,0,0,1,.68-3.63,3,3,0,0,1,1.79-1.49,3.49,3.49,0,0,0,1.36-.6c1.55-1.38,3.24-1,4.9-.39a1.93,1.93,0,0,1,1,1.19,7.69,7.69,0,0,1-.63,5.81c-1.22,2.14-3.27,2.63-5.46,2.87C167.31,226,166.93,225.66,166.52,225.49Zm2.95-4.11c-.78,0-1.06.49-1.45,1.11A1.19,1.19,0,0,0,169.47,221.38Z"/><path class="cls-1" d="M155.33,193.57c-2.57-.67-3.86-2.31-3.67-4.84.07-1,.34-1.39,1.37-1.4a29.13,29.13,0,0,1,4.16.3,25.65,25.65,0,0,1,2.9.7,1.84,1.84,0,0,1,1.54,1.18l-1.16.7c.48,1,1.19,1.2,2,.69a10.11,10.11,0,0,0,1.29-1c1.75-1.56,3.8-1.6,5.94-1.22.48.09.47.12.9,1.12-1.61.15-1.76,1.31-1.8,2.58a10.07,10.07,0,0,1-.26,2.08c-.33,1.35-1,1.47-2.18.32l1.3-1.5a.64.64,0,0,0-1-.32,2.82,2.82,0,0,1-2.44,0,5.19,5.19,0,0,0-3.37-.4,1,1,0,0,1-.72-.06c-1.15-.64-2.3-1.3-3.41-2-.27-.17-.42-.53-.76-1C154.95,190.85,156.24,192.3,155.33,193.57Z"/><path class="cls-1" d="M137,243c-1.69.91-3.72.74-5.06,2.31a1.11,1.11,0,0,0,1.42.54c.62-.19,1.25-.37,1.86-.59s1.1-.29,1.34.22a1.91,1.91,0,0,1,0,1.54,5.06,5.06,0,0,1-4.74,2.61,11.08,11.08,0,0,0-1.76.12,2.35,2.35,0,0,1-2.43-.77,2.49,2.49,0,0,1-.49-2.77,17.58,17.58,0,0,0,1.06-3c.56-2.27,2.45-2.85,4.57-3.16.39-.06.8,0,1.19-.05A2.84,2.84,0,0,1,137,243Z"/><path class="cls-1" d="M152.09,203.82c-.68,1.65.51,2.87.93,4.22-1.61,1.34-3.3,1.27-5.41-.25a1.77,1.77,0,0,0-.26-2.13,3.55,3.55,0,0,1-.09-3.72,2.06,2.06,0,0,1,2.18-1.26,3.86,3.86,0,0,0,1.84-.37,3.75,3.75,0,0,1,5,1.3,5.51,5.51,0,0,1,.74,3.6c-.1.59-.25,1.21-1,1.32a1.39,1.39,0,0,1-1.62-.79,8,8,0,0,0-.72-1.14A1.55,1.55,0,0,0,152.09,203.82Z"/><path class="cls-1" d="M189.2,130.73c-.6,1.45-2.11.36-2.59,1.48a5,5,0,0,0-5.06-1l1,.52.57.32c-.13.38-.14.56-.24.65-.88.81-1.76,1.63-2.69,2.37a1.18,1.18,0,0,1-1,.2c-.27-.16-.36-.66-.46-1,0-.17.09-.38.14-.57.13-.5.6-.93.21-1.54s-.67-1.37-1.52-1.76a10.2,10.2,0,0,1-3.62-2.76,5.46,5.46,0,0,1,2.62-.38,22.49,22.49,0,0,0,2.82-.22,6.35,6.35,0,0,1,3,0,17.47,17.47,0,0,1,5.82,2.67A11.65,11.65,0,0,1,189.2,130.73Z"/><path class="cls-1" d="M118.62,91.48c.27,1.94.63,2.27,2.12,2.13.49,0,1-.24,1.45-.32s1.23-.16,1.88-.23c-.09,2.8-1.21,4.13-3.77,4.49a3.36,3.36,0,0,1-3.2-1.5A6.5,6.5,0,0,1,116,90.88a6,6,0,0,1,3-3.8,2.2,2.2,0,0,1,2.83.86,8.5,8.5,0,0,0,1.06,1.23c.17.18.46.26.58.46.21.36.53.83.43,1.15a1.45,1.45,0,0,1-1,.7,7.84,7.84,0,0,1-1.64,0Z"/><path class="cls-1" d="M194.47,116.24l-1.3-.47a1.77,1.77,0,0,1,2.1-.13c.6.36,1.23.65,2,1.05-.29-.84-.9-1-1.46-1.28-1-.45-1.06-1.09-.25-1.81a3.22,3.22,0,0,1,4.12-.25,7.14,7.14,0,0,1,3.12,6.75,2.58,2.58,0,0,1-4,1.89,9,9,0,0,1-3.64-3.68A19.14,19.14,0,0,1,194.47,116.24Z"/><path class="cls-1" d="M150.12,123.85c.35.69.61,1.21,1.4.78s1.42-.42,1.9-1.12c.21-.31.69-.45,1.06-.68.62,1.28.61,1.65-.21,2.36a8.42,8.42,0,0,1-2.4,1.76,6.35,6.35,0,0,1-3.2.27,4.54,4.54,0,0,1-3.06-2.44,3.43,3.43,0,0,1,2.24-4.66c.23-.06.61-.11.71,0,.71.84,1.44.34,2.18.11,1-.31,1.92-.11,3.37.78a23.29,23.29,0,0,1-1.89,1.67A20.33,20.33,0,0,1,150.12,123.85Z"/><path class="cls-1" d="M193.54,140l2.68,1.78c-.18-1-.31-1.54-1.07-1.75a4.51,4.51,0,0,1-.93-.46c-1-.55-1.13-.94-.76-1.9.27-.71.64-.85,1.72-.65.34.06.69.11,1,.18a3.58,3.58,0,0,1,2.93,2.24,8.91,8.91,0,0,1,1.06,4c-.15,2.31-1.45,3.53-3.68,3.14a1.58,1.58,0,0,1-1-.54A11,11,0,0,1,193.54,140Z"/><path class="cls-1" d="M144.82,222.23c0-.05.18-.28.12-.35a.59.59,0,0,0-.48-.24c-.89.25-1.77.55-2.74.86.16,1,1.37.9,1.64,1.66.16.53.28,1.07.48,1.59.3.8.11,1.19-.68,1.25a4.76,4.76,0,0,1-4.78-3.67,2.38,2.38,0,0,1,.69-2.19,5.44,5.44,0,0,1,6.84-1.17A5.64,5.64,0,0,1,149,224.5c0,.49,0,1.06-.57,1.26a1.08,1.08,0,0,1-1.28-.54c-.23-.33-.43-.68-.67-1C145.94,223.59,145.42,223,144.82,222.23Z"/><path class="cls-1" d="M172.62,198.57l-3.43,3.61c-.83-.58-.54-1.28-.29-1.88a9.93,9.93,0,0,1,1-1.67c.39-.58.82-1.12,1.28-1.74l-.59-.23c.5-1.7.55-1.73,3.79-2.55a3.15,3.15,0,0,1,.57.78,8,8,0,0,1-1.51,7.87A5.22,5.22,0,0,1,171.1,204a1.37,1.37,0,0,1-1.17-.36c-.15-.15,0-.79.2-1.07.66-.88,1.41-1.69,2.12-2.52C172.56,199.71,173,199.4,172.62,198.57Z"/><path class="cls-1" d="M133.47,107.1l2.37.47a2.63,2.63,0,0,1-.88,1.64,7.58,7.58,0,0,1-.93.75c-1.76,1.26-2.16,1.25-4,.13a2.4,2.4,0,0,1-1.33-2.46,16.63,16.63,0,0,0-.1-2.39,2.27,2.27,0,0,1,1.3-2.33,7.47,7.47,0,0,1,3.78-.77c.4.72-.07,1.21-.52,1.66s-.78.63-1.14,1a1.52,1.52,0,0,0-.44,1.77c.27.67.89.73,1.52.67l.45-.07Z"/><path class="cls-1" d="M190.35,104.2l-.05-1a1.12,1.12,0,0,0-.37-.17c-.73,0-1.27-.28-1.32-1.12a1.75,1.75,0,0,1,1.24-1.84,8.33,8.33,0,0,1,1.43-.1l.14-1.8a2.75,2.75,0,0,1,2.54.14,5.14,5.14,0,0,1,1.17.68,2.21,2.21,0,0,1,.32,3.6A7.14,7.14,0,0,1,190.35,104.2Z"/><path class="cls-1" d="M149.16,108.42l-1.09-.38c-.41-1.72,1.58-2.18,1.62-3.53,2.88-.71,5-.08,6.27,1.79-.6.64-1.17,1.31-1.79,1.91a9,9,0,0,1-5.58,2.27Z"/><path class="cls-1" d="M181.89,160.37c-1.32-1-2-1.89-1.72-3.35a9.35,9.35,0,0,0-.23-1.91c0-.8.29-1.21,1-1.11a15.57,15.57,0,0,1,2.84.79.83.83,0,0,1,.46,1.12,19.65,19.65,0,0,1-1,3C183,159.47,182.39,159.87,181.89,160.37Z"/><path class="cls-1" d="M146.54,236.87c.64-1.5,1.24-3,1.95-4.5a1.65,1.65,0,0,1,1-.66c1.32-.31,2.3.43,3.23,1.21a.7.7,0,0,1,.08,1.06,3.8,3.8,0,0,1-.53.53c-1.57,1.42-3.67,1.67-5.41,2.73Z"/><path class="cls-1" d="M179.37,187.69a4.7,4.7,0,0,1-4.4.56,3.16,3.16,0,0,0-2.69.12,3.57,3.57,0,0,1-3.3-.28.53.53,0,0,1,0-1,4.49,4.49,0,0,1,2.77-1l4.92.42A6.76,6.76,0,0,1,179.37,187.69Z"/><path class="cls-1" d="M157.53,233l4.63-2.68a5.87,5.87,0,0,1-.16,5.18C160.63,235.41,159.59,234.84,157.53,233Z"/><path class="cls-1" d="M191.71,157c-1.47-.26-2.38-1.25-3.45-2a.75.75,0,0,1-.24-.52c-.06-.76,1.28-2.52,2-2.41a2.11,2.11,0,0,1,1.35,1A4.69,4.69,0,0,1,191.71,157Z"/><path class="cls-1" d="M194.66,176.57c.93.44,1.28.93.82,1.76a4.88,4.88,0,0,0-.23.71c-.54,1.45-.85,2.17-2.83.83A5.06,5.06,0,0,1,194.66,176.57Z"/><path class="cls-1" d="M158.53,211.78l-2.1,1.48.38.43-1.43-.11a3.51,3.51,0,0,1,.62-2.74.8.8,0,0,1,1.2-.09C157.62,211.07,158,211.41,158.53,211.78Z"/><path class="cls-1" d="M187.62,180.09c-.74,1.77-1,2-2.47,2.29-.08-.36-.19-.72-.25-1.09-.09-.54-.63-1.17.08-1.61a1.71,1.71,0,0,1,2.09,0Z"/><path class="cls-1" d="M147.51,227.8a4.18,4.18,0,0,1,3.93,2.9A4.65,4.65,0,0,1,147.51,227.8Z"/><path class="cls-1" d="M163.7,212.21c-.73-.21-1.3-.56-1.26-1.2,0-.87.92-1,1.52-1.45C164.28,210.82,164.28,210.82,163.7,212.21Z"/><path class="cls-1" d="M141.47,110.65l-2.31-1.13c.6-1.18.78-1.24,1.46-.51.4.42.73.9,1.09,1.35Z"/><path class="cls-1" d="M143.56,108c-.31-.43-.63-.68-.63-.92a.71.71,0,0,1,.9-.72c.23,0,.58.5.54.69S143.94,107.63,143.56,108Z"/><path class="cls-1" d="M166.73,39c1,.07,1.44.27,1.22,1.2C167.24,40.23,167,39.77,166.73,39Z"/><path class="cls-1" d="M131.81,43c.32-.47.45-1.29,1.54-.59L132,43.3Z"/><path class="cls-1" d="M128.77,47.42h-1.25C128.17,46.74,128.17,46.74,128.77,47.42Z"/><path class="cls-1" d="M139.93,209.61l-1.52.58c.24-1.15.75-1.19,1.36-1Z"/><path class="cls-1" d="M133.51,107.14a6,6,0,0,1,.56-1c.09-.12.41-.06.62-.08,0,.21,0,.56-.06.62a7,7,0,0,1-1.16.43Z"/><path class="cls-1" d="M133.37,97.42l-.76-.74c.8-.11.92.18,1,.48Z"/><path class="cls-1" d="M193.59,50.38l-.66.69-.25-.21.59-.74Z"/><path class="cls-1" d="M117.17,61.5c.12.25.23.38.21.47s-.16.23-.24.34c-.1-.08-.29-.18-.27-.22A3,3,0,0,1,117.17,61.5Z"/><path class="cls-1" d="M127.82,49l-.24-.26c.07,0,.17-.15.22-.13a1.15,1.15,0,0,1,.29.21Z"/><path class="cls-1" d="M119.15,84.43l.05-.78h.27l0,.77Z"/><path class="cls-1" d="M162.2,227.36l.57-.33c.06.11.2.24.17.31a.51.51,0,0,1-.31.27C162.54,227.63,162.42,227.49,162.2,227.36Z"/><path class="cls-1" d="M123.64,49.7c-.13.08-.24.18-.28.16a1.4,1.4,0,0,1-.3-.25c.08,0,.17-.14.23-.13A1.54,1.54,0,0,1,123.64,49.7Z"/><path class="cls-1" d="M176.73,44.36c-1.24-.23-1.25-.25-1.22-2.15l1.21,2.18Z"/><path class="cls-1" d="M176.72,44.38l.28,1.24-.28,0c0-.43,0-.86,0-1.29Z"/><path class="cls-1" d="M195.73,167l-1.51-.45c-.68-.21-1.22-.18-1.5.78a6,6,0,0,1-.5-1.28c-.07-.45-.1-1.24.12-1.34a2.4,2.4,0,0,1,1.67-.12C195,164.9,195.35,165.91,195.73,167Z"/><path class="cls-1" d="M154.7,112.82a2.52,2.52,0,0,1,.62-.23c.08,0,.28.21.26.26a1,1,0,0,1-.31.4A4.34,4.34,0,0,1,154.7,112.82Z"/><path class="cls-1" d="M161.57,199.33a1.73,1.73,0,0,1,.93-1.82C162.81,198.5,162.36,198.9,161.57,199.33Z"/><path class="cls-1" d="M169.47,221.38a1.19,1.19,0,0,1-1.45,1.11C168.4,221.87,168.68,221.41,169.47,221.38Z"/></g></g></svg>