<svg xmlns="http://www.w3.org/2000/svg" viewBox="0 0 328.28 247.95"><defs><style>.cls-1{fill:none;stroke:#000;stroke-miterlimit:10;stroke-width:0.5px;}</style></defs><title>Asset 22</title><g id="Layer_2" data-name="Layer 2"><g id="Pics"><path class="cls-1" d="M328,181.63c0,.48-1,1.36-1.59,1.37-2.08,0-4.05.25-6.26-.49-3.46-1.17-7.29-1.29-11-1.79a50.92,50.92,0,0,0-5.8-.54c-8.14-.16-16.29-.21-24.43-.36-4.13-.08-8.26-.42-12.39-.41-6.54,0-13.08.32-19.63.31-7.64,0-15.29,0-22.92-.41-4.07-.2-8.13,1.18-12.18-.06a9.11,9.11,0,0,0-2.77-.37c-5.9.1-11.8.32-17.7.39-5,.05-10,0-14.93-.11s-10-.2-15-.34c-1.52,0-3.32.85-4.31-1.24-.08-.16-.91-.14-1.28,0-2.58,1.24-6.07,1.13-7.09,4.73-.09.32-.61.53-1,.83l-.74-1.64c-.37,2.84-.37,2.84-2.83,4.46-1.53,1-1.9,1.76-1.7,2.69l6.74-.45c.23,0,.58,0,.67.12,1.39,2.07,3.43.72,5.15,1,.7.11,1.39.25,2.35.42-2.42,1.68-5.95-.9-7.23,2.38l.38.82,3-1.69.77.24c-3.63,2.21-1.27,4.69-1,7.1.41,4.08.81,8.18,1,12.27.18,3.73.11,7.46.12,11.2,0,2.41-.87,5.28.15,7.11a5.68,5.68,0,0,1,.41,5.2,6,6,0,0,0,.92,5.46c1.34,2.12,1.19,5.18,1.7,7.83H135.21c.15-.18.47-.43.43-.52-.79-1.79-2.49-2.62-4.81-2.24l1.68,1.33-4.54-.56,0,.66,2.58,1.33H123c.71-.92,1.44-1.82,2.14-2.76a19.46,19.46,0,0,0,2.1-3,27.55,27.55,0,0,0,1.21-3.82,16.83,16.83,0,0,0-.12-3.55c-.13-1.34-.31-2.68-.35-4,0-1.1.43-2.3.12-3.28-3-9.71-2.71-19.72-2.75-29.7a3.38,3.38,0,0,1,.16-1.14c.75-2.07.08-3.39-1.93-4.16a9.91,9.91,0,0,1-2.55-1.58c-.32-.26-.61-1-.46-1.27a1.64,1.64,0,0,1,1.29-.72,19.76,19.76,0,0,1,5,.74c1.9.68,3.11.46,3.59-1.33l4.68,1.61-3.87,1.22c1.86,0,3.38.11,4.89,0a5.72,5.72,0,0,0,5-4.39c.1-.38.18-.76.25-1.14,2.16-11.32,4.4-22.63,6.42-34,.82-4.6,1.18-9.28,1.76-13.93a18.17,18.17,0,0,1-3.19-1.19c-3.12-1.35-4.51-.74-5.69,2.43-.36,1-.77,1.91-1.15,2.87l-.66-.27,2.56-6.95L131,133.53l-1.34,4.66-.41-.08.34-3.57-2-.52.55-2.05a18.26,18.26,0,0,0,4.09-.8c3.26-1.49,8.17.79,10-4.73-.25,4.56,3.21,2.65,5.09,3.56.44-2.51.9-5.07-1.45-6.87-1.55-1.19-5.25-.73-6.5.3l2.6,1.9c-5.21-.44-10.26,2.83-15.53.47l-2.77,2.11,4.42,2.58c-.76.53-1.43,1.33-2.24,1.5a27.94,27.94,0,0,1-4.64.33c-9.19.31-18.38.63-27.58.87a2,2,0,0,0-2.08,1.67,20.21,20.21,0,0,0-.73,10.38c1.9,9.72,3.85,19.43,5.77,29.15.34,1.71.61,3.44.9,5.07-2.62,0-5-.07-7.28,0-7.09.24-14.17.59-21.26.76a6.49,6.49,0,0,0-5.1,2.6c.47.3.83.57,1.21.77s.79.33,1.18.5l-.07.48H60.55l2.25-4c-2.52-.16-4.53-.2-6.52-.42-1.77-.19-3.51-.72-5.28-.85-5.26-.38-10.53-.53-15.78-1-2.84-.25-5.64-1-8.48-1.41-4.4-.62-8.92-.72-13.2-1.81S4.91,176,.94,173.61c-.16-.1-.46,0-.69.05M262,34.15c.37.15.48.16.51.21.73,1.37,1.39,2.79,2.18,4.12C271.27,49.63,280.8,55.77,294,55.67c1.54,0,2.43-.57,2.25-2.2s1-3.82-1.89-4.25c-8.16-1.23-12.59-6.57-15.1-13.91-1-2.91-1.63-5.85,2-7.62a5.52,5.52,0,0,0,1.34-1.3c6-6.28,6.71-14.53-.45-20.43A23.58,23.58,0,0,0,268.37.82c-8.33-.53-16.69-.5-25-.57a3.42,3.42,0,0,0-2.71,1.43,41.1,41.1,0,0,0-1.53,6.59c-.22,1.12.17,1.78,1.5,1.72,3-.13,4.11.93,4.18,4.07q.31,14.51.47,29c0,3.26-1.35,4.4-4.53,3.79-1.63-.31-2,.4-1.81,1.75s.63,2.9.86,4.36,1.09,2,2.59,2c5.77,0,11.54.1,17.31.2,6.29.1,6.28.12,7.44-5.92,0-.08,0-.15.05-.23.3-1.43.09-2.28-1.75-2-2.09.36-3.35-.64-3.4-2.79C261.94,41,262,37.68,262,34.15ZM140.53,27.59l.93-.4c3.45-1.44,4.47-4.61,4.76-7.77.89-9.83-3.63-15-12.84-17.17-8.95-2.15-18.17-1.1-27.27-.4-.83.06-2,1.28-2.25,2.19a38.64,38.64,0,0,0-1,5.74c-.28,1.7.2,2.34,2,1.77,2.58-.78,4.24.37,4.64,3a22.05,22.05,0,0,1,.17,2.8q.28,14,.55,28.07c.07,3.41-1.19,4.62-4.61,4.56a2.17,2.17,0,0,0-1.7.74c-1.16,2.38,1,6,3.66,6,8.27,0,16.53,0,24.79-.27a14.8,14.8,0,0,0,12.59-7c3.54-5.59,2.75-13.17-1.51-18.33C142.57,30.1,141.7,29,140.53,27.59ZM62.2,2.45V2.37c-3.43,0-6.88-.14-10.3.09a4,4,0,0,0-2.8,1.83A12.81,12.81,0,0,0,48,9c-.05.63.81,1.92,1.25,1.91,3,0,3.81,1.92,3.87,4.26.25,10.21.43,20.42.49,30.63,0,3.25-.85,3.74-3.86,2.62-1.76-.65-2.17.15-1.9,1.65s.82,3.19,1,4.81c.24,2,1.24,2.61,3.14,2.56,6.78-.2,13.57-.17,20.35-.49a20.36,20.36,0,0,0,19-14.53,36.39,36.39,0,0,0-1.31-27c-3.8-8.33-10.24-13.2-19.82-13C67.5,2.48,64.85,2.45,62.2,2.45ZM8.51,31H9c0,5.23,0,10.45,0,15.68,0,1.81-.9,2.88-2.66,2.85a11.38,11.38,0,0,1-3-.89l-1.44-.48a5,5,0,0,0-.33,1.67c.29,1.85.81,3.66,1.06,5.51a2.53,2.53,0,0,0,3,2.51c11.39-.31,22.78-.55,34.16-1a3.52,3.52,0,0,0,2.54-1.81c2.72-6.72,5.24-13.53,7.87-20.29.69-1.78,0-3.14-1.54-3.54-.75-.2-2.18.84-2.79,1.68-1.71,2.41-3,5.11-4.74,7.51A19.42,19.42,0,0,1,29,48.25c-1.66.36-2.55.14-2.59-1.78Q26.3,39.34,26,32.2c-.08-2,.91-2.66,2.74-2.39a10.63,10.63,0,0,1,7.87,5.64c.39.66,1.09,1.57,1.68,1.6,1.7.09,3.48-3.41,2.72-5-1.42-3-2.88-6.06-4.2-9.14a3.08,3.08,0,0,0-3.22-2.16,58.82,58.82,0,0,1-6.08-.05c-.64-.05-1.73-.8-1.74-1.26-.07-2.59.13-5.18.24-7.78a49.88,49.88,0,0,1,7.42,1.47c4.51,1.6,7.61,5,10.2,8.93a2.54,2.54,0,0,0,2.23.88A3.57,3.57,0,0,0,48.17,18c-1.68-4.45-3.47-8.86-5.31-13.25a2.57,2.57,0,0,0-1.62-1.39,38.83,38.83,0,0,0-5.81-.45C26.7,2.89,18,3,9.22,2.9c-6.38-.1-5.6-.72-6.68,6.27-.25,1.6.42,2.24,2,1.85s2.9-.06,3.42,1.55a12.46,12.46,0,0,1,.54,3.68C8.55,21.17,8.51,26.08,8.51,31ZM212.07,55.5h0c5.46,0,10.93.08,16.38-.07a4,4,0,0,0,3-1.58c3.32-6.8,6.46-13.68,9.55-20.58,1-2.3-1.23-2.9-2.45-3.9s-2.14,0-2.86,1c-1.32,1.84-2.54,3.74-3.92,5.53-3.61,4.66-7.88,8.43-13.84,9.72-2.45.53-3,.07-3-2.38-.1-3.74-.07-7.49-.26-11.23-.1-2,.76-2.6,2.63-2.48,3.74.24,7,1.32,9.47,4.36a2.62,2.62,0,0,0,2.24.85,3.54,3.54,0,0,0,1.8-4.87c-1-2.22-2.16-4.35-3-6.61-.75-2.08-2-2.67-4.11-2.52-2.33.17-4.68,0-7,.12-1.6.07-2.51-.31-2.44-2.17s-.07-3.89-.18-5.84c-.21-3.71.53-4.5,4.1-3.32,6.07,2,11.74,4.72,14.64,11.06a2.3,2.3,0,0,0,2.06.9c2.19-1,2.73-2.59,1.82-4.76-1.89-4.54-3.87-9-5.66-13.61a3.55,3.55,0,0,0-3.7-2.58c-2.42,0-4.84.14-7.25.17q-11.7.13-23.4.22c-1.44,0-2.68.21-3,1.94a38.18,38.18,0,0,0-.7,5.09c0,.63.87,1.84,1.3,1.83,2.44-.08,3.18,1.23,3.22,3.33.2,10.51.45,21,.57,31.54,0,2.49-1.21,3.21-4,2.78-2-.32-2.38.09-1.86,2.09a31.38,31.38,0,0,1,.85,3.64c.25,1.81,1.11,2.48,3,2.44C201.46,55.43,206.77,55.5,212.07,55.5ZM167.34.76v.36c-4.92,0-9.83.06-14.75,0-2.07,0-3,.81-3.16,2.82-.15,1.63-.67,3.23-.72,4.85a2.49,2.49,0,0,0,1.23,2c3.78,1.08,4.35,1.61,4.48,5.55q.47,13.91.83,27.83c.11,4.13-.88,4.91-5,4.19-1.59-.28-2,.44-1.65,1.86a28.19,28.19,0,0,1,.84,3.4c.27,2.26,1.46,2.9,3.66,2.85q14.51-.32,29-.36a4,4,0,0,0,4.12-2.7c2.5-5.54,5.11-11,7.75-16.51,1.67-3.48,1.58-3.85-1.47-6.15-1.46-1.1-2.22-.87-3,.74a64,64,0,0,1-4,6.83,19.84,19.84,0,0,1-9.56,7.61c-2.59,1-3.36.49-3.48-2.06-.2-4-.25-8-.47-11.93-.11-2.09,1-2.61,2.58-1.91a32.18,32.18,0,0,1,6.75,3.59c1.63,1.24,2.52,1.27,3.87-.19,1.13-1.22,1.47-2.22.49-3.69a21,21,0,0,1-2.2-4.12c-1.49-3.89-4-5.74-8.29-4.79a13.84,13.84,0,0,1-1.63,0c-1.64.16-2.23-.68-2.26-2.2,0-2.41-.14-4.82-.24-7.22-.07-1.61,1-2,2.14-1.6,2.29.71,4.81,1.23,6.67,2.6a43.53,43.53,0,0,1,7.09,7c1.53,1.81,2.85,1.71,4.62.62s1.34-2.55.62-4c-2-4.13-4.12-8.23-6-12.41A4.38,4.38,0,0,0,181.62.73C176.86.81,172.1.76,167.34.76ZM132.42,102.92l-.23-.82c.88-.92,1.66-2.47,2.67-2.63a34.52,34.52,0,0,1,7.12-.05,11.07,11.07,0,0,1,2.46.68c-.45.77-.9,1.53-1.33,2.31a4.4,4.4,0,0,0-.09,1l4.62,1.17.76-3.48.8-.2,0-.46-3.31-1.22.12-.55h5.16l-3.13-2.83,4.73.34a8.06,8.06,0,0,0-.43-1.7c-.87-1.66-1.28-3.06.08-4.89a8.46,8.46,0,0,0,1.81-5.25c-.29-3.14-1.4-6.22-3.76-8.18-1.71.79-3.24,1.43-4.71,2.21s-4,1.77-3.92,2.46c.44,4.36-3.18,7.23-3.22,11.16l-4.11-.7.18,3.06c-.5-.32-.74-.61-1-.59-.75.06-1.48.24-2.22.37.49.54.88,1.29,1.49,1.57a9.46,9.46,0,0,0,2.72.3c-.61.55-1,1.11-1.21,1.05-1.21-.31-2.39-.77-3.51-1.16a15.59,15.59,0,0,1-.29,3c-1.21,4.28-.43,5.55,4.05,6.29C135.53,103.11,134.61,102.47,132.42,102.92ZM140,202l-.8.19c-1.92,3.18-2.17,4.53-2.07,7.46.18,5.37.07,10.75.32,16.11.13,2.92.79,5.81,1.14,8.72.25,2,.44,4.11.54,6.17.09,1.72,0,3.46,0,5.39h5.69c.22-5.21.45-10.22.61-15.22a21.5,21.5,0,0,0-.31-3.69c-.81-5.62-1.5-11.26-2.54-16.83A69,69,0,0,0,140,202Zm78.37-40.48c-1.22-1.67-47.4-1.17-50.36.22a6.77,6.77,0,0,0,3.13.94c13.53-.35,27.06-.77,40.59-1.15C214,161.44,216.2,161.5,218.42,161.5ZM123.1,100.63c-1.79.79-2.16,3.29-3.28,5.24-.14.24.06.77.24,1.07a4.27,4.27,0,0,0,6.53,1.13c1.21-.94,2.46-1.83,3.83-2.85-1.33-1.44-1.71-3.92-4.63-3.24C125.17,102.13,124.33,101.28,123.1,100.63Zm92.32,68.17a8.64,8.64,0,0,0,2.45,1c.43,0,1.41-.87,1.34-1.12a24.1,24.1,0,0,0-1.79-4.5c-.21-.4-1.12-.52-1.73-.6a14.77,14.77,0,0,0-2.42-.07,3.37,3.37,0,0,0-1.68.25c-.23.15-.21,1,0,1.44,1,1.83,2,3.6,3.29,5.79Zm88.47-3.71.52-.31a5.29,5.29,0,0,0-.43-1.71c-1.58-2.36-1.9-6.07-6.12-5.67-3.57.34-7.15.49-10.72.78a8.7,8.7,0,0,0-1.89.6l.16.72c.83,0,1.65,0,2.48,0,3.17-.08,6.34-.1,9.51-.28a3.81,3.81,0,0,1,4.06,2.44A25.09,25.09,0,0,0,303.9,165.08Zm-110.52,1.26a19.79,19.79,0,0,0-1.74-2c-.28-.25-.84-.2-1.27-.28-.07.41-.31.88-.2,1.24,1.32,4.18,3.45,5.38,8.11,4.42-.71-1.17-1.4-2.25-2-3.37-.39-.68-.71-1.41-1.05-2.12Zm18.29,5.38c-.65-2.07-1-4.49-2.18-6.45-.57-1-2.58-1.15-4-1.49-.32-.08-1.26.84-1.2,1A9.11,9.11,0,0,0,206.2,168,53.26,53.26,0,0,0,211.68,171.72Zm-75.79,67.74c.72-.55,2-1.3,1.89-1.48-.77-1.81-1,.21-1.53.3a2,2,0,0,0-.69.1,11,11,0,0,0-2.47,1.65,17.54,17.54,0,0,0-1.8,2.88l3.79,2.21,2.28-5Zm45.17-73.52,3.41.82c.37-1.54-.08-2.71-1.49-2.63a21.25,21.25,0,0,0-4.87,1.27,3.19,3.19,0,0,0,.29,1.27c.74,1.27,1.54,2.52,2.39,3.73.16.23.88.39,1,.28a1.58,1.58,0,0,0,.35-1.14C181.89,168.5,181.53,167.49,181.06,165.94Zm71.83-5.8,0-1.07-13.86.8,0,.27Zm14,3.17c-2-2-3.79-1.28-5.41-1.14-.34,0-1,1.1-.85,1.34a32.63,32.63,0,0,0,2.26,3.25l.77-.23C263.05,164.18,263.88,163,266.85,163.31Zm11,2.62-.29-.93c-1.66-.13-3.33-.34-5-.3-.33,0-.64,1-1,1.48a29.21,29.21,0,0,0,4.38,1C276.54,167.17,277.19,166.35,277.81,165.93Zm-77.62-1.86c-.58,3.15.16,4.94,2.28,5.85A4.42,4.42,0,0,0,200.19,164.07ZM296.9,167c.55-2.23,0-4.27-1.78-5.47-1.29-.87-3-.83-4.76.77,1.74.36,3.38.27,4.37,1S296.2,165.72,296.9,167Zm-20.39-7.66-.06-.76-12.12.53.05,1ZM147.39,105.86l-.62-.32-4.31,3.29.16.67c1,.15,2.54.76,2.86.37A17.4,17.4,0,0,0,147.39,105.86Zm105,57.73c-1-1.85-3.57-1.9-5.84,0l1.71,1.42,0-.68Zm-13.52,10.79-.06-.68-7.14.62.06.69Zm48.78-11.76c-1.56-2-3-.82-4.51,0ZM177.86,174.79v.44h4.7v-.44ZM135,88.81c-3-2-4-1.87-5.1.81C131.2,87.1,133.2,88.57,135,88.81ZM285.13,168l.86-.3-1.13-2.78-.91.4Z"/><path class="cls-1" d="M.25,202.71c5.18.59,10.36,1.19,15.54,1.77,4.21.47,8.42.91,12.63,1.37l-.08,1.07H.25Z"/><path class="cls-1" d="M257.43,239.21h12l0,.29h-12Z"/><path class="cls-1" d="M282.36,232.44a30.1,30.1,0,0,1-3.34.61c-.46,0-1-.39-1.44-.6.38-.31.77-.9,1.12-.88a38.34,38.34,0,0,1,3.8.54Z"/><path class="cls-1" d="M221.49,232H217v-.34h4.49Z"/><path class="cls-1" d="M99.92,182l-8.3-47.29,1.12-.25a65.39,65.39,0,0,1,1.94,7.3c2,13.08,3.8,26.18,5.68,39.28a6.43,6.43,0,0,1,0,.9Z"/><path class="cls-1" d="M24.84,181.92c2.76-1.33,5.46-.56,8.18-.22,3.46.43,6.93.73,10.38,1.18,3,.39,5.81.32,8.48-1.26a1.33,1.33,0,0,1,1.09.16,18.16,18.16,0,0,1,3.9,3c-2.6.21-5.45,1.23-7.75.49-6.66-2.12-13.48-2.18-20.29-2.68A37.74,37.74,0,0,1,24.84,181.92Z"/><path class="cls-1" d="M124,185.39A3.9,3.9,0,0,1,119.5,187c-.52-.13-1.23-.74-1.47-.57-2.76,1.88-5.28-.12-7.39-.52a6.94,6.94,0,0,0,.78-2.46,58,58,0,0,0-.83-7,3.24,3.24,0,0,0-.9-1.36l1.79-1.71c.17,2.72.41,6,.55,9.19s.1,3.3,3.29,3.19C118.14,185.65,121,185.52,124,185.39Z"/><path class="cls-1" d="M138.88,137.82l-7.73,26.28C133.68,155.33,133.74,145.81,138.88,137.82Z"/><path class="cls-1" d="M110.57,142.58v9.26c-2.33-2.14-2.46-3.08-1-5.52.25-.43,0-1.15,0-1.74s.1-1.44.15-2.17Z"/><path class="cls-1" d="M6.94,178.38,16.56,180c-1.87,1.1-8.21.39-9.83-.94Z"/><path class="cls-1" d="M110.89,153.63v12.62C109.89,165.08,109.43,155.51,110.89,153.63Z"/><path class="cls-1" d="M39.22,197.87H32v-.41c1.37-.56,2.71-1.21,4.12-1.64S38.53,195.92,39.22,197.87Z"/><path class="cls-1" d="M263.75,11.19c4.1.21,6.43,2.4,6.1,5.36a6.48,6.48,0,0,1-7,5.15,2.06,2.06,0,0,1-1.2-1.51c-.18-2.16-.12-4.35-.21-6.52C261.33,11.71,262.27,11,263.75,11.19Z"/><path class="cls-1" d="M125.23,40.15c0-1.94,0-3.89,0-5.83s.94-2.61,2.68-1.83a7.21,7.21,0,0,1,2.86,2.27,10.8,10.8,0,0,1-.43,11.87,5.35,5.35,0,0,1-2.42,1.65c-1.44.45-2.45-.12-2.44-1.83,0-2.1,0-4.2,0-6.31Z"/><path class="cls-1" d="M130.49,17.23a5.37,5.37,0,0,1-1,2.35,17.3,17.3,0,0,1-3.65,2.08,16.9,16.9,0,0,1-1.26-3.44c-.23-1.6,0-3.26-.11-4.89s.72-1.9,2-1.74C128.77,11.85,130.44,13.95,130.49,17.23Z"/><path class="cls-1" d="M69,29.54c0-4.83,0-9.66,0-14.48,0-.7.22-1.81.64-2a2.92,2.92,0,0,1,2.1.55c2.51,1.49,3.32,4.09,3.86,6.69,1.55,7.33,1.86,14.7-.33,22a12,12,0,0,1-2.65,4,2.35,2.35,0,0,1-2.06.63c-.46-.16-.82-1.23-.83-1.9-.07-5.14,0-10.28,0-15.42Z"/><path class="cls-1" d="M146,90.67l3.85-1.16C150.24,91.3,150.24,91.3,146,90.67Z"/></g></g></svg>