<svg xmlns="http://www.w3.org/2000/svg" viewBox="0 0 258.96 387.66"><defs><style>.cls-1{fill:none;stroke:#000;stroke-miterlimit:10;stroke-width:0.5px;}</style></defs><title>Asset 15</title><g id="Layer_2" data-name="Layer 2"><g id="Pics"><path class="cls-1" d="M.25,293.32C5.9,289,11.57,284.61,17.2,280.21Q32.14,268.51,47,256.77c6.91-5.44,13.59-11.19,20.77-16.25C73.2,236.72,78,232.3,82.95,228a38.51,38.51,0,0,1,4-2.38,17.42,17.42,0,0,0,3.84-2.89,50.85,50.85,0,0,1,10.35-9c4.16-2.85,7.56-6.81,11.4-10.39-.49-.42-.7-.73-1-.82-2.7-.92-2.7-.91-.85-2.94s1.77-3.17-.53-4.81c-1.4-1-1.79-5.14-.6-7.25,1-1.86,2.75-1.41,4.35-1,4.67,1.13,9.34,2.25,14,3.47a25.39,25.39,0,0,1,3,1.39,5.1,5.1,0,0,0,3,.41c-6-4.4-10.63-10.72-18.44-12.07.12-.51.13-.8.2-.81,6.3-1.36,12.46-4,19.13-2.09a27,27,0,0,0,4.32.75c2,.23,3.42,1,4,3s2.06,3,4.15,2.37c4.91-1.56,9.84-3.09,14.64-4.93q35-13.36,69.93-26.89c7.63-2.95,15.21-6,22.82-9,1-.4,2.06-.76,3.07-1.13,1.63,4,.85,6-2.88,7a90.1,90.1,0,0,1-12.3,2.78c-7.43.93-13,5.43-19.23,8.88-5.24,2.92-10.45,6.07-16,8.12-9.13,3.34-18.56,5.82-27.84,8.75a19.92,19.92,0,0,0-3.48,1.94,59.91,59.91,0,0,1,6.58,3.15,52.6,52.6,0,0,1,5.3,4.44c-3,1.14-1.67,6.4-6.38,5.9a5,5,0,0,1,1.45.63c.79.71,1.85,1.44,2.11,2.35a19.46,19.46,0,0,1,.24,4.36c.18,3.85,1.78,6.07,5.53,7q31.66,8.12,63.35,16.12c4.27,1.08,4.28,1.07,4.28,5.51q0,26.74,0,53.49c0,.91-.09,1.82-.18,3.61L208.2,248.71l-.4.53c3,2.25,5.9,4.53,8.9,6.73,12.9,9.5,25.79,19,38.76,28.41a6.55,6.55,0,0,1,3.08,6c-.1,31-.06,62-.05,93,0,3.74-.07,3.81-3.72,3.81H66.39c-.43,0-.86,0-1.29,0-2.28.14-2.64-.86-1.93-2.86,2.38-6.65,4.68-13.32,7-20q4.23-12.21,8.41-24.43c8.71-25.56,17.47-51.11,26.08-76.7,5.49-16.32,10.75-32.72,16.11-49.09a1.58,1.58,0,0,0-.2-1.47c-.59,1.4-1.26,2.77-1.77,4.2Q108,247.11,97.21,277.4,78.29,330.71,59.47,384.06c-.82,2.34-2,3.19-4.46,3.18-17.14-.1-34.28-.05-51.42,0-1.11,0-2.23.13-3.34.2Q.25,340.36.25,293.32Zm126.19-66.07h-.1q0-1.42,0-2.84c0-1.8-.51-3.31-2.52-3.65s-2.63,1.31-3,2.81c-.92,3.66-1.73,7.35-2.55,11q-3.49,15.61-7,31.23a88.47,88.47,0,0,0-1.64,8.87c-.14,1.22.53,2.53.84,3.8,1.12-.67,2.26-1.31,3.35-2,1.6-1,3.17-2.14,4.74-3.23,2.66-1.86,5.51-3.59,5.72-7.34Q125.39,246.59,126.44,227.26ZM89,271.72l.94.67a5.19,5.19,0,0,1,.42-1.24c2.82-4.3,5.56-8.67,8.53-12.86,7.06-9.95,10.41-21.6,15.15-32.61.49-1.14.2-2.6.27-3.92l-1-.22a23.58,23.58,0,0,0-1.77,2.63q-10.5,21.12-20.9,42.29A36.94,36.94,0,0,0,89,271.72Zm47.25-19.62.56-.13a9.17,9.17,0,0,0,.12-1.9c-1-6.88-2-13.77-3-20.64a9.12,9.12,0,0,0-1.32-3.85c-.58-.81-1.92-1.08-2.92-1.58-.38.88-1.11,1.76-1.1,2.63.06,7.12.14,14.25.46,21.36a59.87,59.87,0,0,0,1.35,7.81h1l2.46-8.8Zm34.55,81.16.82-.26c-.22-.88-.4-1.77-.66-2.64-1.09-3.63-2.22-7.25-3.32-10.87q-10.16-33.37-20.33-66.73a25.21,25.21,0,0,0-1.45-3.29c-.47-1-1-2-1.48-3a2.56,2.56,0,0,0,0,1.65c7.39,22.19,11.58,45.36,20.58,67.07,2,4.91,3.18,10.19,4.76,15.29C170.05,331.45,170.47,332.35,170.83,333.27Zm-6.32-94.35c.07-3.31-11.65-18.34-15.18-19.68C149.33,222.57,161,237.82,164.5,238.91ZM169.72,186c1.77-2.27,3.13-2.37,5.05-.69.41.35,1.41.62,1.71.38a3.49,3.49,0,0,0,1.26-2.05c.07-.62-.45-1.82-.88-1.91-2.23-.44-4.51-.61-6.77-.84-.16,0-.35.26-.56.43l1.35.73v.62l-4.64.9Z"/><path class="cls-1" d="M258.69.25c-.08,1.11-.22,2.22-.22,3.33q0,20,0,40c0,3.65-.71,4.17-3.85,2.36-2.95-1.69-5.68-3.76-8.53-5.63-1.36-.89-2.79-1.7-4.15-2.59a20.74,20.74,0,0,1-4.15-2.94c-2.91-3.21-6.52-5.24-10.38-7a22.66,22.66,0,0,1-4-3c-1.14-.89-2.23-1.85-3.41-2.68-4.89-3.45-9.6-7.25-14.79-10.17S194.44,7,189,4.71c-2.69-1.1-5.58-1.7-8.33-2.7-.8-.29-1.39-1.16-2.08-1.76Z"/></g></g></svg>